<svg width="1920" height="1080" viewBox="0 0 1920 1080" fill="none" xmlns="http://www.w3.org/2000/svg">
<g clip-path="url(#clip0_76_214)">
<rect width="1920" height="1080" fill="white"/>
<path d="M1068.08 52.443V157.989C1089.26 143.988 1109.37 136.808 1128.75 136.808C1166.45 136.808 1184.4 161.22 1184.4 189.94V294.05L1210.96 299.435V312H1130.19V299.435L1153.88 294.05V200.71C1153.88 171.99 1140.96 161.579 1116.91 161.579C1100.75 161.579 1084.6 166.246 1068.44 175.58V294.05L1092.14 299.435V312H1011.36V299.435L1037.93 294.05V76.137L1011.36 67.162V56.392L1068.08 52.443ZM1244.98 233.02C1244.98 175.58 1283.39 139.321 1329.34 139.321C1364.16 139.321 1386.78 159.425 1396.47 199.633L1382.47 216.506H1278.72V221.891C1278.72 274.305 1301.34 294.768 1334.73 294.768C1352.32 294.768 1369.19 289.024 1385.35 277.536L1390.37 283.639C1374.58 305.179 1352.68 315.949 1324.32 315.949C1274.77 315.949 1244.98 283.28 1244.98 233.02ZM1280.16 200.351H1365.6C1360.93 173.785 1346.21 160.502 1321.44 160.502C1310.67 160.502 1300.26 163.015 1290.21 168.4C1285.18 177.375 1281.95 188.145 1280.16 200.351ZM1480.02 52.443L1480.38 294.05L1504.07 299.435V312H1423.3V299.435L1449.86 294.05V76.137L1423.3 67.162V56.392L1480.02 52.443ZM1589.4 52.443L1589.76 294.05L1613.46 299.435V312H1532.68V299.435L1559.25 294.05V76.137L1532.68 67.162V56.392L1589.4 52.443ZM1647.45 227.635C1647.45 175.58 1688.38 139.321 1733.25 139.321C1787.1 139.321 1819.77 171.99 1819.77 227.635C1819.77 279.69 1778.48 315.949 1733.61 315.949C1679.76 315.949 1647.45 283.28 1647.45 227.635ZM1771.66 286.87C1781.36 272.869 1786.02 254.919 1786.02 233.02C1786.02 180.965 1760.53 160.502 1726.43 160.502C1715.66 160.502 1705.25 163.015 1695.2 168.4C1685.86 182.401 1681.2 200.351 1681.2 222.25C1681.2 274.305 1706.33 294.768 1740.43 294.768C1751.2 294.768 1761.61 292.255 1771.66 286.87ZM1011.36 382.085V371.315L1068.44 368.443V470.758C1083.88 460.347 1100.39 455.321 1118.7 455.321C1167.17 455.321 1196.96 486.195 1196.96 543.635C1196.96 595.69 1156.4 632.308 1104.34 632.308C1083.88 632.308 1061.62 628.359 1037.93 620.82V387.47L1011.36 382.085ZM1068.44 599.28C1085.31 607.178 1101.83 611.127 1117.98 611.127C1130.55 611.127 1141.32 608.255 1150.29 602.87C1158.91 588.869 1163.22 570.919 1163.22 549.02C1163.22 501.273 1143.83 476.502 1109.37 476.502C1096.8 476.502 1083.16 480.092 1068.44 487.631V599.28ZM1223.25 459.27H1307.62V471.835L1282.85 477.22L1328.44 595.331L1370.09 475.425L1343.52 471.835V459.27H1422.5V471.835L1395.57 475.425L1300.08 717.75H1271.36L1267.77 708.057L1312.65 635.539L1249.82 477.22L1223.25 471.835V459.27ZM1109.73 947.949C1096.44 947.949 1082.8 945.436 1068.44 940.41V1015.8L1092.14 1021.19V1033.75H1011.36V1021.19L1037.93 1015.8V793.22L1011.36 787.835V775.27L1068.08 767.731V787.117C1080.29 776.706 1097.16 771.321 1118.34 771.321C1169.68 771.321 1196.96 800.4 1196.96 859.635C1196.96 911.69 1159.99 947.949 1109.73 947.949ZM1068.44 805.785V912.049C1084.24 921.742 1100.75 926.768 1117.62 926.768C1129.47 926.768 1140.6 924.255 1150.65 918.87C1158.91 904.869 1163.22 886.919 1163.22 865.02C1163.22 812.965 1139.52 792.502 1109.73 792.502C1096.08 792.502 1082.44 796.81 1068.44 805.785ZM1236.56 859.635C1236.56 807.58 1277.49 771.321 1322.36 771.321C1376.21 771.321 1408.88 803.99 1408.88 859.635C1408.88 911.69 1367.6 947.949 1322.72 947.949C1268.87 947.949 1236.56 915.28 1236.56 859.635ZM1360.78 918.87C1370.47 904.869 1375.14 886.919 1375.14 865.02C1375.14 812.965 1349.65 792.502 1315.54 792.502C1304.77 792.502 1294.36 795.015 1284.31 800.4C1274.98 814.401 1270.31 832.351 1270.31 854.25C1270.31 906.305 1295.44 926.768 1329.54 926.768C1340.31 926.768 1350.72 924.255 1360.78 918.87ZM1499.65 771.321V789.989C1520.83 775.988 1540.94 768.808 1560.32 768.808C1598.02 768.808 1615.97 793.22 1615.97 821.94V926.05L1642.54 931.435V944H1561.76V931.435L1585.45 926.05V832.71C1585.45 803.99 1572.53 793.579 1548.48 793.579C1532.32 793.579 1516.17 798.246 1500.01 807.58V926.05L1523.71 931.435V944H1442.93V931.435L1469.5 926.05V795.015L1442.93 786.04V775.27L1499.65 771.321ZM1655.88 775.27H1740.24V787.835L1715.47 793.22L1761.06 911.331L1802.71 791.425L1776.14 787.835V775.27H1855.12V787.835L1828.2 791.425L1732.7 1033.75H1703.98L1700.39 1024.06L1745.27 951.539L1682.44 793.22L1655.88 787.835V775.27Z" fill="black"/>
<path d="M162.041 138.419H125.627V126.043H161.922C159.423 111.406 147.999 101.053 132.886 101.053C120.867 101.053 111.704 106.884 106.706 117.118H92.545C98.852 98.673 112.418 88.796 132.886 88.796C157.519 88.796 175.964 107.598 175.964 132.35C175.964 157.102 157.519 175.904 132.886 175.904C112.418 175.904 98.852 166.027 92.545 147.582H106.706C111.704 157.816 120.867 163.647 132.886 163.647C148.118 163.647 159.542 153.175 162.041 138.419ZM186.501 114.5H243.621V125.329H221.249V174H208.873V125.329H186.501V114.5ZM265.975 144.25C265.975 155.555 273.948 164.242 285.134 164.242C296.439 164.242 304.412 155.555 304.412 144.25C304.412 132.945 296.439 124.139 285.134 124.139C273.948 124.139 265.975 132.945 265.975 144.25ZM253.48 144.25C253.48 125.686 266.57 113.31 285.134 113.31C303.817 113.31 316.907 125.686 316.907 144.25C316.907 162.576 303.936 175.19 285.134 175.19C266.57 175.19 253.48 162.814 253.48 144.25ZM375.719 114.5H387.976V163.171H412.847V114.5H425.223V163.171H450.094V114.5H462.47V174H375.719V114.5ZM482.514 197.8V114.5H491.915L494.176 124.972H495.128C500.007 117.237 507.147 113.31 516.429 113.31C533.803 113.31 545.703 125.686 545.703 144.25C545.703 162.814 533.803 175.19 516.429 175.19C506.909 175.19 500.126 171.739 495.961 164.956H494.89V197.8H482.514ZM494.89 144.25C494.89 155.555 502.744 164.361 513.93 164.361C525.354 164.361 533.208 155.555 533.208 144.25C533.208 132.945 525.354 124.139 513.93 124.139C502.744 124.139 494.89 132.945 494.89 144.25ZM561.307 114.5H573.564V157.816H575.111L600.458 114.5H617.832V174H605.456V130.684H604.028L578.681 174H561.307V114.5ZM668.473 124.258H667.997C656.335 124.258 647.172 132.35 647.172 144.25C647.172 156.15 656.335 164.242 667.997 164.242H668.473V124.258ZM681.206 124.258H680.73V164.242H681.206C692.749 164.242 701.912 156.269 701.912 144.25C701.912 132.231 692.749 124.258 681.206 124.258ZM634.915 144.25C634.915 124.496 648.957 114.024 667.997 113.31H668.473V90.7H680.73V113.31H681.206C700.008 114.024 714.288 124.615 714.288 144.25C714.288 163.885 700.127 174.476 681.206 175.19H680.73V197.8H668.473V175.19H667.997C649.076 174.476 634.915 163.766 634.915 144.25ZM725.487 114.5H782.607V125.329H760.235V174H747.859V125.329H725.487V114.5ZM92.188 263.25C92.188 244.686 105.397 232.31 123.961 232.31C139.193 232.31 150.379 239.331 153.473 251.945H140.264C136.813 246.352 131.458 243.139 123.961 243.139C112.299 243.139 104.683 251.945 104.683 263.25C104.683 274.555 112.299 283.242 123.961 283.242C131.815 283.242 137.527 280.386 140.264 274.555H153.473C150.379 287.169 139.193 294.19 123.961 294.19C105.397 294.19 92.188 281.695 92.188 263.25ZM210.931 233.5H223.188V282.171H248.059V233.5H260.435V282.171H285.306V233.5H297.682V293H210.931V233.5ZM317.845 233.5H330.102V276.816H331.649L356.996 233.5H374.37V293H361.994V249.684H360.566L335.219 293H317.845V233.5ZM394.309 316.8V233.5H403.71L405.971 243.972H406.923C411.802 236.237 418.942 232.31 428.224 232.31C445.598 232.31 457.498 244.686 457.498 263.25C457.498 281.814 445.598 294.19 428.224 294.19C418.704 294.19 411.921 290.739 407.756 283.956H406.685V316.8H394.309ZM406.685 263.25C406.685 274.555 414.539 283.361 425.725 283.361C437.149 283.361 445.003 274.555 445.003 263.25C445.003 251.945 437.149 243.139 425.725 243.139C414.539 243.139 406.685 251.945 406.685 263.25ZM481.314 263.25C481.314 274.555 489.287 283.242 500.473 283.242C511.778 283.242 519.751 274.555 519.751 263.25C519.751 251.945 511.778 243.139 500.473 243.139C489.287 243.139 481.314 251.945 481.314 263.25ZM468.819 263.25C468.819 244.686 481.909 232.31 500.473 232.31C519.156 232.31 532.246 244.686 532.246 263.25C532.246 281.576 519.275 294.19 500.473 294.19C481.909 294.19 468.819 281.814 468.819 263.25ZM549.454 233.5H561.711V258.728H563.496L590.152 233.5H606.931L575.515 262.655L607.05 293H590.747L563.496 266.582H561.711V293H549.454V233.5ZM618.251 233.5H630.508V276.816H632.055L657.402 233.5H674.776V293H662.4V249.684H660.972L635.625 293H618.251V233.5ZM694.834 293V233.5H709.352L730.415 268.962H731.962L753.025 233.5H767.543V293H755.286V253.016H753.739L735.532 283.242H726.845L708.638 253.016H707.091V293H694.834ZM787.454 233.5H799.711V276.816H801.258L826.605 233.5H843.979V293H831.603V249.684H830.175L804.828 293H787.454V233.5ZM96.115 352.5H150.855V412H138.479V363.329H108.372V412H96.115V352.5ZM170.836 435.8V352.5H180.237L182.498 362.972H183.45C188.329 355.237 195.469 351.31 204.751 351.31C222.125 351.31 234.025 363.686 234.025 382.25C234.025 400.814 222.125 413.19 204.751 413.19C195.231 413.19 188.448 409.739 184.283 402.956H183.212V435.8H170.836ZM183.212 382.25C183.212 393.555 191.066 402.361 202.252 402.361C213.676 402.361 221.53 393.555 221.53 382.25C221.53 370.945 213.676 362.139 202.252 362.139C191.066 362.139 183.212 370.945 183.212 382.25ZM257.841 382.25C257.841 393.555 265.814 402.242 277 402.242C288.305 402.242 296.278 393.555 296.278 382.25C296.278 370.945 288.305 362.139 277 362.139C265.814 362.139 257.841 370.945 257.841 382.25ZM245.346 382.25C245.346 363.686 258.436 351.31 277 351.31C295.683 351.31 308.773 363.686 308.773 382.25C308.773 400.576 295.802 413.19 277 413.19C258.436 413.19 245.346 400.814 245.346 382.25ZM325.98 352.5H380.72V412H368.344V363.329H338.237V412H325.98V352.5ZM409.031 382.25C409.031 393.555 417.004 402.242 428.19 402.242C439.495 402.242 447.468 393.555 447.468 382.25C447.468 370.945 439.495 362.139 428.19 362.139C417.004 362.139 409.031 370.945 409.031 382.25ZM396.536 382.25C396.536 363.686 409.626 351.31 428.19 351.31C446.873 351.31 459.963 363.686 459.963 382.25C459.963 400.576 446.992 413.19 428.19 413.19C409.626 413.19 396.536 400.814 396.536 382.25ZM477.052 435.8V352.5H486.453L488.714 362.972H489.666C494.545 355.237 501.685 351.31 510.967 351.31C528.341 351.31 540.241 363.686 540.241 382.25C540.241 400.814 528.341 413.19 510.967 413.19C501.447 413.19 494.664 409.739 490.499 402.956H489.428V435.8H477.052ZM489.428 382.25C489.428 393.555 497.282 402.361 508.468 402.361C519.892 402.361 527.746 393.555 527.746 382.25C527.746 370.945 519.892 362.139 508.468 362.139C497.282 362.139 489.428 370.945 489.428 382.25ZM555.845 352.5H568.102V401.171H597.614V352.5H609.99V401.171H620.105V426.637H608.681V412H555.845V352.5ZM633.823 352.5H646.08V395.816H647.627L672.974 352.5H690.348V412H677.972V368.684H676.544L651.197 412H633.823V352.5ZM745.63 380.822V362.853H729.327C723.02 362.853 718.855 366.661 718.855 372.016C718.855 377.252 723.02 380.822 729.327 380.822H745.63ZM704.813 412L723.02 389.866C713.024 388.081 706.598 380.941 706.598 371.778C706.598 360.592 715.642 352.5 729.327 352.5H757.411V412H745.63V390.699H736.229L719.093 412H704.813ZM777.227 412V352.5H791.745L812.808 387.962H814.355L835.418 352.5H849.936V412H837.679V372.016H836.132L817.925 402.242H809.238L791.031 372.016H789.484V412H777.227ZM869.847 352.5H882.104V395.816H883.651L908.998 352.5H926.372V412H913.996V368.684H912.568L887.221 412H869.847V352.5Z" fill="black"/>
<path d="M96.3 1406.4L96.3 1385.56L180.407 1362.61L180.407 1359.74L96.3 1338.15L96.3 1308.1L180.407 1286.66L180.407 1283.79L96.3 1260.84L96.3 1240L202 1270.2L202 1300.25L117.893 1321.84L117.893 1324.56L202 1346.3L202 1376.2L96.3 1406.4ZM202 1227.76L96.3 1227.76L96.3 1207.83L202 1207.83L202 1227.76ZM202 1145.7L202 1186.47L96.3 1186.47L96.3 1145.7C96.3 1113.99 117.44 1091.19 149.15 1091.19C180.86 1091.19 202 1113.99 202 1145.7ZM183.427 1166.39L183.427 1145.7C183.427 1125.17 170.139 1111.58 149.15 1111.58C128.161 1111.58 114.873 1125.17 114.873 1145.7L114.873 1166.39L183.427 1166.39ZM202 1075.73L96.3 1075.73L96.3 992.223L114.722 992.223L114.722 1055.79L137.976 1055.79L137.976 1010.34L156.398 1010.34L156.398 1055.79L183.578 1055.79L183.578 992.223L202 992.223L202 1075.73ZM167.421 821.874C192.034 829.877 204.718 847.091 204.718 874.12C204.718 905.83 180.86 929.386 149.15 929.386C117.44 929.386 93.582 905.83 93.582 874.12C93.582 847.091 106.266 829.877 130.879 821.874L130.879 843.014C118.497 849.054 112.004 859.624 112.004 874.12C112.004 894.656 127.859 909.152 149.15 909.152C170.441 909.152 186.296 894.656 186.296 874.12C186.296 859.624 179.803 849.054 167.421 843.014L167.421 821.874ZM202 808.932L96.3 765.444L96.3 737.66L202 694.172L202 715.614L176.028 726.184L176.028 776.769L202 787.49L202 808.932ZM157.606 769.219L157.606 733.734L117.742 750.193L117.742 752.911L157.606 769.219ZM202 678.193L96.3 678.193L96.3 626.853C96.3 603.448 107.776 588.046 128.916 588.046C150.056 588.046 161.23 603.448 161.23 626.853L161.23 657.808L202 657.808L202 678.193ZM142.355 657.808L142.355 626.853C142.355 613.263 134.956 608.733 128.916 608.733C122.876 608.733 115.175 613.263 115.175 626.853L115.175 657.808L142.355 657.808ZM205.322 529.983C205.322 556.559 193.544 571.961 171.951 577.699L171.951 557.163C182.974 553.539 188.108 543.573 188.108 529.832C188.108 513.071 180.407 507.333 172.857 507.333C165.307 507.333 160.475 513.373 158.059 529.077L156.398 540.251C152.774 564.562 142.053 575.132 125.896 575.132C105.813 575.132 92.978 558.824 92.978 533.758C92.978 509.145 105.209 492.535 126.953 487.552L126.953 507.786C115.477 510.806 109.89 520.168 109.89 533.154C109.89 546.291 115.628 554.596 124.537 554.596C132.238 554.596 136.013 548.405 137.674 535.419L139.486 521.074C142.506 497.216 153.227 486.495 170.894 486.495C192.487 486.495 205.322 502.501 205.322 529.983Z" fill="black"/>
<path d="M823 480.283L902.1 480.283L902.1 495.199L870.912 495.199L870.912 537.461L902.1 537.461L902.1 552.377L823 552.377L823 537.461L857.126 537.461L857.126 495.199L823 495.199L823 480.283ZM857.465 582.699L857.465 613.548C864.923 611.966 869.217 605.864 869.217 598.293C869.217 590.27 864.245 584.733 857.465 582.699ZM851.25 568.348C868.991 568.348 880.743 581.343 880.743 598.293C880.743 615.243 869.217 627.899 851.589 627.899C849.894 627.899 848.425 627.786 846.843 627.56L846.843 582.247C838.933 583.829 833.057 589.253 833.057 598.858C833.057 605.299 835.204 609.593 839.159 611.74L839.159 626.091C827.52 622.362 821.644 613.322 821.644 598.971C821.644 581.004 833.509 568.348 851.25 568.348ZM902.1 641.59L902.1 655.377L823 655.376L823 641.59L902.1 641.59ZM902.1 673.592L902.1 687.378L823 687.378L823 673.592L902.1 673.592ZM851.25 716.216C841.532 716.216 833.961 722.883 833.961 732.601C833.961 742.319 841.532 748.986 851.25 748.986C860.968 748.986 868.539 742.319 868.539 732.601C868.539 722.883 860.968 716.216 851.25 716.216ZM851.25 702.204C869.104 702.204 880.743 714.634 880.743 732.601C880.743 750.681 869.104 763.111 851.25 763.111C833.622 763.111 821.757 750.794 821.757 732.601C821.757 714.634 833.396 702.204 851.25 702.204ZM831.249 777.084C836.899 777.084 840.628 780.587 840.628 785.785C840.628 790.983 836.899 794.486 831.249 794.486C825.712 794.486 821.87 790.983 821.87 785.785C821.87 780.587 825.712 777.084 831.249 777.084ZM879.5 778.666L902.1 778.666L902.1 792.678L879.5 792.678L849.442 790.644L849.442 780.7L879.5 778.666ZM710 480.283L789.1 480.283L789.1 495.199L710 495.199L710 480.283ZM733.278 589.225L733.956 589.225L733.956 574.535C733.956 568.885 731.809 565.043 727.176 565.043C722.317 565.043 719.831 569.111 719.831 575.213C719.831 583.801 725.481 589.225 733.278 589.225ZM721.187 609.678L709.322 609.678L709.322 604.593C709.322 597.361 712.147 593.067 717.797 591.146L719.04 590.92L719.04 590.129C711.695 585.948 708.757 579.168 708.757 571.371C708.757 558.602 715.876 550.692 726.159 550.692C736.329 550.692 743.674 558.489 743.674 573.179L743.674 589.225L745.256 589.225C752.601 589.225 756.669 584.592 756.669 577.586C756.669 571.71 754.183 567.416 748.872 566.06L748.872 552.5C761.641 554.308 767.743 564.252 767.743 578.151C767.743 593.293 759.268 603.011 745.595 603.011L726.724 603.011C722.995 603.011 721.187 604.367 721.187 607.305L721.187 609.678ZM766.5 621.504L766.5 631.448L757.573 634.16L757.573 635.29C764.805 639.471 767.743 645.799 767.743 653.37C767.743 661.732 764.24 668.06 757.46 671.563L757.46 672.693C764.805 676.874 767.743 683.428 767.743 691.451C767.743 704.785 759.268 713.486 743.787 713.486L710 713.486L710 699.7L741.753 699.7C750.567 699.7 755.765 695.18 755.765 687.722C755.765 680.038 750.341 675.179 741.188 674.501L710 674.501L710 660.602L741.753 660.602C750.567 660.602 755.765 656.082 755.765 648.624C755.765 640.375 749.324 635.29 738.589 635.29L710 635.29L710 621.504L766.5 621.504ZM597 480.283L676.1 480.283L676.1 542.772L662.314 542.772L662.314 495.199L644.912 495.199L644.912 529.212L631.126 529.212L631.126 495.199L610.786 495.199L610.786 542.772L597 542.772L597 480.283ZM653.5 553.062L653.5 566.848L624.572 566.848C612.142 566.848 607.961 573.176 607.961 580.634C607.961 588.092 612.142 594.42 624.572 594.42L653.5 594.42L653.5 608.206L622.425 608.206C602.65 608.206 595.757 593.064 595.757 580.634C595.757 568.204 602.65 553.062 622.425 553.062L653.5 553.062ZM625.25 621.868C643.104 621.868 654.743 634.411 654.743 652.378C654.743 667.52 647.963 678.368 635.42 680.967L635.42 666.164C640.166 663.226 642.539 658.819 642.539 652.378C642.539 642.095 634.968 635.88 625.25 635.88C615.532 635.88 607.961 642.095 607.961 652.378C607.961 659.271 610.108 664.017 615.08 666.164L615.08 680.967C602.537 678.368 595.757 667.52 595.757 652.378C595.757 634.411 607.509 621.868 625.25 621.868ZM625.25 705.292C615.532 705.292 607.961 711.959 607.961 721.677C607.961 731.395 615.532 738.062 625.25 738.062C634.968 738.062 642.539 731.395 642.539 721.677C642.539 711.959 634.968 705.292 625.25 705.292ZM625.25 691.28C643.104 691.28 654.743 703.71 654.743 721.677C654.743 739.757 643.104 752.187 625.25 752.187C607.622 752.187 595.757 739.87 595.757 721.677C595.757 703.71 607.396 691.28 625.25 691.28ZM653.5 766.837L653.5 776.781L644.573 779.493L644.573 780.623C651.805 784.804 654.743 791.132 654.743 798.703C654.743 807.065 651.24 813.393 644.46 816.896L644.46 818.026C651.805 822.207 654.743 828.761 654.743 836.784C654.743 850.118 646.268 858.819 630.787 858.819L597 858.819L597 845.033L628.753 845.033C637.567 845.033 642.765 840.513 642.765 833.055C642.765 825.371 637.341 820.512 628.188 819.834L597 819.834L597 805.935L628.753 805.935C637.567 805.935 642.765 801.415 642.765 793.957C642.765 785.708 636.324 780.623 625.589 780.623L597 780.623L597 766.837L653.5 766.837ZM653.5 876.545L653.5 890.331L597 890.331L597 876.545L653.5 876.545ZM670.45 875.189C675.309 875.189 678.699 878.579 678.699 883.438C678.699 888.297 675.309 891.574 670.45 891.574C665.591 891.574 662.314 888.297 662.314 883.438C662.314 878.579 665.591 875.189 670.45 875.189ZM595.757 932.132C595.757 917.103 601.859 908.402 613.837 905.916L613.837 919.363C608.865 921.058 606.379 925.578 606.379 932.584C606.379 940.155 609.656 943.319 612.933 943.319C616.323 943.319 618.583 940.494 619.6 932.471L620.391 926.595C622.199 912.809 628.188 906.594 636.889 906.594C647.737 906.594 654.743 916.086 654.743 930.437C654.743 944.901 648.641 953.263 636.437 955.636L636.437 942.302C641.748 940.72 644.347 936.765 644.347 930.211C644.347 924.222 641.748 919.928 637.906 919.928C634.629 919.928 633.16 922.64 632.143 929.307L631.013 936.991C628.979 950.438 623.668 956.879 614.063 956.879C602.65 956.879 595.757 947.613 595.757 932.132Z" fill="black"/>
<path d="M412.975 599.516C412.509 599.982 412.043 600.448 411.81 600.448C405.053 612.564 393.636 619.088 378.491 618.622C354.492 617.923 339.58 599.749 340.046 574.818C340.279 550.12 355.89 532.179 379.656 532.412C391.539 532.412 401.325 537.072 408.082 546.159L409.946 545.926L412.276 534.276L428.586 534.043V575.75C428.586 589.73 433.246 596.487 441.867 596.487C451.886 596.487 455.381 587.167 455.381 572.954C455.381 529.383 424.159 503.054 384.782 503.054C342.609 503.054 313.95 534.043 313.95 575.75C313.95 617.457 342.609 648.446 385.481 648.446H426.722V671.047H385.015C330.027 671.047 290.184 629.806 290.184 575.75C290.184 521.694 330.027 480.686 385.015 480.686C439.071 480.686 478.681 520.529 478.681 571.323C478.681 601.613 463.769 616.991 442.333 616.991C429.052 616.991 417.868 610.933 412.975 599.516ZM383.85 599.749C396.898 599.749 406.218 589.73 406.218 575.75C406.218 561.77 396.898 551.984 383.85 551.984C370.802 551.984 361.715 562.003 361.715 575.75C361.715 589.497 370.802 599.749 383.85 599.749Z" fill="black"/>
<path d="M522.892 765.662L522.892 796.222C522.892 800.997 524.42 801.952 529.195 801.952L539.7 801.952L539.7 804.244L406 804.244L406 801.952L520.6 801.952L520.6 765.662L522.892 765.662ZM317.75 761.46C345.827 761.46 366.455 782.47 366.455 809.21C366.455 827.928 356.332 843.781 340.67 851.612L340.67 849.511C355.186 841.871 364.545 826.782 364.545 809.21C364.545 783.425 344.49 763.37 317.75 763.37C291.392 763.37 271.146 783.425 271.146 809.21C271.146 826.782 280.505 841.68 294.83 849.32L294.83 851.612C279.168 843.781 269.236 827.928 269.236 809.21C269.236 782.47 289.673 761.46 317.75 761.46ZM317.941 876.403C291.201 876.403 271.146 896.458 271.146 922.243C271.146 948.028 291.201 968.083 317.941 968.083C344.299 968.083 364.545 948.028 364.545 922.243C364.545 896.458 344.299 876.403 317.941 876.403ZM317.941 874.493C346.018 874.493 366.455 895.503 366.455 922.243C366.455 948.983 346.018 969.993 317.941 969.993C289.864 969.993 269.236 948.983 269.236 922.243C269.236 895.503 289.864 874.493 317.941 874.493ZM365.5 1007.31L365.5 1009.22L270 1009.22L270 1007.31L365.5 1007.31ZM394.532 1006.17C395.678 1006.17 396.633 1007.12 396.633 1008.27C396.633 1009.41 395.678 1010.37 394.532 1010.37C393.386 1010.37 392.431 1009.41 392.431 1008.27C392.431 1007.12 393.386 1006.17 394.532 1006.17ZM365.5 1039.02L365.5 1040.93L339.906 1040.93L339.906 1041.5C356.141 1047.62 366.455 1061.75 366.455 1080.47C366.455 1102.43 349.456 1118.67 324.626 1118.67L270.191 1118.67L270 1116.76L324.435 1116.76C348.31 1116.76 364.545 1101.48 364.545 1080.47C364.545 1057.55 348.31 1040.93 324.435 1040.93L270 1040.93L270 1039.02L365.5 1039.02Z" fill="black"/>
</g>
<defs>
<clipPath id="clip0_76_214">
<rect width="1920" height="1080" fill="white"/>
</clipPath>
</defs>
</svg>
