<svg width="1920" height="1080" viewBox="0 0 1920 1080" fill="none" xmlns="http://www.w3.org/2000/svg">
<rect width="1920" height="1080" fill="white"/>
<path d="M108.581 108.869L121.017 84H158.324L170.76 108.869V335.458L158.324 360.328H121.017L108.581 335.458V108.869ZM152.797 346.511V97.8164H126.544V346.511H152.797Z" fill="black"/>
<path d="M209.513 360.328V84H271.692V360.328H253.729V97.8164H227.476V360.328H209.513Z" fill="black"/>
<path d="M291.101 360.328V346.511H310.445V108.869L322.881 84H372.624V360.328H354.661V97.8164H328.408V335.458L315.972 360.328H291.101Z" fill="black"/>
<path d="M415.447 84H452.754L465.19 108.869V360.328H447.227V215.256H420.974V360.328H403.012V108.869L415.447 84ZM447.227 201.439V97.8164H420.974V201.439H447.227Z" fill="black"/>
<path d="M494.272 97.8164V84H556.45V97.8164H534.342V360.328H516.379V97.8164H494.272Z" fill="black"/>
<path d="M597.881 84H635.188L647.624 108.869V360.328H629.661V215.256H603.408V360.328H585.445V108.869L597.881 84ZM629.661 201.439V97.8164H603.408V201.439H629.661Z" fill="black"/>
<path d="M787.31 360.328V84H849.488V360.328H831.525V97.8164H805.272V360.328H787.31Z" fill="black"/>
<path d="M937.985 244.27H906.205V360.328H888.242V84H937.985L950.42 108.869V219.401L937.985 244.27ZM906.205 97.8164V230.454H932.458V97.8164H906.205Z" fill="black"/>
<path d="M989.174 108.869L1001.61 84H1038.92L1051.35 108.869V335.458L1038.92 360.328H1001.61L989.174 335.458V108.869ZM1033.39 346.511V97.8164H1007.14V346.511H1033.39Z" fill="black"/>
<path d="M1090.11 335.458V108.869L1102.54 84H1152.28V97.8164H1108.07V201.439H1142.61V215.256H1108.07V346.511H1152.28V360.328H1102.54L1090.11 335.458Z" fill="black"/>
<path d="M1217.25 97.8164H1173.03V84H1222.78L1235.21 108.869V190.386L1224.99 206.966L1235.21 223.545V335.458L1222.78 360.328H1173.03V346.511H1217.25V215.256H1182.7V201.439H1217.25V97.8164Z" fill="black"/>
<path d="M1257.31 346.511H1273.34L1273.89 345.406V108.869L1286.32 84H1336.07V346.511H1351.27V385.197H1333.3V360.328H1275.27V385.197H1257.31V346.511ZM1291.85 332.695L1284.94 346.511H1318.11V97.8164H1291.85V332.695Z" fill="black"/>
<path d="M1387.26 84H1424.56L1437 108.869V360.328H1419.04V215.256H1392.78V360.328H1374.82V108.869L1387.26 84ZM1419.04 201.439V97.8164H1392.78V201.439H1419.04Z" fill="black"/>
<path d="M108.581 537.237V401.836H126.544V548.29H152.797V401.836H170.76V653.294L158.324 678.164H121.017L108.581 653.294V592.502H126.544V664.347H152.797V562.106H121.017L108.581 537.237Z" fill="black"/>
<path d="M310.445 678.164V401.836H360.188L372.624 426.706V508.222L362.399 524.802L372.624 541.382V653.294L360.188 678.164H310.445ZM354.661 517.894V415.653H328.408V517.894H354.661ZM354.661 664.347V531.71H328.408V664.347H354.661Z" fill="black"/>
<path d="M411.378 426.706L423.813 401.836H461.12L473.556 426.706V653.294L461.12 678.164H423.813L411.378 653.294V426.706ZM455.593 664.347V415.653H429.34V664.347H455.593Z" fill="black"/>
<path d="M495.729 664.347H511.757L512.31 663.242V426.706L524.746 401.836H574.488V664.347H589.688V703.033H571.725V678.164H513.692V703.033H495.729V664.347ZM530.273 650.531L523.364 664.347H556.526V415.653H530.273V650.531Z" fill="black"/>
<path d="M613.242 678.164V401.836H631.205V524.802L657.458 484.734V401.836H675.421V678.164H657.458V509.604L631.205 549.671V678.164H613.242Z" fill="black"/>
<path d="M704.502 415.653V401.836H766.681V415.653H744.573V678.164H726.61V415.653H704.502Z" fill="black"/>
<path d="M795.676 653.294V426.706L808.111 401.836H857.854V415.653H813.638V519.275H848.182V533.092H813.638V664.347H857.854V678.164H808.111L795.676 653.294Z" fill="black"/>
<path d="M867.548 678.164V664.347H886.892V426.706L899.328 401.836H949.071V678.164H931.108V415.653H904.855V653.294L892.419 678.164H867.548Z" fill="black"/>
<path d="M979.459 537.237V426.706L991.894 401.836H1041.64V678.164H1023.67V562.106H1009.86L994.934 678.164H979.459L994.658 562.106H991.894L979.459 537.237ZM1023.67 415.653H997.421V548.29H1023.67V415.653Z" fill="black"/>
<path d="M115.49 996H98.6324L126.267 733.489H92V719.672H144.783L115.49 996Z" fill="black"/>
<path d="M155.755 850.928V837.112H206.879V850.928H155.755Z" fill="black"/>
<path d="M231.643 855.073V744.542L244.078 719.672H281.386L293.821 744.542V971.131L281.386 996H244.078L231.643 971.131V910.338H249.605V982.184H275.859V879.942H244.078L231.643 855.073ZM249.605 866.126H275.859V733.489H249.605V866.126Z" fill="black"/>
<path d="M367.119 996H349.156V733.489H315.994V719.672H367.119V996Z" fill="black"/>
<path d="M441.636 733.489H397.42V719.672H447.163L459.598 744.542V826.058L449.373 842.638L459.598 859.218V971.131L447.163 996H397.42V982.184H441.636V850.928H407.092V837.112H441.636V733.489Z" fill="black"/>
<path d="M484.459 850.928V837.112H535.584V850.928H484.459Z" fill="black"/>
<path d="M560.347 855.073V744.542L572.783 719.672H610.09L622.526 744.542V971.131L610.09 996H572.783L560.347 971.131V910.338H578.31V982.184H604.563V879.942H572.783L560.347 855.073ZM578.31 866.126H604.563V733.489H578.31V866.126Z" fill="black"/>
<path d="M673.715 996L661.279 971.131V859.218L671.504 842.638L661.279 826.058V744.542L673.715 719.672H711.022L723.458 744.542V826.058L713.233 842.638L723.458 859.218V971.131L711.022 996H673.715ZM705.495 733.489H679.242V835.73H705.495V733.489ZM679.242 982.184H705.495V849.546H679.242V982.184Z" fill="black"/>
<path d="M748.394 850.928V837.112H799.519V850.928H748.394Z" fill="black"/>
<path d="M836.718 996L824.282 971.131V859.218L834.507 842.638L824.282 826.058V744.542L836.718 719.672H874.025L886.461 744.542V826.058L876.236 842.638L886.461 859.218V971.131L874.025 996H836.718ZM868.498 733.489H842.245V835.73H868.498V733.489ZM842.245 982.184H868.498V849.546H842.245V982.184Z" fill="black"/>
<path d="M925.214 910.338H943.177V982.184H969.43V850.652H937.65L925.214 825.782V719.672H987.117V733.489H943.177V836.835H974.957L987.393 861.705V971.131L974.957 996H937.65L925.214 971.131V910.338Z" fill="black"/>
</svg>
