<svg width="1920" height="1080" viewBox="0 0 1920 1080" fill="none" xmlns="http://www.w3.org/2000/svg">
<g clip-path="url(#clip0_76_225)">
<rect width="1920" height="1080" fill="white"/>
<path d="M1173.14 520.498C1173.14 514.4 1173.88 508.393 1175.36 502.479C1177.03 496.565 1179.52 490.929 1182.85 485.569C1186.18 480.21 1190.43 475.405 1195.61 471.154C1200.97 466.719 1207.34 463.023 1214.74 460.066C1214.37 455.445 1214.09 450.733 1213.91 445.928C1212.06 445.928 1210.21 445.928 1208.36 445.928C1195.79 445.928 1183.87 445.373 1172.59 444.264L1168.71 426.8V417.375H1178.69L1185.9 431.513C1188.3 431.882 1191.82 432.067 1196.44 432.067C1201.06 432.067 1206.7 431.882 1213.35 431.513C1213.17 424.675 1213.08 417.837 1213.08 410.999L1208.92 404.9L1209.19 401.019H1227.22L1226.94 430.404C1241.92 429.11 1260.59 426.985 1282.96 424.028L1287.12 433.73L1283.24 439.829C1263.45 442.786 1244.78 444.634 1227.22 445.373C1227.4 448.885 1227.68 452.396 1228.05 455.907C1236.74 453.874 1246.17 452.858 1256.34 452.858C1271.31 452.858 1283.79 454.429 1293.77 457.571C1303.94 460.528 1312.08 464.778 1318.18 470.323C1324.46 475.682 1328.9 482.058 1331.49 489.45C1334.08 496.658 1335.37 504.512 1335.37 513.014C1335.37 521.33 1334.17 529.277 1331.77 536.854C1329.36 544.246 1325.2 550.715 1319.29 556.259C1313.55 561.803 1305.7 566.239 1295.71 569.565C1285.73 572.707 1273.25 574.278 1258.28 574.278V562.912C1268.82 562.912 1277.6 561.618 1284.62 559.031C1291.65 556.444 1297.29 552.932 1301.54 548.497C1305.79 544.062 1308.75 538.794 1310.41 532.696C1312.26 526.597 1313.19 520.036 1313.19 513.014C1313.19 504.512 1311.71 496.843 1308.75 490.005C1305.79 482.982 1300.89 477.345 1294.05 473.095C1289.24 489.543 1282.68 504.05 1274.36 516.617C1266.04 529 1257.08 539.072 1247.46 546.834C1248.76 550.345 1250.05 553.856 1251.34 557.368L1248.85 561.249H1239.97C1238.87 558.846 1237.76 556.444 1236.65 554.041C1227.77 559.216 1219.45 561.803 1211.69 561.803C1205.77 561.803 1200.41 560.787 1195.61 558.754C1190.8 556.536 1186.73 553.579 1183.4 549.883C1180.08 546.187 1177.49 541.844 1175.64 536.854C1173.97 531.864 1173.14 526.412 1173.14 520.498ZM1243.03 532.141C1251.9 524.564 1260.03 515.139 1267.43 503.865C1274.82 492.407 1279.91 480.302 1282.68 467.55C1278.98 466.442 1275.01 465.61 1270.76 465.055C1266.5 464.316 1261.7 463.947 1256.34 463.947C1246.17 463.947 1237.2 465.055 1229.44 467.273C1232.21 489.635 1236.74 511.258 1243.03 532.141ZM1231.38 540.735C1223.61 520.036 1218.44 497.397 1215.85 472.817C1206.97 477.622 1200.23 484.091 1195.61 492.222C1191.17 500.354 1188.95 509.595 1188.95 519.944C1188.95 528.63 1190.89 535.468 1194.77 540.458C1198.66 545.263 1203.83 547.665 1210.3 547.665C1216.59 547.665 1223.61 545.355 1231.38 540.735Z" fill="black"/>
<path d="M1492.43 441.215C1477.64 443.063 1462.76 444.357 1447.78 445.096C1449.08 473.741 1440.2 504.974 1421.16 538.794H1416.72L1403.13 528.26C1420.7 504.235 1431.05 476.698 1434.19 445.65C1419.96 445.835 1406.55 445.281 1393.98 443.987L1390.1 426.523V417.097H1400.08L1407.29 431.235C1412.1 432.159 1421.25 432.159 1434.75 431.235C1434.56 424.397 1434.47 417.559 1434.47 410.721L1430.31 404.623L1430.59 400.742H1448.61L1448.34 430.126C1459.61 429.942 1474.22 428.371 1492.15 425.414L1496.31 435.116L1492.43 441.215ZM1514.89 529.092C1516 541.659 1512.95 551.731 1505.74 559.308C1498.53 566.701 1488.27 570.397 1474.96 570.397C1464.6 570.397 1456.47 567.625 1450.55 562.08C1444.82 556.351 1441.96 548.959 1441.96 539.903C1441.96 531.032 1445.47 523.917 1452.5 518.558C1459.71 513.198 1469.5 510.519 1481.89 510.519C1511.84 510.519 1539.48 522.254 1564.81 545.725L1559.26 558.199L1547.34 557.091C1526.81 535.468 1504.81 524.657 1481.34 524.657C1474.86 524.657 1468.86 525.488 1463.31 527.151C1460.54 530.663 1459.15 534.821 1459.15 539.626C1459.15 551.269 1465.07 557.091 1476.9 557.091C1483.74 557.091 1489.84 555.52 1495.2 552.378C1497.23 548.127 1498.25 541.936 1498.25 533.805C1498.25 531.402 1498.07 528.538 1497.7 525.211L1514.89 529.092ZM1497.42 517.449C1495.02 484.738 1500.47 462.191 1513.78 449.809C1520.81 445.743 1530.05 443.987 1541.51 444.542C1533.93 438.258 1525.43 434.377 1516 432.899L1516.28 427.632C1537.54 428.186 1553.99 434.1 1565.64 445.373L1565.92 452.304L1560.37 457.848L1557.6 456.739C1545.95 454.891 1532.73 454.706 1517.94 456.185C1511.47 470.6 1509.9 492.222 1513.23 521.053L1497.42 517.449Z" fill="black"/>
<path d="M1733.82 495.826C1742.32 488.619 1749.35 483.906 1754.89 481.688C1742.32 479.286 1727.72 479.471 1711.08 482.243L1709.42 477.253C1723.1 470.6 1736.68 467.55 1750.18 468.105C1765.16 468.659 1774.4 470.785 1777.91 474.481L1780.41 481.134L1777.08 488.064H1774.03C1762.38 490.097 1749.81 494.255 1736.31 500.539L1733.82 495.826ZM1692.78 512.182L1694.72 513.568L1695.55 514.4C1699.99 529.739 1709.88 538.979 1725.22 542.121C1737.05 544.708 1750.37 542.953 1765.16 536.854L1768.48 537.686L1770.42 549.051L1766.54 555.15C1751.94 559.77 1737.33 560.51 1722.73 557.368C1703.31 553.117 1691.39 538.61 1686.95 513.845L1692.78 512.182ZM1730.77 448.145C1688.8 454.244 1651.92 455.723 1620.12 452.581L1616.24 435.116V425.691H1626.22L1633.43 439.829C1643.97 441.862 1676.32 439.367 1730.49 432.344L1734.65 442.047L1730.77 448.145ZM1661.16 449.809C1660.79 439.459 1660.61 429.295 1660.61 419.315L1656.45 413.216L1656.73 409.335H1674.75L1674.47 447.037L1661.16 449.809ZM1634.26 565.684C1649.79 527.798 1658.76 487.879 1661.16 445.928L1673.92 449.254C1675.03 493.609 1668.74 533.712 1655.06 569.565H1636.76L1634.26 565.684Z" fill="black"/>
<path d="M1813.83 498.876C1813.83 487.787 1815.77 476.791 1819.65 465.887C1823.72 454.983 1829.73 445.281 1837.68 436.78C1845.81 428.094 1855.98 421.163 1868.18 415.989C1880.57 410.629 1894.99 407.949 1911.44 407.949C1927.9 407.949 1942.13 410.167 1954.15 414.602C1966.17 418.853 1976.06 424.675 1983.82 432.067C1991.77 439.459 1997.59 448.145 2001.29 458.125C2005.17 467.92 2007.12 478.362 2007.12 489.45C2007.12 500.539 2005.36 511.258 2001.85 521.607C1998.33 531.772 1992.79 540.827 1985.21 548.774C1977.81 556.536 1968.2 562.727 1956.37 567.348C1944.72 571.968 1930.67 574.278 1914.22 574.278V561.526C1939.36 561.711 1958.22 556.167 1970.79 544.893C1979.29 526.597 1983.54 508.116 1983.54 489.45C1983.54 479.84 1981.97 470.877 1978.83 462.561C1975.69 454.059 1971.07 446.667 1964.96 440.383C1958.86 434.1 1951.28 429.202 1942.23 425.691C1933.35 421.995 1923.09 420.147 1911.44 420.147C1891.66 420.147 1872.8 424.397 1854.87 432.899C1838.42 450.455 1830.19 470.415 1830.19 492.777C1830.19 508.671 1832.96 520.591 1838.51 528.538C1844.24 536.3 1851.45 540.181 1860.14 540.181C1865.32 540.181 1870.68 538.887 1876.22 536.3C1879.18 529.092 1881.12 522.993 1882.05 518.003L1899.24 418.483L1922.81 416.266L1904.79 520.498C1902.2 534.913 1897.02 545.448 1889.26 552.101C1881.68 558.569 1871.97 561.803 1860.14 561.803C1850.71 561.803 1843.04 559.955 1837.12 556.259C1831.21 552.378 1826.49 547.481 1822.98 541.567C1819.47 535.653 1817.07 528.907 1815.77 521.33C1814.48 513.753 1813.83 506.268 1813.83 498.876Z" fill="black"/>
<path d="M2097.08 439.275L2101.51 430.958L2135.62 433.73V443.433L2120.65 447.591L2120.37 549.051C2120.37 557.737 2124.71 562.08 2133.4 562.08H2180.82L2191.08 522.439L2200.79 523.548L2198.29 572.06L2194.41 574.832L2190.81 577.327H2130.35C2108.17 577.327 2097.08 566.239 2097.08 544.062V439.275ZM2096.52 387.99C2097.08 386.511 2098.28 385.31 2100.13 384.386C2101.97 383.462 2104.56 383 2107.89 383C2111.22 383 2115.38 383.647 2120.37 384.94C2125.36 386.234 2131.37 388.452 2138.39 391.594C2152.08 397.692 2162.98 404.9 2171.12 413.216L2170.84 420.424L2160.03 430.958L2157.25 429.572C2144.31 413.678 2124.07 399.818 2096.52 387.99ZM2189.42 450.918C2190.71 449.993 2192.38 449.624 2194.41 449.809C2196.45 449.809 2198.85 450.64 2201.62 452.304C2204.58 453.967 2207.91 456.647 2211.6 460.343C2215.3 463.854 2219.37 468.844 2223.81 475.312C2232.5 487.51 2238.23 499.245 2241 510.519L2237.12 516.617L2222.42 519.944L2220.76 517.449C2217.61 497.305 2207.17 475.128 2189.42 450.918ZM2066.02 454.799C2067.5 454.983 2068.88 455.907 2070.18 457.571C2071.66 459.049 2072.76 461.359 2073.5 464.501C2074.43 467.643 2074.89 471.801 2074.89 476.976C2074.89 482.15 2074.24 488.619 2072.95 496.381C2070.55 511.165 2066.29 523.548 2060.19 533.527L2053.26 535.191L2040.5 527.151L2041.06 524.102C2053.08 507.654 2061.39 484.553 2066.02 454.799Z" fill="black"/>
<path d="M1333.71 741.112L1321.23 755.804H1320.67C1292.39 730.3 1266.5 701.193 1243.03 668.481L1172.59 731.409L1159 715.608L1161.77 713.113L1173.97 709.232C1182.66 702.764 1207.53 682.342 1248.57 647.968H1254.12C1280.19 681.048 1306.62 709.786 1333.43 734.181L1333.71 741.112Z" fill="black"/>
<path d="M1359.07 700.084C1391.61 682.157 1416.94 656.469 1435.05 623.018L1439.21 621.078L1460.57 627.731L1459.18 633.275L1456.13 634.384L1455.02 636.602C1475.73 658.409 1499.39 675.874 1526.01 688.995V699.252L1516.31 709.509C1487.65 690.843 1465.28 668.759 1449.2 643.255C1431.82 672.085 1403.35 694.817 1363.79 711.45H1363.23L1358.79 707.014L1359.07 700.084ZM1405.94 703.41L1405.38 694.817C1416.48 694.078 1434.78 693.708 1460.29 693.708L1472.21 684.837L1490.24 699.529L1489.96 705.074L1405.94 703.41ZM1389.3 732.518L1388.74 723.924C1410.93 723.185 1440.32 722.815 1476.93 722.815L1488.85 713.945L1506.88 728.637V730.577L1497.45 734.458L1474.43 782.971L1457.24 782.694L1454.47 777.149L1477.48 733.904L1389.3 732.518Z" fill="black"/>
<path d="M1630.59 691.213C1635.4 691.213 1639.84 691.583 1643.91 692.322C1647.97 693.061 1651.48 694.54 1654.44 696.757C1657.4 698.975 1659.71 702.209 1661.38 706.46C1663.04 710.71 1663.87 716.347 1663.87 723.37C1663.87 727.436 1663.5 731.132 1662.76 734.458C1662.02 737.6 1660.82 740.742 1659.16 743.884C1657.68 746.841 1655.83 749.89 1653.61 753.032C1651.39 755.989 1648.8 759.315 1645.85 763.011C1635.12 776.503 1616.82 787.499 1590.94 796L1588.72 788.515C1612.94 776.687 1629.58 762.272 1638.64 745.27C1634.57 745.824 1630.41 746.101 1626.16 746.101C1614.88 746.101 1606.19 743.606 1600.09 738.617C1593.99 733.442 1590.94 725.865 1590.94 715.885C1590.94 710.156 1592.14 705.628 1594.54 702.302C1597.13 698.975 1600.37 696.48 1604.25 694.817C1608.13 693.153 1612.38 692.137 1617.01 691.767C1621.63 691.398 1626.16 691.213 1630.59 691.213ZM1648.62 711.172C1648.06 685.299 1647.7 668.574 1647.51 660.997C1635.68 662.29 1625.23 664.138 1616.17 666.541C1590.29 673.748 1572.64 675.689 1563.21 672.362L1551.01 654.898V645.473H1560.99L1573.75 656.838C1601.11 653.327 1625.6 650.555 1647.23 648.522C1647.05 637.433 1647.23 629.209 1647.79 623.85L1642.52 612.207L1642.8 608.326H1660.82L1660.54 647.413C1686.43 645.38 1705.1 644.641 1716.56 645.195L1720.72 654.898L1716.84 660.997C1697.98 659.333 1679.12 659.056 1660.27 660.165L1659.99 707.291V709.232L1648.62 711.172ZM1608.13 717.826C1608.13 721.522 1608.87 724.479 1610.35 726.696C1611.83 728.729 1613.77 730.3 1616.17 731.409C1618.58 732.518 1621.26 733.257 1624.22 733.627C1627.17 733.812 1630.13 733.904 1633.09 733.904C1636.79 733.904 1640.39 733.257 1643.91 731.963C1645.94 728.452 1646.96 724.294 1646.96 719.489C1646.96 713.02 1645.29 708.4 1641.96 705.628C1638.64 702.856 1634.29 701.47 1628.93 701.47C1622.64 701.47 1616.45 702.579 1610.35 704.796C1608.87 708.862 1608.13 713.205 1608.13 717.826Z" fill="black"/>
<path d="M1838 792.673C1813.6 765.876 1784.85 739.448 1751.76 713.39V707.846C1793.72 658.317 1817.94 629.209 1824.41 620.523L1828.29 608.326L1830.79 605.554L1846.6 619.137L1772.28 702.302C1805 725.772 1834.12 751.646 1859.63 779.922V780.476L1844.93 792.951L1838 792.673ZM1858.52 632.444C1865.55 639.281 1871.28 647.043 1875.71 655.73L1868.23 661.274L1864.62 660.997C1859.44 652.311 1853.44 644.364 1846.6 637.156L1853.81 631.612L1858.52 632.444ZM1841.6 644.918C1848.44 651.941 1854.08 659.703 1858.52 668.204L1851.31 673.748L1847.43 673.471C1842.25 664.785 1836.34 656.931 1829.68 649.908L1836.89 644.364L1841.6 644.918Z" fill="black"/>
<path d="M71.4207 48H126.154V102.732H71.4207V48ZM165.867 48H220.6V102.732H165.867V48ZM235.874 121.57V172.483H108.588V184.703H179.869V230.525H108.588V248.854H235.874V299.767H53.8552V121.57H235.874Z" fill="black"/>
<path d="M266.281 299.767V121.57H447.028V299.767H392.295V175.029H321.014V299.767H266.281Z" fill="black"/>
<path d="M659.499 121.57V172.483H532.213V184.703H603.493V230.525H532.213V248.854H659.499V299.767H477.48V121.57H659.499Z" fill="black"/>
<path d="M673.932 299.767V121.57H786.198C799.266 121.57 809.958 123.182 818.275 126.407C826.591 129.462 833.125 133.535 837.877 138.626C842.798 143.548 846.108 149.063 847.805 155.173C849.672 161.113 850.605 167.053 850.605 172.993C850.605 182.327 848.399 191.661 843.986 200.995C839.574 210.329 832.531 218.9 822.857 226.706C813.183 234.343 800.624 240.877 785.18 246.308C769.736 251.739 750.898 255.303 728.665 257V299.767H673.932ZM729.938 206.85C735.708 206.85 742.327 205.917 749.794 204.05C757.432 202.183 764.645 199.892 771.433 197.176C778.222 194.291 783.907 191.152 788.49 187.757C793.242 184.363 795.618 181.054 795.618 177.829C795.618 175.623 795.024 174.011 793.836 172.993C792.648 171.805 791.12 171.041 789.253 170.701C787.386 170.192 785.35 169.938 783.143 169.938C780.937 169.938 778.731 169.938 776.525 169.938H729.938V206.85Z" fill="black"/>
<path d="M872.592 299.767V121.57H927.325V180.12H1006.24V121.57H1060.98V299.767H1006.24V231.034H927.325V299.767H872.592Z" fill="black"/>
<path d="M1091.09 121.57H1145.83V166.119C1167.72 169.683 1186.05 174.181 1200.81 179.611C1215.75 185.042 1227.71 191.321 1236.71 198.449C1245.87 205.408 1252.41 213.129 1256.31 221.615C1260.21 229.931 1262.17 238.841 1262.17 248.345C1262.17 254.115 1261.32 260.055 1259.62 266.164C1258.09 272.274 1255.04 277.874 1250.45 282.966C1245.87 287.887 1239.42 291.96 1231.11 295.185C1222.79 298.24 1211.84 299.767 1198.27 299.767H1091.09V121.57ZM1147.1 217.033V251.399H1188.59C1189.95 251.399 1191.31 251.399 1192.67 251.399C1194.19 251.399 1195.55 251.145 1196.74 250.636C1197.93 249.957 1198.95 248.939 1199.8 247.581C1200.64 246.053 1201.07 243.932 1201.07 241.217C1201.07 237.822 1198.95 234.852 1194.7 232.307C1190.63 229.591 1185.71 227.3 1179.94 225.433C1174.17 223.397 1168.23 221.7 1162.12 220.342C1156.01 218.984 1151 217.881 1147.1 217.033ZM1283.29 121.57H1338.03V299.767H1283.29V121.57Z" fill="black"/>
<path d="M1358.62 299.767V121.57H1413.35V232.052L1492.27 173.502V121.57H1547V299.767H1492.27V241.217L1413.35 299.767H1358.62ZM1390.95 50.2911H1511.87V96.1132H1390.95V50.2911Z" fill="black"/>
<path d="M48 349.803H242.748V400.716H171.468V528H116.735V400.716H48V349.803Z" fill="black"/>
<path d="M440.477 349.803V400.716H313.191V412.936H384.471V458.758H313.191V477.087H440.477V528H258.458V349.803H440.477Z" fill="black"/>
<path d="M678.679 528H620.128L607.908 493.124H515.244L503.024 528H444.473L506.843 349.803H616.309L678.679 528ZM574.05 400.716H549.102L533.573 444.756H589.579L574.05 400.716Z" fill="black"/>
<path d="M691.641 349.803H886.389V400.716H815.108V528H760.375V400.716H691.641V349.803Z" fill="black"/>
<path d="M904.39 528V349.803H1016.66C1029.72 349.803 1040.42 351.415 1048.73 354.64C1057.05 357.694 1063.58 361.767 1068.33 366.859C1073.26 371.78 1076.57 377.296 1078.26 383.406C1080.13 389.346 1081.06 395.286 1081.06 401.225C1081.06 410.56 1078.86 419.894 1074.44 429.228C1070.03 438.562 1062.99 447.132 1053.31 454.939C1043.64 462.576 1031.08 469.11 1015.64 474.541C1000.19 479.972 981.355 483.536 959.123 485.233V528H904.39ZM960.395 435.083C966.166 435.083 972.785 434.149 980.252 432.283C987.889 430.416 995.102 428.125 1001.89 425.409C1008.68 422.524 1014.36 419.385 1018.95 415.99C1023.7 412.596 1026.08 409.287 1026.08 406.062C1026.08 403.856 1025.48 402.244 1024.29 401.225C1023.11 400.037 1021.58 399.274 1019.71 398.934C1017.84 398.425 1015.81 398.171 1013.6 398.171C1011.39 398.171 1009.19 398.171 1006.98 398.171H960.395V435.083Z" fill="black"/>
<path d="M139.489 627.095V623.359H211.373V627.095H139.489ZM48 627.406V623.67H119.884V627.406H48ZM260.851 775.605H293.526V779.341H201.415V775.605H226.31L195.502 703.996H121.751L155.67 775.605H179.009V779.341H90.0101V775.605H121.129L84.0976 631.142H87.2095L119.884 700.26H193.946L164.384 631.142H167.496L260.851 775.605Z" fill="black"/>
<path d="M436.869 711.78H439.669C450.664 743.952 453.154 766.472 447.138 779.341H310.216V775.605H347.558L301.191 631.142H310.527L382.1 775.605H396.414C403.675 775.605 409.795 774.152 414.774 771.246C419.961 768.341 424.11 764.501 427.222 759.727C430.541 754.953 432.927 749.349 434.379 742.914C436.039 736.272 436.869 729.423 436.869 722.366V711.78ZM357.205 651.38H366.229L409.173 749.452H399.837L357.205 651.38ZM273.185 627.406V623.67H401.082L423.488 672.24H419.442L416.019 666.635C412.907 661.446 409.484 656.569 405.75 652.002C402.016 647.228 398.074 643.077 393.925 639.549C389.776 635.812 385.419 632.907 380.855 630.831C376.291 628.548 371.623 627.406 366.852 627.406H273.185ZM339.467 698.704H385.523L387.079 702.44H341.334L339.467 698.704Z" fill="black"/>
<path d="M447.315 627.406V623.67H528.535V627.406H447.315ZM558.097 775.605C567.433 775.605 574.59 773.633 579.569 769.69C584.756 765.538 588.49 760.349 590.772 754.123C593.261 747.896 594.61 741.046 594.817 733.574C595.232 725.894 595.129 718.63 594.506 711.78H597.307C606.85 734.197 611.621 751.839 611.621 764.708C611.621 770.52 610.688 775.398 608.821 779.341H481.234V775.605H518.577L472.21 631.142H481.546L553.118 775.605H558.097Z" fill="black"/>
<path d="M611.721 627.406V623.67H692.941V627.406H611.721ZM722.503 775.605C731.839 775.605 738.996 773.633 743.975 769.69C749.162 765.538 752.896 760.349 755.178 754.123C757.667 747.896 759.016 741.046 759.223 733.574C759.638 725.894 759.535 718.63 758.912 711.78H761.713C771.256 734.197 776.028 751.839 776.028 764.708C776.028 770.52 775.094 775.398 773.227 779.341H645.64V775.605H682.983L636.616 631.142H645.952L717.524 775.605H722.503Z" fill="black"/>
<path d="M874.462 784.011C861.185 784.011 849.878 782.455 840.543 779.341C831.207 776.228 823.22 771.973 816.581 766.576C809.943 761.18 804.341 754.745 799.777 747.273C795.421 739.593 791.479 731.291 787.952 722.366C783.388 710.95 780.588 699.119 779.55 686.873C778.513 674.627 779.758 663.522 783.284 653.559C786.811 643.388 792.828 635.086 801.333 628.652C810.046 622.217 821.768 619 836.497 619C849.775 619 861.081 620.557 870.417 623.67C879.752 626.784 887.739 631.142 894.378 636.747C901.017 642.143 906.618 648.681 911.182 656.361C915.746 663.833 919.791 672.032 923.318 680.957C927.882 692.581 930.683 704.515 931.72 716.761C932.758 728.8 931.513 739.801 927.986 749.764C924.459 759.727 918.339 767.925 909.626 774.36C900.913 780.794 889.192 784.011 874.462 784.011ZM811.602 709.601C815.959 720.809 820.108 730.772 824.05 739.489C828.199 748.207 832.659 755.575 837.431 761.595C842.202 767.614 847.493 772.18 853.301 775.294C859.318 778.407 866.371 779.964 874.462 779.964C888.777 779.964 898.942 777.473 904.958 772.492C910.975 767.51 914.294 760.972 914.916 752.877C915.539 744.575 914.19 735.234 910.871 724.856C907.551 714.478 903.714 703.996 899.357 693.411C894.793 682.202 890.436 672.24 886.287 663.522C882.345 654.804 877.989 647.436 873.217 641.417C868.653 635.19 863.363 630.52 857.347 627.406C851.538 624.293 844.588 622.736 836.497 622.736C826.954 622.736 819.278 623.878 813.47 626.161C807.661 628.444 803.408 631.661 800.711 635.812C798.014 639.756 796.458 644.53 796.043 650.134C795.836 655.738 796.354 661.758 797.599 668.192C799.051 674.626 801.022 681.372 803.512 688.429C806.209 695.486 808.905 702.544 811.602 709.601Z" fill="black"/>
<path d="M252.449 1010.33H223.82L119.573 863.065C117.913 860.782 116.046 859.433 113.971 859.017C112.104 858.395 110.341 858.083 108.681 858.083C106.192 858.083 103.91 859.017 101.835 860.886C99.9681 862.546 97.7898 864.518 95.3003 866.801C93.0183 868.877 90.2176 870.849 86.8983 872.717C83.7864 874.377 79.8447 875.207 75.0732 875.207C66.5674 875.207 60.24 872.717 56.0908 867.735C51.9417 862.754 49.2447 856.527 48 849.055H51.7342C53.6014 854.244 56.6095 857.876 60.7586 859.952C65.1152 861.82 69.8868 862.754 75.0732 862.754C79.2224 862.754 82.8529 862.338 85.9647 861.508C89.0766 860.678 91.8773 859.744 94.3668 858.706C96.8562 857.461 99.242 856.423 101.524 855.593C103.806 854.762 106.296 854.347 108.993 854.347C112.519 854.347 115.735 854.659 118.639 855.281C121.544 855.697 123.826 856.838 125.485 858.706L229.422 963.629L214.173 881.123C210.854 863.48 218.219 854.659 236.268 854.659H292.281V858.395H238.135C222.575 858.395 216.663 865.867 220.397 880.811L252.449 1010.33ZM244.359 868.98L331.802 1010.33H294.46L235.023 868.98H244.359ZM111.482 875.519L174.653 1010.33H140.111L108.37 875.519H111.482Z" fill="black"/>
<path d="M331.836 854.659H415.856V858.395H331.836V854.659ZM424.881 854.659H510.457V858.395H424.881V854.659ZM370.734 869.292L375.091 864.933L457.866 940.901L466.268 863.999H470.625L461.601 944.325L489.296 1010.33H456.31L439.818 957.402L370.734 869.292Z" fill="black"/>
<path d="M650.619 858.395V854.659H731.839V858.395H650.619ZM761.402 1006.59C770.737 1006.59 777.895 1004.62 782.874 1000.68C788.06 996.527 791.794 991.338 794.076 985.111C796.566 978.884 797.914 972.035 798.122 964.563C798.537 956.883 798.433 949.618 797.811 942.769H800.611C810.154 965.185 814.926 982.828 814.926 995.697C814.926 1001.51 813.992 1006.39 812.125 1010.33H684.539V1006.59H721.881L675.514 862.131H684.85L756.423 1006.59H761.402Z" fill="black"/>
<path d="M913.36 1015C900.083 1015 888.777 1013.44 879.441 1010.33C870.105 1007.22 862.118 1002.96 855.48 997.565C848.841 992.168 843.24 985.734 838.676 978.262C834.319 970.582 830.377 962.279 826.851 953.354C822.287 941.938 819.486 930.107 818.448 917.861C817.411 905.615 818.656 894.511 822.183 884.548C825.71 874.377 831.726 866.075 840.232 859.64C848.945 853.206 860.666 849.989 875.396 849.989C888.673 849.989 899.979 851.545 909.315 854.659C918.65 857.772 926.638 862.131 933.276 867.735C939.915 873.132 945.516 879.67 950.08 887.35C954.644 894.822 958.69 903.021 962.217 911.946C966.781 923.569 969.581 935.504 970.619 947.75C971.656 959.789 970.411 970.789 966.884 980.752C963.358 990.715 957.238 998.914 948.524 1005.35C939.811 1011.78 928.09 1015 913.36 1015ZM850.501 940.589C854.857 951.797 859.007 961.76 862.948 970.478C867.097 979.196 871.558 986.564 876.329 992.583C881.101 998.603 886.391 1003.17 892.2 1006.28C898.216 1009.4 905.269 1010.95 913.36 1010.95C927.675 1010.95 937.84 1008.46 943.857 1003.48C949.873 998.499 953.192 991.961 953.815 983.866C954.437 975.563 953.088 966.223 949.769 955.845C946.45 945.467 942.612 934.985 938.255 924.399C933.691 913.191 929.335 903.228 925.185 894.511C921.244 885.793 916.887 878.425 912.116 872.405C907.551 866.178 902.261 861.508 896.245 858.395C890.436 855.281 883.486 853.725 875.396 853.725C865.853 853.725 858.177 854.866 852.368 857.149C846.559 859.433 842.306 862.65 839.609 866.801C836.912 870.745 835.356 875.519 834.941 881.123C834.734 886.727 835.253 892.746 836.497 899.181C837.95 905.615 839.92 912.361 842.41 919.418C845.107 926.475 847.804 933.532 850.501 940.589Z" fill="black"/>
<path d="M988.269 877.387C980.385 877.387 974.784 874.896 971.465 869.914C967.938 864.933 965.552 858.706 964.307 851.234H968.042C969.909 856.423 972.606 860.055 976.132 862.131C979.659 863.999 983.705 864.933 988.269 864.933C992.418 864.933 995.841 864.31 998.538 863.065C1001.23 861.82 1003.62 860.47 1005.7 859.017C1007.77 857.565 1009.74 856.215 1011.61 854.97C1013.47 853.725 1015.76 853.102 1018.45 853.102C1039.82 853.31 1053.41 857.668 1059.22 866.178L1137.95 982.62L1122.08 863.376H1126.12L1146.04 1010.33H1123.63L1026.54 863.065C1024.88 860.782 1023.43 859.225 1022.19 858.395C1021.15 857.357 1019.8 856.838 1018.14 856.838C1015.65 856.838 1013.58 857.98 1011.92 860.263C1010.47 862.338 1008.7 864.622 1006.63 867.112C1004.76 869.603 1002.38 871.99 999.471 874.273C996.774 876.349 993.04 877.387 988.269 877.387ZM1082.87 854.659H1163.78V858.395H1082.87V854.659Z" fill="black"/>
<path d="M1324.54 942.769H1327.34C1338.34 974.941 1340.82 997.461 1334.81 1010.33H1197.89V1006.59H1235.23L1188.86 862.131H1198.2L1269.77 1006.59H1284.09C1291.35 1006.59 1297.47 1005.14 1302.45 1002.23C1307.63 999.329 1311.78 995.489 1314.89 990.715C1318.21 985.941 1320.6 980.337 1322.05 973.903C1323.71 967.261 1324.54 960.411 1324.54 953.354V942.769ZM1244.88 882.368H1253.9L1296.84 980.441H1287.51L1244.88 882.368ZM1160.86 858.395V854.659H1288.75L1311.16 903.228H1307.11L1303.69 897.624C1300.58 892.435 1297.16 887.557 1293.42 882.991C1289.69 878.217 1285.74 874.066 1281.6 870.537C1277.45 866.801 1273.09 863.895 1268.53 861.82C1263.96 859.536 1259.29 858.395 1254.52 858.395H1160.86ZM1227.14 929.692H1273.19L1274.75 933.428H1229.01L1227.14 929.692Z" fill="black"/>
</g>
<defs>
<clipPath id="clip0_76_225">
<rect width="1920" height="1080" fill="white"/>
</clipPath>
</defs>
</svg>
