<svg width="1920" height="1009" viewBox="0 0 1920 1009" fill="none" xmlns="http://www.w3.org/2000/svg">
<rect width="1920" height="1009" fill="#D7FF81"/>
<path d="M984.765 384.39C1009.27 356.97 984.563 314.173 948.566 321.697L760.105 361.049C748.263 363.522 735.942 360.22 726.924 352.158L583.39 223.843C555.97 199.336 513.173 224.045 520.689 260.042L560.049 448.503C562.522 460.345 559.22 472.665 551.158 481.683L422.843 625.218C398.336 652.638 423.045 695.435 459.042 687.919L647.503 648.559C659.345 646.086 671.665 649.388 680.683 657.457L824.218 785.765C851.638 810.271 894.435 785.563 886.919 749.566L847.559 561.105C845.086 549.263 848.388 536.95 856.457 527.924L984.765 384.39ZM796.26 515.977C796.26 570.407 756.332 611.455 703.389 611.455C677.628 611.455 654.055 601.645 637.02 583.833C620.217 566.275 610.967 542.172 610.967 515.977V425.416C610.967 409.763 623.706 397.024 639.359 397.024H642.048C657.701 397.024 670.44 409.763 670.44 425.416V515.977C670.44 537.518 683.679 551.99 703.389 551.99C723.368 551.99 736.787 537.518 736.787 515.977V425.416C736.787 409.763 749.526 397.024 765.178 397.024H767.868C783.521 397.024 796.26 409.763 796.26 425.416V515.977Z" fill="#1E1E1E"/>
<path d="M1027.19 614.459C1010.81 614.459 998.122 609.961 989.119 600.958C980.243 591.835 975.805 578.895 975.805 562.136V480.182H999.25V560.074C999.25 570.699 1001.63 578.828 1006.37 584.454C1011.25 590.08 1018.19 592.889 1027.19 592.889C1036.19 592.889 1043.07 590.072 1047.82 584.454C1052.69 578.701 1055.13 570.579 1055.13 560.074V480.182H1078.57V562.136C1078.57 578.887 1074.14 591.828 1065.26 600.958C1056.38 609.961 1043.69 614.459 1027.19 614.459Z" fill="#1E1E1E"/>
<path d="M1165.39 611.456V561.008C1165.39 556.256 1164.89 552.259 1163.89 549.009C1163.01 545.759 1161.64 543.137 1159.76 541.134C1158.01 539.012 1155.95 537.443 1153.58 536.442C1151.2 535.441 1148.64 534.94 1145.89 534.94C1138.51 534.94 1132.82 537.69 1128.82 543.189C1124.82 548.688 1122.82 556.376 1122.82 566.253H1117.57C1117.57 558.378 1118.32 551.31 1119.82 545.064C1121.44 538.691 1123.76 533.371 1126.76 529.12C1129.88 524.742 1133.69 521.432 1138.2 519.183C1142.7 516.807 1147.82 515.619 1153.58 515.619C1158.45 515.619 1162.95 516.493 1167.08 518.242C1171.2 519.863 1174.76 522.366 1177.77 525.743C1180.76 529.12 1183.08 533.304 1184.71 538.31C1186.33 543.189 1187.14 548.934 1187.14 555.562V611.448H1165.39V611.456Z" fill="#1E1E1E"/>
<path d="M1122.82 517.688H1101.06V611.456H1122.82V517.688Z" fill="#1E1E1E"/>
<path d="M1237.42 517.688H1214.55V611.456H1237.42V517.688Z" fill="#1E1E1E"/>
<path d="M1212.3 489.558C1212.3 481.497 1217.92 475.871 1225.98 475.871C1234.05 475.871 1239.49 481.497 1239.49 489.558C1239.49 497.62 1234.05 503.059 1225.98 503.059C1217.92 503.067 1212.3 497.628 1212.3 489.558Z" fill="#1E1E1E"/>
<path d="M1037.12 746.689V696.242C1037.12 686.865 1035.56 680.178 1032.43 676.173C1029.44 672.169 1025.19 670.174 1019.69 670.174C1012.68 670.174 1007.18 672.923 1003.18 678.422C999.177 683.921 997.182 691.609 997.182 701.487H991.93C991.93 693.612 992.677 686.544 994.179 680.298C995.8 673.924 998.116 668.605 1001.12 664.354C1004.12 659.975 1007.81 656.665 1012.18 654.416C1016.68 652.041 1021.75 650.853 1027.37 650.853C1037 650.853 1044.63 654.23 1050.25 660.976C1056.01 667.731 1058.87 677.668 1058.87 690.795V746.682H1037.12V746.689Z" fill="#1E1E1E"/>
<path d="M997.194 652.922H975.438V746.689H997.194V652.922Z" fill="#1E1E1E"/>
<path d="M1098.83 746.689V696.242C1098.83 686.865 1097.27 680.178 1094.14 676.173C1091.14 672.169 1086.89 670.174 1081.38 670.174C1074.26 670.174 1068.7 672.923 1064.7 678.422C1060.82 683.921 1058.88 691.609 1058.88 701.487H1053.63C1053.63 693.612 1054.38 686.544 1055.88 680.298C1057.38 673.924 1059.63 668.605 1062.63 664.354C1065.76 659.975 1069.51 656.665 1073.88 654.416C1078.39 652.041 1083.45 650.853 1089.08 650.853C1098.7 650.853 1106.33 654.23 1111.96 660.976C1117.7 667.731 1120.58 677.668 1120.58 690.795V746.682H1098.83V746.689Z" fill="#1E1E1E"/>
<path d="M1202.28 746.689V685.931C1202.28 680.051 1200.59 675.613 1197.21 672.617C1193.96 669.494 1189.4 667.932 1183.53 667.932C1180.9 667.932 1178.46 668.246 1176.21 668.874C1174.09 669.501 1172.21 670.435 1170.59 671.683C1168.96 672.931 1167.65 674.433 1166.65 676.181C1165.65 677.802 1164.96 679.677 1164.59 681.807H1143.2C1143.7 677.055 1144.96 672.744 1146.95 668.866C1149.08 664.989 1151.83 661.679 1155.21 658.929C1158.71 656.18 1162.84 654.05 1167.58 652.556C1172.33 651.054 1177.65 650.307 1183.53 650.307C1189.65 650.307 1195.21 651.121 1200.22 652.743C1205.22 654.364 1209.47 656.68 1212.97 659.684C1216.47 662.687 1219.16 666.311 1221.03 670.562C1222.91 674.814 1223.84 679.625 1223.84 685.005V746.704H1202.28V746.689Z" fill="#1E1E1E"/>
<path d="M1170.39 749.319C1161.26 749.319 1153.89 746.817 1148.26 741.818C1142.64 736.693 1139.83 730.006 1139.83 721.75C1139.83 716.624 1141.08 712.119 1143.58 708.249C1146.07 704.371 1150.01 701.121 1155.39 698.499C1160.76 695.749 1167.64 693.687 1176.02 692.312C1184.52 690.937 1194.83 690.25 1206.96 690.25V705.626C1199.46 705.626 1192.9 705.88 1187.27 706.373C1181.65 706.874 1176.95 707.748 1173.2 708.996C1169.45 710.124 1166.58 711.686 1164.58 713.681C1162.71 715.556 1161.76 717.992 1161.76 720.995C1161.76 724.746 1163.08 727.682 1165.7 729.811C1168.46 731.941 1172.21 733.002 1176.95 733.002C1180.59 733.002 1183.89 732.374 1186.9 731.126C1190.02 729.879 1192.71 728.123 1194.96 725.874C1197.21 723.498 1198.96 720.749 1200.21 717.625C1201.59 714.502 1202.27 711.066 1202.27 707.315H1206.59C1206.59 713.942 1205.71 719.882 1203.96 725.134C1202.33 730.387 1199.9 734.825 1196.65 738.449C1193.53 741.945 1189.71 744.635 1185.21 746.51C1180.83 748.378 1175.89 749.319 1170.39 749.319Z" fill="#1E1E1E"/>
<path d="M1299.01 652.922H1236.75V671.676H1299.01V652.922Z" fill="#1E1E1E"/>
<path d="M1299.38 746.689H1281.38C1271.25 746.689 1263.75 744.313 1258.88 739.561C1254.13 734.81 1251.75 727.562 1251.75 717.805V624.785H1273.51V712.739C1273.51 718.118 1274.44 721.929 1276.32 724.178C1278.32 726.427 1281.63 727.555 1286.25 727.555H1299.38V746.689Z" fill="#1E1E1E"/>
<path d="M1381.74 710.871H1404.06C1403.69 716.497 1402.25 721.682 1399.75 726.434C1397.25 731.059 1394 735.123 1390 738.62C1385.99 741.997 1381.31 744.619 1375.93 746.495C1370.68 748.37 1364.99 749.304 1358.87 749.304C1351.99 749.304 1345.61 748.056 1339.74 745.553C1333.87 743.05 1328.8 739.681 1324.55 735.429C1320.3 731.051 1316.99 725.866 1314.61 719.866C1312.36 713.74 1311.23 707.053 1311.23 699.798C1311.23 692.543 1312.42 685.923 1314.8 679.916C1317.17 673.79 1320.42 668.605 1324.55 664.353C1328.8 659.975 1333.87 656.538 1339.74 654.043C1345.61 651.54 1352.05 650.292 1359.05 650.292C1365.06 650.292 1370.68 651.233 1375.93 653.101C1381.31 654.977 1385.99 657.599 1390 660.976C1394 664.353 1397.25 668.418 1399.75 673.162C1402.25 677.914 1403.69 683.039 1404.06 688.538H1381.74C1381.5 685.662 1380.75 683.099 1379.49 680.85C1378.25 678.474 1376.62 676.472 1374.62 674.851C1372.62 673.102 1370.3 671.787 1367.68 670.913C1365.06 670.039 1362.24 669.598 1359.24 669.598C1355.37 669.598 1351.8 670.345 1348.55 671.847C1345.42 673.222 1342.74 675.284 1340.49 678.034C1338.24 680.656 1336.49 683.846 1335.24 687.597C1334.11 691.221 1333.55 695.285 1333.55 699.791C1333.55 704.296 1334.11 708.42 1335.24 712.171C1336.49 715.794 1338.24 718.925 1340.49 721.547C1342.74 724.17 1345.42 726.232 1348.55 727.734C1351.8 729.109 1355.37 729.796 1359.24 729.796C1362.24 729.796 1365.06 729.355 1367.68 728.481C1370.3 727.607 1372.62 726.352 1374.62 724.73C1376.62 722.982 1378.25 720.98 1379.49 718.731C1380.75 716.377 1381.5 713.747 1381.74 710.871Z" fill="#1E1E1E"/>
<path d="M1486.25 746.689V696.242C1486.25 691.49 1485.75 687.493 1484.75 684.243C1483.87 680.992 1482.5 678.37 1480.62 676.368C1478.87 674.246 1476.8 672.677 1474.43 671.676C1472.06 670.674 1469.5 670.174 1466.74 670.174C1459.36 670.174 1453.68 672.923 1449.67 678.422C1445.68 683.921 1443.67 691.609 1443.67 701.487H1438.42C1438.42 693.612 1439.18 686.544 1440.67 680.298C1442.3 673.924 1444.62 668.605 1447.61 664.354C1450.74 659.975 1454.55 656.665 1459.05 654.416C1463.56 652.041 1468.68 650.853 1474.43 650.853C1479.31 650.853 1483.8 651.727 1487.94 653.475C1492.06 655.096 1495.62 657.599 1498.62 660.976C1501.62 664.353 1503.94 668.538 1505.56 673.543C1507.19 678.422 1508 684.168 1508 690.795V746.682H1486.25V746.689Z" fill="#1E1E1E"/>
<path d="M1443.68 615.415H1421.92V746.689H1443.68V615.415Z" fill="#1E1E1E"/>
</svg>
