<svg width="428" height="1009" viewBox="0 0 428 1009" fill="none" xmlns="http://www.w3.org/2000/svg">
<rect x="0.5" y="0.5" width="427" height="1008" fill="#0E0E0E"/>
<rect x="0.5" y="0.5" width="427" height="1008" stroke="#6D6D6D"/>
<path d="M21.84 147V113.4H34.8C37.072 113.4 39.056 113.672 40.752 114.216C42.448 114.728 43.856 115.464 44.976 116.424C46.096 117.352 46.912 118.504 47.424 119.88C47.968 121.256 48.24 122.792 48.24 124.488C48.24 126.184 47.968 127.72 47.424 129.096C46.912 130.472 46.096 131.64 44.976 132.6C43.856 133.528 42.448 134.264 40.752 134.808C39.056 135.32 37.072 135.576 34.8 135.576H29.088V147H21.84ZM29.088 129.528H34.08C36.608 129.528 38.384 129.096 39.408 128.232C40.464 127.336 40.992 126.088 40.992 124.488C40.992 122.888 40.464 121.656 39.408 120.792C38.384 119.896 36.608 119.448 34.08 119.448H29.088V129.528ZM63.9971 147.576C62.2371 147.576 60.5731 147.32 59.0051 146.808C57.4371 146.264 56.0611 145.464 54.8771 144.408C53.7251 143.32 52.8131 141.96 52.1411 140.328C51.4691 138.664 51.1331 136.728 51.1331 134.52V133.56C51.1331 131.448 51.4531 129.608 52.0931 128.04C52.7651 126.472 53.6451 125.176 54.7331 124.152C55.8531 123.096 57.1651 122.312 58.6691 121.8C60.2051 121.256 61.8211 120.984 63.5171 120.984C67.6131 120.984 70.7011 122.04 72.7811 124.152C74.8931 126.264 75.9491 129.32 75.9491 133.32V135.96H57.6131C57.6131 137.112 57.8051 138.104 58.1891 138.936C58.5731 139.736 59.0531 140.392 59.6291 140.904C60.2371 141.416 60.9251 141.784 61.6931 142.008C62.4611 142.232 63.2291 142.344 63.9971 142.344C65.5971 142.344 66.8291 142.104 67.6931 141.624C68.5891 141.112 69.1971 140.424 69.5171 139.56H75.4691C75.2131 140.872 74.7491 142.04 74.0771 143.064C73.4371 144.056 72.6211 144.888 71.6291 145.56C70.6691 146.232 69.5331 146.728 68.2211 147.048C66.9411 147.4 65.5331 147.576 63.9971 147.576ZM57.6131 131.592H69.7571C69.7571 130.568 69.5971 129.72 69.2771 129.048C68.9571 128.344 68.5251 127.784 67.9811 127.368C67.4371 126.92 66.7971 126.616 66.0611 126.456C65.3571 126.264 64.5891 126.168 63.7571 126.168C62.9891 126.168 62.2371 126.264 61.5011 126.456C60.7971 126.648 60.1571 126.968 59.5811 127.416C59.0051 127.864 58.5411 128.44 58.1891 129.144C57.8371 129.816 57.6451 130.632 57.6131 131.592ZM80.505 147V121.56H98.745V126.84H86.841V147H80.505ZM102.583 147V121.56H108.775V138.216L120.391 121.56H126.103V147H119.911V130.344L108.295 147H102.583ZM143.16 147.576C141.368 147.576 139.704 147.304 138.168 146.76C136.632 146.216 135.304 145.416 134.184 144.36C133.096 143.272 132.232 141.912 131.592 140.28C130.984 138.648 130.68 136.728 130.68 134.52V133.56C130.68 131.512 131.016 129.72 131.688 128.184C132.36 126.616 133.256 125.304 134.376 124.248C135.528 123.16 136.856 122.344 138.36 121.8C139.896 121.256 141.496 120.984 143.16 120.984C144.952 120.984 146.52 121.224 147.864 121.704C149.24 122.184 150.408 122.84 151.368 123.672C152.328 124.504 153.08 125.48 153.624 126.6C154.168 127.72 154.52 128.92 154.68 130.2H148.2C147.848 129.016 147.288 128.088 146.52 127.416C145.752 126.712 144.632 126.36 143.16 126.36C142.328 126.36 141.544 126.504 140.808 126.792C140.104 127.08 139.48 127.528 138.936 128.136C138.392 128.712 137.96 129.448 137.64 130.344C137.32 131.24 137.16 132.312 137.16 133.56V134.52C137.16 135.864 137.304 137.016 137.592 137.976C137.912 138.936 138.344 139.736 138.888 140.376C139.432 140.984 140.072 141.432 140.808 141.72C141.544 142.008 142.328 142.152 143.16 142.152C144.44 142.152 145.512 141.832 146.376 141.192C147.272 140.552 147.88 139.608 148.2 138.36H154.68C154.52 139.768 154.12 141.048 153.48 142.2C152.872 143.32 152.072 144.28 151.08 145.08C150.088 145.88 148.92 146.504 147.576 146.952C146.264 147.368 144.792 147.576 143.16 147.576ZM165.213 147V126.84H157.101V121.56H179.661V126.84H171.549V147H165.213ZM183.489 156.6V121.56H189.345V125.448C190.049 124.2 191.105 123.144 192.513 122.28C193.953 121.416 195.665 120.984 197.649 120.984C201.105 120.984 203.761 122.04 205.617 124.152C207.505 126.264 208.449 129.4 208.449 133.56V134.52C208.449 136.664 208.193 138.568 207.681 140.232C207.169 141.864 206.433 143.224 205.473 144.312C204.545 145.368 203.409 146.184 202.065 146.76C200.753 147.304 199.281 147.576 197.649 147.576C195.953 147.576 194.433 147.208 193.089 146.472C191.745 145.704 190.657 144.664 189.825 143.352V156.6H183.489ZM196.113 142.248C196.945 142.248 197.713 142.088 198.417 141.768C199.153 141.416 199.777 140.92 200.289 140.28C200.833 139.64 201.249 138.84 201.537 137.88C201.825 136.92 201.969 135.8 201.969 134.52V133.56C201.969 132.344 201.825 131.288 201.537 130.392C201.281 129.496 200.881 128.744 200.337 128.136C199.825 127.528 199.201 127.08 198.465 126.792C197.761 126.472 196.977 126.312 196.113 126.312C195.217 126.312 194.385 126.456 193.617 126.744C192.849 127 192.177 127.416 191.601 127.992C191.057 128.536 190.625 129.192 190.305 129.96C189.985 130.728 189.825 131.608 189.825 132.6V135.48C189.825 136.536 189.985 137.48 190.305 138.312C190.625 139.144 191.057 139.864 191.601 140.472C192.177 141.048 192.849 141.496 193.617 141.816C194.385 142.104 195.217 142.248 196.113 142.248ZM220.701 147.576C219.325 147.576 218.093 147.368 217.005 146.952C215.949 146.536 215.053 145.976 214.317 145.272C213.581 144.568 213.021 143.736 212.637 142.776C212.253 141.784 212.061 140.712 212.061 139.56C212.061 137.032 212.829 135.144 214.365 133.896C215.901 132.616 218.173 131.976 221.181 131.976H228.765V130.68C228.765 128.92 228.349 127.704 227.517 127.032C226.717 126.36 225.565 126.024 224.061 126.024C222.653 126.024 221.613 126.28 220.941 126.792C220.269 127.272 219.901 127.928 219.837 128.76H213.501C213.565 127.64 213.853 126.616 214.365 125.688C214.877 124.728 215.581 123.912 216.477 123.24C217.405 122.536 218.525 121.992 219.837 121.608C221.149 121.192 222.637 120.984 224.301 120.984C225.933 120.984 227.405 121.16 228.717 121.512C230.061 121.864 231.197 122.44 232.125 123.24C233.085 124.04 233.821 125.064 234.333 126.312C234.845 127.56 235.101 129.064 235.101 130.824V140.52C235.101 141.864 235.117 143.048 235.149 144.072C235.213 145.064 235.309 146.04 235.437 147H229.533C229.469 146.392 229.405 145.848 229.341 145.368C229.309 144.856 229.293 144.264 229.293 143.592C228.941 144.136 228.493 144.664 227.949 145.176C227.405 145.656 226.781 146.072 226.077 146.424C225.373 146.776 224.573 147.048 223.677 147.24C222.781 147.464 221.789 147.576 220.701 147.576ZM222.621 142.824C223.453 142.824 224.237 142.712 224.973 142.488C225.741 142.232 226.397 141.88 226.941 141.432C227.517 140.952 227.965 140.376 228.285 139.704C228.605 139 228.765 138.232 228.765 137.4V136.104H222.381C221.133 136.104 220.173 136.408 219.501 137.016C218.861 137.592 218.541 138.36 218.541 139.32C218.541 140.344 218.861 141.192 219.501 141.864C220.141 142.504 221.181 142.824 222.621 142.824ZM240.63 147V121.56H246.966V141.72H256.854V121.56H263.19V141.72H266.79V153H261.27V147H240.63ZM270.724 147V121.56H276.916V138.216L288.532 121.56H294.244V147H288.052V130.344L276.436 147H270.724ZM298.581 147L305.205 137.352C303.221 136.776 301.781 135.864 300.885 134.616C299.989 133.336 299.541 131.816 299.541 130.056C299.541 128.808 299.749 127.672 300.165 126.648C300.581 125.592 301.205 124.696 302.037 123.96C302.901 123.192 304.005 122.6 305.349 122.184C306.693 121.768 308.277 121.56 310.101 121.56H322.101V147H315.765V138.024H311.157L305.541 147H298.581ZM309.861 133.128H315.765V126.84H309.861C308.613 126.84 307.637 127.112 306.933 127.656C306.229 128.168 305.877 128.968 305.877 130.056C305.877 131.08 306.229 131.848 306.933 132.36C307.637 132.872 308.613 133.128 309.861 133.128Z" fill="#909090"/>
<rect x="18" y="633" width="391" height="51" rx="16" fill="white"/>
<path d="M179.489 667.86V663.196H181.139C181.417 662.639 181.645 661.949 181.821 661.128C182.011 660.307 182.158 659.427 182.261 658.488C182.378 657.535 182.459 656.559 182.503 655.562C182.547 654.565 182.569 653.604 182.569 652.68V649.6H192.579V663.196H194.449V667.86H192.469V665H181.469V667.86H179.489ZM183.339 663.196H190.511V651.404H184.593V653.12C184.593 655.349 184.49 657.278 184.285 658.906C184.094 660.534 183.779 661.964 183.339 663.196ZM200.201 665.22C199.57 665.22 199.006 665.132 198.507 664.956C198.008 664.765 197.59 664.509 197.253 664.186C196.916 663.863 196.659 663.482 196.483 663.042C196.307 662.602 196.219 662.118 196.219 661.59C196.219 660.431 196.556 659.595 197.231 659.082C197.92 658.569 198.903 658.312 200.179 658.312H203.963V657.52C203.963 656.508 203.736 655.819 203.281 655.452C202.841 655.071 202.174 654.88 201.279 654.88C200.443 654.88 199.834 655.041 199.453 655.364C199.072 655.672 198.859 656.024 198.815 656.42H196.879C196.908 655.951 197.033 655.518 197.253 655.122C197.488 654.711 197.796 654.359 198.177 654.066C198.573 653.773 199.042 653.545 199.585 653.384C200.128 653.208 200.729 653.12 201.389 653.12C202.078 653.12 202.702 653.201 203.259 653.362C203.816 653.509 204.286 653.751 204.667 654.088C205.063 654.425 205.364 654.858 205.569 655.386C205.789 655.914 205.899 656.552 205.899 657.3V662.03C205.899 662.646 205.899 663.189 205.899 663.658C205.914 664.113 205.95 664.56 206.009 665H204.315C204.271 664.663 204.242 664.347 204.227 664.054C204.212 663.746 204.205 663.401 204.205 663.02C204.058 663.328 203.853 663.614 203.589 663.878C203.34 664.142 203.046 664.377 202.709 664.582C202.372 664.773 201.99 664.927 201.565 665.044C201.14 665.161 200.685 665.22 200.201 665.22ZM200.619 663.46C201.074 663.46 201.499 663.401 201.895 663.284C202.306 663.152 202.665 662.969 202.973 662.734C203.281 662.485 203.523 662.184 203.699 661.832C203.875 661.465 203.963 661.055 203.963 660.6V659.808H200.509C199.79 659.808 199.226 659.955 198.815 660.248C198.404 660.527 198.199 660.974 198.199 661.59C198.199 662.133 198.39 662.58 198.771 662.932C199.167 663.284 199.783 663.46 200.619 663.46ZM208.769 665.22C208.651 665.22 208.541 665.213 208.439 665.198C208.336 665.198 208.226 665.183 208.109 665.154V663.218C208.138 663.233 208.182 663.24 208.241 663.24C208.299 663.24 208.365 663.24 208.439 663.24C208.776 663.24 209.062 663.137 209.297 662.932C209.531 662.727 209.722 662.367 209.869 661.854C210.015 661.341 210.125 660.644 210.199 659.764C210.272 658.884 210.309 657.769 210.309 656.42V653.34H218.669V665H216.733V655.056H212.245V656.86C212.245 658.488 212.171 659.837 212.025 660.908C211.878 661.979 211.658 662.837 211.365 663.482C211.086 664.113 210.727 664.56 210.287 664.824C209.847 665.088 209.341 665.22 208.769 665.22ZM227.028 665.22C226.28 665.22 225.568 665.103 224.894 664.868C224.219 664.633 223.625 664.274 223.112 663.79C222.598 663.291 222.188 662.668 221.88 661.92C221.572 661.172 221.418 660.292 221.418 659.28V658.84C221.418 657.872 221.564 657.036 221.858 656.332C222.151 655.613 222.54 655.019 223.024 654.55C223.522 654.066 224.094 653.707 224.74 653.472C225.4 653.237 226.089 653.12 226.808 653.12C228.538 653.12 229.866 653.589 230.79 654.528C231.728 655.452 232.198 656.779 232.198 658.51V659.742H223.354C223.354 660.417 223.464 660.996 223.684 661.48C223.904 661.949 224.19 662.331 224.542 662.624C224.894 662.917 225.282 663.13 225.708 663.262C226.148 663.394 226.588 663.46 227.028 663.46C227.908 663.46 228.582 663.313 229.052 663.02C229.536 662.727 229.88 662.323 230.086 661.81H231.978C231.86 662.367 231.648 662.859 231.34 663.284C231.046 663.709 230.68 664.069 230.24 664.362C229.814 664.641 229.323 664.853 228.766 665C228.223 665.147 227.644 665.22 227.028 665.22ZM223.354 658.158H230.372C230.357 657.557 230.254 657.051 230.064 656.64C229.888 656.215 229.646 655.877 229.338 655.628C229.03 655.364 228.663 655.173 228.238 655.056C227.827 654.939 227.387 654.88 226.918 654.88C226.463 654.88 226.023 654.946 225.598 655.078C225.172 655.195 224.791 655.393 224.454 655.672C224.131 655.936 223.867 656.273 223.662 656.684C223.456 657.095 223.354 657.586 223.354 658.158ZM239.789 665.22C239.041 665.22 238.33 665.103 237.655 664.868C236.981 664.633 236.387 664.274 235.873 663.79C235.36 663.291 234.949 662.668 234.641 661.92C234.333 661.172 234.179 660.292 234.179 659.28V658.84C234.179 657.872 234.326 657.036 234.619 656.332C234.913 655.613 235.301 655.019 235.785 654.55C236.284 654.066 236.856 653.707 237.501 653.472C238.161 653.237 238.851 653.12 239.569 653.12C241.3 653.12 242.627 653.589 243.551 654.528C244.49 655.452 244.959 656.779 244.959 658.51V659.742H236.115C236.115 660.417 236.225 660.996 236.445 661.48C236.665 661.949 236.951 662.331 237.303 662.624C237.655 662.917 238.044 663.13 238.469 663.262C238.909 663.394 239.349 663.46 239.789 663.46C240.669 663.46 241.344 663.313 241.813 663.02C242.297 662.727 242.642 662.323 242.847 661.81H244.739C244.622 662.367 244.409 662.859 244.101 663.284C243.808 663.709 243.441 664.069 243.001 664.362C242.576 664.641 242.085 664.853 241.527 665C240.985 665.147 240.405 665.22 239.789 665.22ZM236.115 658.158H243.133C243.119 657.557 243.016 657.051 242.825 656.64C242.649 656.215 242.407 655.877 242.099 655.628C241.791 655.364 241.425 655.173 240.999 655.056C240.589 654.939 240.149 654.88 239.679 654.88C239.225 654.88 238.785 654.946 238.359 655.078C237.934 655.195 237.553 655.393 237.215 655.672C236.893 655.936 236.629 656.273 236.423 656.684C236.218 657.095 236.115 657.586 236.115 658.158Z" fill="#0E0E0E"/>
<rect x="18" y="341" width="392" height="54" rx="16" stroke="#919191" stroke-width="2"/>
<path d="M45.2 375V359.6H55.1V361.404H47.268V366.178H54.44V367.982H47.268V373.196H55.1V375H45.2ZM58.1877 375V363.34H59.9917V365.54C60.2411 364.821 60.6664 364.242 61.2677 363.802C61.8691 363.347 62.5657 363.12 63.3577 363.12C64.3697 363.12 65.1471 363.34 65.6897 363.78C66.2324 364.205 66.6064 364.755 66.8117 365.43C67.1931 364.711 67.6771 364.147 68.2637 363.736C68.8651 363.325 69.5837 363.12 70.4197 363.12C71.6224 363.12 72.5611 363.487 73.2357 364.22C73.9104 364.939 74.2477 366.075 74.2477 367.63V375H72.3117V368.07C72.3117 366.911 72.1137 366.09 71.7177 365.606C71.3217 365.122 70.7057 364.88 69.8697 364.88C69.5177 364.88 69.1804 364.953 68.8577 365.1C68.5351 365.247 68.2491 365.459 67.9997 365.738C67.7504 366.017 67.5524 366.354 67.4057 366.75C67.2591 367.146 67.1857 367.586 67.1857 368.07V375H65.2497V368.07C65.2497 366.911 65.0444 366.09 64.6337 365.606C64.2231 365.122 63.6144 364.88 62.8077 364.88C62.4557 364.88 62.1184 364.953 61.7957 365.1C61.4731 365.247 61.1871 365.459 60.9377 365.738C60.6884 366.017 60.4904 366.354 60.3437 366.75C60.1971 367.146 60.1237 367.586 60.1237 368.07V375H58.1877ZM80.9746 375.22C80.3439 375.22 79.7792 375.132 79.2806 374.956C78.7819 374.765 78.3639 374.509 78.0266 374.186C77.6892 373.863 77.4326 373.482 77.2566 373.042C77.0806 372.602 76.9926 372.118 76.9926 371.59C76.9926 370.431 77.3299 369.595 78.0046 369.082C78.6939 368.569 79.6766 368.312 80.9526 368.312H84.7366V367.52C84.7366 366.508 84.5092 365.819 84.0546 365.452C83.6146 365.071 82.9472 364.88 82.0526 364.88C81.2166 364.88 80.6079 365.041 80.2266 365.364C79.8452 365.672 79.6326 366.024 79.5886 366.42H77.6526C77.6819 365.951 77.8066 365.518 78.0266 365.122C78.2612 364.711 78.5692 364.359 78.9506 364.066C79.3466 363.773 79.8159 363.545 80.3586 363.384C80.9012 363.208 81.5026 363.12 82.1626 363.12C82.8519 363.12 83.4752 363.201 84.0326 363.362C84.5899 363.509 85.0592 363.751 85.4406 364.088C85.8366 364.425 86.1372 364.858 86.3426 365.386C86.5626 365.914 86.6726 366.552 86.6726 367.3V372.03C86.6726 372.646 86.6726 373.189 86.6726 373.658C86.6872 374.113 86.7239 374.56 86.7826 375H85.0886C85.0446 374.663 85.0152 374.347 85.0006 374.054C84.9859 373.746 84.9786 373.401 84.9786 373.02C84.8319 373.328 84.6266 373.614 84.3626 373.878C84.1132 374.142 83.8199 374.377 83.4826 374.582C83.1452 374.773 82.7639 374.927 82.3386 375.044C81.9132 375.161 81.4586 375.22 80.9746 375.22ZM81.3926 373.46C81.8472 373.46 82.2726 373.401 82.6686 373.284C83.0792 373.152 83.4386 372.969 83.7466 372.734C84.0546 372.485 84.2966 372.184 84.4726 371.832C84.6486 371.465 84.7366 371.055 84.7366 370.6V369.808H81.2826C80.5639 369.808 79.9992 369.955 79.5886 370.248C79.1779 370.527 78.9726 370.974 78.9726 371.59C78.9726 372.133 79.1632 372.58 79.5446 372.932C79.9406 373.284 80.5566 373.46 81.3926 373.46ZM90.312 375V363.34H92.248V375H90.312ZM91.28 361.8C90.8987 361.8 90.5834 361.675 90.334 361.426C90.0847 361.177 89.96 360.861 89.96 360.48C89.96 360.099 90.0847 359.783 90.334 359.534C90.5834 359.285 90.8987 359.16 91.28 359.16C91.6614 359.16 91.9767 359.285 92.226 359.534C92.4754 359.783 92.6 360.099 92.6 360.48C92.6 360.861 92.4754 361.177 92.226 361.426C91.9767 361.675 91.6614 361.8 91.28 361.8ZM99.4988 375.11C98.8828 375.11 98.3621 375.044 97.9368 374.912C97.5114 374.765 97.1594 374.538 96.8808 374.23C96.6021 373.922 96.3968 373.533 96.2648 373.064C96.1474 372.595 96.0888 372.03 96.0888 371.37V359.6H98.0248V371.37C98.0248 371.751 98.0541 372.067 98.1128 372.316C98.1714 372.565 98.2668 372.771 98.3988 372.932C98.5308 373.079 98.7068 373.189 98.9268 373.262C99.1468 373.321 99.4108 373.35 99.7188 373.35C99.8801 373.35 100.019 373.35 100.137 373.35C100.254 373.335 100.371 373.321 100.489 373.306V375.022C100.43 375.037 100.357 375.051 100.269 375.066C100.181 375.081 100.085 375.088 99.9828 375.088C99.8948 375.103 99.8068 375.11 99.7188 375.11C99.6308 375.11 99.5574 375.11 99.4988 375.11Z" fill="#707070"/>
<path d="M43 377.2H101.259V378.3H43V377.2Z" fill="#707070"/>
<rect x="18" y="452" width="392" height="54" rx="16" stroke="#919191" stroke-width="2"/>
<path d="M45.2 486V470.6H57.3V486H55.232V472.404H47.268V486H45.2ZM64.582 486.22C63.9513 486.22 63.3867 486.132 62.888 485.956C62.3893 485.765 61.9713 485.509 61.634 485.186C61.2967 484.863 61.04 484.482 60.864 484.042C60.688 483.602 60.6 483.118 60.6 482.59C60.6 481.431 60.9373 480.595 61.612 480.082C62.3013 479.569 63.284 479.312 64.56 479.312H68.344V478.52C68.344 477.508 68.1167 476.819 67.662 476.452C67.222 476.071 66.5547 475.88 65.66 475.88C64.824 475.88 64.2153 476.041 63.834 476.364C63.4527 476.672 63.24 477.024 63.196 477.42H61.26C61.2893 476.951 61.414 476.518 61.634 476.122C61.8687 475.711 62.1767 475.359 62.558 475.066C62.954 474.773 63.4233 474.545 63.966 474.384C64.5087 474.208 65.11 474.12 65.77 474.12C66.4593 474.12 67.0827 474.201 67.64 474.362C68.1973 474.509 68.6667 474.751 69.048 475.088C69.444 475.425 69.7447 475.858 69.95 476.386C70.17 476.914 70.28 477.552 70.28 478.3V483.03C70.28 483.646 70.28 484.189 70.28 484.658C70.2947 485.113 70.3313 485.56 70.39 486H68.696C68.652 485.663 68.6227 485.347 68.608 485.054C68.5933 484.746 68.586 484.401 68.586 484.02C68.4393 484.328 68.234 484.614 67.97 484.878C67.7207 485.142 67.4273 485.377 67.09 485.582C66.7527 485.773 66.3713 485.927 65.946 486.044C65.5207 486.161 65.066 486.22 64.582 486.22ZM65 484.46C65.4547 484.46 65.88 484.401 66.276 484.284C66.6867 484.152 67.046 483.969 67.354 483.734C67.662 483.485 67.904 483.184 68.08 482.832C68.256 482.465 68.344 482.055 68.344 481.6V480.808H64.89C64.1713 480.808 63.6067 480.955 63.196 481.248C62.7853 481.527 62.58 481.974 62.58 482.59C62.58 483.133 62.7707 483.58 63.152 483.932C63.548 484.284 64.164 484.46 65 484.46ZM73.6995 490.4V474.34H75.5035V476.54C75.8995 475.763 76.4495 475.169 77.1535 474.758C77.8721 474.333 78.7008 474.12 79.6395 474.12C81.1061 474.12 82.2795 474.604 83.1595 475.572C84.0395 476.525 84.4795 477.948 84.4795 479.84V480.28C84.4795 481.263 84.3621 482.128 84.1275 482.876C83.8928 483.624 83.5628 484.247 83.1375 484.746C82.7121 485.23 82.1988 485.597 81.5975 485.846C81.0108 486.095 80.3581 486.22 79.6395 486.22C78.6275 486.22 77.7915 486 77.1315 485.56C76.4715 485.12 75.9728 484.57 75.6355 483.91V490.4H73.6995ZM79.1995 484.504C79.6688 484.504 80.1088 484.416 80.5195 484.24C80.9301 484.049 81.2821 483.778 81.5755 483.426C81.8835 483.074 82.1181 482.634 82.2795 482.106C82.4555 481.578 82.5435 480.969 82.5435 480.28V479.84C82.5435 479.195 82.4555 478.63 82.2795 478.146C82.1181 477.647 81.8835 477.229 81.5755 476.892C81.2821 476.54 80.9301 476.276 80.5195 476.1C80.1088 475.924 79.6688 475.836 79.1995 475.836C78.6715 475.836 78.1875 475.924 77.7475 476.1C77.3075 476.261 76.9335 476.496 76.6255 476.804C76.3175 477.097 76.0755 477.449 75.8995 477.86C75.7235 478.271 75.6355 478.711 75.6355 479.18V480.94C75.6355 481.468 75.7235 481.952 75.8995 482.392C76.0755 482.832 76.3175 483.206 76.6255 483.514C76.9335 483.822 77.3075 484.064 77.7475 484.24C78.1875 484.416 78.6715 484.504 79.1995 484.504ZM92.0746 486.22C91.3266 486.22 90.6153 486.103 89.9406 485.868C89.2659 485.619 88.6719 485.252 88.1586 484.768C87.6453 484.269 87.2346 483.646 86.9266 482.898C86.6186 482.15 86.4646 481.277 86.4646 480.28V479.84C86.4646 478.887 86.6186 478.058 86.9266 477.354C87.2346 476.635 87.6453 476.041 88.1586 475.572C88.6719 475.088 89.2659 474.729 89.9406 474.494C90.6153 474.245 91.3266 474.12 92.0746 474.12C92.8226 474.12 93.5339 474.245 94.2086 474.494C94.8833 474.729 95.4773 475.088 95.9906 475.572C96.5039 476.041 96.9146 476.635 97.2226 477.354C97.5306 478.058 97.6846 478.887 97.6846 479.84V480.28C97.6846 481.277 97.5306 482.15 97.2226 482.898C96.9146 483.646 96.5039 484.269 95.9906 484.768C95.4773 485.252 94.8833 485.619 94.2086 485.868C93.5339 486.103 92.8226 486.22 92.0746 486.22ZM92.0746 484.46C92.5146 484.46 92.9546 484.387 93.3946 484.24C93.8346 484.079 94.2233 483.837 94.5606 483.514C94.8979 483.177 95.1693 482.744 95.3746 482.216C95.5946 481.688 95.7046 481.043 95.7046 480.28V479.84C95.7046 479.136 95.5946 478.535 95.3746 478.036C95.1693 477.537 94.8979 477.127 94.5606 476.804C94.2233 476.481 93.8346 476.247 93.3946 476.1C92.9546 475.953 92.5146 475.88 92.0746 475.88C91.6346 475.88 91.1946 475.953 90.7546 476.1C90.3146 476.247 89.9259 476.481 89.5886 476.804C89.2513 477.127 88.9726 477.537 88.7526 478.036C88.5473 478.535 88.4446 479.136 88.4446 479.84V480.28C88.4446 481.043 88.5473 481.688 88.7526 482.216C88.9726 482.744 89.2513 483.177 89.5886 483.514C89.9259 483.837 90.3146 484.079 90.7546 484.24C91.1946 484.387 91.6346 484.46 92.0746 484.46ZM99.6612 486.22C99.5438 486.22 99.4338 486.213 99.3312 486.198C99.2285 486.198 99.1185 486.183 99.0012 486.154V484.218C99.0305 484.233 99.0745 484.24 99.1332 484.24C99.1918 484.24 99.2578 484.24 99.3312 484.24C99.6685 484.24 99.9545 484.137 100.189 483.932C100.424 483.727 100.615 483.367 100.761 482.854C100.908 482.341 101.018 481.644 101.091 480.764C101.165 479.884 101.201 478.769 101.201 477.42V474.34H109.561V486H107.625V476.056H103.137V477.86C103.137 479.488 103.064 480.837 102.917 481.908C102.771 482.979 102.551 483.837 102.257 484.482C101.979 485.113 101.619 485.56 101.179 485.824C100.739 486.088 100.233 486.22 99.6612 486.22ZM113.08 486V474.34H115.016V478.74H117.81C119.277 478.74 120.355 479.063 121.044 479.708C121.748 480.353 122.1 481.248 122.1 482.392C122.1 482.949 122.012 483.455 121.836 483.91C121.66 484.35 121.396 484.724 121.044 485.032C120.692 485.34 120.245 485.582 119.702 485.758C119.174 485.919 118.544 486 117.81 486H113.08ZM115.016 484.284H117.7C118.624 484.284 119.262 484.123 119.614 483.8C119.981 483.477 120.164 483.001 120.164 482.37C120.164 481.739 119.981 481.263 119.614 480.94C119.262 480.617 118.624 480.456 117.7 480.456H115.016V484.284Z" fill="#707070"/>
<path d="M43 488.2H122.87V489.3H43V488.2Z" fill="#707070"/>
<rect x="18" y="522" width="392" height="54" rx="16" stroke="#919191" stroke-width="2"/>
<path d="M45.2 556V540.6H57.3V556H55.232V542.404H47.268V556H45.2ZM66.1 556.22C65.352 556.22 64.6407 556.103 63.966 555.868C63.2913 555.619 62.6973 555.252 62.184 554.768C61.6707 554.269 61.26 553.646 60.952 552.898C60.644 552.15 60.49 551.277 60.49 550.28V549.84C60.49 548.887 60.644 548.058 60.952 547.354C61.26 546.635 61.6707 546.041 62.184 545.572C62.6973 545.088 63.2913 544.729 63.966 544.494C64.6407 544.245 65.352 544.12 66.1 544.12C66.848 544.12 67.5593 544.245 68.234 544.494C68.9087 544.729 69.5027 545.088 70.016 545.572C70.5293 546.041 70.94 546.635 71.248 547.354C71.556 548.058 71.71 548.887 71.71 549.84V550.28C71.71 551.277 71.556 552.15 71.248 552.898C70.94 553.646 70.5293 554.269 70.016 554.768C69.5027 555.252 68.9087 555.619 68.234 555.868C67.5593 556.103 66.848 556.22 66.1 556.22ZM66.1 554.46C66.54 554.46 66.98 554.387 67.42 554.24C67.86 554.079 68.2487 553.837 68.586 553.514C68.9233 553.177 69.1947 552.744 69.4 552.216C69.62 551.688 69.73 551.043 69.73 550.28V549.84C69.73 549.136 69.62 548.535 69.4 548.036C69.1947 547.537 68.9233 547.127 68.586 546.804C68.2487 546.481 67.86 546.247 67.42 546.1C66.98 545.953 66.54 545.88 66.1 545.88C65.66 545.88 65.22 545.953 64.78 546.1C64.34 546.247 63.9513 546.481 63.614 546.804C63.2767 547.127 62.998 547.537 62.778 548.036C62.5727 548.535 62.47 549.136 62.47 549.84V550.28C62.47 551.043 62.5727 551.688 62.778 552.216C62.998 552.744 63.2767 553.177 63.614 553.514C63.9513 553.837 64.34 554.079 64.78 554.24C65.22 554.387 65.66 554.46 66.1 554.46ZM74.4514 556V544.34H79.5114C80.2301 544.34 80.8534 544.421 81.3814 544.582C81.9094 544.729 82.3421 544.949 82.6794 545.242C83.0167 545.521 83.2661 545.858 83.4274 546.254C83.6034 546.635 83.6914 547.061 83.6914 547.53C83.6914 548.043 83.5227 548.535 83.1854 549.004C82.8627 549.459 82.4447 549.774 81.9314 549.95C82.6501 550.126 83.1927 550.463 83.5594 550.962C83.9407 551.446 84.1314 552.018 84.1314 552.678C84.1314 553.69 83.7941 554.497 83.1194 555.098C82.4594 555.699 81.4034 556 79.9514 556H74.4514ZM76.3874 554.284H79.9514C80.7874 554.284 81.3667 554.137 81.6894 553.844C82.0267 553.551 82.1954 553.133 82.1954 552.59C82.1954 552.033 82.0267 551.607 81.6894 551.314C81.3667 551.006 80.7874 550.852 79.9514 550.852H76.3874V554.284ZM76.3874 549.268H79.5114C80.3474 549.268 80.9267 549.121 81.2494 548.828C81.5867 548.535 81.7554 548.131 81.7554 547.618C81.7554 547.134 81.5867 546.753 81.2494 546.474C80.9267 546.195 80.3474 546.056 79.5114 546.056H76.3874V549.268ZM89.338 556V546.056H85.356V544.34H95.256V546.056H91.274V556H89.338ZM102.086 556.22C101.338 556.22 100.627 556.103 99.9523 555.868C99.2777 555.619 98.6837 555.252 98.1703 554.768C97.657 554.269 97.2463 553.646 96.9383 552.898C96.6303 552.15 96.4763 551.277 96.4763 550.28V549.84C96.4763 548.887 96.6303 548.058 96.9383 547.354C97.2463 546.635 97.657 546.041 98.1703 545.572C98.6837 545.088 99.2777 544.729 99.9523 544.494C100.627 544.245 101.338 544.12 102.086 544.12C102.834 544.12 103.546 544.245 104.22 544.494C104.895 544.729 105.489 545.088 106.002 545.572C106.516 546.041 106.926 546.635 107.234 547.354C107.542 548.058 107.696 548.887 107.696 549.84V550.28C107.696 551.277 107.542 552.15 107.234 552.898C106.926 553.646 106.516 554.269 106.002 554.768C105.489 555.252 104.895 555.619 104.22 555.868C103.546 556.103 102.834 556.22 102.086 556.22ZM102.086 554.46C102.526 554.46 102.966 554.387 103.406 554.24C103.846 554.079 104.235 553.837 104.572 553.514C104.91 553.177 105.181 552.744 105.386 552.216C105.606 551.688 105.716 551.043 105.716 550.28V549.84C105.716 549.136 105.606 548.535 105.386 548.036C105.181 547.537 104.91 547.127 104.572 546.804C104.235 546.481 103.846 546.247 103.406 546.1C102.966 545.953 102.526 545.88 102.086 545.88C101.646 545.88 101.206 545.953 100.766 546.1C100.326 546.247 99.9377 546.481 99.6003 546.804C99.263 547.127 98.9843 547.537 98.7643 548.036C98.559 548.535 98.4563 549.136 98.4563 549.84V550.28C98.4563 551.043 98.559 551.688 98.7643 552.216C98.9843 552.744 99.263 553.177 99.6003 553.514C99.9377 553.837 100.326 554.079 100.766 554.24C101.206 554.387 101.646 554.46 102.086 554.46ZM110.438 560.4V544.34H112.242V546.54C112.638 545.763 113.188 545.169 113.892 544.758C114.61 544.333 115.439 544.12 116.378 544.12C117.844 544.12 119.018 544.604 119.898 545.572C120.778 546.525 121.218 547.948 121.218 549.84V550.28C121.218 551.263 121.1 552.128 120.866 552.876C120.631 553.624 120.301 554.247 119.876 554.746C119.45 555.23 118.937 555.597 118.336 555.846C117.749 556.095 117.096 556.22 116.378 556.22C115.366 556.22 114.53 556 113.87 555.56C113.21 555.12 112.711 554.57 112.374 553.91V560.4H110.438ZM115.938 554.504C116.407 554.504 116.847 554.416 117.258 554.24C117.668 554.049 118.02 553.778 118.314 553.426C118.622 553.074 118.856 552.634 119.018 552.106C119.194 551.578 119.282 550.969 119.282 550.28V549.84C119.282 549.195 119.194 548.63 119.018 548.146C118.856 547.647 118.622 547.229 118.314 546.892C118.02 546.54 117.668 546.276 117.258 546.1C116.847 545.924 116.407 545.836 115.938 545.836C115.41 545.836 114.926 545.924 114.486 546.1C114.046 546.261 113.672 546.496 113.364 546.804C113.056 547.097 112.814 547.449 112.638 547.86C112.462 548.271 112.374 548.711 112.374 549.18V550.94C112.374 551.468 112.462 551.952 112.638 552.392C112.814 552.832 113.056 553.206 113.364 553.514C113.672 553.822 114.046 554.064 114.486 554.24C114.926 554.416 115.41 554.504 115.938 554.504ZM129.473 556V544.34H139.153V556H137.217V546.056H131.409V556H129.473ZM145.986 556.22C145.356 556.22 144.791 556.132 144.292 555.956C143.794 555.765 143.376 555.509 143.038 555.186C142.701 554.863 142.444 554.482 142.268 554.042C142.092 553.602 142.004 553.118 142.004 552.59C142.004 551.431 142.342 550.595 143.016 550.082C143.706 549.569 144.688 549.312 145.964 549.312H149.748V548.52C149.748 547.508 149.521 546.819 149.066 546.452C148.626 546.071 147.959 545.88 147.064 545.88C146.228 545.88 145.62 546.041 145.238 546.364C144.857 546.672 144.644 547.024 144.6 547.42H142.664C142.694 546.951 142.818 546.518 143.038 546.122C143.273 545.711 143.581 545.359 143.962 545.066C144.358 544.773 144.828 544.545 145.37 544.384C145.913 544.208 146.514 544.12 147.174 544.12C147.864 544.12 148.487 544.201 149.044 544.362C149.602 544.509 150.071 544.751 150.452 545.088C150.848 545.425 151.149 545.858 151.354 546.386C151.574 546.914 151.684 547.552 151.684 548.3V553.03C151.684 553.646 151.684 554.189 151.684 554.658C151.699 555.113 151.736 555.56 151.794 556H150.1C150.056 555.663 150.027 555.347 150.012 555.054C149.998 554.746 149.99 554.401 149.99 554.02C149.844 554.328 149.638 554.614 149.374 554.878C149.125 555.142 148.832 555.377 148.494 555.582C148.157 555.773 147.776 555.927 147.35 556.044C146.925 556.161 146.47 556.22 145.986 556.22ZM146.404 554.46C146.859 554.46 147.284 554.401 147.68 554.284C148.091 554.152 148.45 553.969 148.758 553.734C149.066 553.485 149.308 553.184 149.484 552.832C149.66 552.465 149.748 552.055 149.748 551.6V550.808H146.294C145.576 550.808 145.011 550.955 144.6 551.248C144.19 551.527 143.984 551.974 143.984 552.59C143.984 553.133 144.175 553.58 144.556 553.932C144.952 554.284 145.568 554.46 146.404 554.46ZM155.104 560.4V544.34H156.908V546.54C157.304 545.763 157.854 545.169 158.558 544.758C159.276 544.333 160.105 544.12 161.044 544.12C162.51 544.12 163.684 544.604 164.564 545.572C165.444 546.525 165.884 547.948 165.884 549.84V550.28C165.884 551.263 165.766 552.128 165.532 552.876C165.297 553.624 164.967 554.247 164.542 554.746C164.116 555.23 163.603 555.597 163.002 555.846C162.415 556.095 161.762 556.22 161.044 556.22C160.032 556.22 159.196 556 158.536 555.56C157.876 555.12 157.377 554.57 157.04 553.91V560.4H155.104ZM160.604 554.504C161.073 554.504 161.513 554.416 161.924 554.24C162.334 554.049 162.686 553.778 162.98 553.426C163.288 553.074 163.522 552.634 163.684 552.106C163.86 551.578 163.948 550.969 163.948 550.28V549.84C163.948 549.195 163.86 548.63 163.684 548.146C163.522 547.647 163.288 547.229 162.98 546.892C162.686 546.54 162.334 546.276 161.924 546.1C161.513 545.924 161.073 545.836 160.604 545.836C160.076 545.836 159.592 545.924 159.152 546.1C158.712 546.261 158.338 546.496 158.03 546.804C157.722 547.097 157.48 547.449 157.304 547.86C157.128 548.271 157.04 548.711 157.04 549.18V550.94C157.04 551.468 157.128 551.952 157.304 552.392C157.48 552.832 157.722 553.206 158.03 553.514C158.338 553.822 158.712 554.064 159.152 554.24C159.592 554.416 160.076 554.504 160.604 554.504ZM173.479 556.22C172.731 556.22 172.02 556.103 171.345 555.868C170.67 555.619 170.076 555.252 169.563 554.768C169.05 554.269 168.639 553.646 168.331 552.898C168.023 552.15 167.869 551.277 167.869 550.28V549.84C167.869 548.887 168.023 548.058 168.331 547.354C168.639 546.635 169.05 546.041 169.563 545.572C170.076 545.088 170.67 544.729 171.345 544.494C172.02 544.245 172.731 544.12 173.479 544.12C174.227 544.12 174.938 544.245 175.613 544.494C176.288 544.729 176.882 545.088 177.395 545.572C177.908 546.041 178.319 546.635 178.627 547.354C178.935 548.058 179.089 548.887 179.089 549.84V550.28C179.089 551.277 178.935 552.15 178.627 552.898C178.319 553.646 177.908 554.269 177.395 554.768C176.882 555.252 176.288 555.619 175.613 555.868C174.938 556.103 174.227 556.22 173.479 556.22ZM173.479 554.46C173.919 554.46 174.359 554.387 174.799 554.24C175.239 554.079 175.628 553.837 175.965 553.514C176.302 553.177 176.574 552.744 176.779 552.216C176.999 551.688 177.109 551.043 177.109 550.28V549.84C177.109 549.136 176.999 548.535 176.779 548.036C176.574 547.537 176.302 547.127 175.965 546.804C175.628 546.481 175.239 546.247 174.799 546.1C174.359 545.953 173.919 545.88 173.479 545.88C173.039 545.88 172.599 545.953 172.159 546.1C171.719 546.247 171.33 546.481 170.993 546.804C170.656 547.127 170.377 547.537 170.157 548.036C169.952 548.535 169.849 549.136 169.849 549.84V550.28C169.849 551.043 169.952 551.688 170.157 552.216C170.377 552.744 170.656 553.177 170.993 553.514C171.33 553.837 171.719 554.079 172.159 554.24C172.599 554.387 173.039 554.46 173.479 554.46ZM181.065 556.22C180.948 556.22 180.838 556.213 180.735 556.198C180.633 556.198 180.523 556.183 180.405 556.154V554.218C180.435 554.233 180.479 554.24 180.537 554.24C180.596 554.24 180.662 554.24 180.735 554.24C181.073 554.24 181.359 554.137 181.593 553.932C181.828 553.727 182.019 553.367 182.165 552.854C182.312 552.341 182.422 551.644 182.495 550.764C182.569 549.884 182.605 548.769 182.605 547.42V544.34H190.965V556H189.029V546.056H184.541V547.86C184.541 549.488 184.468 550.837 184.321 551.908C184.175 552.979 183.955 553.837 183.661 554.482C183.383 555.113 183.023 555.56 182.583 555.824C182.143 556.088 181.637 556.22 181.065 556.22ZM193.605 556L196.773 551.38C195.805 551.16 195.108 550.764 194.683 550.192C194.257 549.62 194.045 548.872 194.045 547.948C194.045 547.376 194.125 546.87 194.287 546.43C194.463 545.975 194.727 545.594 195.079 545.286C195.445 544.978 195.907 544.743 196.465 544.582C197.022 544.421 197.682 544.34 198.445 544.34H203.505V556H201.569V551.556H198.599L195.761 556H193.605ZM198.335 549.84H201.569V546.056H198.335C197.484 546.056 196.875 546.217 196.509 546.54C196.157 546.863 195.981 547.332 195.981 547.948C195.981 548.564 196.157 549.033 196.509 549.356C196.875 549.679 197.484 549.84 198.335 549.84Z" fill="#707070"/>
<path d="M43 558.2H205.265V559.3H43V558.2Z" fill="#707070"/>
<path d="M92.7306 46C90.2666 46 88.3575 45.318 87.0032 43.954C85.6677 42.571 85 40.6103 85 38.0717V25.6536H88.5268V37.7591C88.5268 39.3694 88.8841 40.6008 89.5989 41.4533C90.3325 42.3058 91.3764 42.7321 92.7306 42.7321C94.0849 42.7321 95.1194 42.3058 95.8342 41.4533C96.5678 40.5819 96.9345 39.3505 96.9345 37.7591V25.6536H100.461V38.0717C100.461 40.6103 99.7936 42.571 98.4581 43.954C97.1226 45.318 95.2135 46 92.7306 46Z" fill="white"/>
<path d="M113.522 45.5453V37.9012C113.522 37.1813 113.447 36.5751 113.296 36.0825C113.165 35.59 112.958 35.1922 112.676 34.889C112.412 34.567 112.102 34.3302 111.745 34.1786C111.387 34.0271 111.002 33.9513 110.588 33.9513C109.478 33.9513 108.622 34.3681 108.02 35.2016C107.419 36.0352 107.118 37.2003 107.118 38.6969H106.328C106.328 37.5034 106.44 36.433 106.666 35.4858C106.911 34.5196 107.259 33.7145 107.71 33.0704C108.18 32.4073 108.754 31.9053 109.431 31.5643C110.108 31.2043 110.879 31.0244 111.745 31.0244C112.478 31.0244 113.155 31.157 113.776 31.4222C114.397 31.6685 114.933 32.0474 115.384 32.5589C115.836 33.0704 116.184 33.705 116.428 34.4628C116.673 35.2016 116.795 36.0731 116.795 37.0771V45.5453H113.522ZM103.845 45.5453V31.3369H107.118V45.5453H103.845Z" fill="white"/>
<path d="M120.918 31.3369H124.361V45.5453H120.918V31.3369ZM120.58 27.0744C120.58 25.8525 121.426 25 122.64 25C123.853 25 124.671 25.8525 124.671 27.0744C124.671 28.2963 123.853 29.1204 122.64 29.1204C121.426 29.1204 120.58 28.2963 120.58 27.0744Z" fill="white"/>
<path d="M145.159 45.5453V37.9012C145.159 36.4804 144.923 35.4668 144.453 34.8606C144.002 34.2544 143.362 33.9513 142.535 33.9513C141.481 33.9513 140.654 34.3681 140.052 35.2016C139.45 36.0352 139.149 37.2003 139.149 38.6969H138.359C138.359 37.5034 138.472 36.433 138.697 35.4858C138.942 34.5196 139.29 33.7145 139.741 33.0704C140.193 32.4073 140.748 31.9053 141.406 31.5643C142.083 31.2043 142.845 31.0244 143.691 31.0244C145.14 31.0244 146.287 31.5359 147.133 32.5589C147.999 33.5819 148.431 35.088 148.431 37.0771V45.5453H145.159ZM135.876 45.5453V31.3369H139.149V45.5453H135.876ZM154.441 45.5453V37.9012C154.441 36.4804 154.206 35.4668 153.736 34.8606C153.284 34.2544 152.645 33.9513 151.817 33.9513C150.745 33.9513 149.908 34.3681 149.306 35.2016C148.723 36.0352 148.431 37.2003 148.431 38.6969H147.641C147.641 37.5034 147.754 36.433 147.98 35.4858C148.206 34.5196 148.544 33.7145 148.996 33.0704C149.466 32.4073 150.03 31.9053 150.688 31.5643C151.366 31.2043 152.127 31.0244 152.974 31.0244C154.422 31.0244 155.569 31.5359 156.416 32.5589C157.281 33.5819 157.714 35.088 157.714 37.0771V45.5453H154.441Z" fill="white"/>
<path d="M170.004 45.5453V36.3383C170.004 35.4479 169.75 34.7754 169.242 34.3207C168.753 33.8471 168.066 33.6103 167.182 33.6103C166.787 33.6103 166.421 33.6576 166.082 33.7524C165.762 33.8471 165.48 33.9892 165.236 34.1786C164.991 34.3681 164.794 34.5954 164.643 34.8606C164.493 35.1069 164.389 35.3911 164.333 35.7131H161.116C161.192 34.9932 161.38 34.3396 161.681 33.7524C162 33.1651 162.414 32.6631 162.922 32.2463C163.449 31.8295 164.069 31.5074 164.784 31.2801C165.499 31.0528 166.298 30.9391 167.182 30.9391C168.104 30.9391 168.941 31.0622 169.693 31.3085C170.446 31.5548 171.085 31.9053 171.612 32.3599C172.139 32.8146 172.543 33.364 172.825 34.0081C173.107 34.6522 173.248 35.3816 173.248 36.1962V45.5453H170.004ZM165.207 45.9432C163.834 45.9432 162.725 45.5643 161.878 44.8065C161.032 44.0298 160.609 43.0162 160.609 41.7659C160.609 40.9892 160.797 40.3072 161.173 39.7199C161.549 39.1326 162.142 38.6401 162.95 38.2422C163.759 37.8254 164.794 37.5129 166.054 37.3045C167.333 37.0961 168.885 36.9919 170.709 36.9919V39.3221C169.581 39.3221 168.593 39.3599 167.747 39.4357C166.9 39.5115 166.195 39.6441 165.631 39.8336C165.066 40.0041 164.634 40.2409 164.333 40.544C164.051 40.8281 163.91 41.1976 163.91 41.6522C163.91 42.2206 164.107 42.6658 164.502 42.9878C164.916 43.3099 165.48 43.4709 166.195 43.4709C166.74 43.4709 167.239 43.3762 167.69 43.1867C168.161 42.9973 168.565 42.7321 168.903 42.3911C169.242 42.0311 169.505 41.6143 169.693 41.1407C169.9 40.6671 170.004 40.1461 170.004 39.5778H170.653C170.653 40.5819 170.521 41.4817 170.258 42.2774C170.013 43.0731 169.646 43.7456 169.157 44.295C168.687 44.8254 168.113 45.2327 167.436 45.5169C166.778 45.8011 166.035 45.9432 165.207 45.9432Z" fill="white"/>
<path d="M175.19 34.1786V31.3369H184.557V34.1786H175.19ZM184.614 45.5453H181.905C180.382 45.5453 179.253 45.1854 178.52 44.4655C177.805 43.7456 177.447 42.6468 177.447 41.1691V27.0744H180.72V40.4019C180.72 41.2165 180.861 41.7943 181.144 42.1353C181.444 42.4763 181.943 42.6468 182.639 42.6468H184.614V45.5453Z" fill="white"/>
<path d="M197.004 40.1177H200.362C200.306 40.9702 200.089 41.7564 199.713 42.4763C199.337 43.1773 198.848 43.793 198.246 44.3234C197.644 44.8349 196.939 45.2327 196.13 45.5169C195.34 45.8011 194.484 45.9432 193.562 45.9432C192.528 45.9432 191.569 45.7537 190.685 45.3748C189.8 44.9959 189.039 44.4844 188.399 43.8403C187.76 43.1773 187.261 42.3911 186.904 41.4817C186.565 40.5535 186.396 39.5399 186.396 38.4411C186.396 37.3424 186.575 36.3383 186.932 35.429C187.289 34.5007 187.778 33.7145 188.399 33.0704C189.039 32.4073 189.8 31.8863 190.685 31.5074C191.569 31.1286 192.537 30.9391 193.591 30.9391C194.493 30.9391 195.34 31.0812 196.13 31.3654C196.939 31.6495 197.644 32.0474 198.246 32.5589C198.848 33.0704 199.337 33.6861 199.713 34.406C200.089 35.1258 200.306 35.9026 200.362 36.7361H197.004C196.967 36.3004 196.854 35.912 196.666 35.571C196.478 35.2111 196.233 34.908 195.932 34.6617C195.631 34.3965 195.283 34.1976 194.888 34.065C194.493 33.9323 194.07 33.866 193.619 33.866C193.036 33.866 192.5 33.9797 192.011 34.207C191.54 34.4154 191.136 34.728 190.797 35.1448C190.459 35.5426 190.195 36.0257 190.007 36.594C189.838 37.1434 189.753 37.7591 189.753 38.4411C189.753 39.1231 189.838 39.7483 190.007 40.3166C190.195 40.866 190.459 41.3396 190.797 41.7375C191.136 42.1353 191.54 42.4479 192.011 42.6752C192.5 42.8836 193.036 42.9878 193.619 42.9878C194.07 42.9878 194.493 42.9215 194.888 42.7889C195.283 42.6563 195.631 42.4668 195.932 42.2206C196.233 41.9553 196.478 41.6522 196.666 41.3112C196.854 40.9513 196.967 40.5534 197.004 40.1177Z" fill="white"/>
<path d="M212.727 45.5453V37.9012C212.727 37.1813 212.652 36.5751 212.501 36.0825C212.37 35.59 212.163 35.1922 211.881 34.889C211.617 34.567 211.307 34.3302 210.95 34.1786C210.592 34.0271 210.207 33.9513 209.793 33.9513C208.683 33.9513 207.827 34.3681 207.225 35.2016C206.624 36.0352 206.323 37.2003 206.323 38.6969H205.533C205.533 37.5034 205.645 36.433 205.871 35.4858C206.116 34.5196 206.464 33.7145 206.915 33.0704C207.385 32.4073 207.959 31.9053 208.636 31.5643C209.313 31.2043 210.084 31.0244 210.95 31.0244C211.683 31.0244 212.36 31.157 212.981 31.4222C213.602 31.6685 214.138 32.0474 214.589 32.5589C215.041 33.0704 215.389 33.705 215.633 34.4628C215.878 35.2016 216 36.0731 216 37.0771V45.5453H212.727ZM203.05 45.5453V25.6536H206.323V45.5453H203.05Z" fill="white"/>
<path d="M51.4246 28.9608C52.8572 27.3578 51.4128 24.856 49.3084 25.2954L38.2913 27.5963C37.599 27.7409 36.8788 27.5478 36.3516 27.0765L27.9608 19.5754C26.3578 18.1428 23.856 19.5872 24.2954 21.6916L26.5963 32.7087C26.7409 33.401 26.5478 34.1212 26.0761 34.6484L18.5754 43.0392C17.1428 44.6422 18.5872 47.144 20.6916 46.7046L31.7087 44.4037C32.401 44.2591 33.1212 44.4522 33.6484 44.9235L42.0392 52.4246C43.6422 53.8572 46.144 52.4128 45.7046 50.3084L43.4037 39.2913C43.2591 38.599 43.4522 37.8788 43.9235 37.3516L51.4246 28.9608ZM40.4048 36.6532C40.4048 39.8067 38.1022 42.2347 34.9758 42.2347C31.8345 42.2347 29.5729 39.791 29.5729 36.6532V31.3591C29.5729 30.4423 30.3158 29.6993 31.2326 29.6993H31.3894C32.3062 29.6993 33.0492 30.4423 33.0492 31.3591V36.6532C33.0492 38.0072 33.8978 38.7584 34.9758 38.7584C36.069 38.7584 36.9281 37.991 36.9281 36.6532V31.3591C36.9281 30.4423 37.6715 29.6993 38.5879 29.6993H38.7451C39.1854 29.6993 39.6073 29.874 39.9187 30.1855C40.2297 30.4965 40.4048 30.9188 40.4048 31.3591V36.6532Z" fill="white"/>
<line x1="69.35" y1="18" x2="69.35" y2="54" stroke="white" stroke-width="0.7"/>
<path d="M24.66 249.18C23.94 249.18 23.244 249.06 22.572 248.82C21.9 248.568 21.306 248.184 20.79 247.668C20.274 247.152 19.86 246.492 19.548 245.688C19.236 244.884 19.08 243.918 19.08 242.79V242.43C19.08 241.35 19.236 240.42 19.548 239.64C19.86 238.86 20.274 238.218 20.79 237.714C21.306 237.198 21.9 236.82 22.572 236.58C23.244 236.34 23.94 236.22 24.66 236.22C25.38 236.22 26.076 236.34 26.748 236.58C27.42 236.82 28.014 237.198 28.53 237.714C29.046 238.218 29.46 238.86 29.772 239.64C30.084 240.42 30.24 241.35 30.24 242.43V242.79C30.24 243.918 30.084 244.884 29.772 245.688C29.46 246.492 29.046 247.152 28.53 247.668C28.014 248.184 27.42 248.568 26.748 248.82C26.076 249.06 25.38 249.18 24.66 249.18ZM24.66 247.668C25.152 247.668 25.626 247.578 26.082 247.398C26.538 247.218 26.94 246.936 27.288 246.552C27.636 246.156 27.912 245.652 28.116 245.04C28.332 244.416 28.44 243.666 28.44 242.79V242.43C28.44 241.602 28.332 240.894 28.116 240.306C27.912 239.706 27.636 239.22 27.288 238.848C26.94 238.464 26.538 238.182 26.082 238.002C25.626 237.822 25.152 237.732 24.66 237.732C24.168 237.732 23.694 237.822 23.238 238.002C22.782 238.182 22.38 238.464 22.032 238.848C21.684 239.22 21.402 239.706 21.186 240.306C20.982 240.894 20.88 241.602 20.88 242.43V242.79C20.88 243.666 20.982 244.416 21.186 245.04C21.402 245.652 21.684 246.156 22.032 246.552C22.38 246.936 22.782 247.218 23.238 247.398C23.694 247.578 24.168 247.668 24.66 247.668ZM36.4542 249.18C35.8422 249.18 35.2722 249.084 34.7442 248.892C34.2162 248.688 33.7602 248.388 33.3762 247.992C32.9922 247.584 32.6862 247.074 32.4582 246.462C32.2422 245.85 32.1342 245.136 32.1342 244.32V243.96C32.1342 243.18 32.2542 242.502 32.4942 241.926C32.7342 241.338 33.0522 240.852 33.4482 240.468C33.8442 240.072 34.3002 239.778 34.8162 239.586C35.3442 239.382 35.8902 239.28 36.4542 239.28C37.0182 239.28 37.5222 239.358 37.9662 239.514C38.4222 239.67 38.8122 239.886 39.1362 240.162C39.4722 240.438 39.7422 240.762 39.9462 241.134C40.1622 241.506 40.3182 241.908 40.4142 242.34H38.7942C38.6022 241.884 38.3322 241.5 37.9842 241.188C37.6482 240.876 37.1382 240.72 36.4542 240.72C36.1062 240.72 35.7702 240.786 35.4462 240.918C35.1222 241.038 34.8342 241.23 34.5822 241.494C34.3302 241.746 34.1262 242.076 33.9702 242.484C33.8262 242.892 33.7542 243.384 33.7542 243.96V244.32C33.7542 244.932 33.8262 245.46 33.9702 245.904C34.1262 246.336 34.3302 246.69 34.5822 246.966C34.8342 247.23 35.1222 247.428 35.4462 247.56C35.7702 247.68 36.1062 247.74 36.4542 247.74C37.0422 247.74 37.5342 247.596 37.9302 247.308C38.3382 247.02 38.6262 246.624 38.7942 246.12H40.4142C40.3062 246.588 40.1322 247.014 39.8922 247.398C39.6522 247.77 39.3582 248.088 39.0102 248.352C38.6742 248.616 38.2902 248.82 37.8582 248.964C37.4262 249.108 36.9582 249.18 36.4542 249.18ZM44.7508 249V240.864H41.4928V239.46H49.5928V240.864H46.3348V249H44.7508ZM53.7635 249.18C53.2475 249.18 52.7855 249.108 52.3775 248.964C51.9695 248.808 51.6275 248.598 51.3515 248.334C51.0755 248.07 50.8655 247.758 50.7215 247.398C50.5775 247.038 50.5055 246.642 50.5055 246.21C50.5055 245.262 50.7815 244.578 51.3335 244.158C51.8975 243.738 52.7015 243.528 53.7455 243.528H56.8415V242.88C56.8415 242.052 56.6555 241.488 56.2835 241.188C55.9235 240.876 55.3775 240.72 54.6455 240.72C53.9615 240.72 53.4635 240.852 53.1515 241.116C52.8395 241.368 52.6655 241.656 52.6295 241.98H51.0455C51.0695 241.596 51.1715 241.242 51.3515 240.918C51.5435 240.582 51.7955 240.294 52.1075 240.054C52.4315 239.814 52.8155 239.628 53.2595 239.496C53.7035 239.352 54.1955 239.28 54.7355 239.28C55.2995 239.28 55.8095 239.346 56.2655 239.478C56.7215 239.598 57.1055 239.796 57.4175 240.072C57.7415 240.348 57.9875 240.702 58.1555 241.134C58.3355 241.566 58.4255 242.088 58.4255 242.7V246.57C58.4255 247.074 58.4255 247.518 58.4255 247.902C58.4375 248.274 58.4675 248.64 58.5155 249H57.1295C57.0935 248.724 57.0695 248.466 57.0575 248.226C57.0455 247.974 57.0395 247.692 57.0395 247.38C56.9195 247.632 56.7515 247.866 56.5355 248.082C56.3315 248.298 56.0915 248.49 55.8155 248.658C55.5395 248.814 55.2275 248.94 54.8795 249.036C54.5315 249.132 54.1595 249.18 53.7635 249.18ZM54.1055 247.74C54.4775 247.74 54.8255 247.692 55.1495 247.596C55.4855 247.488 55.7795 247.338 56.0315 247.146C56.2835 246.942 56.4815 246.696 56.6255 246.408C56.7695 246.108 56.8415 245.772 56.8415 245.4V244.752H54.0155C53.4275 244.752 52.9655 244.872 52.6295 245.112C52.2935 245.34 52.1255 245.706 52.1255 246.21C52.1255 246.654 52.2815 247.02 52.5935 247.308C52.9175 247.596 53.4215 247.74 54.1055 247.74ZM60.7732 249.18C60.6772 249.18 60.5872 249.174 60.5032 249.162C60.4192 249.162 60.3292 249.15 60.2332 249.126V247.542C60.2572 247.554 60.2932 247.56 60.3412 247.56C60.3892 247.56 60.4432 247.56 60.5032 247.56C60.7792 247.56 61.0132 247.476 61.2052 247.308C61.3972 247.14 61.5532 246.846 61.6732 246.426C61.7932 246.006 61.8832 245.436 61.9432 244.716C62.0032 243.996 62.0332 243.084 62.0332 241.98V239.46H68.8732V249H67.2892V240.864H63.6172V242.34C63.6172 243.672 63.5572 244.776 63.4372 245.652C63.3172 246.528 63.1372 247.23 62.8972 247.758C62.6692 248.274 62.3752 248.64 62.0152 248.856C61.6552 249.072 61.2412 249.18 60.7732 249.18ZM75.7125 249.18C75.1005 249.18 74.5185 249.084 73.9665 248.892C73.4145 248.688 72.9285 248.388 72.5085 247.992C72.0885 247.584 71.7525 247.074 71.5005 246.462C71.2485 245.85 71.1225 245.136 71.1225 244.32V243.96C71.1225 243.18 71.2485 242.502 71.5005 241.926C71.7525 241.338 72.0885 240.852 72.5085 240.468C72.9285 240.072 73.4145 239.778 73.9665 239.586C74.5185 239.382 75.1005 239.28 75.7125 239.28C76.3245 239.28 76.9065 239.382 77.4585 239.586C78.0105 239.778 78.4965 240.072 78.9165 240.468C79.3365 240.852 79.6725 241.338 79.9245 241.926C80.1765 242.502 80.3025 243.18 80.3025 243.96V244.32C80.3025 245.136 80.1765 245.85 79.9245 246.462C79.6725 247.074 79.3365 247.584 78.9165 247.992C78.4965 248.388 78.0105 248.688 77.4585 248.892C76.9065 249.084 76.3245 249.18 75.7125 249.18ZM75.7125 247.74C76.0725 247.74 76.4325 247.68 76.7925 247.56C77.1525 247.428 77.4705 247.23 77.7465 246.966C78.0225 246.69 78.2445 246.336 78.4125 245.904C78.5925 245.472 78.6825 244.944 78.6825 244.32V243.96C78.6825 243.384 78.5925 242.892 78.4125 242.484C78.2445 242.076 78.0225 241.74 77.7465 241.476C77.4705 241.212 77.1525 241.02 76.7925 240.9C76.4325 240.78 76.0725 240.72 75.7125 240.72C75.3525 240.72 74.9925 240.78 74.6325 240.9C74.2725 241.02 73.9545 241.212 73.6785 241.476C73.4025 241.74 73.1745 242.076 72.9945 242.484C72.8265 242.892 72.7425 243.384 72.7425 243.96V244.32C72.7425 244.944 72.8265 245.472 72.9945 245.904C73.1745 246.336 73.4025 246.69 73.6785 246.966C73.9545 247.23 74.2725 247.428 74.6325 247.56C74.9925 247.68 75.3525 247.74 75.7125 247.74ZM86.2355 249.18C85.6235 249.18 85.0535 249.084 84.5255 248.892C83.9975 248.688 83.5415 248.388 83.1575 247.992C82.7735 247.584 82.4675 247.074 82.2395 246.462C82.0235 245.85 81.9155 245.136 81.9155 244.32V243.96C81.9155 243.18 82.0355 242.502 82.2755 241.926C82.5155 241.338 82.8335 240.852 83.2295 240.468C83.6255 240.072 84.0815 239.778 84.5975 239.586C85.1255 239.382 85.6715 239.28 86.2355 239.28C86.7995 239.28 87.3035 239.358 87.7475 239.514C88.2035 239.67 88.5935 239.886 88.9175 240.162C89.2535 240.438 89.5235 240.762 89.7275 241.134C89.9435 241.506 90.0995 241.908 90.1955 242.34H88.5755C88.3835 241.884 88.1135 241.5 87.7655 241.188C87.4295 240.876 86.9195 240.72 86.2355 240.72C85.8875 240.72 85.5515 240.786 85.2275 240.918C84.9035 241.038 84.6155 241.23 84.3635 241.494C84.1115 241.746 83.9075 242.076 83.7515 242.484C83.6075 242.892 83.5355 243.384 83.5355 243.96V244.32C83.5355 244.932 83.6075 245.46 83.7515 245.904C83.9075 246.336 84.1115 246.69 84.3635 246.966C84.6155 247.23 84.9035 247.428 85.2275 247.56C85.5515 247.68 85.8875 247.74 86.2355 247.74C86.8235 247.74 87.3155 247.596 87.7115 247.308C88.1195 247.02 88.4075 246.624 88.5755 246.12H90.1955C90.0875 246.588 89.9135 247.014 89.6735 247.398C89.4335 247.77 89.1395 248.088 88.7915 248.352C88.4555 248.616 88.0715 248.82 87.6395 248.964C87.2075 249.108 86.7395 249.18 86.2355 249.18ZM92.3541 249V239.46H93.9381V243.06H96.2241C97.4241 243.06 98.3061 243.324 98.8701 243.852C99.4461 244.38 99.7341 245.112 99.7341 246.048C99.7341 246.504 99.6621 246.918 99.5181 247.29C99.3741 247.65 99.1581 247.956 98.8701 248.208C98.5821 248.46 98.2161 248.658 97.7721 248.802C97.3401 248.934 96.8241 249 96.2241 249H92.3541ZM93.9381 247.596H96.1341C96.8901 247.596 97.4121 247.464 97.7001 247.2C98.0001 246.936 98.1501 246.546 98.1501 246.03C98.1501 245.514 98.0001 245.124 97.7001 244.86C97.4121 244.596 96.8901 244.464 96.1341 244.464H93.9381V247.596ZM110.001 249.18C109.389 249.18 108.819 249.084 108.291 248.892C107.763 248.688 107.307 248.388 106.923 247.992C106.539 247.584 106.233 247.074 106.005 246.462C105.789 245.85 105.681 245.136 105.681 244.32V243.96C105.681 243.18 105.801 242.502 106.041 241.926C106.281 241.338 106.599 240.852 106.995 240.468C107.391 240.072 107.847 239.778 108.363 239.586C108.891 239.382 109.437 239.28 110.001 239.28C110.565 239.28 111.069 239.358 111.513 239.514C111.969 239.67 112.359 239.886 112.683 240.162C113.019 240.438 113.289 240.762 113.493 241.134C113.709 241.506 113.865 241.908 113.961 242.34H112.341C112.149 241.884 111.879 241.5 111.531 241.188C111.195 240.876 110.685 240.72 110.001 240.72C109.653 240.72 109.317 240.786 108.993 240.918C108.669 241.038 108.381 241.23 108.129 241.494C107.877 241.746 107.673 242.076 107.517 242.484C107.373 242.892 107.301 243.384 107.301 243.96V244.32C107.301 244.932 107.373 245.46 107.517 245.904C107.673 246.336 107.877 246.69 108.129 246.966C108.381 247.23 108.669 247.428 108.993 247.56C109.317 247.68 109.653 247.74 110.001 247.74C110.589 247.74 111.081 247.596 111.477 247.308C111.885 247.02 112.173 246.624 112.341 246.12H113.961C113.853 246.588 113.679 247.014 113.439 247.398C113.199 247.77 112.905 248.088 112.557 248.352C112.221 248.616 111.837 248.82 111.405 248.964C110.973 249.108 110.505 249.18 110.001 249.18ZM120.08 249.18C119.468 249.18 118.886 249.084 118.334 248.892C117.782 248.688 117.296 248.388 116.876 247.992C116.456 247.584 116.12 247.074 115.868 246.462C115.616 245.85 115.49 245.136 115.49 244.32V243.96C115.49 243.18 115.616 242.502 115.868 241.926C116.12 241.338 116.456 240.852 116.876 240.468C117.296 240.072 117.782 239.778 118.334 239.586C118.886 239.382 119.468 239.28 120.08 239.28C120.692 239.28 121.274 239.382 121.826 239.586C122.378 239.778 122.864 240.072 123.284 240.468C123.704 240.852 124.04 241.338 124.292 241.926C124.544 242.502 124.67 243.18 124.67 243.96V244.32C124.67 245.136 124.544 245.85 124.292 246.462C124.04 247.074 123.704 247.584 123.284 247.992C122.864 248.388 122.378 248.688 121.826 248.892C121.274 249.084 120.692 249.18 120.08 249.18ZM120.08 247.74C120.44 247.74 120.8 247.68 121.16 247.56C121.52 247.428 121.838 247.23 122.114 246.966C122.39 246.69 122.612 246.336 122.78 245.904C122.96 245.472 123.05 244.944 123.05 244.32V243.96C123.05 243.384 122.96 242.892 122.78 242.484C122.612 242.076 122.39 241.74 122.114 241.476C121.838 241.212 121.52 241.02 121.16 240.9C120.8 240.78 120.44 240.72 120.08 240.72C119.72 240.72 119.36 240.78 119 240.9C118.64 241.02 118.322 241.212 118.046 241.476C117.77 241.74 117.542 242.076 117.362 242.484C117.194 242.892 117.11 243.384 117.11 243.96V244.32C117.11 244.944 117.194 245.472 117.362 245.904C117.542 246.336 117.77 246.69 118.046 246.966C118.322 247.23 118.64 247.428 119 247.56C119.36 247.68 119.72 247.74 120.08 247.74ZM126.913 249V239.46H131.053C131.641 239.46 132.151 239.526 132.583 239.658C133.015 239.778 133.369 239.958 133.645 240.198C133.921 240.426 134.125 240.702 134.257 241.026C134.401 241.338 134.473 241.686 134.473 242.07C134.473 242.49 134.335 242.892 134.059 243.276C133.795 243.648 133.453 243.906 133.033 244.05C133.621 244.194 134.065 244.47 134.365 244.878C134.677 245.274 134.833 245.742 134.833 246.282C134.833 247.11 134.557 247.77 134.005 248.262C133.465 248.754 132.601 249 131.413 249H126.913ZM128.497 247.596H131.413C132.097 247.596 132.571 247.476 132.835 247.236C133.111 246.996 133.249 246.654 133.249 246.21C133.249 245.754 133.111 245.406 132.835 245.166C132.571 244.914 132.097 244.788 131.413 244.788H128.497V247.596ZM128.497 243.492H131.053C131.737 243.492 132.211 243.372 132.475 243.132C132.751 242.892 132.889 242.562 132.889 242.142C132.889 241.746 132.751 241.434 132.475 241.206C132.211 240.978 131.737 240.864 131.053 240.864H128.497V243.492ZM140.78 249.18C140.168 249.18 139.598 249.084 139.07 248.892C138.542 248.688 138.086 248.388 137.702 247.992C137.318 247.584 137.012 247.074 136.784 246.462C136.568 245.85 136.46 245.136 136.46 244.32V243.96C136.46 243.18 136.58 242.502 136.82 241.926C137.06 241.338 137.378 240.852 137.774 240.468C138.17 240.072 138.626 239.778 139.142 239.586C139.67 239.382 140.216 239.28 140.78 239.28C141.344 239.28 141.848 239.358 142.292 239.514C142.748 239.67 143.138 239.886 143.462 240.162C143.798 240.438 144.068 240.762 144.272 241.134C144.488 241.506 144.644 241.908 144.74 242.34H143.12C142.928 241.884 142.658 241.5 142.31 241.188C141.974 240.876 141.464 240.72 140.78 240.72C140.432 240.72 140.096 240.786 139.772 240.918C139.448 241.038 139.16 241.23 138.908 241.494C138.656 241.746 138.452 242.076 138.296 242.484C138.152 242.892 138.08 243.384 138.08 243.96V244.32C138.08 244.932 138.152 245.46 138.296 245.904C138.452 246.336 138.656 246.69 138.908 246.966C139.16 247.23 139.448 247.428 139.772 247.56C140.096 247.68 140.432 247.74 140.78 247.74C141.368 247.74 141.86 247.596 142.256 247.308C142.664 247.02 142.952 246.624 143.12 246.12H144.74C144.632 246.588 144.458 247.014 144.218 247.398C143.978 247.77 143.684 248.088 143.336 248.352C143 248.616 142.616 248.82 142.184 248.964C141.752 249.108 141.284 249.18 140.78 249.18ZM150.859 249.18C150.247 249.18 149.665 249.084 149.113 248.892C148.561 248.7 148.075 248.406 147.655 248.01C147.235 247.602 146.899 247.092 146.647 246.48C146.395 245.868 146.269 245.148 146.269 244.32V243.96C146.269 243.168 146.389 242.484 146.629 241.908C146.869 241.32 147.187 240.834 147.583 240.45C147.991 240.054 148.459 239.76 148.987 239.568C149.527 239.376 150.091 239.28 150.679 239.28C152.095 239.28 153.181 239.664 153.937 240.432C154.705 241.188 155.089 242.274 155.089 243.69V244.698H147.853C147.853 245.25 147.943 245.724 148.123 246.12C148.303 246.504 148.537 246.816 148.825 247.056C149.113 247.296 149.431 247.47 149.779 247.578C150.139 247.686 150.499 247.74 150.859 247.74C151.579 247.74 152.131 247.62 152.515 247.38C152.911 247.14 153.193 246.81 153.361 246.39H154.909C154.813 246.846 154.639 247.248 154.387 247.596C154.147 247.944 153.847 248.238 153.487 248.478C153.139 248.706 152.737 248.88 152.281 249C151.837 249.12 151.363 249.18 150.859 249.18ZM147.853 243.402H153.595C153.583 242.91 153.499 242.496 153.343 242.16C153.199 241.812 153.001 241.536 152.749 241.332C152.497 241.116 152.197 240.96 151.849 240.864C151.513 240.768 151.153 240.72 150.769 240.72C150.397 240.72 150.037 240.774 149.689 240.882C149.341 240.978 149.029 241.14 148.753 241.368C148.489 241.584 148.273 241.86 148.105 242.196C147.937 242.532 147.853 242.934 147.853 243.402ZM157.34 249V239.46H159.032L162.434 245.4L165.836 239.46H167.42V249H165.836V242.07L163.01 246.93H161.75L158.924 242.07V249H157.34ZM174.795 249V239.46H176.379V243.438H181.311V239.46H182.895V249H181.311V244.842H176.379V249H174.795ZM189.742 249.18C189.13 249.18 188.548 249.084 187.996 248.892C187.444 248.7 186.958 248.406 186.538 248.01C186.118 247.602 185.782 247.092 185.53 246.48C185.278 245.868 185.152 245.148 185.152 244.32V243.96C185.152 243.168 185.272 242.484 185.512 241.908C185.752 241.32 186.07 240.834 186.466 240.45C186.874 240.054 187.342 239.76 187.87 239.568C188.41 239.376 188.974 239.28 189.562 239.28C190.978 239.28 192.064 239.664 192.82 240.432C193.588 241.188 193.972 242.274 193.972 243.69V244.698H186.736C186.736 245.25 186.826 245.724 187.006 246.12C187.186 246.504 187.42 246.816 187.708 247.056C187.996 247.296 188.314 247.47 188.662 247.578C189.022 247.686 189.382 247.74 189.742 247.74C190.462 247.74 191.014 247.62 191.398 247.38C191.794 247.14 192.076 246.81 192.244 246.39H193.792C193.696 246.846 193.522 247.248 193.27 247.596C193.03 247.944 192.73 248.238 192.37 248.478C192.022 248.706 191.62 248.88 191.164 249C190.72 249.12 190.246 249.18 189.742 249.18ZM186.736 243.402H192.478C192.466 242.91 192.382 242.496 192.226 242.16C192.082 241.812 191.884 241.536 191.632 241.332C191.38 241.116 191.08 240.96 190.732 240.864C190.396 240.768 190.036 240.72 189.652 240.72C189.28 240.72 188.92 240.774 188.572 240.882C188.224 240.978 187.912 241.14 187.636 241.368C187.372 241.584 187.156 241.86 186.988 242.196C186.82 242.532 186.736 242.934 186.736 243.402ZM196.223 249V239.46H197.915L201.317 245.4L204.719 239.46H206.303V249H204.719V242.07L201.893 246.93H200.633L197.807 242.07V249H196.223ZM209.178 249V239.46H210.762V243.438H215.694V239.46H217.278V249H215.694V244.842H210.762V249H209.178ZM224.125 249.18C223.513 249.18 222.931 249.084 222.379 248.892C221.827 248.688 221.341 248.388 220.921 247.992C220.501 247.584 220.165 247.074 219.913 246.462C219.661 245.85 219.535 245.136 219.535 244.32V243.96C219.535 243.18 219.661 242.502 219.913 241.926C220.165 241.338 220.501 240.852 220.921 240.468C221.341 240.072 221.827 239.778 222.379 239.586C222.931 239.382 223.513 239.28 224.125 239.28C224.737 239.28 225.319 239.382 225.871 239.586C226.423 239.778 226.909 240.072 227.329 240.468C227.749 240.852 228.085 241.338 228.337 241.926C228.589 242.502 228.715 243.18 228.715 243.96V244.32C228.715 245.136 228.589 245.85 228.337 246.462C228.085 247.074 227.749 247.584 227.329 247.992C226.909 248.388 226.423 248.688 225.871 248.892C225.319 249.084 224.737 249.18 224.125 249.18ZM224.125 247.74C224.485 247.74 224.845 247.68 225.205 247.56C225.565 247.428 225.883 247.23 226.159 246.966C226.435 246.69 226.657 246.336 226.825 245.904C227.005 245.472 227.095 244.944 227.095 244.32V243.96C227.095 243.384 227.005 242.892 226.825 242.484C226.657 242.076 226.435 241.74 226.159 241.476C225.883 241.212 225.565 241.02 225.205 240.9C224.845 240.78 224.485 240.72 224.125 240.72C223.765 240.72 223.405 240.78 223.045 240.9C222.685 241.02 222.367 241.212 222.091 241.476C221.815 241.74 221.587 242.076 221.407 242.484C221.239 242.892 221.155 243.384 221.155 243.96V244.32C221.155 244.944 221.239 245.472 221.407 245.904C221.587 246.336 221.815 246.69 222.091 246.966C222.367 247.23 222.685 247.428 223.045 247.56C223.405 247.68 223.765 247.74 224.125 247.74ZM230.958 249V239.46H237.438V240.864H232.542V249H230.958ZM243.021 249.18C242.409 249.18 241.827 249.084 241.275 248.892C240.723 248.688 240.237 248.388 239.817 247.992C239.397 247.584 239.061 247.074 238.809 246.462C238.557 245.85 238.431 245.136 238.431 244.32V243.96C238.431 243.18 238.557 242.502 238.809 241.926C239.061 241.338 239.397 240.852 239.817 240.468C240.237 240.072 240.723 239.778 241.275 239.586C241.827 239.382 242.409 239.28 243.021 239.28C243.633 239.28 244.215 239.382 244.767 239.586C245.319 239.778 245.805 240.072 246.225 240.468C246.645 240.852 246.981 241.338 247.233 241.926C247.485 242.502 247.611 243.18 247.611 243.96V244.32C247.611 245.136 247.485 245.85 247.233 246.462C246.981 247.074 246.645 247.584 246.225 247.992C245.805 248.388 245.319 248.688 244.767 248.892C244.215 249.084 243.633 249.18 243.021 249.18ZM243.021 247.74C243.381 247.74 243.741 247.68 244.101 247.56C244.461 247.428 244.779 247.23 245.055 246.966C245.331 246.69 245.553 246.336 245.721 245.904C245.901 245.472 245.991 244.944 245.991 244.32V243.96C245.991 243.384 245.901 242.892 245.721 242.484C245.553 242.076 245.331 241.74 245.055 241.476C244.779 241.212 244.461 241.02 244.101 240.9C243.741 240.78 243.381 240.72 243.021 240.72C242.661 240.72 242.301 240.78 241.941 240.9C241.581 241.02 241.263 241.212 240.987 241.476C240.711 241.74 240.483 242.076 240.303 242.484C240.135 242.892 240.051 243.384 240.051 243.96V244.32C240.051 244.944 240.135 245.472 240.303 245.904C240.483 246.336 240.711 246.69 240.987 246.966C241.263 247.23 241.581 247.428 241.941 247.56C242.301 247.68 242.661 247.74 243.021 247.74Z" fill="white"/>
<rect x="18" y="186" width="94" height="6" rx="2" fill="#909090"/>
<rect x="117" y="186" width="94" height="6" rx="2" fill="#919191"/>
<rect x="217" y="186" width="94" height="6" rx="2" fill="#919191"/>
<rect x="316" y="186" width="94" height="6" rx="2" fill="#353535"/>
</svg>
