<svg width="1840" height="880" viewBox="0 0 1840 880" fill="none" xmlns="http://www.w3.org/2000/svg">
<rect width="1840" height="880" fill="#5C88DA"/>
<path d="M567.951 322.771V558.268H586.164C618.123 558.268 638.398 535.758 638.398 503.896V377.143C638.398 344.589 618.123 322.771 586.164 322.771H567.951ZM476.885 322.771V558.268H494.411C527.057 558.268 547.332 535.758 547.332 503.896V377.143C547.332 344.589 527.057 322.771 494.411 322.771H476.885ZM403.688 509.784C436.334 509.784 456.266 488.312 456.266 455.411V377.143C456.266 344.589 436.334 322.771 403.688 322.771H390.973V509.784H403.688ZM303 369.524C303 398.268 325.337 416.623 357.983 416.623H372.073V323.117H357.983C325.337 323.117 303 340.433 303 369.524ZM331.523 525.368C316.059 525.368 304.031 535.065 304.031 550.649V558.268H456.266V525.368H331.523ZM865.548 526.407H815.375V540.26H865.548V526.407ZM1062.8 544.416C1043.9 544.416 1030.5 529.87 1030.5 510.823C1030.5 491.775 1043.9 477.229 1062.8 477.229C1081.7 477.229 1095.1 491.775 1095.1 510.823C1095.1 529.87 1081.7 544.416 1062.8 544.416ZM1178.27 544.416C1159.36 544.416 1145.96 529.87 1145.96 510.823C1145.96 491.775 1159.36 477.229 1178.27 477.229C1197.17 477.229 1210.57 491.775 1210.57 510.823C1210.57 529.87 1197.17 544.416 1178.27 544.416ZM855.926 489.351C855.926 498.009 850.427 503.896 841.836 503.896C833.245 503.896 828.09 498.009 828.09 489.351C828.09 480.693 833.245 474.805 841.836 474.805C850.427 474.805 855.926 480.693 855.926 489.351ZM782.729 521.212L725.684 461.991V557.576H741.492V500.433L798.537 559.654V463.723H782.729V521.212ZM841.836 461.991C826.372 461.991 814.344 473.766 814.344 489.351C814.344 504.935 826.372 516.71 841.836 516.71C857.3 516.71 869.328 504.935 869.328 489.351C869.328 473.766 857.3 461.991 841.836 461.991ZM1062.8 461.645C1035.31 461.645 1014 483.117 1014 510.823C1014 538.528 1035.31 560 1062.8 560C1090.29 560 1111.6 538.528 1111.6 510.823C1111.6 483.117 1090.29 461.645 1062.8 461.645ZM1178.27 461.645C1150.77 461.645 1129.47 483.117 1129.47 510.823C1129.47 538.528 1150.77 560 1178.27 560C1205.76 560 1227.06 538.528 1227.06 510.823C1227.06 483.117 1205.76 461.645 1178.27 461.645ZM995.446 541.645H957.645L979.982 517.749C986.855 510.13 992.696 500.779 992.696 490.39C992.696 476.19 981.356 460.606 959.363 460.606C937.026 460.606 923.967 474.805 923.624 494.545H939.431C940.462 482.771 948.366 476.19 959.019 476.19C968.641 476.19 975.858 482.771 975.858 491.429C975.858 499.74 969.672 507.706 962.799 515.325L923.624 557.576H995.446V541.645ZM883.761 356.71L898.194 387.532H869.671L883.761 356.71ZM1348.03 403.463C1329.13 403.463 1315.72 388.918 1315.72 369.87C1315.72 350.823 1329.13 336.277 1348.03 336.277C1366.93 336.277 1380.33 350.823 1380.33 369.87C1380.33 388.918 1366.93 403.463 1348.03 403.463ZM988.229 403.463C969.329 403.463 955.926 388.918 955.926 369.87C955.926 350.823 969.329 336.277 988.229 336.277C1007.13 336.277 1020.53 350.823 1020.53 369.87C1020.53 388.918 1007.13 403.463 988.229 403.463ZM1418.82 322.771V416.623H1536V322.771H1520.19V401.385H1485.14V322.771H1469.33V401.385H1434.28V322.771H1418.82ZM1084.45 416.277L1134.97 322.771H1117.78L1091.32 371.948L1066.58 322.771H1049.05L1082.39 388.571L1067.27 416.277H1084.45ZM839.431 416.277H856.613L863.142 402.078H903.692L910.222 416.277H928.091L883.761 322.424L839.431 416.277ZM725.684 322.424V416.277H741.492V356.017L773.794 385.455L806.441 356.017V416.277H821.905V322.424L773.794 364.675L725.684 322.424ZM988.229 320.693C960.737 320.693 939.431 342.165 939.431 369.87C939.431 397.576 960.737 419.048 988.229 419.048C1015.72 419.048 1037.03 397.576 1037.03 369.87C1037.03 342.165 1015.72 320.693 988.229 320.693ZM1348.03 320.693C1320.53 320.693 1299.23 342.165 1299.23 369.87C1299.23 397.576 1320.53 419.048 1348.03 419.048C1375.52 419.048 1396.82 397.576 1396.82 369.87C1396.82 342.165 1375.52 320.693 1348.03 320.693ZM1282.39 333.506C1273.45 325.195 1261.77 320 1249.06 320C1221.56 320 1200.6 342.165 1200.6 369.524C1200.6 397.229 1221.56 419.048 1249.06 419.048C1261.77 419.048 1273.45 413.853 1282.39 405.195L1270.71 394.113C1264.86 400 1257.65 403.117 1249.06 403.117C1230.5 403.117 1217.1 388.225 1217.1 369.524C1217.1 350.823 1230.5 335.931 1249.06 335.931C1256.96 335.931 1264.18 339.048 1270.71 344.935L1282.39 333.506Z" fill="white"/>
</svg>
