<svg width="1920" height="642" viewBox="0 0 1920 642" fill="none" xmlns="http://www.w3.org/2000/svg">
<g clip-path="url(#clip0_329_429)">
<rect width="1920" height="642" fill="#FFDDD8"/>
<g filter="url(#filter0_d_329_429)">
<rect width="1920" height="642" fill="#FF573F"/>
</g>
<path d="M922.531 397.188V283.048H962.51V300.169L960.035 323.948H968.412L988.592 283.048H1029.52L1001.92 338.026L1033.71 397.188H990.876L968.412 354.386H960.035L962.51 378.165V397.188H922.531Z" fill="white"/>
<path d="M1299.67 266.877H1365.35L1371.24 245.527H1305.56L1299.67 266.877Z" fill="white"/>
<path d="M1487 394.335V359.332H1484.34C1477.99 364.025 1470.63 366.37 1462.25 366.37C1447.02 366.37 1441.31 355.337 1441.31 340.118C1441.31 324.899 1447.02 314.246 1462.25 314.246C1470.76 314.246 1478.18 316.401 1484.53 320.714H1487V285.901C1479.26 281.716 1469.11 279.624 1456.54 279.624C1422.28 279.624 1400.95 303.022 1400.95 340.118C1400.95 377.214 1422.28 400.612 1456.54 400.612C1467.33 400.612 1477.48 398.52 1487 394.335Z" fill="white"/>
<path d="M1283.87 397.188H1320.04L1348.4 343.352H1350.5L1348.6 378.165V397.188H1388.57V283.048H1352.4L1324.04 336.884H1321.94L1323.85 302.071V283.048H1283.87V397.188Z" fill="white"/>
<path d="M1273.59 367.704C1265.22 367.704 1266.36 363.899 1266.36 356.48V325.091C1266.36 295.605 1253.98 280.196 1214.96 280.196C1198.84 280.196 1186.59 282.416 1178.21 286.854L1177.07 317.482H1178.02C1187.03 313.044 1197.44 310.824 1209.24 310.824C1221.05 310.824 1227.33 315.96 1227.33 324.521V327.945H1208.48C1182.78 327.945 1169.27 342.783 1169.27 363.899C1169.27 385.015 1182.78 400.043 1202.77 400.043C1215.72 400.043 1225.17 393.956 1231.14 381.781H1232.28C1235.58 393.195 1244.53 398.902 1259.12 398.902C1265.09 398.902 1270.99 398.331 1276.83 397.19V367.704H1273.59ZM1227.33 363.138C1225.43 366.817 1222.38 368.655 1218.19 368.655C1211.53 368.655 1208.29 364.089 1208.29 358.953C1208.29 353.817 1211.91 349.061 1220.67 349.061H1227.33V363.138Z" fill="white"/>
<path d="M1135.75 319.191L1128.52 318.24V315.196L1135.75 313.865C1146.41 309.109 1153.84 299.026 1153.84 285.139C1153.84 260.98 1136.51 245 1106.63 245H1046.09V397.187H1111.96C1142.61 397.187 1159.36 379.686 1159.36 353.814C1159.36 336.312 1150.03 324.137 1135.75 319.191ZM1087.02 278.291H1094.63C1106.63 278.291 1113.1 283.808 1113.1 291.798C1113.1 299.787 1106.63 306.065 1094.63 306.065H1087.02V278.291ZM1098.82 363.896H1087.02L1087.21 334.6H1099.01C1110.81 334.6 1116.91 341.068 1116.91 349.438C1116.91 357.809 1110.81 363.896 1098.82 363.896Z" fill="white"/>
<path d="M854.382 279.624C819.162 279.624 798.602 303.022 798.602 340.118C798.602 377.214 819.162 400.612 854.382 400.612C889.601 400.612 910.162 377.214 910.162 340.118C910.162 303.022 889.601 279.624 854.382 279.624ZM854.382 366.37C841.055 366.37 838.961 355.337 838.961 340.118C838.961 324.899 841.055 313.866 854.382 313.866C867.708 313.866 869.802 324.899 869.802 340.118C869.802 355.337 867.708 366.37 854.382 366.37Z" fill="white"/>
<path d="M774.804 359.14V245H668.764L667.622 286.471C666.48 325.849 661.53 351.341 653.344 359.14H642.492V434.663H684.375V396.997H750.055V434.663H791.937V359.14H774.804ZM732.54 358.95H697.511C703.032 348.107 706.078 331.747 706.459 317.479L707.41 283.047H732.54V358.95Z" fill="white"/>
<path d="M540.203 204H446.085C428.641 204 414.5 218.131 414.5 235.562V355.835C414.5 373.266 428.641 387.397 446.085 387.397H540.203C557.648 387.397 571.789 373.266 571.789 355.835V235.562C571.789 218.131 557.648 204 540.203 204Z" fill="#FFDCD7"/>
<path d="M446 387.401L540.118 387.401C557.562 387.401 571.703 373.27 571.703 355.839L571.703 235.565C571.703 218.134 557.562 204.004 540.118 204.004L446 204.004C428.556 204.004 414.414 218.134 414.414 235.565L414.414 355.839C414.414 373.27 428.556 387.401 446 387.401Z" fill="url(#paint0_linear_329_429)"/>
<path d="M516.113 357.176L548.593 357.176C549.909 357.176 550.977 356.11 550.977 354.795L550.977 352.312C550.977 350.997 549.909 349.93 548.593 349.93L516.113 349.93C514.797 349.93 513.729 350.997 513.729 352.312L513.729 354.795C513.729 356.11 514.797 357.176 516.113 357.176Z" fill="#FF573F"/>
<path d="M515.73 306.905L548.21 306.905C549.527 306.905 550.594 305.838 550.594 304.523L550.594 302.041C550.594 300.725 549.527 299.659 548.21 299.659L515.73 299.659C514.414 299.659 513.347 300.725 513.347 302.04L513.347 304.523C513.347 305.838 514.414 306.905 515.73 306.905Z" fill="#FF573F"/>
<path d="M429.981 306.905L448.109 306.905C449.425 306.905 450.492 305.838 450.492 304.523L450.492 302.041C450.492 300.725 449.425 299.659 448.109 299.659L429.981 299.659C428.665 299.659 427.598 300.725 427.598 302.041L427.598 304.523C427.598 305.838 428.665 306.905 429.981 306.905Z" fill="#FF573F"/>
<path d="M430.141 357.176L473.945 357.176C475.261 357.176 476.328 356.11 476.328 354.795L476.328 352.312C476.328 350.997 475.261 349.93 473.945 349.93L430.141 349.93C428.825 349.93 427.757 350.997 427.757 352.312L427.757 354.795C427.757 356.11 428.825 357.176 430.141 357.176Z" fill="#FF573F"/>
<path d="M474.641 340.42L518.445 340.42C519.761 340.42 520.828 339.354 520.828 338.038L520.828 335.556C520.828 334.24 519.761 333.174 518.445 333.174L474.641 333.174C473.325 333.174 472.257 334.24 472.257 335.556L472.257 338.038C472.257 339.354 473.325 340.42 474.641 340.42Z" fill="#FF573F"/>
<path d="M530.465 340.42L548.593 340.42C549.909 340.42 550.977 339.354 550.977 338.038L550.977 335.556C550.977 334.24 549.909 333.174 548.593 333.174L530.465 333.174C529.149 333.174 528.082 334.24 528.082 335.556L528.082 338.038C528.082 339.354 529.149 340.42 530.465 340.42Z" fill="#FF573F"/>
<path d="M460.14 340.42L462.624 340.42C463.941 340.42 465.008 339.354 465.008 338.038L465.008 335.556C465.008 334.24 463.941 333.174 462.624 333.174L460.14 333.174C458.824 333.174 457.756 334.24 457.756 335.556L457.756 338.038C457.756 339.354 458.824 340.42 460.14 340.42Z" fill="#FF573F"/>
<path d="M430.145 340.42L448.124 340.42C449.441 340.42 450.508 339.354 450.508 338.038L450.508 335.556C450.508 334.24 449.441 333.174 448.124 333.174L430.145 333.174C428.829 333.174 427.762 334.24 427.762 335.556L427.762 338.038C427.762 339.354 428.829 340.42 430.145 340.42Z" fill="#FF573F"/>
<path d="M462.434 316.419L429.954 316.419C428.637 316.419 427.57 317.486 427.57 318.801L427.57 321.284C427.57 322.599 428.637 323.665 429.954 323.665L462.434 323.665C463.75 323.665 464.817 322.599 464.817 321.284L464.817 318.801C464.817 317.486 463.75 316.419 462.434 316.419Z" fill="#FF573F"/>
<path d="M492.581 316.419L474.454 316.419C473.137 316.419 472.07 317.486 472.07 318.801L472.07 321.284C472.07 322.599 473.137 323.665 474.454 323.665L492.581 323.665C493.898 323.665 494.965 322.599 494.965 321.284L494.965 318.801C494.965 317.486 493.898 316.419 492.581 316.419Z" fill="#FF573F"/>
<path d="M548.398 316.419L504.594 316.419C503.278 316.419 502.211 317.486 502.211 318.801L502.211 321.284C502.211 322.599 503.278 323.665 504.594 323.665L548.398 323.665C549.714 323.665 550.782 322.599 550.782 321.284L550.782 318.801C550.782 317.486 549.714 316.419 548.398 316.419Z" fill="#FF573F"/>
<path d="M460.047 306.905L503.851 306.905C505.167 306.905 506.234 305.838 506.234 304.523L506.234 302.041C506.234 300.725 505.167 299.659 503.851 299.659L460.047 299.659C458.731 299.659 457.664 300.725 457.664 302.04L457.664 304.523C457.664 305.838 458.731 306.905 460.047 306.905Z" fill="#FF573F"/>
<path d="M485.817 357.176L503.945 357.176C505.261 357.176 506.328 356.11 506.328 354.795L506.328 352.312C506.328 350.997 505.261 349.93 503.945 349.93L485.817 349.93C484.501 349.93 483.433 350.997 483.433 352.312L483.433 354.795C483.433 356.11 484.501 357.176 485.817 357.176Z" fill="#FF573F"/>
<path d="M545.632 290.149L548.116 290.149C549.433 290.149 550.5 289.082 550.5 287.767L550.5 285.284C550.5 283.969 549.433 282.903 548.116 282.903L545.632 282.903C544.316 282.903 543.249 283.969 543.249 285.284L543.249 287.767C543.249 289.082 544.316 290.149 545.632 290.149Z" fill="#FF573F"/>
<path d="M515.637 290.149L533.616 290.149C534.933 290.149 536 289.082 536 287.767L536 285.284C536 283.969 534.933 282.903 533.616 282.903L515.637 282.903C514.321 282.903 513.254 283.969 513.254 285.284L513.254 287.767C513.254 289.082 514.321 290.149 515.637 290.149Z" fill="#FF573F"/>
<path d="M501.515 290.149L503.999 290.149C505.316 290.149 506.383 289.082 506.383 287.767L506.383 285.284C506.383 283.969 505.316 282.903 503.999 282.903L501.515 282.903C500.199 282.903 499.131 283.969 499.131 285.284L499.131 287.767C499.131 289.082 500.199 290.149 501.515 290.149Z" fill="#FF573F"/>
<path d="M430.052 290.149L489.499 290.149C490.816 290.149 491.883 289.082 491.883 287.767L491.883 285.284C491.883 283.969 490.816 282.903 489.499 282.903L430.052 282.903C428.736 282.903 427.669 283.969 427.669 285.284L427.669 287.767C427.669 289.082 428.736 290.149 430.052 290.149Z" fill="#FF573F"/>
<path d="M490.703 254.604H396.585C379.141 254.604 365 268.735 365 286.166V406.439C365 423.87 379.141 438.001 396.585 438.001H490.703C508.148 438.001 522.289 423.87 522.289 406.439V286.166C522.289 268.735 508.148 254.604 490.703 254.604Z" fill="#FFDCD7"/>
<path d="M396.586 437.907L490.704 437.907C508.148 437.907 522.289 423.776 522.289 406.345L522.289 286.071C522.289 268.64 508.148 254.51 490.704 254.51L396.586 254.51C379.142 254.51 365 268.64 365 286.071L365 406.345C365 423.776 379.142 437.907 396.586 437.907Z" fill="url(#paint1_linear_329_429)"/>
<path d="M470.504 407.682L502.984 407.682C504.3 407.682 505.367 406.616 505.367 405.301L505.367 402.818C505.367 401.503 504.3 400.436 502.984 400.436L470.504 400.436C469.187 400.436 468.12 401.503 468.12 402.818L468.12 405.301C468.12 406.616 469.187 407.682 470.504 407.682Z" fill="#FF573F"/>
<path d="M470.121 357.411L502.601 357.411C503.917 357.411 504.984 356.345 504.984 355.029L504.984 352.547C504.984 351.231 503.917 350.165 502.601 350.165L470.121 350.165C468.804 350.165 467.737 351.231 467.737 352.547L467.737 355.029C467.737 356.345 468.804 357.411 470.121 357.411Z" fill="#FF573F"/>
<path d="M384.372 357.411L402.499 357.411C403.816 357.411 404.883 356.345 404.883 355.029L404.883 352.547C404.883 351.231 403.816 350.165 402.499 350.165L384.372 350.165C383.055 350.165 381.988 351.231 381.988 352.547L381.988 355.029C381.988 356.345 383.055 357.411 384.372 357.411Z" fill="#FF573F"/>
<path d="M384.539 407.682L428.343 407.682C429.659 407.682 430.727 406.616 430.727 405.301L430.727 402.818C430.727 401.503 429.659 400.436 428.343 400.436L384.539 400.436C383.223 400.436 382.156 401.503 382.156 402.818L382.156 405.301C382.156 406.616 383.223 407.682 384.539 407.682Z" fill="#FF573F"/>
<path d="M429.032 390.926L472.835 390.926C474.152 390.926 475.219 389.86 475.219 388.545L475.219 386.062C475.219 384.747 474.152 383.68 472.835 383.68L429.032 383.68C427.715 383.68 426.648 384.747 426.648 386.062L426.648 388.545C426.648 389.86 427.715 390.926 429.032 390.926Z" fill="#FF573F"/>
<path d="M484.856 390.926L502.984 390.926C504.3 390.926 505.367 389.86 505.367 388.545L505.367 386.062C505.367 384.747 504.3 383.68 502.984 383.68L484.856 383.68C483.54 383.68 482.473 384.747 482.473 386.062L482.473 388.545C482.473 389.86 483.54 390.926 484.856 390.926Z" fill="#FF573F"/>
<path d="M414.531 390.926L417.015 390.926C418.331 390.926 419.398 389.86 419.398 388.545L419.398 386.062C419.398 384.747 418.331 383.68 417.015 383.68L414.531 383.68C413.214 383.68 412.147 384.747 412.147 386.062L412.147 388.545C412.147 389.86 413.214 390.926 414.531 390.926Z" fill="#FF573F"/>
<path d="M384.536 390.926L402.515 390.926C403.831 390.926 404.898 389.86 404.898 388.545L404.898 386.062C404.898 384.747 403.831 383.68 402.515 383.68L384.536 383.68C383.219 383.68 382.152 384.747 382.152 386.062L382.152 388.545C382.152 389.86 383.219 390.926 384.536 390.926Z" fill="#FF573F"/>
<path d="M416.832 366.922L384.352 366.922C383.036 366.922 381.969 367.988 381.969 369.304L381.969 371.786C381.969 373.102 383.036 374.168 384.352 374.168L416.832 374.168C418.149 374.168 419.216 373.102 419.216 371.786L419.216 369.304C419.216 367.988 418.149 366.922 416.832 366.922Z" fill="#FF573F"/>
<path d="M446.972 366.922L428.844 366.922C427.528 366.922 426.461 367.988 426.461 369.304L426.461 371.786C426.461 373.102 427.528 374.168 428.844 374.168L446.972 374.168C448.288 374.168 449.356 373.102 449.356 371.786L449.356 369.304C449.356 367.988 448.288 366.922 446.972 366.922Z" fill="#FF573F"/>
<path d="M502.797 366.922L458.993 366.922C457.677 366.922 456.609 367.988 456.609 369.304L456.609 371.786C456.609 373.102 457.677 374.168 458.993 374.168L502.797 374.168C504.113 374.168 505.18 373.102 505.18 371.786L505.18 369.304C505.18 367.988 504.113 366.922 502.797 366.922Z" fill="#FF573F"/>
<path d="M414.446 357.411L458.249 357.411C459.566 357.411 460.633 356.345 460.633 355.029L460.633 352.547C460.633 351.231 459.566 350.165 458.249 350.165L414.446 350.165C413.129 350.165 412.062 351.231 412.062 352.547L412.062 355.029C412.062 356.345 413.129 357.411 414.446 357.411Z" fill="#FF573F"/>
<path d="M440.208 407.682L458.335 407.682C459.652 407.682 460.719 406.616 460.719 405.301L460.719 402.818C460.719 401.503 459.652 400.436 458.335 400.436L440.208 400.436C438.891 400.436 437.824 401.503 437.824 402.818L437.824 405.301C437.824 406.616 438.891 407.682 440.208 407.682Z" fill="#FF573F"/>
<path d="M500.023 340.655L502.507 340.655C503.823 340.655 504.891 339.588 504.891 338.273L504.891 335.791C504.891 334.475 503.823 333.409 502.507 333.409L500.023 333.409C498.706 333.409 497.639 334.475 497.639 335.791L497.639 338.273C497.639 339.588 498.706 340.655 500.023 340.655Z" fill="#FF573F"/>
<path d="M470.028 340.655L488.007 340.655C489.323 340.655 490.391 339.588 490.391 338.273L490.391 335.791C490.391 334.475 489.323 333.409 488.007 333.409L470.028 333.409C468.712 333.409 467.644 334.475 467.644 335.791L467.644 338.273C467.644 339.588 468.712 340.655 470.028 340.655Z" fill="#FF573F"/>
<path d="M455.913 340.655L458.398 340.655C459.714 340.655 460.781 339.588 460.781 338.273L460.781 335.791C460.781 334.475 459.714 333.409 458.398 333.409L455.913 333.409C454.597 333.409 453.53 334.475 453.53 335.791L453.53 338.273C453.53 339.588 454.597 340.655 455.913 340.655Z" fill="#FF573F"/>
<path d="M384.451 340.655L443.898 340.655C445.214 340.655 446.281 339.588 446.281 338.273L446.281 335.791C446.281 334.475 445.214 333.409 443.898 333.409L384.451 333.409C383.135 333.409 382.067 334.475 382.067 335.79L382.067 338.273C382.067 339.588 383.135 340.655 384.451 340.655Z" fill="#FF573F"/>
</g>
<defs>
<filter id="filter0_d_329_429" x="-47.6" y="-47.6" width="2015.2" height="737.2" filterUnits="userSpaceOnUse" color-interpolation-filters="sRGB">
<feFlood flood-opacity="0" result="BackgroundImageFix"/>
<feColorMatrix in="SourceAlpha" type="matrix" values="0 0 0 0 0 0 0 0 0 0 0 0 0 0 0 0 0 0 127 0" result="hardAlpha"/>
<feMorphology radius="2" operator="erode" in="SourceAlpha" result="effect1_dropShadow_329_429"/>
<feOffset/>
<feGaussianBlur stdDeviation="24.8"/>
<feComposite in2="hardAlpha" operator="out"/>
<feColorMatrix type="matrix" values="0 0 0 0 1 0 0 0 0 0.341176 0 0 0 0 0.247059 0 0 0 0.4 0"/>
<feBlend mode="normal" in2="BackgroundImageFix" result="effect1_dropShadow_329_429"/>
<feBlend mode="normal" in="SourceGraphic" in2="effect1_dropShadow_329_429" result="shape"/>
</filter>
<linearGradient id="paint0_linear_329_429" x1="493.059" y1="204.004" x2="493.059" y2="387.401" gradientUnits="userSpaceOnUse">
<stop stop-color="white" stop-opacity="0"/>
<stop offset="0.9999" stop-color="#F8604A"/>
</linearGradient>
<linearGradient id="paint1_linear_329_429" x1="443.645" y1="254.51" x2="443.645" y2="437.907" gradientUnits="userSpaceOnUse">
<stop stop-color="white" stop-opacity="0"/>
<stop offset="0.9999" stop-color="#F8604A"/>
</linearGradient>
<clipPath id="clip0_329_429">
<rect width="1920" height="642" fill="white"/>
</clipPath>
</defs>
</svg>
