<svg width="1800" height="1000" viewBox="0 0 1800 1000" fill="none" xmlns="http://www.w3.org/2000/svg">
<rect width="1800" height="1000" fill="#101820"/>
<rect x="1411.75" y="860.17" width="322.326" height="92.161" fill="white"/>
<path d="M60.0529 232.805V85.8047H192.353V232.805H150.143V123.815H102.053V232.805H60.0529ZM218.783 232.805V85.8047H260.783V158.885H261.623L322.103 85.8047H350.663V232.805H308.663V159.305H307.823L247.343 232.805H218.783ZM450.184 236.585C438.844 236.585 428.344 234.695 418.684 230.915C409.164 226.995 400.834 221.605 393.694 214.745C386.694 207.745 381.234 199.555 377.314 190.175C373.394 180.655 371.434 170.365 371.434 159.305C371.434 148.105 373.394 137.815 377.314 128.435C381.234 119.055 386.694 110.935 393.694 104.075C400.834 97.0747 409.164 91.6847 418.684 87.9047C428.344 83.9847 438.844 82.0247 450.184 82.0247C461.524 82.0247 471.954 83.9847 481.474 87.9047C491.134 91.6847 499.464 97.0747 506.464 104.075C513.464 110.935 518.924 119.055 522.844 128.435C526.764 137.815 528.724 148.105 528.724 159.305C528.724 170.365 526.764 180.655 522.844 190.175C518.924 199.555 513.464 207.745 506.464 214.745C499.464 221.605 491.134 226.995 481.474 230.915C471.954 234.695 461.524 236.585 450.184 236.585ZM450.184 198.155C455.504 198.155 460.404 197.245 464.884 195.425C469.364 193.465 473.144 190.735 476.224 187.235C479.444 183.735 481.894 179.605 483.574 174.845C485.394 170.085 486.304 164.835 486.304 159.095C486.304 153.355 485.394 148.105 483.574 143.345C481.894 138.585 479.444 134.525 476.224 131.165C473.144 127.805 469.364 125.215 464.884 123.395C460.544 121.435 455.714 120.455 450.394 120.455C445.074 120.455 440.174 121.435 435.694 123.395C431.214 125.215 427.364 127.875 424.144 131.375C420.924 134.735 418.404 138.795 416.584 143.555C414.764 148.315 413.854 153.565 413.854 159.305C413.854 165.045 414.694 170.295 416.374 175.055C418.194 179.815 420.714 183.945 423.934 187.445C427.154 190.805 431.004 193.465 435.484 195.425C439.964 197.245 444.864 198.155 450.184 198.155ZM584.835 232.805V123.815H542.625V85.8047H668.625V123.815H626.415V232.805H584.835ZM726.237 232.805H687.387V85.8047H752.487C760.327 85.8047 767.397 87.0647 773.697 89.5847C780.137 92.1047 785.597 95.6747 790.077 100.295C794.697 104.775 798.267 110.165 800.787 116.465C803.307 122.765 804.567 129.695 804.567 137.255C804.567 144.675 803.307 151.535 800.787 157.835C798.267 164.135 794.697 169.595 790.077 174.215C785.597 178.695 780.137 182.195 773.697 184.715C767.397 187.235 760.327 188.495 752.487 188.495H726.237V232.805ZM726.237 120.035V154.265H746.607C749.547 154.265 752.137 153.845 754.377 153.005C756.617 152.025 758.507 150.765 760.047 149.225C761.587 147.545 762.777 145.725 763.617 143.765C764.457 141.665 764.877 139.495 764.877 137.255C764.877 134.875 764.457 132.705 763.617 130.745C762.777 128.645 761.587 126.825 760.047 125.285C758.507 123.605 756.617 122.345 754.377 121.505C752.137 120.525 749.547 120.035 746.607 120.035H726.237ZM898.074 236.585C886.734 236.585 876.234 234.695 866.574 230.915C857.054 226.995 848.724 221.605 841.584 214.745C834.584 207.745 829.124 199.555 825.204 190.175C821.284 180.655 819.324 170.365 819.324 159.305C819.324 148.105 821.284 137.815 825.204 128.435C829.124 119.055 834.584 110.935 841.584 104.075C848.724 97.0747 857.054 91.6847 866.574 87.9047C876.234 83.9847 886.734 82.0247 898.074 82.0247C909.414 82.0247 919.844 83.9847 929.364 87.9047C939.024 91.6847 947.354 97.0747 954.354 104.075C961.354 110.935 966.814 119.055 970.734 128.435C974.654 137.815 976.614 148.105 976.614 159.305C976.614 170.365 974.654 180.655 970.734 190.175C966.814 199.555 961.354 207.745 954.354 214.745C947.354 221.605 939.024 226.995 929.364 230.915C919.844 234.695 909.414 236.585 898.074 236.585ZM898.074 198.155C903.394 198.155 908.294 197.245 912.774 195.425C917.254 193.465 921.034 190.735 924.114 187.235C927.334 183.735 929.784 179.605 931.464 174.845C933.284 170.085 934.194 164.835 934.194 159.095C934.194 153.355 933.284 148.105 931.464 143.345C929.784 138.585 927.334 134.525 924.114 131.165C921.034 127.805 917.254 125.215 912.774 123.395C908.434 121.435 903.604 120.455 898.284 120.455C892.964 120.455 888.064 121.435 883.584 123.395C879.104 125.215 875.254 127.875 872.034 131.375C868.814 134.735 866.294 138.795 864.474 143.555C862.654 148.315 861.744 153.565 861.744 159.305C861.744 165.045 862.584 170.295 864.264 175.055C866.084 179.815 868.604 183.945 871.824 187.445C875.044 190.805 878.894 193.465 883.374 195.425C887.854 197.245 892.754 198.155 898.074 198.155ZM997.465 232.805V85.8047H1064.03C1071.45 85.8047 1078.17 86.7147 1084.19 88.5347C1090.21 90.3547 1095.32 93.0147 1099.52 96.5147C1103.72 99.8747 1106.94 104.005 1109.18 108.905C1111.56 113.665 1112.75 119.055 1112.75 125.075C1112.75 132.355 1111 138.725 1107.5 144.185C1104.14 149.645 1098.75 153.915 1091.33 156.995V157.835C1099.73 161.055 1106.03 165.605 1110.23 171.485C1114.57 177.225 1116.74 184.295 1116.74 192.695C1116.74 198.715 1115.55 204.245 1113.17 209.285C1110.93 214.185 1107.64 218.385 1103.3 221.885C1099.1 225.385 1093.85 228.115 1087.55 230.075C1081.39 231.895 1074.39 232.805 1066.55 232.805H997.465ZM1036.31 118.775V141.665H1059.83C1063.89 141.665 1067.18 140.755 1069.7 138.935C1072.22 137.115 1073.48 134.175 1073.48 130.115C1073.48 128.155 1073.13 126.475 1072.43 125.075C1071.87 123.675 1070.96 122.485 1069.7 121.505C1068.58 120.525 1067.18 119.825 1065.5 119.405C1063.96 118.985 1062.21 118.775 1060.25 118.775H1036.31ZM1036.31 199.835H1061.51C1064.03 199.835 1066.2 199.485 1068.02 198.785C1069.98 198.085 1071.59 197.175 1072.85 196.055C1074.11 194.795 1075.09 193.325 1075.79 191.645C1076.49 189.965 1076.84 188.215 1076.84 186.395C1076.84 184.575 1076.49 182.825 1075.79 181.145C1075.23 179.465 1074.25 177.995 1072.85 176.735C1071.59 175.335 1069.98 174.285 1068.02 173.585C1066.06 172.745 1063.75 172.325 1061.09 172.325H1036.31V199.835ZM1210 236.585C1198.38 236.585 1187.74 234.625 1178.08 230.705C1168.42 226.785 1160.09 221.395 1153.09 214.535C1146.23 207.675 1140.84 199.555 1136.92 190.175C1133.14 180.655 1131.25 170.365 1131.25 159.305C1131.25 148.245 1133.14 138.025 1136.92 128.645C1140.7 119.125 1146.02 110.935 1152.88 104.075C1159.88 97.2147 1168.14 91.8247 1177.66 87.9047C1187.32 83.9847 1197.96 82.0247 1209.58 82.0247C1223.58 82.0247 1235.9 84.9647 1246.54 90.8447C1257.32 96.5847 1266.35 105.125 1273.63 116.465L1241.29 138.935C1237.93 132.635 1233.59 128.015 1228.27 125.075C1222.95 121.995 1216.79 120.455 1209.79 120.455C1204.05 120.455 1198.94 121.505 1194.46 123.605C1189.98 125.565 1186.2 128.295 1183.12 131.795C1180.04 135.295 1177.66 139.425 1175.98 144.185C1174.44 148.945 1173.67 153.985 1173.67 159.305C1173.67 164.625 1174.44 169.665 1175.98 174.425C1177.66 179.185 1180.04 183.315 1183.12 186.815C1186.2 190.315 1189.98 193.115 1194.46 195.215C1198.94 197.175 1204.12 198.155 1210 198.155C1217 198.155 1223.16 196.685 1228.48 193.745C1233.94 190.665 1238.28 185.975 1241.5 179.675L1274.05 202.145C1266.77 213.485 1257.74 222.095 1246.96 227.975C1236.32 233.715 1224 236.585 1210 236.585ZM1293.6 232.805V85.8047H1335.6V138.305H1357.44L1374.24 104.705C1376.34 100.505 1378.72 97.0747 1381.38 94.4147C1384.04 91.6147 1386.98 89.4447 1390.2 87.9047C1393.42 86.3647 1396.99 85.3847 1400.91 84.9647C1404.83 84.5447 1409.17 84.5447 1413.93 84.9647L1425.27 85.8047V122.555H1417.71C1415.05 122.555 1412.81 122.975 1410.99 123.815C1409.17 124.655 1407.7 126.125 1406.58 128.225L1391.88 156.785V157.625L1408.89 191.225C1410.01 193.045 1411.48 194.445 1413.3 195.425C1415.12 196.405 1417.36 196.895 1420.02 196.895H1425.27V232.805L1413.93 233.645C1409.31 234.065 1404.97 233.995 1400.91 233.435C1396.85 232.875 1393.14 231.825 1389.78 230.285C1386.56 228.745 1383.62 226.645 1380.96 223.985C1378.44 221.325 1376.34 218.035 1374.66 214.115L1357.44 176.315H1335.6V232.805H1293.6ZM1444.54 232.805V85.8047H1486.54V158.885H1487.38L1547.86 85.8047H1576.42V232.805H1534.42V159.305H1533.58L1473.1 232.805H1444.54ZM1668.8 76.9847C1654.52 76.9847 1643.53 73.6247 1635.83 66.9047C1628.27 60.1847 1624 51.3647 1623.02 40.4447H1654.94C1655.36 44.0847 1656.83 46.8147 1659.35 48.6347C1661.87 50.3147 1665.02 51.1547 1668.8 51.1547C1672.44 51.1547 1675.59 50.3147 1678.25 48.6347C1680.91 46.8147 1682.52 44.0847 1683.08 40.4447H1715C1714.3 51.3647 1709.96 60.1847 1701.98 66.9047C1694.14 73.6247 1683.08 76.9847 1668.8 76.9847ZM1602.86 232.805V85.8047H1644.86V158.885H1645.7L1706.18 85.8047H1734.74V232.805H1692.74V159.305H1691.9L1631.42 232.805H1602.86Z" fill="white"/>
<line x1="46.0469" y1="307.822" x2="1734.07" y2="307.822" stroke="white" stroke-width="3"/>
<line x1="986.268" y1="309.322" x2="986.268" y2="958.687" stroke="white" stroke-width="3"/>
<path d="M72.3639 434.992V366.392H115.484V375.996H83.1439V395.302H110.976V404.71H83.1439V425.388H116.464V434.992H72.3639ZM128.038 434.992V385.992H138.034V405.592H148.226L156.948 390.794C159.692 385.992 163.22 385.502 168.12 385.796L172.432 385.992V394.616H169.59C166.552 394.616 165.082 394.91 163.71 397.262L156.164 409.904V410.296L163.71 423.82C165.082 426.172 166.552 426.27 169.59 426.27H172.432V434.992L168.12 435.188C163.22 435.482 159.594 434.992 156.948 430.19L148.226 414.51H138.034V434.992H128.038ZM199.538 428.426C204.634 428.426 208.848 426.27 212.474 421.958V414.412C209.24 413.236 205.516 412.354 201.596 412.354C194.246 412.354 189.738 415.588 189.738 420.684C189.738 425.486 193.658 428.426 199.538 428.426ZM196.794 436.168C186.7 436.168 179.742 430.092 179.742 421.076C179.742 411.374 187.778 405.2 199.538 405.2C203.85 405.2 208.162 406.082 212.278 407.748L212.572 407.65V403.632C212.572 397.36 208.162 393.44 200.91 393.44C195.716 393.44 191.11 395.498 187.974 399.614L181.898 393.244C186.994 387.462 193.756 384.718 201.792 384.718C214.826 384.718 222.47 391.872 222.47 403.338V434.992H214.532L213.258 429.406H213.062C209.142 433.718 203.262 436.168 196.794 436.168ZM230.113 385.992H272.449V395.302H256.279V434.992H246.283V395.302H230.113V385.992ZM287.262 405.984H315.976C315.29 398.34 309.9 393.44 302.06 393.44C294.024 393.44 288.732 398.536 287.262 405.984ZM277.07 410.59C277.07 395.498 287.458 384.718 302.158 384.718C316.466 384.718 325.972 394.812 325.972 408.924C325.972 410.59 325.776 412.06 325.58 413.628H287.066C288.242 422.056 294.318 427.446 302.942 427.446C308.43 427.446 313.036 425.192 316.564 421.174L322.64 427.838C317.642 433.326 310.684 436.266 302.648 436.266C287.654 436.266 277.07 425.78 277.07 410.59ZM360.943 426.956C370.449 426.956 376.623 420.39 376.623 410.492C376.623 400.692 370.645 394.126 361.727 394.126C356.043 394.126 351.339 396.87 348.007 402.064V421.272C351.241 424.996 355.748 426.956 360.943 426.956ZM363.001 436.364C357.415 436.364 352.319 434.6 348.399 431.366L348.007 431.562V459.59H338.011V385.992H346.145L347.027 392.558H347.419C351.535 387.364 357.317 384.718 363.981 384.718C377.309 384.718 386.815 395.302 386.815 410.394C386.815 425.78 377.015 436.364 363.001 436.364ZM398.686 434.992V385.992H408.682V418.332H409.074L436.318 385.992H443.08V434.992H433.084V402.652H432.692L405.448 434.992H398.686ZM458.022 385.992H468.018V405.298H491.832V385.992H501.828V434.992H491.832V414.51H468.018V434.992H458.022V385.992ZM539.228 427.25C548.146 427.25 554.124 420.586 554.124 411.178C554.124 401.966 548.342 395.988 539.914 395.988C533.152 395.988 527.37 399.81 524.43 405.592V409.218C524.43 420.194 530.212 427.25 539.228 427.25ZM539.326 436.266C523.842 436.266 514.336 424.506 514.336 405.102V402.162C514.336 379.818 523.744 368.842 543.54 367.176L559.318 365.804L559.71 375.114L544.03 376.388C530.408 377.564 524.038 383.542 523.548 396.282H523.842C528.252 390.5 534.524 387.364 541.874 387.364C555.006 387.364 563.924 397.164 563.924 411.178C563.924 426.074 553.83 436.266 539.326 436.266ZM577.465 459.492L586.775 434.992L567.077 385.992H577.661L591.381 422.35H591.773L604.611 385.992H615.097L587.853 459.492H577.465ZM646.808 426.956C656.314 426.956 662.488 420.39 662.488 410.492C662.488 400.692 656.51 394.126 647.592 394.126C641.908 394.126 637.204 396.87 633.872 402.064V421.272C637.106 424.996 641.614 426.956 646.808 426.956ZM648.866 436.364C643.28 436.364 638.184 434.6 634.264 431.366L633.872 431.562V459.59H623.876V385.992H632.01L632.892 392.558H633.284C637.4 387.364 643.182 384.718 649.846 384.718C663.174 384.718 672.68 395.302 672.68 410.394C672.68 425.78 662.88 436.364 648.866 436.364ZM684.552 385.992H716.108V395.302H694.45V434.992H684.552V385.992ZM719.396 412.158V403.044H746.934V412.158H719.396ZM103.92 543.462C82.9479 543.462 68.9339 527.684 68.9339 507.692C68.9339 487.7 82.9479 471.922 103.724 471.922C115.092 471.922 124.794 476.626 131.458 486.23L123.03 492.6C118.424 485.348 111.466 482.114 103.822 482.114C89.7099 482.114 80.0079 493.286 80.0079 507.692C80.0079 522.098 89.7099 533.27 104.116 533.27C111.858 533.27 118.718 530.036 123.422 522.784L131.752 529.154C125.088 538.758 115.386 543.462 103.92 543.462ZM153.337 520.432V533.956H165.979C171.565 533.956 174.603 531.114 174.603 527.096C174.603 523.078 171.565 520.432 165.979 520.432H153.337ZM165.195 501.028H153.337V512.886H165.195C170.389 512.886 173.329 510.632 173.329 507.006C173.329 503.38 170.389 501.028 165.195 501.028ZM143.733 541.992V492.992H165.195C176.367 492.992 183.129 497.206 183.129 505.634C183.129 511.122 180.287 514.65 175.485 516.414V516.61C181.169 518.57 184.403 522.392 184.403 528.37C184.403 537.19 177.445 541.992 165.979 541.992H143.733ZM203.139 512.984H231.853C231.167 505.34 225.777 500.44 217.937 500.44C209.901 500.44 204.609 505.536 203.139 512.984ZM192.947 517.59C192.947 502.498 203.335 491.718 218.035 491.718C232.343 491.718 241.849 501.812 241.849 515.924C241.849 517.59 241.653 519.06 241.457 520.628H202.943C204.119 529.056 210.195 534.446 218.819 534.446C224.307 534.446 228.913 532.192 232.441 528.174L238.517 534.838C233.519 540.326 226.561 543.266 218.525 543.266C203.531 543.266 192.947 532.78 192.947 517.59ZM276.819 533.956C286.325 533.956 292.499 527.39 292.499 517.492C292.499 507.692 286.521 501.126 277.603 501.126C271.919 501.126 267.215 503.87 263.883 509.064V528.272C267.117 531.996 271.625 533.956 276.819 533.956ZM278.877 543.364C273.291 543.364 268.195 541.6 264.275 538.366L263.883 538.562V566.59H253.887V492.992H262.021L262.903 499.558H263.295C267.411 494.364 273.193 491.718 279.857 491.718C293.185 491.718 302.691 502.302 302.691 517.394C302.691 532.78 292.891 543.364 278.877 543.364ZM324.657 532.682H347.295V502.106H328.283V508.378C328.283 520.138 327.107 527.978 324.657 532.682ZM319.071 554.536H309.369V532.682H314.563C317.601 528.86 318.973 521.412 318.973 506.222V492.894H357.291V532.682H365.229V554.634H355.527V541.992H319.071V554.536ZM378.494 492.992H416.518V541.992H406.522V502.204H387.804V513.376C387.804 531.898 382.904 542.286 371.34 542.286C370.164 542.286 369.086 542.188 368.204 541.992V533.074H368.988C375.75 533.074 378.298 527.782 378.396 513.082L378.494 492.992ZM453.957 543.266C439.159 543.266 428.281 532.584 428.281 517.394C428.281 502.302 439.159 491.62 453.957 491.62C468.853 491.62 479.731 502.302 479.731 517.394C479.731 532.584 468.853 543.266 453.957 543.266ZM453.957 533.858C462.973 533.858 469.539 527.39 469.539 517.394C469.539 507.496 462.973 501.028 453.957 501.028C445.039 501.028 438.473 507.496 438.473 517.394C438.473 527.39 445.039 533.858 453.957 533.858ZM501.027 520.432V533.956H513.669C519.255 533.956 522.293 531.114 522.293 527.096C522.293 523.078 519.255 520.432 513.669 520.432H501.027ZM512.885 501.028H501.027V512.886H512.885C518.079 512.886 521.019 510.632 521.019 507.006C521.019 503.38 518.079 501.028 512.885 501.028ZM491.423 541.992V492.992H512.885C524.057 492.992 530.819 497.206 530.819 505.634C530.819 511.122 527.977 514.65 523.175 516.414V516.61C528.859 518.57 532.093 522.392 532.093 528.37C532.093 537.19 525.135 541.992 513.669 541.992H491.423ZM565.136 543.266C549.946 543.266 539.852 532.29 539.852 517.492C539.852 502.792 549.946 491.718 565.234 491.718C573.956 491.718 580.914 495.344 585.716 502.4L578.268 508.28C575.524 503.576 570.82 501.028 565.234 501.028C556.12 501.028 549.946 507.986 549.946 517.394C549.946 526.998 556.316 533.956 565.528 533.956C571.016 533.956 575.328 531.506 578.66 526.704L586.108 532.584C581.11 539.542 573.956 543.266 565.136 543.266ZM596.505 541.992V492.992H606.501V512.592H616.693L625.415 497.794C628.159 492.992 631.687 492.502 636.587 492.796L640.899 492.992V501.616H638.057C635.019 501.616 633.549 501.91 632.177 504.262L624.631 516.904V517.296L632.177 530.82C633.549 533.172 635.019 533.27 638.057 533.27H640.899V541.992L636.587 542.188C631.687 542.482 628.061 541.992 625.415 537.19L616.693 521.51H606.501V541.992H596.505ZM648.111 542.286V531.016H659.381V542.286H648.111ZM81.6739 648.992V593.034L81.2819 592.838L69.2279 598.228L65.8959 589.212L86.3779 580.392H91.8659V648.992H81.6739ZM127.955 589.702C118.939 589.702 113.059 595.778 113.059 604.304C113.059 612.536 118.645 618.024 127.857 618.024C132.561 618.024 136.579 616.652 140.107 614.006C142.263 610.772 143.145 607.636 143.145 604.402C143.145 595.778 137.069 589.702 127.955 589.702ZM127.955 580.392C142.459 580.392 153.239 589.996 153.239 604.01C153.239 613.222 148.437 620.278 142.753 628.216L126.975 650.462H115.411L133.541 625.472L133.443 625.276C131.091 626.354 128.543 626.648 126.191 626.648C112.765 626.648 102.769 617.632 102.769 604.108C102.769 590.29 113.353 580.392 127.955 580.392ZM161.477 648.992V640.564L186.565 616.946C195.875 608.224 198.031 604.794 198.031 600.09C198.031 592.936 193.033 588.526 184.997 588.526C177.843 588.526 172.551 591.956 168.925 599.404L160.203 594.896C164.907 584.508 173.825 579.02 185.193 579.02C199.207 579.02 208.321 587.448 208.321 599.012C208.321 607.734 203.127 613.516 192.935 623.022L175.295 639.584H209.007V648.992H161.477ZM245.071 650.462C228.509 650.462 218.121 636.252 218.121 614.692C218.121 593.23 228.509 578.922 245.071 578.922C261.633 578.922 272.021 593.23 272.021 614.692C272.021 636.252 261.633 650.462 245.071 650.462ZM245.071 640.564C254.871 640.564 261.437 630.47 261.437 614.692C261.437 598.914 254.871 588.82 245.071 588.82C235.271 588.82 228.705 598.914 228.705 614.692C228.705 630.47 235.271 640.564 245.071 640.564ZM280.214 626.158V617.044H307.752V626.158H280.214ZM329.354 648.992V593.034L328.962 592.838L316.908 598.228L313.576 589.212L334.058 580.392H339.546V648.992H329.354ZM375.635 589.702C366.619 589.702 360.739 595.778 360.739 604.304C360.739 612.536 366.325 618.024 375.537 618.024C380.241 618.024 384.259 616.652 387.787 614.006C389.943 610.772 390.825 607.636 390.825 604.402C390.825 595.778 384.749 589.702 375.635 589.702ZM375.635 580.392C390.139 580.392 400.919 589.996 400.919 604.01C400.919 613.222 396.117 620.278 390.433 628.216L374.655 650.462H363.091L381.221 625.472L381.123 625.276C378.771 626.354 376.223 626.648 373.871 626.648C360.445 626.648 350.449 617.632 350.449 604.108C350.449 590.29 361.033 580.392 375.635 580.392ZM441.104 593.034L417.29 624.786H441.104V593.034ZM450.904 648.992H441.104V633.998H407.784L405.922 624.786L439.634 580.392H450.904V624.786H462.076V633.998H450.904V648.992ZM495.144 650.462C478.582 650.462 468.194 636.252 468.194 614.692C468.194 593.23 478.582 578.922 495.144 578.922C511.706 578.922 522.094 593.23 522.094 614.692C522.094 636.252 511.706 650.462 495.144 650.462ZM495.144 640.564C504.944 640.564 511.51 630.47 511.51 614.692C511.51 598.914 504.944 588.82 495.144 588.82C485.344 588.82 478.778 598.914 478.778 614.692C478.778 630.47 485.344 640.564 495.144 640.564ZM530.875 649.286V638.016H542.145V649.286H530.875ZM96.7659 704.444H96.0799L85.3979 731.786H107.448L96.7659 704.444ZM110.78 740.41H81.9679L75.8919 755.992H65.3079L92.9439 687.392H99.9999L127.636 755.992H116.856L110.78 740.41ZM159.487 747.956C168.993 747.956 175.167 741.39 175.167 731.492C175.167 721.692 169.189 715.126 160.271 715.126C154.587 715.126 149.883 717.87 146.551 723.064V742.272C149.785 745.996 154.293 747.956 159.487 747.956ZM161.545 757.364C155.959 757.364 150.863 755.6 146.943 752.366L146.551 752.562V780.59H136.555V706.992H144.689L145.571 713.558H145.963C150.079 708.364 155.861 705.718 162.525 705.718C175.853 705.718 185.359 716.302 185.359 731.394C185.359 746.78 175.559 757.364 161.545 757.364ZM190.401 755.992L207.943 731.198L190.989 706.992H202.847L214.019 723.848H214.411L225.387 706.992H237.245L220.291 731.198L237.833 755.992H225.877L214.411 738.548H214.019L202.259 755.992H190.401ZM247.188 755.992V706.992H257.184V739.332H257.576L284.82 706.992H291.582V755.992H281.586V723.652H281.194L253.95 755.992H247.188ZM300.742 706.992H343.078V716.302H326.908V755.992H316.912V716.302H300.742V706.992ZM357.891 726.984H386.605C385.919 719.34 380.529 714.44 372.689 714.44C364.653 714.44 359.361 719.536 357.891 726.984ZM347.699 731.59C347.699 716.498 358.087 705.718 372.787 705.718C387.095 705.718 396.601 715.812 396.601 729.924C396.601 731.59 396.405 733.06 396.209 734.628H357.695C358.871 743.056 364.947 748.446 373.571 748.446C379.059 748.446 383.665 746.192 387.193 742.174L393.269 748.838C388.271 754.326 381.313 757.266 373.277 757.266C358.283 757.266 347.699 746.78 347.699 731.59ZM408.639 755.992V706.992H418.635V726.592H428.827L437.549 711.794C440.293 706.992 443.821 706.502 448.721 706.796L453.033 706.992V715.616H450.191C447.153 715.616 445.683 715.91 444.311 718.262L436.765 730.904V731.296L444.311 744.82C445.683 747.172 447.153 747.27 450.191 747.27H453.033V755.992L448.721 756.188C443.821 756.482 440.195 755.992 437.549 751.19L428.827 735.51H418.635V755.992H408.639ZM457.6 706.992H499.936V716.302H483.766V755.992H473.77V716.302H457.6V706.992ZM513.248 780.492L522.558 755.992L502.86 706.992H513.444L527.164 743.35H527.556L540.394 706.992H550.88L523.636 780.492H513.248ZM582.591 747.956C592.097 747.956 598.271 741.39 598.271 731.492C598.271 721.692 592.293 715.126 583.375 715.126C577.691 715.126 572.987 717.87 569.655 723.064V742.272C572.889 745.996 577.397 747.956 582.591 747.956ZM584.649 757.364C579.063 757.364 573.967 755.6 570.047 752.366L569.655 752.562V780.59H559.659V706.992H567.793L568.675 713.558H569.067C573.183 708.364 578.965 705.718 585.629 705.718C598.957 705.718 608.463 716.302 608.463 731.394C608.463 746.78 598.663 757.364 584.649 757.364ZM620.335 706.992H630.331V726.298H654.145V706.992H664.141V755.992H654.145V735.51H630.331V755.992H620.335V706.992ZM699.385 731.394H688.605V747.662H699.385C704.677 747.662 708.401 744.428 708.401 739.528C708.401 734.53 704.677 731.394 699.385 731.394ZM679.001 755.992V706.992H688.605V723.064H700.561C710.851 723.064 718.299 729.238 718.299 739.528C718.299 749.72 710.851 755.992 700.561 755.992H679.001ZM734.273 755.992H724.473V706.992H734.273V755.992ZM763.067 684.844C763.557 689.254 766.693 691.802 771.397 691.802C775.905 691.802 778.943 689.254 779.531 684.844H788.057C787.273 693.566 781.001 698.956 771.299 698.956C761.695 698.956 755.325 693.566 754.541 684.844H763.067ZM749.151 755.992V706.992H759.147V739.332H759.539L786.783 706.992H793.545V755.992H783.549V723.75H783.157L755.913 755.992H749.151ZM71.2859 813.992H115.092V862.992H105.096V823.204H81.2819V862.992H71.2859V813.992ZM134.264 887.492L143.574 862.992L123.876 813.992H134.46L148.18 850.35H148.572L161.41 813.992H171.896L144.652 887.492H134.264ZM174.605 813.992H216.941V823.302H200.771V862.992H190.775V823.302H174.605V813.992ZM231.754 833.984H260.468C259.782 826.34 254.392 821.44 246.552 821.44C238.516 821.44 233.224 826.536 231.754 833.984ZM221.562 838.59C221.562 823.498 231.95 812.718 246.65 812.718C260.958 812.718 270.464 822.812 270.464 836.924C270.464 838.59 270.268 840.06 270.072 841.628H231.558C232.734 850.056 238.81 855.446 247.434 855.446C252.922 855.446 257.528 853.192 261.056 849.174L267.132 855.838C262.134 861.326 255.176 864.266 247.14 864.266C232.146 864.266 221.562 853.78 221.562 838.59ZM292.107 841.432V854.956H304.749C310.335 854.956 313.373 852.114 313.373 848.096C313.373 844.078 310.335 841.432 304.749 841.432H292.107ZM303.965 822.028H292.107V833.886H303.965C309.159 833.886 312.099 831.632 312.099 828.006C312.099 824.38 309.159 822.028 303.965 822.028ZM282.503 862.992V813.992H303.965C315.137 813.992 321.899 818.206 321.899 826.634C321.899 832.122 319.057 835.65 314.255 837.414V837.61C319.939 839.57 323.173 843.392 323.173 849.37C323.173 858.19 316.215 862.992 304.749 862.992H282.503ZM357.392 864.266C342.594 864.266 331.716 853.584 331.716 838.394C331.716 823.302 342.594 812.62 357.392 812.62C372.288 812.62 383.166 823.302 383.166 838.394C383.166 853.584 372.288 864.266 357.392 864.266ZM357.392 854.858C366.408 854.858 372.974 848.39 372.974 838.394C372.974 828.496 366.408 822.028 357.392 822.028C348.474 822.028 341.908 828.496 341.908 838.394C341.908 848.39 348.474 854.858 357.392 854.858ZM404.952 853.682H427.59V823.106H408.578V829.378C408.578 841.138 407.402 848.978 404.952 853.682ZM399.366 875.536H389.664V853.682H394.858C397.896 849.86 399.268 842.412 399.268 827.222V813.894H437.586V853.682H445.524V875.634H435.822V862.992H399.366V875.536ZM455.151 862.992V813.992H465.147V846.332H465.539L492.783 813.992H499.545V862.992H489.549V830.652H489.157L461.913 862.992H455.151ZM508.705 813.992H551.041V823.302H534.871V862.992H524.875V823.302H508.705V813.992ZM565.854 833.984H594.568C593.882 826.34 588.492 821.44 580.652 821.44C572.616 821.44 567.324 826.536 565.854 833.984ZM555.662 838.59C555.662 823.498 566.05 812.718 580.75 812.718C595.058 812.718 604.564 822.812 604.564 836.924C604.564 838.59 604.368 840.06 604.172 841.628H565.658C566.834 850.056 572.91 855.446 581.534 855.446C587.022 855.446 591.628 853.192 595.156 849.174L601.232 855.838C596.234 861.326 589.276 864.266 581.24 864.266C566.246 864.266 555.662 853.78 555.662 838.59ZM620.048 813.992H658.072V862.992H648.076V823.204H629.358V834.376C629.358 852.898 624.458 863.286 612.894 863.286C611.718 863.286 610.64 863.188 609.758 862.992V854.074H610.542C617.304 854.074 619.852 848.782 619.95 834.082L620.048 813.992ZM694.237 838.394H682.575V854.662H694.237C699.529 854.662 703.155 851.428 703.155 846.528C703.155 841.53 699.529 838.394 694.237 838.394ZM672.971 862.992V813.992H682.575V830.064H695.413C705.605 830.064 713.053 836.238 713.053 846.528C713.053 856.72 705.703 862.992 695.413 862.992H672.971Z" fill="white"/>
<path d="M1038.29 406.813V359.913H1043.39V380.147H1068.58V359.913H1073.67V406.813H1068.58V384.904H1043.39V406.813H1038.29ZM1096.3 403.396C1100.38 403.396 1103.8 401.654 1106.88 398.103V392.274C1104.2 391.269 1101.05 390.599 1098.04 390.599C1092.14 390.599 1088.53 393.145 1088.53 397.299C1088.53 401.118 1091.67 403.396 1096.3 403.396ZM1095.43 407.617C1088.53 407.617 1083.77 403.53 1083.77 397.366C1083.77 390.666 1089.4 386.445 1097.5 386.445C1100.59 386.445 1103.6 387.048 1106.75 388.388L1106.88 388.321V385.105C1106.88 380.08 1103.53 376.998 1097.97 376.998C1094.09 376.998 1090.74 378.539 1088.39 381.688L1085.11 378.539C1088.53 374.452 1093.01 372.509 1098.37 372.509C1106.75 372.509 1111.57 377.199 1111.57 384.636V406.813H1107.89L1107.22 402.659H1107.08C1104.4 405.741 1100.12 407.617 1095.43 407.617ZM1136.35 407.617C1126.3 407.617 1119.47 400.113 1119.47 390.063C1119.47 380.013 1126.23 372.509 1136.42 372.509C1142.31 372.509 1146.94 375.055 1150.08 379.745L1146.4 382.626C1144.26 379.075 1140.64 377.132 1136.35 377.132C1129.18 377.132 1124.29 382.492 1124.29 389.996C1124.29 397.634 1129.31 402.994 1136.55 402.994C1140.77 402.994 1144.05 401.185 1146.67 397.5L1150.35 400.381C1147.14 405.004 1142.31 407.617 1136.35 407.617ZM1153.85 373.313H1181.99V377.802H1170.33V406.813H1165.51V377.802H1153.85V373.313ZM1197.3 389.996H1206.75V377.601H1197.3C1193.08 377.601 1190.4 380.08 1190.4 383.832C1190.4 387.584 1193.08 389.996 1197.3 389.996ZM1190.47 400.649L1193.68 393.949C1188.66 392.877 1185.58 389.125 1185.58 383.832C1185.58 377.467 1190.06 373.313 1196.83 373.313H1211.44V406.813H1206.75V394.284H1198.44L1193.75 403.932C1192.34 406.813 1190.06 407.081 1187.25 406.947L1184.24 406.813V402.525H1186.51C1188.72 402.525 1189.6 402.458 1190.47 400.649ZM1243.22 406.813V359.913H1271.09V364.603H1248.24V380.549H1268.01V385.239H1248.24V402.123H1271.76V406.813H1243.22ZM1283.25 373.313H1307.5V406.813H1302.81V377.802H1287.8V387.249C1287.8 399.577 1284.92 407.014 1277.48 407.014C1276.81 407.014 1276.21 406.947 1275.67 406.813V402.458H1276.08C1281.17 402.458 1283.11 398.304 1283.18 386.981L1283.25 373.313ZM1318.9 406.813V373.313H1323.59V398.103H1323.86L1344.7 373.313H1347.85V406.813H1343.16V382.023H1342.89L1322.05 406.813H1318.9ZM1369.19 407.617C1363.3 407.617 1358.27 405.071 1355.39 400.314L1359.14 397.567C1361.49 401.319 1364.9 403.195 1369.33 403.195C1374.48 403.195 1377.63 400.649 1377.63 397.299C1377.63 394.083 1374.69 391.805 1369.93 391.805H1364.3V387.249H1369.73C1373.88 387.249 1376.7 385.306 1376.7 382.157C1376.7 378.941 1373.68 376.931 1369.12 376.931C1365.17 376.931 1362.29 378.472 1360.35 381.755L1356.46 379.209C1359.01 374.921 1363.56 372.509 1369.26 372.509C1376.49 372.509 1381.39 376.395 1381.39 382.09C1381.39 385.574 1379.58 387.986 1375.96 389.192V389.326C1380.05 390.666 1382.39 393.748 1382.39 397.567C1382.39 403.463 1376.76 407.617 1369.19 407.617ZM1402.12 403.396C1406.2 403.396 1409.62 401.654 1412.7 398.103V392.274C1410.02 391.269 1406.87 390.599 1403.86 390.599C1397.96 390.599 1394.34 393.145 1394.34 397.299C1394.34 401.118 1397.49 403.396 1402.12 403.396ZM1401.24 407.617C1394.34 407.617 1389.59 403.53 1389.59 397.366C1389.59 390.666 1395.21 386.445 1403.32 386.445C1406.4 386.445 1409.42 387.048 1412.57 388.388L1412.7 388.321V385.105C1412.7 380.08 1409.35 376.998 1403.79 376.998C1399.9 376.998 1396.55 378.539 1394.21 381.688L1390.93 378.539C1394.34 374.452 1398.83 372.509 1404.19 372.509C1412.57 372.509 1417.39 377.199 1417.39 384.636V406.813H1413.71L1413.04 402.659H1412.9C1410.22 405.741 1405.93 407.617 1401.24 407.617ZM1443.51 402.994C1451.01 402.994 1455.9 397.835 1455.9 389.996C1455.9 382.291 1451.21 377.132 1444.18 377.132C1439.56 377.132 1435.74 379.41 1433.12 383.698V398.304C1435.6 401.386 1439.29 402.994 1443.51 402.994ZM1444.25 407.617C1440.02 407.617 1436.21 406.21 1433.39 403.664L1433.12 403.798V423.563H1428.43V373.313H1432.32L1432.86 378.137H1433.12C1436 374.452 1440.09 372.509 1444.85 372.509C1454.16 372.509 1460.73 379.812 1460.73 389.996C1460.73 400.381 1453.89 407.617 1444.25 407.617ZM1483.98 389.46H1474.74V402.391H1483.98C1488.14 402.391 1491.08 399.845 1491.08 395.892C1491.08 391.939 1488.14 389.46 1483.98 389.46ZM1470.05 406.813V373.313H1474.74V385.038H1484.38C1490.95 385.038 1495.91 389.058 1495.91 395.892C1495.91 402.726 1490.95 406.813 1484.38 406.813H1470.05ZM1507.86 387.383H1530.38C1529.91 381.152 1525.69 377.132 1519.45 377.132C1513.02 377.132 1508.8 381.353 1507.86 387.383ZM1502.77 390.13C1502.77 380.013 1509.67 372.509 1519.52 372.509C1528.83 372.509 1535.33 379.209 1535.33 388.79C1535.33 389.728 1535.27 390.8 1535.13 391.805H1507.73C1508.47 398.572 1513.09 402.994 1519.86 402.994C1523.94 402.994 1527.43 401.319 1529.97 398.371L1533.19 401.788C1530.04 405.54 1525.15 407.617 1519.79 407.617C1509.87 407.617 1502.77 400.381 1502.77 390.13ZM1549.46 391.537V402.391H1559.17C1563.86 402.391 1566.34 400.046 1566.34 396.83C1566.34 393.614 1563.86 391.537 1559.17 391.537H1549.46ZM1558.64 377.735H1549.46V387.249H1558.64C1562.92 387.249 1565.4 385.373 1565.4 382.559C1565.4 379.678 1562.92 377.735 1558.64 377.735ZM1544.77 406.813V373.313H1558.17C1565.4 373.313 1570.16 376.194 1570.16 381.889C1570.16 385.507 1568.22 387.852 1565 389.125V389.259C1568.89 390.733 1571.1 393.346 1571.1 397.433C1571.1 403.463 1566.27 406.813 1558.9 406.813H1544.77ZM1590.81 403.396C1594.9 403.396 1598.32 401.654 1601.4 398.103V392.274C1598.72 391.269 1595.57 390.599 1592.56 390.599C1586.66 390.599 1583.04 393.145 1583.04 397.299C1583.04 401.118 1586.19 403.396 1590.81 403.396ZM1589.94 407.617C1583.04 407.617 1578.29 403.53 1578.29 397.366C1578.29 390.666 1583.91 386.445 1592.02 386.445C1595.1 386.445 1598.12 387.048 1601.27 388.388L1601.4 388.321V385.105C1601.4 380.08 1598.05 376.998 1592.49 376.998C1588.6 376.998 1585.25 378.539 1582.91 381.688L1579.63 378.539C1583.04 374.452 1587.53 372.509 1592.89 372.509C1601.27 372.509 1606.09 377.199 1606.09 384.636V406.813H1602.41L1601.74 402.659H1601.6C1598.92 405.741 1594.63 407.617 1589.94 407.617Z" fill="white"/>
<path d="M1051.66 926.871C1044.01 926.871 1038.07 923.637 1034.24 917.499L1041.5 912.549C1044.01 916.707 1047.37 918.357 1051.33 918.357C1056.68 918.357 1059.98 915.321 1059.98 911.361C1059.98 907.401 1056.74 904.893 1051.93 904.893C1049.75 904.893 1047.9 905.421 1046.25 906.279L1043.02 900.603L1055.82 888.459V888.129H1036.75V879.615H1067.63V886.677L1055.36 898.359L1055.49 898.623C1055.62 898.557 1055.75 898.491 1056.61 898.557C1064 898.821 1069.48 904.167 1069.48 911.889C1069.48 920.799 1062.22 926.871 1051.66 926.871ZM1091.67 926.871C1084.15 926.871 1078.14 923.703 1074.38 917.829L1081.51 912.615C1083.89 916.641 1087.12 918.357 1091.15 918.357C1096.29 918.357 1099.86 915.453 1099.86 910.833C1099.86 906.411 1096.62 903.507 1091.41 903.507C1088.31 903.507 1085.6 904.563 1083.62 906.675L1077.15 903.309L1078.74 879.681H1106.39V887.997H1086.33L1085.73 897.567L1086 897.699C1088.37 896.379 1091.01 895.785 1093.92 895.785C1103.22 895.785 1109.49 901.989 1109.49 910.899C1109.49 920.403 1102.43 926.871 1091.67 926.871ZM1119.29 925.881L1136.12 888.327H1114.08V879.681H1146.82V886.545L1129.26 925.881H1119.29ZM1170.24 926.871C1158.42 926.871 1151.03 917.433 1151.03 902.781C1151.03 888.129 1158.49 878.691 1170.24 878.691C1181.92 878.691 1189.38 888.129 1189.38 902.781C1189.38 917.433 1181.92 926.871 1170.24 926.871ZM1170.24 917.829C1175.71 917.829 1179.48 912.285 1179.48 902.781C1179.48 893.343 1175.71 887.733 1170.24 887.733C1164.69 887.733 1160.93 893.343 1160.93 902.781C1160.93 912.285 1164.69 917.829 1170.24 917.829ZM1236.61 887.799H1229.94V900.933H1236.67C1241.23 900.933 1243.54 897.897 1243.54 894.267C1243.54 890.637 1241.23 887.799 1236.61 887.799ZM1220.5 918.555H1214.37V911.691H1220.5V908.061H1214.37V900.933H1220.5V879.681H1237.66C1247.17 879.681 1253.04 885.951 1253.04 894.399C1253.04 902.451 1247.17 908.061 1237.66 908.061H1229.94V911.691H1244.26V918.555H1229.94V925.881H1220.5V918.555Z" fill="white"/>
<path d="M1035.89 523.289V493.889H1039.09V517.073H1039.25L1056.47 493.889H1058.74V523.289H1055.55V500.105H1055.38L1038.16 523.289H1035.89ZM1072.62 523.793C1068.92 523.793 1065.77 522.197 1063.96 519.215L1066.32 517.493C1067.79 519.845 1069.93 521.021 1072.7 521.021C1075.93 521.021 1077.91 519.425 1077.91 517.325C1077.91 515.309 1076.06 513.881 1073.08 513.881H1069.55V511.025H1072.95C1075.56 511.025 1077.32 509.807 1077.32 507.833C1077.32 505.817 1075.43 504.557 1072.57 504.557C1070.1 504.557 1068.29 505.523 1067.07 507.581L1064.64 505.985C1066.23 503.297 1069.09 501.785 1072.66 501.785C1077.19 501.785 1080.26 504.221 1080.26 507.791C1080.26 509.975 1079.13 511.487 1076.86 512.243V512.327C1079.42 513.167 1080.89 515.099 1080.89 517.493C1080.89 521.189 1077.36 523.793 1072.62 523.793ZM1089.6 520.475H1100.9V505.103H1091.32V508.547C1091.32 514.553 1090.78 518.375 1089.6 520.475ZM1087.08 528.833H1084.18V520.475H1086.37C1087.79 518.879 1088.47 515.729 1088.47 508.379V502.289H1103.84V520.475H1107.28V528.875H1104.38V523.289H1087.08V528.833ZM1118.52 521.147C1121.08 521.147 1123.22 520.055 1125.16 517.829V514.175C1123.48 513.545 1121.5 513.125 1119.61 513.125C1115.92 513.125 1113.65 514.721 1113.65 517.325C1113.65 519.719 1115.62 521.147 1118.52 521.147ZM1117.97 523.793C1113.65 523.793 1110.67 521.231 1110.67 517.367C1110.67 513.167 1114.19 510.521 1119.28 510.521C1121.21 510.521 1123.1 510.899 1125.07 511.739L1125.16 511.697V509.681C1125.16 506.531 1123.06 504.599 1119.57 504.599C1117.13 504.599 1115.03 505.565 1113.56 507.539L1111.51 505.565C1113.65 503.003 1116.46 501.785 1119.82 501.785C1125.07 501.785 1128.1 504.725 1128.1 509.387V523.289H1125.79L1125.37 520.685H1125.28C1123.6 522.617 1120.91 523.793 1117.97 523.793ZM1131.88 502.289H1149.52V505.103H1142.21V523.289H1139.18V505.103H1131.88V502.289ZM1154.79 511.109H1168.9C1168.6 507.203 1165.96 504.683 1162.05 504.683C1158.02 504.683 1155.37 507.329 1154.79 511.109ZM1151.59 512.831C1151.59 506.489 1155.92 501.785 1162.09 501.785C1167.93 501.785 1172.01 505.985 1172.01 511.991C1172.01 512.579 1171.96 513.251 1171.88 513.881H1154.7C1155.16 518.123 1158.06 520.895 1162.3 520.895C1164.87 520.895 1167.05 519.845 1168.65 517.997L1170.66 520.139C1168.69 522.491 1165.62 523.793 1162.26 523.793C1156.05 523.793 1151.59 519.257 1151.59 512.831ZM1179.27 502.289H1194.48V523.289H1191.54V505.103H1182.13V511.025C1182.13 518.753 1180.32 523.415 1175.66 523.415C1175.24 523.415 1174.86 523.373 1174.53 523.289V520.559H1174.78C1177.97 520.559 1179.19 517.955 1179.23 510.857L1179.27 502.289ZM1210.36 512.411H1204.57V520.517H1210.36C1212.97 520.517 1214.81 518.921 1214.81 516.443C1214.81 513.965 1212.97 512.411 1210.36 512.411ZM1201.63 523.289V502.289H1204.57V509.639H1210.61C1214.73 509.639 1217.84 512.159 1217.84 516.443C1217.84 520.727 1214.73 523.289 1210.61 523.289H1201.63ZM1232.22 523.793C1225.92 523.793 1221.64 519.089 1221.64 512.789C1221.64 506.489 1225.88 501.785 1232.26 501.785C1235.96 501.785 1238.86 503.381 1240.83 506.321L1238.52 508.127C1237.18 505.901 1234.91 504.683 1232.22 504.683C1227.73 504.683 1224.66 508.043 1224.66 512.747C1224.66 517.535 1227.81 520.895 1232.35 520.895C1234.99 520.895 1237.05 519.761 1238.69 517.451L1241 519.257C1238.98 522.155 1235.96 523.793 1232.22 523.793ZM1243.19 502.289H1260.83V505.103H1253.52V523.289H1250.5V505.103H1243.19V502.289ZM1268.1 513.713V520.517H1274.19C1277.13 520.517 1278.68 519.047 1278.68 517.031C1278.68 515.015 1277.13 513.713 1274.19 513.713H1268.1ZM1273.85 505.061H1268.1V511.025H1273.85C1276.54 511.025 1278.1 509.849 1278.1 508.085C1278.1 506.279 1276.54 505.061 1273.85 505.061ZM1265.16 523.289V502.289H1273.56C1278.1 502.289 1281.08 504.095 1281.08 507.665C1281.08 509.933 1279.86 511.403 1277.84 512.201V512.285C1280.28 513.209 1281.67 514.847 1281.67 517.409C1281.67 521.189 1278.64 523.289 1274.02 523.289H1265.16ZM1296.76 523.793C1290.5 523.793 1285.96 519.215 1285.96 512.789C1285.96 506.363 1290.5 501.785 1296.76 501.785C1303.01 501.785 1307.55 506.363 1307.55 512.789C1307.55 519.215 1303.01 523.793 1296.76 523.793ZM1296.76 520.895C1301.21 520.895 1304.53 517.661 1304.53 512.789C1304.53 507.917 1301.21 504.683 1296.76 504.683C1292.3 504.683 1288.99 507.917 1288.99 512.789C1288.99 517.661 1292.3 520.895 1296.76 520.895ZM1035.85 574.289V544.889H1055.05V547.829H1039V574.289H1035.85ZM1068.59 574.793C1062.33 574.793 1057.79 570.215 1057.79 563.789C1057.79 557.363 1062.33 552.785 1068.59 552.785C1074.84 552.785 1079.38 557.363 1079.38 563.789C1079.38 570.215 1074.84 574.793 1068.59 574.793ZM1068.59 571.895C1073.04 571.895 1076.36 568.661 1076.36 563.789C1076.36 558.917 1073.04 555.683 1068.59 555.683C1064.13 555.683 1060.82 558.917 1060.82 563.789C1060.82 568.661 1064.13 571.895 1068.59 571.895ZM1088 571.475H1099.3V556.103H1089.72V559.547C1089.72 565.553 1089.18 569.375 1088 571.475ZM1085.48 579.833H1082.58V571.475H1084.77C1086.19 569.879 1086.87 566.729 1086.87 559.379V553.289H1102.24V571.475H1105.68V579.875H1102.78V574.289H1085.48V579.833ZM1125.57 564.713V571.517H1131.66C1134.6 571.517 1136.15 570.047 1136.15 568.031C1136.15 566.015 1134.6 564.713 1131.66 564.713H1125.57ZM1131.32 556.061H1125.57V562.025H1131.32C1134.01 562.025 1135.57 560.849 1135.57 559.085C1135.57 557.279 1134.01 556.061 1131.32 556.061ZM1122.63 574.289V553.289H1131.03C1135.57 553.289 1138.55 555.095 1138.55 558.665C1138.55 560.933 1137.33 562.403 1135.31 563.201V563.285C1137.75 564.209 1139.14 565.847 1139.14 568.409C1139.14 572.189 1136.11 574.289 1131.49 574.289H1122.63ZM1153.3 563.411H1147.84V571.517H1153.3C1155.91 571.517 1157.75 569.921 1157.75 567.443C1157.75 564.965 1155.91 563.411 1153.3 563.411ZM1144.9 574.289V553.289H1147.84V560.639H1153.55C1157.67 560.639 1160.78 563.159 1160.78 567.443C1160.78 571.727 1157.67 574.289 1153.55 574.289H1144.9ZM1166.95 574.289H1163.93V553.289H1166.95V574.289ZM1174.11 553.289H1192V574.289H1189.06V556.103H1177.05V574.289H1174.11V553.289ZM1200.72 584.789L1204.79 574.289L1196.31 553.289H1199.59L1206.18 570.215H1206.35L1212.56 553.289H1215.8L1203.83 584.789H1200.72ZM1228.37 574.793C1222.07 574.793 1217.78 570.089 1217.78 563.789C1217.78 557.489 1222.02 552.785 1228.41 552.785C1232.1 552.785 1235 554.381 1236.98 557.321L1234.67 559.127C1233.32 556.901 1231.05 555.683 1228.37 555.683C1223.87 555.683 1220.81 559.043 1220.81 563.747C1220.81 568.535 1223.96 571.895 1228.49 571.895C1231.14 571.895 1233.2 570.761 1234.83 568.451L1237.14 570.257C1235.13 573.155 1232.1 574.793 1228.37 574.793ZM1242.15 574.289V553.289H1245.09V562.193H1249.96L1254.2 555.095C1255.25 553.331 1256.51 553.121 1258.28 553.205L1260.17 553.289V555.977H1258.74C1257.35 555.977 1256.89 556.103 1256.22 557.195L1252.4 563.495V563.663L1256.26 570.425C1256.89 571.517 1257.35 571.601 1258.74 571.601H1260.17V574.289L1258.28 574.373C1256.51 574.457 1255.21 574.247 1254.2 572.483L1249.96 564.965H1245.09V574.289H1242.15ZM1271.75 572.147C1274.32 572.147 1276.46 571.055 1278.39 568.829V565.175C1276.71 564.545 1274.74 564.125 1272.85 564.125C1269.15 564.125 1266.88 565.721 1266.88 568.325C1266.88 570.719 1268.86 572.147 1271.75 572.147ZM1271.21 574.793C1266.88 574.793 1263.9 572.231 1263.9 568.367C1263.9 564.167 1267.43 561.521 1272.51 561.521C1274.44 561.521 1276.33 561.899 1278.31 562.739L1278.39 562.697V560.681C1278.39 557.531 1276.29 555.599 1272.8 555.599C1270.37 555.599 1268.27 556.565 1266.8 558.539L1264.74 556.565C1266.88 554.003 1269.7 552.785 1273.06 552.785C1278.31 552.785 1281.33 555.725 1281.33 560.387V574.289H1279.02L1278.6 571.685H1278.52C1276.84 573.617 1274.15 574.793 1271.21 574.793ZM1035.89 625.289V595.889H1058.07V625.289H1054.88V598.871H1039.09V625.289H1035.89ZM1067.38 613.109H1081.49C1081.2 609.203 1078.55 606.683 1074.65 606.683C1070.62 606.683 1067.97 609.329 1067.38 613.109ZM1064.19 614.831C1064.19 608.489 1068.52 603.785 1074.69 603.785C1080.53 603.785 1084.6 607.985 1084.6 613.991C1084.6 614.579 1084.56 615.251 1084.48 615.881H1067.3C1067.76 620.123 1070.66 622.895 1074.9 622.895C1077.46 622.895 1079.65 621.845 1081.24 619.997L1083.26 622.139C1081.28 624.491 1078.22 625.793 1074.86 625.793C1068.64 625.793 1064.19 621.257 1064.19 614.831ZM1099.97 622.895C1104.67 622.895 1107.74 619.661 1107.74 614.747C1107.74 609.917 1104.8 606.683 1100.39 606.683C1097.49 606.683 1095.09 608.111 1093.46 610.799V619.955C1095.01 621.887 1097.32 622.895 1099.97 622.895ZM1100.43 625.793C1097.78 625.793 1095.39 624.911 1093.62 623.315L1093.46 623.399V635.789H1090.52V604.289H1092.95L1093.29 607.313H1093.46C1095.26 605.003 1097.82 603.785 1100.81 603.785C1106.64 603.785 1110.76 608.363 1110.76 614.747C1110.76 621.257 1106.48 625.793 1100.43 625.793ZM1118.32 613.109H1132.44C1132.14 609.203 1129.5 606.683 1125.59 606.683C1121.56 606.683 1118.91 609.329 1118.32 613.109ZM1115.13 614.831C1115.13 608.489 1119.46 603.785 1125.63 603.785C1131.47 603.785 1135.54 607.985 1135.54 613.991C1135.54 614.579 1135.5 615.251 1135.42 615.881H1118.24C1118.7 620.123 1121.6 622.895 1125.84 622.895C1128.4 622.895 1130.59 621.845 1132.18 619.997L1134.2 622.139C1132.23 624.491 1129.16 625.793 1125.8 625.793C1119.58 625.793 1115.13 621.257 1115.13 614.831ZM1141.46 604.289H1159.35V625.289H1156.41V607.103H1144.4V625.289H1141.46V604.289ZM1168.24 604.289H1183.44V625.289H1180.5V607.103H1171.1V613.025C1171.1 620.753 1169.29 625.415 1164.63 625.415C1164.21 625.415 1163.83 625.373 1163.49 625.289V622.559H1163.75C1166.94 622.559 1168.16 619.955 1168.2 612.857L1168.24 604.289ZM1192.32 613.109H1206.43C1206.13 609.203 1203.49 606.683 1199.58 606.683C1195.55 606.683 1192.9 609.329 1192.32 613.109ZM1189.12 614.831C1189.12 608.489 1193.45 603.785 1199.62 603.785C1205.46 603.785 1209.54 607.985 1209.54 613.991C1209.54 614.579 1209.49 615.251 1209.41 615.881H1192.23C1192.69 620.123 1195.59 622.895 1199.83 622.895C1202.4 622.895 1204.58 621.845 1206.18 619.997L1208.19 622.139C1206.22 624.491 1203.15 625.793 1199.79 625.793C1193.58 625.793 1189.12 621.257 1189.12 614.831ZM1212.22 604.289H1229.86V607.103H1222.56V625.289H1219.53V607.103H1212.22V604.289ZM1048.7 670.955V651.845C1042.11 651.845 1037.53 655.457 1037.53 661.379C1037.53 667.385 1042.11 670.913 1048.7 670.955ZM1051.85 651.845V670.955C1058.45 670.913 1063.03 667.385 1063.03 661.379C1063.03 655.457 1058.45 651.845 1051.85 651.845ZM1051.85 676.709H1048.7V673.979C1040.01 673.811 1034.3 669.149 1034.3 661.379C1034.3 653.609 1040.01 648.947 1048.7 648.779V646.469H1051.85V648.779C1060.55 648.947 1066.26 653.609 1066.26 661.379C1066.26 669.149 1060.55 673.811 1051.85 673.979V676.709ZM1081.59 676.793C1075.33 676.793 1070.79 672.215 1070.79 665.789C1070.79 659.363 1075.33 654.785 1081.59 654.785C1087.85 654.785 1092.38 659.363 1092.38 665.789C1092.38 672.215 1087.85 676.793 1081.59 676.793ZM1081.59 673.895C1086.04 673.895 1089.36 670.661 1089.36 665.789C1089.36 660.917 1086.04 657.683 1081.59 657.683C1077.14 657.683 1073.82 660.917 1073.82 665.789C1073.82 670.661 1077.14 673.895 1081.59 673.895ZM1107.51 673.895C1112.22 673.895 1115.28 670.661 1115.28 665.747C1115.28 660.917 1112.34 657.683 1107.93 657.683C1105.03 657.683 1102.64 659.111 1101 661.799V670.955C1102.56 672.887 1104.87 673.895 1107.51 673.895ZM1107.97 676.793C1105.33 676.793 1102.93 675.911 1101.17 674.315L1101 674.399V686.789H1098.06V655.289H1100.5L1100.83 658.313H1101C1102.81 656.003 1105.37 654.785 1108.35 654.785C1114.19 654.785 1118.31 659.363 1118.31 665.747C1118.31 672.257 1114.02 676.793 1107.97 676.793ZM1121.22 676.289L1126.68 655.289H1128.53L1134.95 669.443H1135.12L1141.5 655.289H1143.35L1148.81 676.289H1145.75L1141.88 661.127H1141.71L1135.62 674.819H1134.36L1128.27 661.127H1128.11L1124.28 676.289H1121.22ZM1160.03 674.147C1162.59 674.147 1164.73 673.055 1166.66 670.829V667.175C1164.98 666.545 1163.01 666.125 1161.12 666.125C1157.42 666.125 1155.16 667.721 1155.16 670.325C1155.16 672.719 1157.13 674.147 1160.03 674.147ZM1159.48 676.793C1155.16 676.793 1152.17 674.231 1152.17 670.367C1152.17 666.167 1155.7 663.521 1160.78 663.521C1162.72 663.521 1164.61 663.899 1166.58 664.739L1166.66 664.697V662.681C1166.66 659.531 1164.56 657.599 1161.08 657.599C1158.64 657.599 1156.54 658.565 1155.07 660.539L1153.01 658.565C1155.16 656.003 1157.97 654.785 1161.33 654.785C1166.58 654.785 1169.6 657.725 1169.6 662.387V676.289H1167.29L1166.87 673.685H1166.79C1165.11 675.617 1162.42 676.793 1159.48 676.793ZM1173.38 655.289H1191.02V658.103H1183.71V676.289H1180.69V658.103H1173.38V655.289ZM1035.89 727.289V697.889H1039.09V710.573H1045.34L1051.31 700.451C1052.4 698.645 1053.07 697.679 1056.01 697.805L1057.86 697.889V700.745H1056.1C1054.58 700.745 1053.95 701.795 1053.37 702.803L1047.95 712.085V712.253L1052.9 721.829C1053.91 723.803 1054.46 724.433 1056.01 724.433H1057.86V727.289L1056.01 727.373C1053.11 727.499 1052.19 726.743 1050.89 724.307L1045.18 713.513H1039.09V727.289H1035.89ZM1071.54 727.793C1065.28 727.793 1060.74 723.215 1060.74 716.789C1060.74 710.363 1065.28 705.785 1071.54 705.785C1077.8 705.785 1082.33 710.363 1082.33 716.789C1082.33 723.215 1077.8 727.793 1071.54 727.793ZM1071.54 724.895C1075.99 724.895 1079.31 721.661 1079.31 716.789C1079.31 711.917 1075.99 708.683 1071.54 708.683C1067.09 708.683 1063.77 711.917 1063.77 716.789C1063.77 721.661 1067.09 724.895 1071.54 724.895ZM1089.78 706.289H1104.98V727.289H1102.04V709.103H1092.63V715.025C1092.63 722.753 1090.83 727.415 1086.17 727.415C1085.75 727.415 1085.37 727.373 1085.03 727.289V724.559H1085.28C1088.48 724.559 1089.69 721.955 1089.74 714.857L1089.78 706.289ZM1112.13 727.289V706.289H1115.07V721.829H1115.24L1128.3 706.289H1130.27V727.289H1127.33V711.749H1127.17L1114.1 727.289H1112.13ZM1137.19 706.289H1140.13V711.917C1140.13 715.277 1142.06 717.125 1145.59 717.125C1147.81 717.125 1149.74 716.369 1151.42 714.857V706.289H1154.36V727.289H1151.42V718.049C1149.87 719.309 1147.64 719.981 1145.12 719.981C1140.04 719.981 1137.19 717.209 1137.19 712.547V706.289ZM1163.24 715.109H1177.35C1177.05 711.203 1174.41 708.683 1170.5 708.683C1166.47 708.683 1163.82 711.329 1163.24 715.109ZM1160.04 716.831C1160.04 710.489 1164.37 705.785 1170.54 705.785C1176.38 705.785 1180.46 709.985 1180.46 715.991C1180.46 716.579 1180.41 717.251 1180.33 717.881H1163.15C1163.61 722.123 1166.51 724.895 1170.75 724.895C1173.32 724.895 1175.5 723.845 1177.1 721.997L1179.11 724.139C1177.14 726.491 1174.07 727.793 1170.71 727.793C1164.5 727.793 1160.04 723.257 1160.04 716.831ZM1194.98 727.793C1188.68 727.793 1184.39 723.089 1184.39 716.789C1184.39 710.489 1188.64 705.785 1195.02 705.785C1198.72 705.785 1201.61 707.381 1203.59 710.321L1201.28 712.127C1199.93 709.901 1197.67 708.683 1194.98 708.683C1190.48 708.683 1187.42 712.043 1187.42 716.747C1187.42 721.535 1190.57 724.895 1195.1 724.895C1197.75 724.895 1199.81 723.761 1201.45 721.451L1203.76 723.257C1201.74 726.155 1198.72 727.793 1194.98 727.793ZM1205.95 706.289H1223.59V709.103H1216.28V727.289H1213.26V709.103H1205.95V706.289ZM1230.86 717.713V724.517H1236.95C1239.89 724.517 1241.44 723.047 1241.44 721.031C1241.44 719.015 1239.89 717.713 1236.95 717.713H1230.86ZM1236.61 709.061H1230.86V715.025H1236.61C1239.3 715.025 1240.85 713.849 1240.85 712.085C1240.85 710.279 1239.3 709.061 1236.61 709.061ZM1227.92 727.289V706.289H1236.32C1240.85 706.289 1243.84 708.095 1243.84 711.665C1243.84 713.933 1242.62 715.403 1240.6 716.201V716.285C1243.04 717.209 1244.42 718.847 1244.42 721.409C1244.42 725.189 1241.4 727.289 1236.78 727.289H1227.92ZM1259.51 727.793C1253.26 727.793 1248.72 723.215 1248.72 716.789C1248.72 710.363 1253.26 705.785 1259.51 705.785C1265.77 705.785 1270.31 710.363 1270.31 716.789C1270.31 723.215 1265.77 727.793 1259.51 727.793ZM1259.51 724.895C1263.97 724.895 1267.28 721.661 1267.28 716.789C1267.28 711.917 1263.97 708.683 1259.51 708.683C1255.06 708.683 1251.74 711.917 1251.74 716.789C1251.74 721.661 1255.06 724.895 1259.51 724.895ZM1296.9 727.793C1290.6 727.793 1286.32 723.089 1286.32 716.789C1286.32 710.489 1290.56 705.785 1296.94 705.785C1300.64 705.785 1303.54 707.381 1305.51 710.321L1303.2 712.127C1301.86 709.901 1299.59 708.683 1296.9 708.683C1292.41 708.683 1289.34 712.043 1289.34 716.747C1289.34 721.535 1292.49 724.895 1297.03 724.895C1299.67 724.895 1301.73 723.761 1303.37 721.451L1305.68 723.257C1303.66 726.155 1300.64 727.793 1296.9 727.793ZM1307.87 706.289H1325.51V709.103H1318.21V727.289H1315.18V709.103H1307.87V706.289ZM1339.29 724.895C1344 724.895 1347.06 721.661 1347.06 716.747C1347.06 711.917 1344.12 708.683 1339.71 708.683C1336.81 708.683 1334.42 710.111 1332.78 712.799V721.955C1334.34 723.887 1336.65 724.895 1339.29 724.895ZM1339.75 727.793C1337.11 727.793 1334.71 726.911 1332.95 725.315L1332.78 725.399V737.789H1329.84V706.289H1332.28L1332.61 709.313H1332.78C1334.59 707.003 1337.15 705.785 1340.13 705.785C1345.97 705.785 1350.09 710.363 1350.09 716.747C1350.09 723.257 1345.8 727.793 1339.75 727.793ZM1362.52 725.147C1365.08 725.147 1367.23 724.055 1369.16 721.829V718.175C1367.48 717.545 1365.5 717.125 1363.61 717.125C1359.92 717.125 1357.65 718.721 1357.65 721.325C1357.65 723.719 1359.62 725.147 1362.52 725.147ZM1361.98 727.793C1357.65 727.793 1354.67 725.231 1354.67 721.367C1354.67 717.167 1358.2 714.521 1363.28 714.521C1365.21 714.521 1367.1 714.899 1369.07 715.739L1369.16 715.697V713.681C1369.16 710.531 1367.06 708.599 1363.57 708.599C1361.14 708.599 1359.04 709.565 1357.57 711.539L1355.51 709.565C1357.65 707.003 1360.46 705.785 1363.82 705.785C1369.07 705.785 1372.1 708.725 1372.1 713.387V727.289H1369.79L1369.37 724.685H1369.28C1367.6 726.617 1364.92 727.793 1361.98 727.793ZM1379.02 706.289H1381.96V715.151H1393.97V706.289H1396.91V727.289H1393.97V717.965H1381.96V727.289H1379.02V706.289ZM1404.04 727.289V706.289H1406.98V721.829H1407.15L1420.21 706.289H1422.18V727.289H1419.24V711.749H1419.07L1406.01 727.289H1404.04ZM1429.3 706.289H1432.24V724.475H1444V706.289H1446.94V724.475H1450.39V732.875H1447.53V727.289H1429.3V706.289Z" fill="white"/>
<path d="M1639.66 523.289V496.829H1629.92V493.889H1652.55V496.829H1642.81V523.289H1639.66ZM1660.56 521.147C1663.12 521.147 1665.27 520.055 1667.2 517.829V514.175C1665.52 513.545 1663.54 513.125 1661.65 513.125C1657.96 513.125 1655.69 514.721 1655.69 517.325C1655.69 519.719 1657.66 521.147 1660.56 521.147ZM1660.02 523.793C1655.69 523.793 1652.71 521.231 1652.71 517.367C1652.71 513.167 1656.24 510.521 1661.32 510.521C1663.25 510.521 1665.14 510.899 1667.11 511.739L1667.2 511.697V509.681C1667.2 506.531 1665.1 504.599 1661.61 504.599C1659.18 504.599 1657.08 505.565 1655.61 507.539L1653.55 505.565C1655.69 503.003 1658.5 501.785 1661.86 501.785C1667.11 501.785 1670.14 504.725 1670.14 509.387V523.289H1667.83L1667.41 520.685H1667.32C1665.64 522.617 1662.96 523.793 1660.02 523.793ZM1677.82 499.769V496.409H1680.67V502.289H1687.39V505.103H1680.67V516.863C1680.67 519.509 1681.81 520.811 1684.03 520.811C1685.29 520.811 1686.38 520.391 1687.48 519.299L1688.82 521.315C1687.48 522.869 1685.67 523.625 1683.57 523.625C1679.96 523.625 1677.69 521.399 1677.69 517.325V505.103H1674.25V502.289H1675.21C1677.14 502.289 1677.82 501.701 1677.82 499.769ZM1692.48 523.289V491.789H1695.46V523.289H1692.48ZM1702.61 523.289V502.289H1705.59V523.289H1702.61ZM1702.61 498.341V494.309H1705.59V498.341H1702.61ZM1712.74 523.289V502.289H1715.18L1715.51 505.019H1715.68C1717.4 502.919 1719.8 501.785 1722.74 501.785C1727.78 501.785 1730.72 505.187 1730.72 511.025V523.289H1727.78V511.403C1727.78 506.867 1725.97 504.599 1722.28 504.599C1719.42 504.599 1717.28 505.943 1715.68 508.757V523.289H1712.74ZM1637.73 574.289V571.769L1648.82 560.933C1653.02 556.817 1653.9 555.179 1653.9 553.037C1653.9 549.509 1651.47 547.283 1647.52 547.283C1644.2 547.283 1641.76 548.837 1640.08 552.239L1637.31 550.853C1639.29 546.569 1642.94 544.301 1647.52 544.301C1653.19 544.301 1657.01 547.787 1657.01 552.743C1657.01 555.851 1655.5 558.287 1650.75 562.907L1642.02 571.349H1657.39V574.289H1637.73ZM1672.65 574.877C1665.85 574.877 1661.6 568.745 1661.6 559.589C1661.6 550.475 1665.85 544.301 1672.65 544.301C1679.45 544.301 1683.7 550.475 1683.7 559.589C1683.7 568.745 1679.45 574.877 1672.65 574.877ZM1672.65 571.895C1677.4 571.895 1680.5 566.939 1680.5 559.589C1680.5 552.281 1677.4 547.283 1672.65 547.283C1667.9 547.283 1664.8 552.281 1664.8 559.589C1664.8 566.939 1667.9 571.895 1672.65 571.895ZM1687.98 574.289V571.769L1699.06 560.933C1703.26 556.817 1704.15 555.179 1704.15 553.037C1704.15 549.509 1701.71 547.283 1697.76 547.283C1694.44 547.283 1692.01 548.837 1690.33 552.239L1687.56 550.853C1689.53 546.569 1693.18 544.301 1697.76 544.301C1703.43 544.301 1707.25 547.787 1707.25 552.743C1707.25 555.851 1705.74 558.287 1701 562.907L1692.26 571.349H1707.63V574.289H1687.98ZM1721.64 574.877C1717.27 574.877 1713.87 573.071 1711.35 569.207L1713.74 567.233C1715.8 570.593 1718.44 571.895 1721.64 571.895C1726.05 571.895 1728.9 569.459 1728.9 565.763C1728.9 562.067 1726.09 559.841 1721.89 559.841C1720.88 559.841 1719.62 559.967 1718.19 560.513L1717.02 558.455L1726.93 548.039V547.829H1712.94V544.889H1731.09V547.409L1721.64 557.027L1721.72 557.195C1722.06 557.153 1722.48 557.111 1723.06 557.111C1728.31 557.111 1732.05 560.597 1732.05 565.763C1732.05 571.181 1727.89 574.877 1721.64 574.877ZM1585.37 625.289L1591.8 595.889H1594.06L1602.72 618.401H1602.84L1611.41 595.889H1613.68L1620.1 625.289H1617L1612.21 602.357H1611.91L1603.81 623.273H1601.71L1593.56 602.357H1593.27L1588.48 625.289H1585.37ZM1630.73 614.747H1636.65V606.977H1630.73C1628.08 606.977 1626.4 608.531 1626.4 610.883C1626.4 613.235 1628.08 614.747 1630.73 614.747ZM1626.45 621.425L1628.46 617.225C1625.31 616.553 1623.38 614.201 1623.38 610.883C1623.38 606.893 1626.19 604.289 1630.44 604.289H1639.59V625.289H1636.65V617.435H1631.44L1628.5 623.483C1627.62 625.289 1626.19 625.457 1624.43 625.373L1622.54 625.289V622.601H1623.97C1625.35 622.601 1625.9 622.559 1626.45 621.425ZM1646.75 604.289H1659.68V607.103H1649.69V625.289H1646.75V604.289ZM1664.1 625.289V604.289H1667.04V613.193H1671.91L1676.15 606.095C1677.2 604.331 1678.46 604.121 1680.23 604.205L1682.12 604.289V606.977H1680.69C1679.3 606.977 1678.84 607.103 1678.17 608.195L1674.35 614.495V614.663L1678.21 621.425C1678.84 622.517 1679.3 622.601 1680.69 622.601H1682.12V625.289L1680.23 625.373C1678.46 625.457 1677.16 625.247 1676.15 623.483L1671.91 615.965H1667.04V625.289H1664.1ZM1687.11 625.289V604.289H1690.05V619.829H1690.22L1703.28 604.289H1705.25V625.289H1702.31V609.749H1702.14L1689.08 625.289H1687.11ZM1717.46 594.881C1717.71 597.023 1719.22 598.241 1721.49 598.241C1723.67 598.241 1725.14 597.023 1725.44 594.881H1728.08C1727.75 598.409 1725.23 600.551 1721.45 600.551C1717.67 600.551 1715.15 598.409 1714.81 594.881H1717.46ZM1712.37 625.289V604.289H1715.31V619.829H1715.48L1728.54 604.289H1730.52V625.289H1727.58V609.749H1727.41L1714.35 625.289H1712.37ZM1512.52 676.289V650.795L1512.35 650.711L1506.97 653.189L1505.97 650.501L1513.78 646.889H1515.54V676.289H1512.52ZM1531.2 676.877C1526.83 676.877 1523.43 675.071 1520.91 671.207L1523.3 669.233C1525.36 672.593 1528.01 673.895 1531.2 673.895C1535.61 673.895 1538.47 671.459 1538.47 667.763C1538.47 664.067 1535.65 661.841 1531.45 661.841C1530.44 661.841 1529.18 661.967 1527.76 662.513L1526.58 660.455L1536.49 650.039V649.829H1522.51V646.889H1540.65V649.409L1531.2 659.027L1531.28 659.195C1531.62 659.153 1532.04 659.111 1532.63 659.111C1537.88 659.111 1541.62 662.597 1541.62 667.763C1541.62 673.181 1537.46 676.877 1531.2 676.877ZM1545.73 676.499V672.719H1549.51V676.499H1545.73ZM1564.86 676.877C1558.06 676.877 1553.82 670.745 1553.82 661.589C1553.82 652.475 1558.06 646.301 1564.86 646.301C1571.67 646.301 1575.91 652.475 1575.91 661.589C1575.91 670.745 1571.67 676.877 1564.86 676.877ZM1564.86 673.895C1569.61 673.895 1572.72 668.939 1572.72 661.589C1572.72 654.281 1569.61 649.283 1564.86 649.283C1560.12 649.283 1557.01 654.281 1557.01 661.589C1557.01 668.939 1560.12 673.895 1564.86 673.895ZM1579.18 676.289L1586.95 665.705L1579.26 655.289H1583.04L1588.67 663.185H1588.84L1594.43 655.289H1598.21L1590.52 665.705L1598.29 676.289H1594.55L1588.84 668.141H1588.67L1582.88 676.289H1579.18ZM1601.47 676.289V673.769L1612.56 662.933C1616.76 658.817 1617.64 657.179 1617.64 655.037C1617.64 651.509 1615.21 649.283 1611.26 649.283C1607.94 649.283 1605.51 650.837 1603.83 654.239L1601.05 652.853C1603.03 648.569 1606.68 646.301 1611.26 646.301C1616.93 646.301 1620.75 649.787 1620.75 654.743C1620.75 657.851 1619.24 660.287 1614.49 664.907L1605.76 673.349H1621.13V676.289H1601.47ZM1630.81 676.289V650.795L1630.64 650.711L1625.26 653.189L1624.26 650.501L1632.07 646.889H1633.83V676.289H1630.81ZM1639.62 676.499V672.719H1643.4V676.499H1639.62ZM1657.19 676.877C1652.87 676.877 1649.55 674.987 1646.94 671.207L1649.34 669.233C1651.4 672.551 1654.04 673.895 1657.19 673.895C1661.56 673.895 1664.5 671.291 1664.5 667.175C1664.5 663.269 1661.81 660.623 1657.65 660.623C1655.01 660.623 1652.78 661.673 1651.4 663.563L1648.62 662.009L1649.63 646.889H1665.97V649.829H1652.36L1651.73 659.531L1651.9 659.615C1653.66 658.229 1655.6 657.641 1657.86 657.641C1663.7 657.641 1667.65 661.505 1667.65 667.133C1667.65 672.929 1663.45 676.877 1657.19 676.877ZM1694.16 676.793C1687.86 676.793 1683.58 672.089 1683.58 665.789C1683.58 659.489 1687.82 654.785 1694.2 654.785C1697.9 654.785 1700.8 656.381 1702.77 659.321L1700.46 661.127C1699.12 658.901 1696.85 657.683 1694.16 657.683C1689.67 657.683 1686.6 661.043 1686.6 665.747C1686.6 670.535 1689.75 673.895 1694.29 673.895C1696.93 673.895 1698.99 672.761 1700.63 670.451L1702.94 672.257C1700.92 675.155 1697.9 676.793 1694.16 676.793ZM1705.42 676.289L1710.88 655.289H1712.73L1719.16 669.443H1719.33L1725.71 655.289H1727.56L1733.02 676.289H1729.95L1726.09 661.127H1725.92L1719.83 674.819H1718.57L1712.48 661.127H1712.31L1708.49 676.289H1705.42ZM1678.05 702.383L1666.5 717.503H1678.05V702.383ZM1681.08 727.289H1678.05V720.443H1663.27L1662.68 717.461L1677.76 697.889H1681.08V717.503H1685.99V720.443H1681.08V727.289ZM1698.58 700.829C1694.17 700.829 1691.27 703.769 1691.27 707.927C1691.27 711.959 1694 714.647 1698.5 714.647C1700.81 714.647 1702.78 713.933 1704.34 712.715C1705.51 711.077 1705.93 709.481 1705.93 707.927C1705.93 703.769 1702.99 700.829 1698.58 700.829ZM1698.58 697.889C1704.59 697.889 1708.96 702.005 1708.96 707.675C1708.96 711.959 1706.48 715.067 1704.38 718.049L1697.49 727.877H1693.88L1701.86 716.705L1701.82 716.663C1700.6 717.251 1699.25 717.419 1698.08 717.419C1692.41 717.419 1688.17 713.597 1688.17 707.843C1688.17 702.005 1692.58 697.889 1698.58 697.889ZM1722.21 724.937C1726.62 724.937 1729.51 721.997 1729.51 717.839C1729.51 713.807 1726.78 711.119 1722.29 711.119C1719.98 711.119 1718.01 711.833 1716.45 713.051C1715.28 714.689 1714.86 716.285 1714.86 717.839C1714.86 721.997 1717.8 724.937 1722.21 724.937ZM1722.21 727.877C1716.2 727.877 1711.83 723.761 1711.83 718.091C1711.83 713.807 1714.31 710.699 1716.41 707.717L1723.3 697.889H1726.91L1718.93 709.061L1718.97 709.103C1720.19 708.515 1721.53 708.347 1722.71 708.347C1728.38 708.347 1732.62 712.169 1732.62 717.923C1732.62 723.761 1728.21 727.877 1722.21 727.877Z" fill="white"/>
<path d="M1458.45 925.117V883.057H1467.81V899.257H1475.01L1481.19 887.857C1483.29 883.897 1485.87 882.517 1490.85 882.877L1493.91 883.057V891.277H1491.57C1489.83 891.277 1488.81 892.117 1488.15 893.377L1482.69 903.397V903.637L1488.33 914.677C1489.23 916.357 1490.25 917.017 1491.99 917.017H1493.91V925.117L1490.85 925.297C1485.93 925.657 1482.99 924.217 1481.01 920.137L1474.95 907.717H1467.81V925.117H1458.45ZM1502.39 940.117L1507.97 925.117L1495.97 895.117H1504.79L1511.87 914.917H1512.11L1518.65 895.117H1527.41L1511.21 940.117H1502.39ZM1531.73 895.117H1560.17V925.117H1551.65V902.797H1540.25V925.117H1531.73V895.117ZM1567.83 925.117V895.117H1576.35V911.857H1576.59L1590.81 895.117H1596.63V925.117H1588.11V908.377H1587.87L1573.71 925.117H1567.83ZM1601.39 895.117H1628.15V902.917H1618.97V925.117H1610.57V902.917H1601.39V895.117ZM1646.6 910.657H1640.96V918.577H1646.6C1649.18 918.577 1650.92 916.957 1650.92 914.617C1650.92 912.217 1649.18 910.657 1646.6 910.657ZM1632.92 925.117V895.117H1640.96V904.117H1647.74C1654.52 904.117 1659.2 908.137 1659.2 914.617C1659.2 921.037 1654.58 925.117 1647.74 925.117H1632.92ZM1685.64 912.217L1683.24 897.757V883.117H1692.96V897.757L1690.56 912.217H1685.64ZM1683.66 925.177V916.357H1692.48V925.177H1683.66Z" fill="#101820"/>
</svg>
