<svg width="1003" height="400" viewBox="0 0 1003 400" fill="none" xmlns="http://www.w3.org/2000/svg">
<rect width="1003" height="400" fill="#101820"/>
<path d="M67.644 134L40.116 47.2H65.412L78.804 93.204H79.052L95.792 50.672H108.688L125.304 93.204H125.428L139.068 47.2H164.364L136.836 134H119.848L102.364 86.88H102.116L84.508 134H67.644ZM173.234 134V47.2H198.034V78.324H226.43V47.2H251.354V134H226.43V100.768H198.034V134H173.234ZM283.576 134H260.264L294.736 47.2H313.46L347.932 134H324.248L320.032 122.592H287.916L283.576 134ZM294.612 104.488H313.088L304.408 81.424H303.292L294.612 104.488ZM367.461 134V69.644H342.537V47.2H416.937V69.644H392.013V134H367.461ZM468.458 134V47.2H503.054C509.584 47.2 515.619 48.2333 521.158 50.3C526.696 52.3667 531.491 55.3013 535.542 59.104C539.592 62.9067 542.734 67.4947 544.966 72.868C547.28 78.1587 548.438 84.0693 548.438 90.6C548.438 97.1307 547.28 103.083 544.966 108.456C542.734 113.747 539.592 118.293 535.542 122.096C531.491 125.899 526.696 128.833 521.158 130.9C515.619 132.967 509.584 134 503.054 134H468.458ZM492.142 111.928H503.054C506.278 111.928 509.171 111.432 511.734 110.44C514.379 109.448 516.611 108.043 518.43 106.224C520.331 104.405 521.778 102.173 522.77 99.528C523.844 96.8827 524.382 93.9067 524.382 90.6C524.382 87.2933 523.886 84.3173 522.894 81.672C521.902 79.0267 520.455 76.7947 518.554 74.976C516.735 73.1573 514.503 71.752 511.858 70.76C509.212 69.768 506.278 69.272 503.054 69.272H492.142V111.928ZM604.128 136.232C597.432 136.232 591.232 135.116 585.528 132.884C579.907 130.569 574.988 127.387 570.772 123.336C566.639 119.203 563.415 114.367 561.1 108.828C558.785 103.207 557.628 97.1307 557.628 90.6C557.628 83.9867 558.785 77.9107 561.1 72.372C563.415 66.8333 566.639 62.0387 570.772 57.988C574.988 53.8547 579.907 50.672 585.528 48.44C591.232 46.1253 597.432 44.968 604.128 44.968C610.824 44.968 616.983 46.1253 622.604 48.44C628.308 50.672 633.227 53.8547 637.36 57.988C641.493 62.0387 644.717 66.8333 647.032 72.372C649.347 77.9107 650.504 83.9867 650.504 90.6C650.504 97.1307 649.347 103.207 647.032 108.828C644.717 114.367 641.493 119.203 637.36 123.336C633.227 127.387 628.308 130.569 622.604 132.884C616.983 135.116 610.824 136.232 604.128 136.232ZM604.128 113.54C607.269 113.54 610.163 113.003 612.808 111.928C615.453 110.771 617.685 109.159 619.504 107.092C621.405 105.025 622.852 102.587 623.844 99.776C624.919 96.9653 625.456 93.8653 625.456 90.476C625.456 87.0867 624.919 83.9867 623.844 81.176C622.852 78.3653 621.405 75.968 619.504 73.984C617.685 72 615.453 70.4707 612.808 69.396C610.245 68.2387 607.393 67.66 604.252 67.66C601.111 67.66 598.217 68.2387 595.572 69.396C592.927 70.4707 590.653 72.0413 588.752 74.108C586.851 76.092 585.363 78.4893 584.288 81.3C583.213 84.1107 582.676 87.2107 582.676 90.6C582.676 93.9893 583.172 97.0893 584.164 99.9C585.239 102.711 586.727 105.149 588.628 107.216C590.529 109.2 592.803 110.771 595.448 111.928C598.093 113.003 600.987 113.54 604.128 113.54ZM696.686 47.2H721.734L737.11 78.2H737.606L752.982 47.2H778.03L749.138 101.016V134H725.578V101.016L696.686 47.2ZM823.913 136.232C817.217 136.232 811.017 135.116 805.313 132.884C799.692 130.569 794.773 127.387 790.557 123.336C786.424 119.203 783.2 114.367 780.885 108.828C778.571 103.207 777.413 97.1307 777.413 90.6C777.413 83.9867 778.571 77.9107 780.885 72.372C783.2 66.8333 786.424 62.0387 790.557 57.988C794.773 53.8547 799.692 50.672 805.313 48.44C811.017 46.1253 817.217 44.968 823.913 44.968C830.609 44.968 836.768 46.1253 842.389 48.44C848.093 50.672 853.012 53.8547 857.145 57.988C861.279 62.0387 864.503 66.8333 866.817 72.372C869.132 77.9107 870.289 83.9867 870.289 90.6C870.289 97.1307 869.132 103.207 866.817 108.828C864.503 114.367 861.279 119.203 857.145 123.336C853.012 127.387 848.093 130.569 842.389 132.884C836.768 135.116 830.609 136.232 823.913 136.232ZM823.913 113.54C827.055 113.54 829.948 113.003 832.593 111.928C835.239 110.771 837.471 109.159 839.289 107.092C841.191 105.025 842.637 102.587 843.629 99.776C844.704 96.9653 845.241 93.8653 845.241 90.476C845.241 87.0867 844.704 83.9867 843.629 81.176C842.637 78.3653 841.191 75.968 839.289 73.984C837.471 72 835.239 70.4707 832.593 69.396C830.031 68.2387 827.179 67.66 824.037 67.66C820.896 67.66 818.003 68.2387 815.357 69.396C812.712 70.4707 810.439 72.0413 808.537 74.108C806.636 76.092 805.148 78.4893 804.073 81.3C802.999 84.1107 802.461 87.2107 802.461 90.6C802.461 93.9893 802.957 97.0893 803.949 99.9C805.024 102.711 806.512 105.149 808.413 107.216C810.315 109.2 812.588 110.771 815.233 111.928C817.879 113.003 820.772 113.54 823.913 113.54ZM920.793 135.984C914.924 135.984 909.592 135.116 904.797 133.38C900.085 131.644 896.034 129.164 892.645 125.94C889.256 122.633 886.652 118.665 884.833 114.036C883.014 109.324 882.105 103.992 882.105 98.04V47.2H906.905V97.048C906.905 99.528 907.236 101.76 907.897 103.744C908.558 105.728 909.468 107.381 910.625 108.704C911.865 110.027 913.312 111.06 914.965 111.804C916.701 112.465 918.644 112.796 920.793 112.796C922.942 112.796 924.844 112.465 926.497 111.804C928.233 111.06 929.68 110.027 930.837 108.704C932.077 107.381 933.028 105.728 933.689 103.744C934.35 101.76 934.681 99.528 934.681 97.048V47.2H959.481V98.04C959.481 103.992 958.572 109.324 956.753 114.036C954.934 118.665 952.33 122.633 948.941 125.94C945.552 129.164 941.46 131.644 936.665 133.38C931.953 135.116 926.662 135.984 920.793 135.984ZM46.812 245V158.2H71.612V192.796H72.108L95.048 167.004C96.8667 164.937 98.5613 163.284 100.132 162.044C101.703 160.721 103.315 159.729 104.968 159.068C106.621 158.324 108.357 157.869 110.176 157.704C112.077 157.539 114.227 157.539 116.624 157.704L124.312 158.2V179.9H120.84C119.187 179.9 117.699 180.024 116.376 180.272C115.053 180.52 113.689 181.347 112.284 182.752L99.016 195.772L114.764 220.324C115.095 220.903 115.467 221.399 115.88 221.812C116.376 222.225 116.872 222.597 117.368 222.928C117.947 223.176 118.525 223.383 119.104 223.548C119.765 223.713 120.468 223.796 121.212 223.796H124.436V245L117.616 245.496C114.888 245.744 112.367 245.703 110.052 245.372C107.82 245.124 105.712 244.545 103.728 243.636C101.827 242.644 100.091 241.404 98.52 239.916C96.9493 238.345 95.544 236.444 94.304 234.212L82.524 213.132H81.78L71.612 223.176V245H46.812ZM135.816 245V158.2H151.564L189.384 199.368H189.88V158.2H213.688V245H197.94L160.12 203.832H159.624V245H135.816ZM272.452 247.232C265.756 247.232 259.556 246.116 253.852 243.884C248.231 241.569 243.312 238.387 239.096 234.336C234.963 230.203 231.739 225.367 229.424 219.828C227.11 214.207 225.952 208.131 225.952 201.6C225.952 194.987 227.11 188.911 229.424 183.372C231.739 177.833 234.963 173.039 239.096 168.988C243.312 164.855 248.231 161.672 253.852 159.44C259.556 157.125 265.756 155.968 272.452 155.968C279.148 155.968 285.307 157.125 290.928 159.44C296.632 161.672 301.551 164.855 305.684 168.988C309.818 173.039 313.042 177.833 315.356 183.372C317.671 188.911 318.828 194.987 318.828 201.6C318.828 208.131 317.671 214.207 315.356 219.828C313.042 225.367 309.818 230.203 305.684 234.336C301.551 238.387 296.632 241.569 290.928 243.884C285.307 246.116 279.148 247.232 272.452 247.232ZM272.452 224.54C275.594 224.54 278.487 224.003 281.132 222.928C283.778 221.771 286.01 220.159 287.828 218.092C289.73 216.025 291.176 213.587 292.168 210.776C293.243 207.965 293.78 204.865 293.78 201.476C293.78 198.087 293.243 194.987 292.168 192.176C291.176 189.365 289.73 186.968 287.828 184.984C286.01 183 283.778 181.471 281.132 180.396C278.57 179.239 275.718 178.66 272.576 178.66C269.435 178.66 266.542 179.239 263.896 180.396C261.251 181.471 258.978 183.041 257.076 185.108C255.175 187.092 253.687 189.489 252.612 192.3C251.538 195.111 251 198.211 251 201.6C251 204.989 251.496 208.089 252.488 210.9C253.563 213.711 255.051 216.149 256.952 218.216C258.854 220.2 261.127 221.771 263.772 222.928C266.418 224.003 269.311 224.54 272.452 224.54ZM350.761 245L323.233 158.2H348.529L361.921 204.204H362.169L378.909 161.672H391.805L408.421 204.204H408.545L422.185 158.2H447.481L419.953 245H402.965L385.481 197.88H385.233L367.625 245H350.761ZM513.533 245H490.221L524.693 158.2H543.417L577.889 245H554.205L549.989 233.592H517.873L513.533 245ZM524.569 215.488H543.045L534.365 192.424H533.249L524.569 215.488ZM586.769 245V158.2H626.077C630.458 158.2 634.426 158.737 637.981 159.812C641.536 160.887 644.553 162.457 647.033 164.524C649.513 166.508 651.414 168.947 652.737 171.84C654.142 174.651 654.845 177.833 654.845 181.388C654.845 185.687 653.812 189.448 651.745 192.672C649.761 195.896 646.578 198.417 642.197 200.236V200.732C647.157 202.633 650.877 205.32 653.357 208.792C655.92 212.181 657.201 216.356 657.201 221.316C657.201 224.871 656.498 228.136 655.093 231.112C653.77 234.005 651.828 236.485 649.265 238.552C646.785 240.619 643.685 242.231 639.965 243.388C636.328 244.463 632.194 245 627.565 245H586.769ZM609.709 177.668V191.184H623.597C625.994 191.184 627.937 190.647 629.425 189.572C630.913 188.497 631.657 186.761 631.657 184.364C631.657 183.207 631.45 182.215 631.037 181.388C630.706 180.561 630.169 179.859 629.425 179.28C628.764 178.701 627.937 178.288 626.945 178.04C626.036 177.792 625.002 177.668 623.845 177.668H609.709ZM609.709 225.532H624.589C626.077 225.532 627.358 225.325 628.433 224.912C629.59 224.499 630.541 223.961 631.285 223.3C632.029 222.556 632.608 221.688 633.021 220.696C633.434 219.704 633.641 218.671 633.641 217.596C633.641 216.521 633.434 215.488 633.021 214.496C632.69 213.504 632.112 212.636 631.285 211.892C630.541 211.065 629.59 210.445 628.433 210.032C627.276 209.536 625.912 209.288 624.341 209.288H609.709V225.532ZM712.265 247.232C705.569 247.232 699.369 246.116 693.665 243.884C688.043 241.569 683.125 238.387 678.909 234.336C674.775 230.203 671.551 225.367 669.237 219.828C666.922 214.207 665.765 208.131 665.765 201.6C665.765 194.987 666.922 188.911 669.237 183.372C671.551 177.833 674.775 173.039 678.909 168.988C683.125 164.855 688.043 161.672 693.665 159.44C699.369 157.125 705.569 155.968 712.265 155.968C718.961 155.968 725.119 157.125 730.741 159.44C736.445 161.672 741.363 164.855 745.497 168.988C749.63 173.039 752.854 177.833 755.169 183.372C757.483 188.911 758.641 194.987 758.641 201.6C758.641 208.131 757.483 214.207 755.169 219.828C752.854 225.367 749.63 230.203 745.497 234.336C741.363 238.387 736.445 241.569 730.741 243.884C725.119 246.116 718.961 247.232 712.265 247.232ZM712.265 224.54C715.406 224.54 718.299 224.003 720.945 222.928C723.59 221.771 725.822 220.159 727.641 218.092C729.542 216.025 730.989 213.587 731.981 210.776C733.055 207.965 733.593 204.865 733.593 201.476C733.593 198.087 733.055 194.987 731.981 192.176C730.989 189.365 729.542 186.968 727.641 184.984C725.822 183 723.59 181.471 720.945 180.396C718.382 179.239 715.53 178.66 712.389 178.66C709.247 178.66 706.354 179.239 703.709 180.396C701.063 181.471 698.79 183.041 696.889 185.108C694.987 187.092 693.499 189.489 692.425 192.3C691.35 195.111 690.813 198.211 690.813 201.6C690.813 204.989 691.309 208.089 692.301 210.9C693.375 213.711 694.863 216.149 696.765 218.216C698.666 220.2 700.939 221.771 703.585 222.928C706.23 224.003 709.123 224.54 712.265 224.54ZM809.145 246.984C803.275 246.984 797.943 246.116 793.149 244.38C788.437 242.644 784.386 240.164 780.997 236.94C777.607 233.633 775.003 229.665 773.185 225.036C771.366 220.324 770.457 214.992 770.457 209.04V158.2H795.257V208.048C795.257 210.528 795.587 212.76 796.249 214.744C796.91 216.728 797.819 218.381 798.977 219.704C800.217 221.027 801.663 222.06 803.317 222.804C805.053 223.465 806.995 223.796 809.145 223.796C811.294 223.796 813.195 223.465 814.849 222.804C816.585 222.06 818.031 221.027 819.189 219.704C820.429 218.381 821.379 216.728 822.041 214.744C822.702 212.76 823.033 210.528 823.033 208.048V158.2H847.833V209.04C847.833 214.992 846.923 220.324 845.105 225.036C843.286 229.665 840.682 233.633 837.293 236.94C833.903 240.164 829.811 242.644 825.017 244.38C820.305 246.116 815.014 246.984 809.145 246.984ZM883.32 245V180.644H858.396V158.2H932.796V180.644H907.872V245H883.32ZM41.604 341.616L56.856 325.248C59.7493 328.72 63.1387 331.407 67.024 333.308C70.992 335.127 75.208 336.036 79.672 336.036C81.4907 336.036 83.0613 335.912 84.384 335.664C85.7893 335.333 86.9467 334.92 87.856 334.424C88.7653 333.845 89.4267 333.225 89.84 332.564C90.336 331.82 90.584 331.035 90.584 330.208C90.584 329.051 90.1707 328.059 89.344 327.232C88.5173 326.405 87.36 325.703 85.872 325.124C84.384 324.463 82.648 323.925 80.664 323.512C78.7627 323.016 76.696 322.561 74.464 322.148C71.24 321.487 67.8507 320.619 64.296 319.544C60.824 318.387 57.6413 316.775 54.748 314.708C51.8547 312.641 49.4573 310.079 47.556 307.02C45.7373 303.879 44.828 299.993 44.828 295.364C44.828 291.313 45.572 287.593 47.06 284.204C48.6307 280.732 50.904 277.756 53.88 275.276C56.9387 272.713 60.6587 270.729 65.04 269.324C69.4213 267.919 74.464 267.216 80.168 267.216C86.2853 267.216 92.4027 268.249 98.52 270.316C104.72 272.383 110.465 276.185 115.756 281.724L100.752 298.464C98.1067 295.405 95.048 293.091 91.576 291.52C88.104 289.949 84.3427 289.164 80.292 289.164C78.804 289.164 77.44 289.288 76.2 289.536C74.96 289.701 73.8853 290.032 72.976 290.528C72.1493 290.941 71.488 291.437 70.992 292.016C70.496 292.595 70.248 293.256 70.248 294C70.248 294.909 70.62 295.695 71.364 296.356C72.1907 297.017 73.224 297.596 74.464 298.092C75.7867 298.505 77.316 298.877 79.052 299.208C80.8707 299.539 82.772 299.911 84.756 300.324C88.1453 300.985 91.6587 301.895 95.296 303.052C98.9333 304.209 102.281 305.863 105.34 308.012C108.481 310.161 111.044 312.889 113.028 316.196C115.012 319.503 116.004 323.595 116.004 328.472C116.004 332.853 115.136 336.863 113.4 340.5C111.664 344.137 109.184 347.279 105.96 349.924C102.819 352.487 98.9747 354.471 94.428 355.876C89.8813 357.281 84.7973 357.984 79.176 357.984C71.6533 357.984 64.7507 356.703 58.468 354.14C52.1853 351.495 46.564 347.32 41.604 341.616ZM143.834 356H120.522L154.994 269.2H173.718L208.19 356H184.506L180.29 344.592H148.174L143.834 356ZM154.87 326.488H173.346L164.666 303.424H163.55L154.87 326.488ZM217.07 356V269.2H241.87V303.796H242.366L265.306 278.004C267.124 275.937 268.819 274.284 270.39 273.044C271.96 271.721 273.572 270.729 275.226 270.068C276.879 269.324 278.615 268.869 280.434 268.704C282.335 268.539 284.484 268.539 286.882 268.704L294.57 269.2V290.9H291.098C289.444 290.9 287.956 291.024 286.634 291.272C285.311 291.52 283.947 292.347 282.542 293.752L269.274 306.772L285.022 331.324C285.352 331.903 285.724 332.399 286.138 332.812C286.634 333.225 287.13 333.597 287.626 333.928C288.204 334.176 288.783 334.383 289.362 334.548C290.023 334.713 290.726 334.796 291.47 334.796H294.694V356L287.874 356.496C285.146 356.744 282.624 356.703 280.31 356.372C278.078 356.124 275.97 355.545 273.986 354.636C272.084 353.644 270.348 352.404 268.778 350.916C267.207 349.345 265.802 347.444 264.562 345.212L252.782 324.132H252.038L241.87 334.176V356H217.07ZM306.074 356V269.2H330.874V300.324H359.27V269.2H384.194V356H359.27V322.768H330.874V356H306.074ZM416.416 356H393.104L427.576 269.2H446.3L480.772 356H457.088L452.872 344.592H420.756L416.416 356ZM427.452 326.488H445.928L437.248 303.424H436.132L427.452 326.488ZM512.592 356H489.652V269.2H528.092C532.721 269.2 536.896 269.944 540.616 271.432C544.419 272.837 547.643 274.821 550.288 277.384C553.016 279.947 555.124 283.047 556.612 286.684C558.1 290.239 558.844 294.124 558.844 298.34C558.844 301.068 558.513 303.713 557.852 306.276C557.191 308.756 556.24 311.071 555 313.22C553.843 315.369 552.396 317.312 550.66 319.048C548.924 320.784 546.981 322.272 544.832 323.512L550.164 331.82C550.577 332.399 551.032 332.895 551.528 333.308C552.024 333.639 552.603 333.928 553.264 334.176C553.925 334.424 554.628 334.589 555.372 334.672C556.116 334.755 556.86 334.796 557.604 334.796H560.704V356L554.008 356.496C551.28 356.744 548.8 356.703 546.568 356.372C544.336 356.124 542.311 355.545 540.492 354.636C538.673 353.644 537.02 352.363 535.532 350.792C534.044 349.221 532.68 347.32 531.44 345.088L521.396 327.356H512.592V356ZM512.592 289.412V307.144H525.488C528.712 307.144 531.151 306.276 532.804 304.54C534.54 302.804 535.408 300.737 535.408 298.34C535.408 295.943 534.54 293.876 532.804 292.14C531.151 290.321 528.712 289.412 525.488 289.412H512.592ZM614.058 358.232C607.362 358.232 601.162 357.116 595.458 354.884C589.836 352.569 584.918 349.387 580.702 345.336C576.568 341.203 573.344 336.367 571.03 330.828C568.715 325.207 567.558 319.131 567.558 312.6C567.558 305.987 568.715 299.911 571.03 294.372C573.344 288.833 576.568 284.039 580.702 279.988C584.918 275.855 589.836 272.672 595.458 270.44C601.162 268.125 607.362 266.968 614.058 266.968C620.754 266.968 626.912 268.125 632.534 270.44C638.238 272.672 643.156 275.855 647.29 279.988C651.423 284.039 654.647 288.833 656.962 294.372C659.276 299.911 660.434 305.987 660.434 312.6C660.434 319.131 659.276 325.207 656.962 330.828C654.647 336.367 651.423 341.203 647.29 345.336C643.156 349.387 638.238 352.569 632.534 354.884C626.912 357.116 620.754 358.232 614.058 358.232ZM614.058 335.54C617.199 335.54 620.092 335.003 622.738 333.928C625.383 332.771 627.615 331.159 629.434 329.092C631.335 327.025 632.782 324.587 633.774 321.776C634.848 318.965 635.386 315.865 635.386 312.476C635.386 309.087 634.848 305.987 633.774 303.176C632.782 300.365 631.335 297.968 629.434 295.984C627.615 294 625.383 292.471 622.738 291.396C620.175 290.239 617.323 289.66 614.182 289.66C611.04 289.66 608.147 290.239 605.502 291.396C602.856 292.471 600.583 294.041 598.682 296.108C596.78 298.092 595.292 300.489 594.218 303.3C593.143 306.111 592.606 309.211 592.606 312.6C592.606 315.989 593.102 319.089 594.094 321.9C595.168 324.711 596.656 327.149 598.558 329.216C600.459 331.2 602.732 332.771 605.378 333.928C608.023 335.003 610.916 335.54 614.058 335.54ZM723.69 269.2H749.358L715.01 356H696.286L661.69 269.2H687.358L704.966 317.064H706.082L723.69 269.2ZM773.862 328.472V323.636C773.862 321.404 774.11 319.337 774.606 317.436C775.102 315.535 775.887 313.757 776.962 312.104C778.036 310.368 779.442 308.756 781.178 307.268C782.996 305.697 785.146 304.127 787.626 302.556C789.775 301.233 791.676 299.952 793.33 298.712C794.983 297.389 795.81 295.736 795.81 293.752C795.81 291.685 794.859 290.073 792.958 288.916C791.056 287.676 788.576 287.056 785.518 287.056C781.715 287.056 778.491 288.048 775.846 290.032C773.283 291.933 771.506 294.661 770.514 298.216L751.542 290.652C754.187 283.129 758.486 277.343 764.438 273.292C770.39 269.241 777.664 267.216 786.262 267.216C791.387 267.216 795.892 267.919 799.778 269.324C803.746 270.647 807.094 272.507 809.822 274.904C812.55 277.219 814.616 279.947 816.022 283.088C817.427 286.147 818.13 289.453 818.13 293.008C818.13 297.141 817.096 300.737 815.03 303.796C813.046 306.855 809.739 309.789 805.11 312.6C803.291 313.757 801.762 314.832 800.522 315.824C799.282 316.733 798.29 317.684 797.546 318.676C796.802 319.668 796.264 320.701 795.934 321.776C795.603 322.768 795.438 323.925 795.438 325.248V328.472H773.862ZM796.926 355.876H772.25V333.68H796.926V355.876Z" fill="#5C88DA"/>
</svg>
