<svg width="1682" height="560" viewBox="0 0 1682 560" fill="none" xmlns="http://www.w3.org/2000/svg">
<rect width="1682" height="560" fill="#101820"/>
<path d="M119.736 362V112.25L118.236 111.875L65.3608 137.375L61.9858 128L121.236 99.5H130.236V362H119.736ZM280.807 95.75C293.557 95.75 305.182 97.875 315.682 102.125C326.432 106.375 335.682 112.25 343.432 119.75C351.182 127 357.182 135.75 361.432 146C365.932 156.25 368.182 167.375 368.182 179.375C368.182 186.875 367.307 194.125 365.557 201.125C364.057 207.875 361.807 214.625 358.807 221.375C356.057 228.125 352.682 234.75 348.682 241.25C344.682 247.5 340.307 253.875 335.557 260.375L260.557 363.125H247.807L332.932 247.25L332.557 246.875C324.807 252.875 316.307 257.375 307.057 260.375C298.057 263.125 288.807 264.5 279.307 264.5C266.807 264.5 255.307 262.375 244.807 258.125C234.307 253.875 225.182 248.125 217.432 240.875C209.932 233.375 203.932 224.5 199.432 214.25C195.182 204 193.057 192.875 193.057 180.875C193.057 168.625 195.182 157.375 199.432 147.125C203.932 136.875 210.057 128 217.807 120.5C225.557 112.75 234.807 106.75 245.557 102.5C256.307 98 268.057 95.75 280.807 95.75ZM280.807 106.25C269.307 106.25 258.807 108.25 249.307 112.25C239.807 116 231.682 121.25 224.932 128C218.182 134.5 212.932 142.375 209.182 151.625C205.682 160.625 203.932 170.375 203.932 180.875C203.932 191.625 205.807 201.5 209.557 210.5C213.307 219.5 218.557 227.375 225.307 234.125C232.057 240.625 240.057 245.75 249.307 249.5C258.807 253 269.057 254.75 280.057 254.75C292.057 254.75 303.432 252.625 314.182 248.375C324.932 243.875 334.557 237.5 343.057 229.25C348.307 221.25 352.057 213.25 354.307 205.25C356.557 197 357.682 188.75 357.682 180.5C357.682 169.5 355.807 159.5 352.057 150.5C348.307 141.25 342.932 133.375 335.932 126.875C329.182 120.375 321.057 115.375 311.557 111.875C302.307 108.125 292.057 106.25 280.807 106.25ZM412.787 362V353.375L515.162 252.125C523.912 243.375 531.412 235.5 537.662 228.5C543.912 221.5 549.037 214.875 553.037 208.625C557.037 202.125 559.912 195.875 561.662 189.875C563.662 183.875 564.662 177.375 564.662 170.375C564.662 160.875 563.037 152.375 559.787 144.875C556.537 137.125 551.912 130.5 545.912 125C540.162 119.25 533.037 114.875 524.537 111.875C516.287 108.875 507.037 107.375 496.787 107.375C480.287 107.375 465.787 111.5 453.287 119.75C440.787 128 430.037 140.625 421.037 157.625L411.287 152.75C420.537 134.5 432.412 120.625 446.912 111.125C461.412 101.625 478.162 96.875 497.162 96.875C508.912 96.875 519.537 98.625 529.037 102.125C538.537 105.625 546.662 110.625 553.412 117.125C560.412 123.375 565.787 131 569.537 140C573.537 149 575.537 158.875 575.537 169.625C575.537 176.625 574.537 183.375 572.537 189.875C570.787 196.375 567.787 203.125 563.537 210.125C559.537 217.125 554.037 224.625 547.037 232.625C540.287 240.375 531.912 249.125 521.912 258.875L428.162 351.875H581.162V362H412.787ZM682.347 362V112.25L680.847 111.875L627.972 137.375L624.597 128L683.847 99.5H692.847V362H682.347ZM759.043 261.125V251H855.418V261.125H759.043ZM954.638 362V112.25L953.138 111.875L900.263 137.375L896.888 128L956.138 99.5H965.138V362H954.638ZM1115.71 95.75C1128.46 95.75 1140.08 97.875 1150.58 102.125C1161.33 106.375 1170.58 112.25 1178.33 119.75C1186.08 127 1192.08 135.75 1196.33 146C1200.83 156.25 1203.08 167.375 1203.08 179.375C1203.08 186.875 1202.21 194.125 1200.46 201.125C1198.96 207.875 1196.71 214.625 1193.71 221.375C1190.96 228.125 1187.58 234.75 1183.58 241.25C1179.58 247.5 1175.21 253.875 1170.46 260.375L1095.46 363.125H1082.71L1167.83 247.25L1167.46 246.875C1159.71 252.875 1151.21 257.375 1141.96 260.375C1132.96 263.125 1123.71 264.5 1114.21 264.5C1101.71 264.5 1090.21 262.375 1079.71 258.125C1069.21 253.875 1060.08 248.125 1052.33 240.875C1044.83 233.375 1038.83 224.5 1034.33 214.25C1030.08 204 1027.96 192.875 1027.96 180.875C1027.96 168.625 1030.08 157.375 1034.33 147.125C1038.83 136.875 1044.96 128 1052.71 120.5C1060.46 112.75 1069.71 106.75 1080.46 102.5C1091.21 98 1102.96 95.75 1115.71 95.75ZM1115.71 106.25C1104.21 106.25 1093.71 108.25 1084.21 112.25C1074.71 116 1066.58 121.25 1059.83 128C1053.08 134.5 1047.83 142.375 1044.08 151.625C1040.58 160.625 1038.83 170.375 1038.83 180.875C1038.83 191.625 1040.71 201.5 1044.46 210.5C1048.21 219.5 1053.46 227.375 1060.21 234.125C1066.96 240.625 1074.96 245.75 1084.21 249.5C1093.71 253 1103.96 254.75 1114.96 254.75C1126.96 254.75 1138.33 252.625 1149.08 248.375C1159.83 243.875 1169.46 237.5 1177.96 229.25C1183.21 221.25 1186.96 213.25 1189.21 205.25C1191.46 197 1192.58 188.75 1192.58 180.5C1192.58 169.5 1190.71 159.5 1186.96 150.5C1183.21 141.25 1177.83 133.375 1170.83 126.875C1164.08 120.375 1155.96 115.375 1146.46 111.875C1137.21 108.125 1126.96 106.25 1115.71 106.25ZM1332.81 366.875C1320.31 366.875 1308.69 365.125 1297.94 361.625C1287.44 357.875 1278.19 352.875 1270.19 346.625C1262.44 340.125 1256.31 332.625 1251.81 324.125C1247.56 315.375 1245.44 306 1245.44 296C1245.44 278.75 1251.44 264 1263.44 251.75C1275.69 239.25 1293.06 230.875 1315.56 226.625C1295.31 221.625 1279.94 213.375 1269.44 201.875C1259.19 190.375 1254.06 176.5 1254.06 160.25C1254.06 150.5 1255.94 141.625 1259.69 133.625C1263.69 125.625 1269.19 118.75 1276.19 113C1283.19 107.25 1291.44 102.75 1300.94 99.5C1310.69 96.25 1321.31 94.625 1332.81 94.625C1344.31 94.625 1354.81 96.25 1364.31 99.5C1373.81 102.75 1381.94 107.25 1388.69 113C1395.44 118.75 1400.56 125.625 1404.06 133.625C1407.81 141.375 1409.69 150.125 1409.69 159.875C1409.69 176.125 1404.44 190.125 1393.94 201.875C1383.44 213.375 1368.06 221.625 1347.81 226.625C1370.31 230.875 1387.69 239.25 1399.94 251.75C1412.19 264.25 1418.31 279.125 1418.31 296.375C1418.31 306.375 1416.19 315.75 1411.94 324.5C1407.94 333 1402.06 340.375 1394.31 346.625C1386.81 352.875 1377.81 357.875 1367.31 361.625C1357.06 365.125 1345.56 366.875 1332.81 366.875ZM1331.69 221.75C1353.44 218.75 1370.06 211.875 1381.56 201.125C1393.31 190.125 1399.19 176.75 1399.19 161C1399.19 152.5 1397.44 144.875 1393.94 138.125C1390.69 131.125 1386.06 125.125 1380.06 120.125C1374.31 115.125 1367.31 111.375 1359.06 108.875C1350.81 106.125 1341.69 104.75 1331.69 104.75C1321.94 104.75 1312.94 106.125 1304.69 108.875C1296.44 111.375 1289.31 115.125 1283.31 120.125C1277.56 125.125 1272.94 131.125 1269.44 138.125C1266.19 144.875 1264.56 152.5 1264.56 161C1264.56 176.75 1270.31 190.125 1281.81 201.125C1293.31 211.875 1309.94 218.75 1331.69 221.75ZM1331.69 232.25C1306.94 235.25 1288.19 242.375 1275.44 253.625C1262.69 264.875 1256.31 278.875 1256.31 295.625C1256.31 304.625 1258.06 312.875 1261.56 320.375C1265.31 327.625 1270.56 334 1277.31 339.5C1284.06 344.75 1292.06 348.875 1301.31 351.875C1310.81 354.875 1321.06 356.375 1332.06 356.375C1343.06 356.375 1353.19 354.875 1362.44 351.875C1371.69 348.875 1379.69 344.75 1386.44 339.5C1393.19 334 1398.31 327.5 1401.81 320C1405.56 312.5 1407.44 304.25 1407.44 295.25C1407.44 278.75 1401.06 264.875 1388.31 253.625C1375.56 242.375 1356.69 235.25 1331.69 232.25ZM1548.03 95.75C1560.78 95.75 1572.41 97.875 1582.91 102.125C1593.66 106.375 1602.91 112.25 1610.66 119.75C1618.41 127 1624.41 135.75 1628.66 146C1633.16 156.25 1635.41 167.375 1635.41 179.375C1635.41 186.875 1634.53 194.125 1632.78 201.125C1631.28 207.875 1629.03 214.625 1626.03 221.375C1623.28 228.125 1619.91 234.75 1615.91 241.25C1611.91 247.5 1607.53 253.875 1602.78 260.375L1527.78 363.125H1515.03L1600.16 247.25L1599.78 246.875C1592.03 252.875 1583.53 257.375 1574.28 260.375C1565.28 263.125 1556.03 264.5 1546.53 264.5C1534.03 264.5 1522.53 262.375 1512.03 258.125C1501.53 253.875 1492.41 248.125 1484.66 240.875C1477.16 233.375 1471.16 224.5 1466.66 214.25C1462.41 204 1460.28 192.875 1460.28 180.875C1460.28 168.625 1462.41 157.375 1466.66 147.125C1471.16 136.875 1477.28 128 1485.03 120.5C1492.78 112.75 1502.03 106.75 1512.78 102.5C1523.53 98 1535.28 95.75 1548.03 95.75ZM1548.03 106.25C1536.53 106.25 1526.03 108.25 1516.53 112.25C1507.03 116 1498.91 121.25 1492.16 128C1485.41 134.5 1480.16 142.375 1476.41 151.625C1472.91 160.625 1471.16 170.375 1471.16 180.875C1471.16 191.625 1473.03 201.5 1476.78 210.5C1480.53 219.5 1485.78 227.375 1492.53 234.125C1499.28 240.625 1507.28 245.75 1516.53 249.5C1526.03 253 1536.28 254.75 1547.28 254.75C1559.28 254.75 1570.66 252.625 1581.41 248.375C1592.16 243.875 1601.78 237.5 1610.28 229.25C1615.53 221.25 1619.28 213.25 1621.53 205.25C1623.78 197 1624.91 188.75 1624.91 180.5C1624.91 169.5 1623.03 159.5 1619.28 150.5C1615.53 141.25 1610.16 133.375 1603.16 126.875C1596.41 120.375 1588.28 115.375 1578.78 111.875C1569.53 108.125 1559.28 106.25 1548.03 106.25Z" fill="#6593E9"/>
<path d="M55.98 424L62.775 392.5H64.35L74.025 418.06H74.16L83.79 392.5H85.365L92.16 424H90.09L84.375 396.775H84.15L74.79 421.435H73.395L63.99 396.775H63.765L58.05 424H55.98ZM96.6421 418.915L98.3071 417.565C99.4771 419.245 100.872 420.505 102.492 421.345C104.112 422.155 105.912 422.56 107.892 422.56C109.212 422.56 110.397 422.395 111.447 422.065C112.497 421.705 113.397 421.225 114.147 420.625C114.897 420.025 115.467 419.305 115.857 418.465C116.277 417.625 116.487 416.695 116.487 415.675C116.487 414.445 116.217 413.44 115.677 412.66C115.167 411.88 114.477 411.235 113.607 410.725C112.767 410.215 111.807 409.81 110.727 409.51C109.677 409.21 108.642 408.94 107.622 408.7C106.482 408.46 105.327 408.16 104.157 407.8C102.987 407.44 101.922 406.96 100.962 406.36C100.002 405.76 99.2071 404.995 98.5771 404.065C97.9771 403.135 97.6771 401.935 97.6771 400.465C97.6771 399.235 97.9171 398.095 98.3971 397.045C98.9071 395.965 99.5971 395.05 100.467 394.3C101.367 393.55 102.447 392.965 103.707 392.545C104.967 392.125 106.377 391.915 107.937 391.915C110.007 391.915 111.912 392.32 113.652 393.13C115.392 393.94 116.862 395.155 118.062 396.775L116.397 398.125C115.377 396.745 114.162 395.71 112.752 395.02C111.342 394.3 109.737 393.94 107.937 393.94C106.707 393.94 105.597 394.105 104.607 394.435C103.617 394.735 102.762 395.17 102.042 395.74C101.352 396.31 100.797 397 100.377 397.81C99.9871 398.59 99.7921 399.445 99.7921 400.375C99.7921 401.485 100.047 402.4 100.557 403.12C101.097 403.84 101.772 404.44 102.582 404.92C103.392 405.37 104.307 405.745 105.327 406.045C106.347 406.315 107.352 406.555 108.342 406.765C109.512 407.035 110.697 407.365 111.897 407.755C113.127 408.115 114.237 408.625 115.227 409.285C116.247 409.945 117.072 410.785 117.702 411.805C118.332 412.795 118.647 414.07 118.647 415.63C118.647 416.95 118.392 418.165 117.882 419.275C117.372 420.385 116.637 421.33 115.677 422.11C114.747 422.89 113.622 423.505 112.302 423.955C111.012 424.375 109.572 424.585 107.982 424.585C105.672 424.585 103.527 424.12 101.547 423.19C99.5971 422.26 97.9621 420.835 96.6421 418.915ZM136.761 424.585C134.991 424.585 133.401 424.285 131.991 423.685C130.611 423.085 129.426 422.26 128.436 421.21C127.476 420.16 126.741 418.915 126.231 417.475C125.721 416.005 125.466 414.415 125.466 412.705V392.5H127.626V412.615C127.626 414.085 127.836 415.435 128.256 416.665C128.676 417.865 129.276 418.9 130.056 419.77C130.836 420.64 131.796 421.33 132.936 421.84C134.076 422.32 135.351 422.56 136.761 422.56C138.201 422.56 139.476 422.32 140.586 421.84C141.726 421.33 142.686 420.64 143.466 419.77C144.276 418.9 144.891 417.865 145.311 416.665C145.731 415.435 145.941 414.085 145.941 412.615V392.5H148.056V412.705C148.056 414.415 147.801 416.005 147.291 417.475C146.781 418.915 146.031 420.16 145.041 421.21C144.081 422.26 142.911 423.085 141.531 423.685C140.151 424.285 138.561 424.585 136.761 424.585ZM58.59 464V432.5H76.68V434.48H60.705V447.53H74.61V449.465H60.705V464H58.59ZM85.5285 464.495C84.3585 464.495 83.3085 464.33 82.3785 464C81.4485 463.7 80.6385 463.265 79.9485 462.695C79.2885 462.095 78.7785 461.39 78.4185 460.58C78.0585 459.77 77.8785 458.87 77.8785 457.88C77.8785 456.8 78.0885 455.825 78.5085 454.955C78.9585 454.055 79.5735 453.305 80.3535 452.705C81.1635 452.075 82.1235 451.595 83.2335 451.265C84.3735 450.935 85.6185 450.77 86.9685 450.77C88.1685 450.77 89.3235 450.89 90.4335 451.13C91.5735 451.37 92.6685 451.715 93.7185 452.165L93.8085 452.12V449.06C93.8085 447.17 93.2235 445.67 92.0535 444.56C90.9135 443.45 89.2935 442.895 87.1935 442.895C85.7835 442.895 84.4935 443.165 83.3235 443.705C82.1535 444.245 81.1485 445.055 80.3085 446.135L78.9135 444.83C79.9935 443.54 81.2385 442.58 82.6485 441.95C84.0585 441.32 85.6185 441.005 87.3285 441.005C90.0285 441.005 92.0985 441.725 93.5385 443.165C95.0085 444.575 95.7435 446.495 95.7435 448.925V464H94.1685L93.8985 460.535H93.8535C92.8635 461.825 91.6485 462.815 90.2085 463.505C88.7985 464.165 87.2385 464.495 85.5285 464.495ZM85.8435 462.74C87.4335 462.74 88.8735 462.395 90.1635 461.705C91.4835 460.985 92.6985 459.92 93.8085 458.51V453.83C92.8185 453.44 91.7535 453.125 90.6135 452.885C89.5035 452.645 88.3635 452.525 87.1935 452.525C84.8835 452.525 83.0835 453.005 81.7935 453.965C80.5035 454.925 79.8585 456.215 79.8585 457.835C79.8585 459.335 80.3985 460.535 81.4785 461.435C82.5585 462.305 84.0135 462.74 85.8435 462.74ZM113.297 464.495C111.617 464.495 110.087 464.21 108.707 463.64C107.327 463.04 106.142 462.215 105.152 461.165C104.162 460.115 103.382 458.87 102.812 457.43C102.242 455.99 101.957 454.43 101.957 452.75C101.957 451.07 102.227 449.51 102.767 448.07C103.337 446.63 104.117 445.385 105.107 444.335C106.127 443.285 107.327 442.475 108.707 441.905C110.087 441.305 111.617 441.005 113.297 441.005C115.187 441.005 116.882 441.395 118.382 442.175C119.912 442.955 121.187 444.11 122.207 445.64L120.677 446.855C119.867 445.565 118.817 444.59 117.527 443.93C116.237 443.27 114.812 442.94 113.252 442.94C111.902 442.94 110.657 443.18 109.517 443.66C108.377 444.14 107.387 444.83 106.547 445.73C105.737 446.6 105.107 447.635 104.657 448.835C104.207 450.035 103.982 451.325 103.982 452.705C103.982 454.145 104.207 455.465 104.657 456.665C105.137 457.865 105.782 458.9 106.592 459.77C107.432 460.64 108.422 461.33 109.562 461.84C110.732 462.32 111.992 462.56 113.342 462.56C114.932 462.56 116.357 462.245 117.617 461.615C118.877 460.955 119.942 459.965 120.812 458.645L122.387 459.86C121.367 461.36 120.077 462.515 118.517 463.325C116.957 464.105 115.217 464.495 113.297 464.495ZM146.189 441.5V464H144.524L144.344 460.49H144.209C143.189 461.84 142.019 462.845 140.699 463.505C139.379 464.165 137.894 464.495 136.244 464.495C133.574 464.495 131.504 463.655 130.034 461.975C128.564 460.265 127.829 457.835 127.829 454.685V441.5H129.809V454.46C129.809 457.16 130.364 459.2 131.474 460.58C132.614 461.93 134.294 462.605 136.514 462.605C138.134 462.605 139.574 462.23 140.834 461.48C142.094 460.7 143.234 459.515 144.254 457.925V441.5H146.189ZM154.468 464V430.25H156.448V464H154.468ZM165.473 439.61V435.245H167.363V441.5H175.148V443.39H167.363V457.385C167.363 459.065 167.738 460.325 168.488 461.165C169.238 462.005 170.288 462.425 171.638 462.425C172.418 462.425 173.123 462.29 173.753 462.02C174.413 461.75 175.043 461.3 175.643 460.67L176.588 462.02C175.898 462.83 175.103 463.415 174.203 463.775C173.303 464.135 172.358 464.315 171.368 464.315C169.508 464.315 168.038 463.745 166.958 462.605C165.908 461.465 165.383 459.815 165.383 457.655V443.39H161.423V441.5H163.493C164.243 441.5 164.753 441.365 165.023 441.095C165.323 440.825 165.473 440.33 165.473 439.61ZM182.633 475.25L186.953 464L177.683 441.5H179.888L187.853 461.255H187.988L195.323 441.5H197.483L184.703 475.25H182.633ZM67.815 504.495C66.165 504.495 64.65 504.21 63.27 503.64C61.89 503.04 60.69 502.23 59.67 501.21C58.65 500.16 57.855 498.915 57.285 497.475C56.715 496.035 56.43 494.46 56.43 492.75C56.43 491.07 56.715 489.51 57.285 488.07C57.855 486.6 58.65 485.355 59.67 484.335C60.69 483.285 61.89 482.475 63.27 481.905C64.65 481.305 66.165 481.005 67.815 481.005C69.495 481.005 71.025 481.305 72.405 481.905C73.785 482.475 74.985 483.285 76.005 484.335C77.025 485.355 77.805 486.585 78.345 488.025C78.915 489.465 79.2 491.04 79.2 492.75C79.2 494.43 78.915 496.005 78.345 497.475C77.805 498.915 77.025 500.16 76.005 501.21C74.985 502.23 73.785 503.04 72.405 503.64C71.025 504.21 69.495 504.495 67.815 504.495ZM67.815 502.56C69.195 502.56 70.455 502.32 71.595 501.84C72.735 501.36 73.71 500.685 74.52 499.815C75.36 498.945 76.02 497.91 76.5 496.71C76.98 495.51 77.22 494.19 77.22 492.75C77.22 491.31 76.98 489.99 76.5 488.79C76.02 487.59 75.36 486.555 74.52 485.685C73.71 484.815 72.72 484.14 71.55 483.66C70.41 483.18 69.165 482.94 67.815 482.94C66.495 482.94 65.25 483.18 64.08 483.66C62.94 484.14 61.95 484.815 61.11 485.685C60.3 486.555 59.655 487.59 59.175 488.79C58.695 489.99 58.455 491.31 58.455 492.75C58.455 494.19 58.695 495.51 59.175 496.71C59.655 497.91 60.3 498.945 61.11 499.815C61.95 500.685 62.94 501.36 64.08 501.84C65.25 502.32 66.495 502.56 67.815 502.56ZM86.7255 476.865C86.7255 474.675 87.3405 472.965 88.5705 471.735C89.8005 470.505 91.4355 469.89 93.4755 469.89C94.5855 469.89 95.5605 470.055 96.4005 470.385C97.2405 470.685 97.9755 471.09 98.6055 471.6L97.5255 473.13C96.9255 472.65 96.2655 472.305 95.5455 472.095C94.8555 471.885 94.1205 471.78 93.3405 471.78C91.9305 471.78 90.8055 472.2 89.9655 473.04C89.1555 473.88 88.7505 475.14 88.7505 476.82V481.5H96.9855V483.39H88.7505V504H86.7255V483.39H82.4055V481.5H86.7255V476.865ZM118.669 504H116.554V472.5H126.859C128.449 472.5 129.874 472.74 131.134 473.22C132.394 473.67 133.459 474.315 134.329 475.155C135.229 475.995 135.904 477 136.354 478.17C136.834 479.31 137.074 480.585 137.074 481.995C137.074 483.375 136.834 484.635 136.354 485.775C135.904 486.915 135.244 487.905 134.374 488.745C133.504 489.585 132.424 490.245 131.134 490.725C129.874 491.175 128.449 491.4 126.859 491.4H118.669V504ZM118.669 474.48V489.42H126.814C128.074 489.42 129.199 489.24 130.189 488.88C131.209 488.52 132.064 488.025 132.754 487.395C133.444 486.735 133.984 485.94 134.374 485.01C134.764 484.08 134.959 483.06 134.959 481.95C134.959 480.84 134.764 479.835 134.374 478.935C133.984 478.005 133.444 477.21 132.754 476.55C132.064 475.89 131.209 475.38 130.189 475.02C129.199 474.66 128.074 474.48 126.814 474.48H118.669ZM143.042 504V470.25H144.977V484.875H145.112C146.132 483.585 147.287 482.625 148.577 481.995C149.897 481.335 151.367 481.005 152.987 481.005C155.687 481.005 157.757 481.86 159.197 483.57C160.637 485.25 161.357 487.665 161.357 490.815V504H159.422V491.04C159.422 488.34 158.852 486.315 157.712 484.965C156.572 483.585 154.892 482.895 152.672 482.895C151.052 482.895 149.612 483.27 148.352 484.02C147.092 484.77 145.967 485.94 144.977 487.53V504H143.042ZM170.9 515.25L175.22 504L165.95 481.5H168.155L176.12 501.255H176.255L183.59 481.5H185.75L172.97 515.25H170.9ZM197.346 504.495C195.426 504.495 193.701 504.135 192.171 503.415C190.641 502.665 189.381 501.57 188.391 500.13L189.921 498.915C190.791 500.175 191.841 501.12 193.071 501.75C194.301 502.35 195.726 502.65 197.346 502.65C199.296 502.65 200.826 502.23 201.936 501.39C203.076 500.52 203.646 499.41 203.646 498.06C203.646 497.28 203.451 496.635 203.061 496.125C202.701 495.615 202.206 495.18 201.576 494.82C200.976 494.46 200.271 494.175 199.461 493.965C198.681 493.725 197.871 493.515 197.031 493.335C196.101 493.155 195.171 492.93 194.241 492.66C193.341 492.39 192.516 492.045 191.766 491.625C191.016 491.175 190.401 490.605 189.921 489.915C189.471 489.225 189.246 488.37 189.246 487.35C189.246 486.42 189.441 485.565 189.831 484.785C190.251 484.005 190.821 483.345 191.541 482.805C192.261 482.235 193.116 481.8 194.106 481.5C195.126 481.17 196.236 481.005 197.436 481.005C199.176 481.005 200.721 481.35 202.071 482.04C203.421 482.7 204.516 483.66 205.356 484.92L203.826 486.135C203.106 485.055 202.206 484.245 201.126 483.705C200.046 483.135 198.801 482.85 197.391 482.85C196.461 482.85 195.606 482.97 194.826 483.21C194.076 483.45 193.431 483.765 192.891 484.155C192.381 484.545 191.976 485.01 191.676 485.55C191.406 486.09 191.271 486.66 191.271 487.26C191.271 487.92 191.451 488.49 191.811 488.97C192.171 489.45 192.651 489.855 193.251 490.185C193.851 490.485 194.526 490.755 195.276 490.995C196.056 491.205 196.851 491.385 197.661 491.535C198.621 491.745 199.566 492 200.496 492.3C201.456 492.57 202.311 492.945 203.061 493.425C203.811 493.875 204.426 494.475 204.906 495.225C205.386 495.945 205.626 496.86 205.626 497.97C205.626 498.96 205.416 499.86 204.996 500.67C204.606 501.48 204.051 502.17 203.331 502.74C202.641 503.31 201.771 503.745 200.721 504.045C199.701 504.345 198.576 504.495 197.346 504.495ZM211.861 504V481.5H213.841V504H211.861ZM211.861 476.955V473.535H213.841V476.955H211.861ZM231.686 504.495C230.006 504.495 228.476 504.21 227.096 503.64C225.716 503.04 224.531 502.215 223.541 501.165C222.551 500.115 221.771 498.87 221.201 497.43C220.631 495.99 220.346 494.43 220.346 492.75C220.346 491.07 220.616 489.51 221.156 488.07C221.726 486.63 222.506 485.385 223.496 484.335C224.516 483.285 225.716 482.475 227.096 481.905C228.476 481.305 230.006 481.005 231.686 481.005C233.576 481.005 235.271 481.395 236.771 482.175C238.301 482.955 239.576 484.11 240.596 485.64L239.066 486.855C238.256 485.565 237.206 484.59 235.916 483.93C234.626 483.27 233.201 482.94 231.641 482.94C230.291 482.94 229.046 483.18 227.906 483.66C226.766 484.14 225.776 484.83 224.936 485.73C224.126 486.6 223.496 487.635 223.046 488.835C222.596 490.035 222.371 491.325 222.371 492.705C222.371 494.145 222.596 495.465 223.046 496.665C223.526 497.865 224.171 498.9 224.981 499.77C225.821 500.64 226.811 501.33 227.951 501.84C229.121 502.32 230.381 502.56 231.731 502.56C233.321 502.56 234.746 502.245 236.006 501.615C237.266 500.955 238.331 499.965 239.201 498.645L240.776 499.86C239.756 501.36 238.466 502.515 236.906 503.325C235.346 504.105 233.606 504.495 231.686 504.495ZM253.553 504.495C251.633 504.495 249.908 504.135 248.377 503.415C246.847 502.665 245.588 501.57 244.598 500.13L246.128 498.915C246.998 500.175 248.048 501.12 249.278 501.75C250.508 502.35 251.933 502.65 253.553 502.65C255.503 502.65 257.033 502.23 258.143 501.39C259.283 500.52 259.853 499.41 259.853 498.06C259.853 497.28 259.658 496.635 259.268 496.125C258.908 495.615 258.413 495.18 257.783 494.82C257.183 494.46 256.478 494.175 255.667 493.965C254.888 493.725 254.078 493.515 253.238 493.335C252.308 493.155 251.378 492.93 250.448 492.66C249.548 492.39 248.723 492.045 247.973 491.625C247.223 491.175 246.608 490.605 246.128 489.915C245.678 489.225 245.453 488.37 245.453 487.35C245.453 486.42 245.648 485.565 246.038 484.785C246.458 484.005 247.028 483.345 247.748 482.805C248.468 482.235 249.323 481.8 250.313 481.5C251.333 481.17 252.443 481.005 253.643 481.005C255.383 481.005 256.928 481.35 258.278 482.04C259.628 482.7 260.723 483.66 261.563 484.92L260.033 486.135C259.313 485.055 258.413 484.245 257.333 483.705C256.253 483.135 255.008 482.85 253.598 482.85C252.668 482.85 251.813 482.97 251.033 483.21C250.283 483.45 249.638 483.765 249.098 484.155C248.588 484.545 248.183 485.01 247.883 485.55C247.613 486.09 247.478 486.66 247.478 487.26C247.478 487.92 247.658 488.49 248.018 488.97C248.378 489.45 248.858 489.855 249.458 490.185C250.058 490.485 250.733 490.755 251.483 490.995C252.263 491.205 253.058 491.385 253.868 491.535C254.828 491.745 255.773 492 256.703 492.3C257.663 492.57 258.518 492.945 259.268 493.425C260.018 493.875 260.633 494.475 261.113 495.225C261.593 495.945 261.833 496.86 261.833 497.97C261.833 498.96 261.623 499.86 261.203 500.67C260.813 501.48 260.258 502.17 259.538 502.74C258.848 503.31 257.978 503.745 256.928 504.045C255.908 504.345 254.783 504.495 253.553 504.495Z" fill="#6593E9"/>
<path d="M740.59 424V392.5H742.12L761.92 419.725H762.055V392.5H764.125V424H762.64L742.795 396.775H742.66V424H740.59ZM782.51 424.495C780.86 424.495 779.345 424.21 777.965 423.64C776.585 423.04 775.385 422.23 774.365 421.21C773.345 420.16 772.55 418.915 771.98 417.475C771.41 416.035 771.125 414.46 771.125 412.75C771.125 411.07 771.41 409.51 771.98 408.07C772.55 406.6 773.345 405.355 774.365 404.335C775.385 403.285 776.585 402.475 777.965 401.905C779.345 401.305 780.86 401.005 782.51 401.005C784.19 401.005 785.72 401.305 787.1 401.905C788.48 402.475 789.68 403.285 790.7 404.335C791.72 405.355 792.5 406.585 793.04 408.025C793.61 409.465 793.895 411.04 793.895 412.75C793.895 414.43 793.61 416.005 793.04 417.475C792.5 418.915 791.72 420.16 790.7 421.21C789.68 422.23 788.48 423.04 787.1 423.64C785.72 424.21 784.19 424.495 782.51 424.495ZM782.51 422.56C783.89 422.56 785.15 422.32 786.29 421.84C787.43 421.36 788.405 420.685 789.215 419.815C790.055 418.945 790.715 417.91 791.195 416.71C791.675 415.51 791.915 414.19 791.915 412.75C791.915 411.31 791.675 409.99 791.195 408.79C790.715 407.59 790.055 406.555 789.215 405.685C788.405 404.815 787.415 404.14 786.245 403.66C785.105 403.18 783.86 402.94 782.51 402.94C781.19 402.94 779.945 403.18 778.775 403.66C777.635 404.14 776.645 404.815 775.805 405.685C774.995 406.555 774.35 407.59 773.87 408.79C773.39 409.99 773.15 411.31 773.15 412.75C773.15 414.19 773.39 415.51 773.87 416.71C774.35 417.91 774.995 418.945 775.805 419.815C776.645 420.685 777.635 421.36 778.775 421.84C779.945 422.32 781.19 422.56 782.51 422.56ZM810.421 424.495C808.921 424.495 807.481 424.255 806.101 423.775C804.751 423.265 803.551 422.485 802.501 421.435L802.366 421.48L802.141 424H800.521V390.25H802.456V405.325H802.591C803.581 403.915 804.796 402.85 806.236 402.13C807.676 401.38 809.266 401.005 811.006 401.005C812.536 401.005 813.946 401.29 815.236 401.86C816.526 402.43 817.636 403.24 818.566 404.29C819.526 405.31 820.261 406.54 820.771 407.98C821.311 409.39 821.581 410.935 821.581 412.615C821.581 414.355 821.311 415.96 820.771 417.43C820.231 418.87 819.466 420.115 818.476 421.165C817.486 422.215 816.301 423.04 814.921 423.64C813.571 424.21 812.071 424.495 810.421 424.495ZM810.196 422.56C811.636 422.56 812.926 422.32 814.066 421.84C815.206 421.33 816.181 420.64 816.991 419.77C817.831 418.9 818.461 417.865 818.881 416.665C819.331 415.465 819.556 414.13 819.556 412.66C819.556 411.22 819.346 409.9 818.926 408.7C818.506 407.5 817.906 406.48 817.126 405.64C816.346 404.8 815.401 404.14 814.291 403.66C813.211 403.18 812.011 402.94 810.691 402.94C808.981 402.94 807.421 403.345 806.011 404.155C804.601 404.965 803.416 406.165 802.456 407.755V419.14C803.476 420.31 804.646 421.18 805.966 421.75C807.316 422.29 808.726 422.56 810.196 422.56ZM826.452 412.795C826.452 411.145 826.722 409.615 827.262 408.205C827.802 406.765 828.552 405.535 829.512 404.515C830.502 403.465 831.672 402.64 833.022 402.04C834.372 401.44 835.872 401.14 837.522 401.14C839.082 401.14 840.507 401.41 841.797 401.95C843.117 402.49 844.227 403.255 845.127 404.245C846.027 405.205 846.732 406.36 847.242 407.71C847.752 409.06 848.007 410.53 848.007 412.12C848.007 412.3 847.992 412.495 847.962 412.705C847.962 412.915 847.947 413.125 847.917 413.335H828.522C828.582 414.625 828.837 415.825 829.287 416.935C829.737 418.045 830.352 419.02 831.132 419.86C831.942 420.67 832.902 421.315 834.012 421.795C835.122 422.245 836.367 422.47 837.747 422.47C839.217 422.47 840.567 422.2 841.797 421.66C843.027 421.09 844.107 420.28 845.037 419.23L846.342 420.625C845.322 421.855 844.062 422.785 842.562 423.415C841.092 424.045 839.472 424.36 837.702 424.36C836.052 424.36 834.522 424.075 833.112 423.505C831.732 422.905 830.547 422.095 829.557 421.075C828.597 420.025 827.832 418.795 827.262 417.385C826.722 415.975 826.452 414.445 826.452 412.795ZM828.567 411.49H845.937C845.877 410.23 845.637 409.09 845.217 408.07C844.797 407.02 844.212 406.135 843.462 405.415C842.742 404.665 841.872 404.08 840.852 403.66C839.862 403.24 838.737 403.03 837.477 403.03C836.217 403.03 835.062 403.255 834.012 403.705C832.962 404.155 832.062 404.755 831.312 405.505C830.562 406.255 829.947 407.14 829.467 408.16C828.987 409.18 828.687 410.29 828.567 411.49ZM854.354 424V390.25H856.334V424H854.354ZM750.04 464.495C748.54 464.495 747.13 464.255 745.81 463.775C744.49 463.265 743.29 462.485 742.21 461.435L742.075 461.48V475.25H740.14V441.5H741.76L741.985 445.325H742.12C743.11 443.915 744.31 442.85 745.72 442.13C747.16 441.38 748.75 441.005 750.49 441.005C752.05 441.005 753.475 441.29 754.765 441.86C756.055 442.43 757.165 443.24 758.095 444.29C759.025 445.31 759.745 446.54 760.255 447.98C760.795 449.39 761.065 450.95 761.065 452.66C761.065 454.37 760.795 455.96 760.255 457.43C759.715 458.87 758.95 460.115 757.96 461.165C757 462.215 755.845 463.04 754.495 463.64C753.145 464.21 751.66 464.495 750.04 464.495ZM749.77 462.56C751.18 462.56 752.455 462.32 753.595 461.84C754.735 461.33 755.71 460.64 756.52 459.77C757.33 458.9 757.945 457.865 758.365 456.665C758.815 455.465 759.04 454.13 759.04 452.66C759.04 451.22 758.83 449.9 758.41 448.7C757.99 447.5 757.39 446.48 756.61 445.64C755.83 444.8 754.9 444.14 753.82 443.66C752.74 443.18 751.555 442.94 750.265 442.94C748.555 442.94 746.995 443.345 745.585 444.155C744.205 444.965 743.035 446.165 742.075 447.755V459.14C743.095 460.31 744.265 461.18 745.585 461.75C746.905 462.29 748.3 462.56 749.77 462.56ZM766.072 452.795C766.072 451.145 766.342 449.615 766.882 448.205C767.422 446.765 768.172 445.535 769.132 444.515C770.122 443.465 771.292 442.64 772.642 442.04C773.992 441.44 775.492 441.14 777.142 441.14C778.702 441.14 780.127 441.41 781.417 441.95C782.737 442.49 783.847 443.255 784.747 444.245C785.647 445.205 786.352 446.36 786.862 447.71C787.372 449.06 787.627 450.53 787.627 452.12C787.627 452.3 787.612 452.495 787.582 452.705C787.582 452.915 787.567 453.125 787.537 453.335H768.142C768.202 454.625 768.457 455.825 768.907 456.935C769.357 458.045 769.972 459.02 770.752 459.86C771.562 460.67 772.522 461.315 773.632 461.795C774.742 462.245 775.987 462.47 777.367 462.47C778.837 462.47 780.187 462.2 781.417 461.66C782.647 461.09 783.727 460.28 784.657 459.23L785.962 460.625C784.942 461.855 783.682 462.785 782.182 463.415C780.712 464.045 779.092 464.36 777.322 464.36C775.672 464.36 774.142 464.075 772.732 463.505C771.352 462.905 770.167 462.095 769.177 461.075C768.217 460.025 767.452 458.795 766.882 457.385C766.342 455.975 766.072 454.445 766.072 452.795ZM768.187 451.49H785.557C785.497 450.23 785.257 449.09 784.837 448.07C784.417 447.02 783.832 446.135 783.082 445.415C782.362 444.665 781.492 444.08 780.472 443.66C779.482 443.24 778.357 443.03 777.097 443.03C775.837 443.03 774.682 443.255 773.632 443.705C772.582 444.155 771.682 444.755 770.932 445.505C770.182 446.255 769.567 447.14 769.087 448.16C768.607 449.18 768.307 450.29 768.187 451.49ZM800.048 464.495C798.878 464.495 797.828 464.33 796.898 464C795.968 463.7 795.158 463.265 794.468 462.695C793.808 462.095 793.298 461.39 792.938 460.58C792.578 459.77 792.398 458.87 792.398 457.88C792.398 456.8 792.608 455.825 793.028 454.955C793.478 454.055 794.093 453.305 794.873 452.705C795.683 452.075 796.643 451.595 797.753 451.265C798.893 450.935 800.138 450.77 801.488 450.77C802.688 450.77 803.843 450.89 804.953 451.13C806.093 451.37 807.188 451.715 808.238 452.165L808.328 452.12V449.06C808.328 447.17 807.743 445.67 806.573 444.56C805.433 443.45 803.813 442.895 801.713 442.895C800.303 442.895 799.013 443.165 797.843 443.705C796.673 444.245 795.668 445.055 794.828 446.135L793.433 444.83C794.513 443.54 795.758 442.58 797.168 441.95C798.578 441.32 800.138 441.005 801.848 441.005C804.548 441.005 806.618 441.725 808.058 443.165C809.528 444.575 810.263 446.495 810.263 448.925V464H808.688L808.418 460.535H808.373C807.383 461.825 806.168 462.815 804.728 463.505C803.318 464.165 801.758 464.495 800.048 464.495ZM800.363 462.74C801.953 462.74 803.393 462.395 804.683 461.705C806.003 460.985 807.218 459.92 808.328 458.51V453.83C807.338 453.44 806.273 453.125 805.133 452.885C804.023 452.645 802.883 452.525 801.713 452.525C799.403 452.525 797.603 453.005 796.313 453.965C795.023 454.925 794.378 456.215 794.378 457.835C794.378 459.335 794.918 460.535 795.998 461.435C797.078 462.305 798.533 462.74 800.363 462.74ZM827.817 464.495C826.137 464.495 824.607 464.21 823.227 463.64C821.847 463.04 820.662 462.215 819.672 461.165C818.682 460.115 817.902 458.87 817.332 457.43C816.762 455.99 816.477 454.43 816.477 452.75C816.477 451.07 816.747 449.51 817.287 448.07C817.857 446.63 818.637 445.385 819.627 444.335C820.647 443.285 821.847 442.475 823.227 441.905C824.607 441.305 826.137 441.005 827.817 441.005C829.707 441.005 831.402 441.395 832.902 442.175C834.432 442.955 835.707 444.11 836.727 445.64L835.197 446.855C834.387 445.565 833.337 444.59 832.047 443.93C830.757 443.27 829.332 442.94 827.772 442.94C826.422 442.94 825.177 443.18 824.037 443.66C822.897 444.14 821.907 444.83 821.067 445.73C820.257 446.6 819.627 447.635 819.177 448.835C818.727 450.035 818.502 451.325 818.502 452.705C818.502 454.145 818.727 455.465 819.177 456.665C819.657 457.865 820.302 458.9 821.112 459.77C821.952 460.64 822.942 461.33 824.082 461.84C825.252 462.32 826.512 462.56 827.862 462.56C829.452 462.56 830.877 462.245 832.137 461.615C833.397 460.955 834.462 459.965 835.332 458.645L836.907 459.86C835.887 461.36 834.597 462.515 833.037 463.325C831.477 464.105 829.737 464.495 827.817 464.495ZM840.559 452.795C840.559 451.145 840.829 449.615 841.369 448.205C841.909 446.765 842.659 445.535 843.619 444.515C844.609 443.465 845.779 442.64 847.129 442.04C848.479 441.44 849.979 441.14 851.629 441.14C853.189 441.14 854.614 441.41 855.904 441.95C857.224 442.49 858.334 443.255 859.234 444.245C860.134 445.205 860.839 446.36 861.349 447.71C861.859 449.06 862.114 450.53 862.114 452.12C862.114 452.3 862.099 452.495 862.069 452.705C862.069 452.915 862.054 453.125 862.024 453.335H842.629C842.689 454.625 842.944 455.825 843.394 456.935C843.844 458.045 844.459 459.02 845.239 459.86C846.049 460.67 847.009 461.315 848.119 461.795C849.229 462.245 850.474 462.47 851.854 462.47C853.324 462.47 854.674 462.2 855.904 461.66C857.134 461.09 858.214 460.28 859.144 459.23L860.449 460.625C859.429 461.855 858.169 462.785 856.669 463.415C855.199 464.045 853.579 464.36 851.809 464.36C850.159 464.36 848.629 464.075 847.219 463.505C845.839 462.905 844.654 462.095 843.664 461.075C842.704 460.025 841.939 458.795 841.369 457.385C840.829 455.975 840.559 454.445 840.559 452.795ZM842.674 451.49H860.044C859.984 450.23 859.744 449.09 859.324 448.07C858.904 447.02 858.319 446.135 857.569 445.415C856.849 444.665 855.979 444.08 854.959 443.66C853.969 443.24 852.844 443.03 851.584 443.03C850.324 443.03 849.169 443.255 848.119 443.705C847.069 444.155 846.169 444.755 845.419 445.505C844.669 446.255 844.054 447.14 843.574 448.16C843.094 449.18 842.794 450.29 842.674 451.49ZM750.04 504.495C748.54 504.495 747.13 504.255 745.81 503.775C744.49 503.265 743.29 502.485 742.21 501.435L742.075 501.48V515.25H740.14V481.5H741.76L741.985 485.325H742.12C743.11 483.915 744.31 482.85 745.72 482.13C747.16 481.38 748.75 481.005 750.49 481.005C752.05 481.005 753.475 481.29 754.765 481.86C756.055 482.43 757.165 483.24 758.095 484.29C759.025 485.31 759.745 486.54 760.255 487.98C760.795 489.39 761.065 490.95 761.065 492.66C761.065 494.37 760.795 495.96 760.255 497.43C759.715 498.87 758.95 500.115 757.96 501.165C757 502.215 755.845 503.04 754.495 503.64C753.145 504.21 751.66 504.495 750.04 504.495ZM749.77 502.56C751.18 502.56 752.455 502.32 753.595 501.84C754.735 501.33 755.71 500.64 756.52 499.77C757.33 498.9 757.945 497.865 758.365 496.665C758.815 495.465 759.04 494.13 759.04 492.66C759.04 491.22 758.83 489.9 758.41 488.7C757.99 487.5 757.39 486.48 756.61 485.64C755.83 484.8 754.9 484.14 753.82 483.66C752.74 483.18 751.555 482.94 750.265 482.94C748.555 482.94 746.995 483.345 745.585 484.155C744.205 484.965 743.035 486.165 742.075 487.755V499.14C743.095 500.31 744.265 501.18 745.585 501.75C746.905 502.29 748.3 502.56 749.77 502.56ZM767.782 504V481.5H769.402L769.627 485.01H769.762C770.572 483.69 771.562 482.7 772.732 482.04C773.902 481.35 775.252 481.005 776.782 481.005C777.052 481.005 777.307 481.02 777.547 481.05C777.817 481.08 778.072 481.125 778.312 481.185L778.447 483.21C778.207 483.15 777.937 483.105 777.637 483.075C777.337 483.045 777.007 483.03 776.647 483.03C775.087 483.03 773.752 483.39 772.642 484.11C771.532 484.8 770.572 485.895 769.762 487.395V504H767.782ZM784.525 504V481.5H786.505V504H784.525ZM784.525 476.955V473.535H786.505V476.955H784.525ZM792.875 483.345V481.5H809.885V483.345L795.35 502.155H809.885V504H792.875V502.155L807.41 483.345H792.875ZM813.752 492.795C813.752 491.145 814.022 489.615 814.562 488.205C815.102 486.765 815.852 485.535 816.812 484.515C817.802 483.465 818.972 482.64 820.322 482.04C821.672 481.44 823.172 481.14 824.822 481.14C826.382 481.14 827.807 481.41 829.097 481.95C830.417 482.49 831.527 483.255 832.427 484.245C833.327 485.205 834.032 486.36 834.542 487.71C835.052 489.06 835.307 490.53 835.307 492.12C835.307 492.3 835.292 492.495 835.262 492.705C835.262 492.915 835.247 493.125 835.217 493.335H815.822C815.882 494.625 816.137 495.825 816.587 496.935C817.037 498.045 817.652 499.02 818.432 499.86C819.242 500.67 820.202 501.315 821.312 501.795C822.422 502.245 823.667 502.47 825.047 502.47C826.517 502.47 827.867 502.2 829.097 501.66C830.327 501.09 831.407 500.28 832.337 499.23L833.642 500.625C832.622 501.855 831.362 502.785 829.862 503.415C828.392 504.045 826.772 504.36 825.002 504.36C823.352 504.36 821.822 504.075 820.412 503.505C819.032 502.905 817.847 502.095 816.857 501.075C815.897 500.025 815.132 498.795 814.562 497.385C814.022 495.975 813.752 494.445 813.752 492.795ZM815.867 491.49H833.237C833.177 490.23 832.937 489.09 832.517 488.07C832.097 487.02 831.512 486.135 830.762 485.415C830.042 484.665 829.172 484.08 828.152 483.66C827.162 483.24 826.037 483.03 824.777 483.03C823.517 483.03 822.362 483.255 821.312 483.705C820.262 484.155 819.362 484.755 818.612 485.505C817.862 486.255 817.247 487.14 816.767 488.16C816.287 489.18 815.987 490.29 815.867 491.49Z" fill="#6593E9"/>
<path d="M1362.77 424V392.5H1371.23C1373.51 392.5 1375.6 392.905 1377.49 393.715C1379.41 394.525 1381.04 395.635 1382.39 397.045C1383.74 398.455 1384.79 400.12 1385.54 402.04C1386.32 403.96 1386.71 406.03 1386.71 408.25C1386.71 410.47 1386.32 412.54 1385.54 414.46C1384.79 416.38 1383.74 418.045 1382.39 419.455C1381.04 420.865 1379.41 421.975 1377.49 422.785C1375.6 423.595 1373.51 424 1371.23 424H1362.77ZM1364.89 422.02H1371.23C1373.21 422.02 1375.01 421.66 1376.63 420.94C1378.25 420.22 1379.65 419.245 1380.82 418.015C1382.02 416.755 1382.93 415.285 1383.56 413.605C1384.22 411.925 1384.55 410.14 1384.55 408.25C1384.55 406.33 1384.22 404.545 1383.56 402.895C1382.93 401.215 1382.02 399.76 1380.82 398.53C1379.65 397.27 1378.25 396.28 1376.63 395.56C1375.01 394.84 1373.21 394.48 1371.23 394.48H1364.89V422.02ZM1393.65 424V401.5H1395.27L1395.49 405.01H1395.63C1396.44 403.69 1397.43 402.7 1398.6 402.04C1399.77 401.35 1401.12 401.005 1402.65 401.005C1402.92 401.005 1403.17 401.02 1403.41 401.05C1403.68 401.08 1403.94 401.125 1404.18 401.185L1404.31 403.21C1404.07 403.15 1403.8 403.105 1403.5 403.075C1403.2 403.045 1402.87 403.03 1402.51 403.03C1400.95 403.03 1399.62 403.39 1398.51 404.11C1397.4 404.8 1396.44 405.895 1395.63 407.395V424H1393.65ZM1414.14 424.495C1412.97 424.495 1411.92 424.33 1410.99 424C1410.06 423.7 1409.25 423.265 1408.56 422.695C1407.9 422.095 1407.39 421.39 1407.03 420.58C1406.67 419.77 1406.49 418.87 1406.49 417.88C1406.49 416.8 1406.7 415.825 1407.12 414.955C1407.57 414.055 1408.18 413.305 1408.96 412.705C1409.77 412.075 1410.73 411.595 1411.84 411.265C1412.98 410.935 1414.23 410.77 1415.58 410.77C1416.78 410.77 1417.93 410.89 1419.04 411.13C1420.18 411.37 1421.28 411.715 1422.33 412.165L1422.42 412.12V409.06C1422.42 407.17 1421.83 405.67 1420.66 404.56C1419.52 403.45 1417.9 402.895 1415.8 402.895C1414.39 402.895 1413.1 403.165 1411.93 403.705C1410.76 404.245 1409.76 405.055 1408.92 406.135L1407.52 404.83C1408.6 403.54 1409.85 402.58 1411.26 401.95C1412.67 401.32 1414.23 401.005 1415.94 401.005C1418.64 401.005 1420.71 401.725 1422.15 403.165C1423.62 404.575 1424.35 406.495 1424.35 408.925V424H1422.78L1422.51 420.535H1422.46C1421.47 421.825 1420.26 422.815 1418.82 423.505C1417.41 424.165 1415.85 424.495 1414.14 424.495ZM1414.45 422.74C1416.04 422.74 1417.48 422.395 1418.77 421.705C1420.09 420.985 1421.31 419.92 1422.42 418.51V413.83C1421.43 413.44 1420.36 413.125 1419.22 412.885C1418.11 412.645 1416.97 412.525 1415.8 412.525C1413.49 412.525 1411.69 413.005 1410.4 413.965C1409.11 414.925 1408.47 416.215 1408.47 417.835C1408.47 419.335 1409.01 420.535 1410.09 421.435C1411.17 422.305 1412.62 422.74 1414.45 422.74ZM1433.18 396.865C1433.18 394.675 1433.79 392.965 1435.02 391.735C1436.25 390.505 1437.89 389.89 1439.93 389.89C1441.04 389.89 1442.01 390.055 1442.85 390.385C1443.69 390.685 1444.43 391.09 1445.06 391.6L1443.98 393.13C1443.38 392.65 1442.72 392.305 1442 392.095C1441.31 391.885 1440.57 391.78 1439.79 391.78C1438.38 391.78 1437.26 392.2 1436.42 393.04C1435.61 393.88 1435.2 395.14 1435.2 396.82V401.5H1443.44V403.39H1435.2V424H1433.18V403.39H1428.86V401.5H1433.18V396.865ZM1450.23 399.61V395.245H1452.12V401.5H1459.9V403.39H1452.12V417.385C1452.12 419.065 1452.49 420.325 1453.24 421.165C1453.99 422.005 1455.04 422.425 1456.39 422.425C1457.17 422.425 1457.88 422.29 1458.51 422.02C1459.17 421.75 1459.8 421.3 1460.4 420.67L1461.34 422.02C1460.65 422.83 1459.86 423.415 1458.96 423.775C1458.06 424.135 1457.11 424.315 1456.12 424.315C1454.26 424.315 1452.79 423.745 1451.71 422.605C1450.66 421.465 1450.14 419.815 1450.14 417.655V403.39H1446.18V401.5H1448.25C1449 401.5 1449.51 401.365 1449.78 401.095C1450.08 400.825 1450.23 400.33 1450.23 399.61ZM1362.14 464V441.5H1363.76L1363.99 445.01H1364.12C1365.14 443.66 1366.31 442.655 1367.63 441.995C1368.95 441.335 1370.44 441.005 1372.09 441.005C1374.76 441.005 1376.81 441.86 1378.25 443.57C1379.72 445.25 1380.46 447.665 1380.46 450.815V464H1378.52V451.04C1378.52 448.34 1377.95 446.315 1376.81 444.965C1375.67 443.585 1374.01 442.895 1371.82 442.895C1370.2 442.895 1368.74 443.285 1367.45 444.065C1366.19 444.815 1365.07 445.985 1364.08 447.575V464H1362.14ZM1386.71 452.795C1386.71 451.145 1386.98 449.615 1387.52 448.205C1388.06 446.765 1388.81 445.535 1389.77 444.515C1390.76 443.465 1391.93 442.64 1393.28 442.04C1394.63 441.44 1396.13 441.14 1397.78 441.14C1399.34 441.14 1400.76 441.41 1402.05 441.95C1403.37 442.49 1404.48 443.255 1405.38 444.245C1406.28 445.205 1406.99 446.36 1407.5 447.71C1408.01 449.06 1408.26 450.53 1408.26 452.12C1408.26 452.3 1408.25 452.495 1408.22 452.705C1408.22 452.915 1408.2 453.125 1408.17 453.335H1388.78C1388.84 454.625 1389.09 455.825 1389.54 456.935C1389.99 458.045 1390.61 459.02 1391.39 459.86C1392.2 460.67 1393.16 461.315 1394.27 461.795C1395.38 462.245 1396.62 462.47 1398 462.47C1399.47 462.47 1400.82 462.2 1402.05 461.66C1403.28 461.09 1404.36 460.28 1405.29 459.23L1406.6 460.625C1405.58 461.855 1404.32 462.785 1402.82 463.415C1401.35 464.045 1399.73 464.36 1397.96 464.36C1396.31 464.36 1394.78 464.075 1393.37 463.505C1391.99 462.905 1390.8 462.095 1389.81 461.075C1388.85 460.025 1388.09 458.795 1387.52 457.385C1386.98 455.975 1386.71 454.445 1386.71 452.795ZM1388.82 451.49H1406.19C1406.13 450.23 1405.89 449.09 1405.47 448.07C1405.05 447.02 1404.47 446.135 1403.72 445.415C1403 444.665 1402.13 444.08 1401.11 443.66C1400.12 443.24 1398.99 443.03 1397.73 443.03C1396.47 443.03 1395.32 443.255 1394.27 443.705C1393.22 444.155 1392.32 444.755 1391.57 445.505C1390.82 446.255 1390.2 447.14 1389.72 448.16C1389.24 449.18 1388.94 450.29 1388.82 451.49ZM1419.38 464L1411.37 441.5H1413.49L1420.15 460.625H1420.28L1427.3 443.345H1428.25L1435.27 460.625H1435.4L1442.06 441.5H1444.18L1436.17 464H1434.82L1427.84 446.765H1427.71L1420.73 464H1419.38ZM1371.77 504.495C1370.09 504.495 1368.56 504.21 1367.18 503.64C1365.8 503.04 1364.62 502.215 1363.62 501.165C1362.64 500.115 1361.86 498.87 1361.29 497.43C1360.72 495.99 1360.43 494.43 1360.43 492.75C1360.43 491.07 1360.7 489.51 1361.24 488.07C1361.81 486.63 1362.59 485.385 1363.58 484.335C1364.6 483.285 1365.8 482.475 1367.18 481.905C1368.56 481.305 1370.09 481.005 1371.77 481.005C1373.66 481.005 1375.36 481.395 1376.86 482.175C1378.39 482.955 1379.66 484.11 1380.68 485.64L1379.15 486.855C1378.34 485.565 1377.29 484.59 1376 483.93C1374.71 483.27 1373.29 482.94 1371.73 482.94C1370.38 482.94 1369.13 483.18 1367.99 483.66C1366.85 484.14 1365.86 484.83 1365.02 485.73C1364.21 486.6 1363.58 487.635 1363.13 488.835C1362.68 490.035 1362.46 491.325 1362.46 492.705C1362.46 494.145 1362.68 495.465 1363.13 496.665C1363.61 497.865 1364.26 498.9 1365.07 499.77C1365.91 500.64 1366.9 501.33 1368.04 501.84C1369.21 502.32 1370.47 502.56 1371.82 502.56C1373.41 502.56 1374.83 502.245 1376.09 501.615C1377.35 500.955 1378.42 499.965 1379.29 498.645L1380.86 499.86C1379.84 501.36 1378.55 502.515 1376.99 503.325C1375.43 504.105 1373.69 504.495 1371.77 504.495ZM1395.9 504.495C1394.25 504.495 1392.73 504.21 1391.35 503.64C1389.97 503.04 1388.77 502.23 1387.75 501.21C1386.73 500.16 1385.94 498.915 1385.37 497.475C1384.8 496.035 1384.51 494.46 1384.51 492.75C1384.51 491.07 1384.8 489.51 1385.37 488.07C1385.94 486.6 1386.73 485.355 1387.75 484.335C1388.77 483.285 1389.97 482.475 1391.35 481.905C1392.73 481.305 1394.25 481.005 1395.9 481.005C1397.58 481.005 1399.11 481.305 1400.49 481.905C1401.87 482.475 1403.07 483.285 1404.09 484.335C1405.11 485.355 1405.89 486.585 1406.43 488.025C1407 489.465 1407.28 491.04 1407.28 492.75C1407.28 494.43 1407 496.005 1406.43 497.475C1405.89 498.915 1405.11 500.16 1404.09 501.21C1403.07 502.23 1401.87 503.04 1400.49 503.64C1399.11 504.21 1397.58 504.495 1395.9 504.495ZM1395.9 502.56C1397.28 502.56 1398.54 502.32 1399.68 501.84C1400.82 501.36 1401.79 500.685 1402.6 499.815C1403.44 498.945 1404.1 497.91 1404.58 496.71C1405.06 495.51 1405.3 494.19 1405.3 492.75C1405.3 491.31 1405.06 489.99 1404.58 488.79C1404.1 487.59 1403.44 486.555 1402.6 485.685C1401.79 484.815 1400.8 484.14 1399.63 483.66C1398.49 483.18 1397.25 482.94 1395.9 482.94C1394.58 482.94 1393.33 483.18 1392.16 483.66C1391.02 484.14 1390.03 484.815 1389.19 485.685C1388.38 486.555 1387.74 487.59 1387.26 488.79C1386.78 489.99 1386.54 491.31 1386.54 492.75C1386.54 494.19 1386.78 495.51 1387.26 496.71C1387.74 497.91 1388.38 498.945 1389.19 499.815C1390.03 500.685 1391.02 501.36 1392.16 501.84C1393.33 502.32 1394.58 502.56 1395.9 502.56ZM1413.91 504V481.5H1415.53L1415.75 485.01H1415.89C1416.91 483.66 1418.08 482.655 1419.4 481.995C1420.72 481.335 1422.2 481.005 1423.85 481.005C1426.52 481.005 1428.58 481.86 1430.02 483.57C1431.49 485.25 1432.22 487.665 1432.22 490.815V504H1430.29V491.04C1430.29 488.34 1429.72 486.315 1428.58 484.965C1427.44 483.585 1425.77 482.895 1423.58 482.895C1421.96 482.895 1420.51 483.285 1419.22 484.065C1417.96 484.815 1416.83 485.985 1415.84 487.575V504H1413.91ZM1447.16 504.495C1445.24 504.495 1443.52 504.135 1441.99 503.415C1440.46 502.665 1439.2 501.57 1438.21 500.13L1439.74 498.915C1440.61 500.175 1441.66 501.12 1442.89 501.75C1444.12 502.35 1445.54 502.65 1447.16 502.65C1449.11 502.65 1450.64 502.23 1451.75 501.39C1452.89 500.52 1453.46 499.41 1453.46 498.06C1453.46 497.28 1453.27 496.635 1452.88 496.125C1452.52 495.615 1452.02 495.18 1451.39 494.82C1450.79 494.46 1450.09 494.175 1449.28 493.965C1448.5 493.725 1447.69 493.515 1446.85 493.335C1445.92 493.155 1444.99 492.93 1444.06 492.66C1443.16 492.39 1442.33 492.045 1441.58 491.625C1440.83 491.175 1440.22 490.605 1439.74 489.915C1439.29 489.225 1439.06 488.37 1439.06 487.35C1439.06 486.42 1439.26 485.565 1439.65 484.785C1440.07 484.005 1440.64 483.345 1441.36 482.805C1442.08 482.235 1442.93 481.8 1443.92 481.5C1444.94 481.17 1446.05 481.005 1447.25 481.005C1448.99 481.005 1450.54 481.35 1451.89 482.04C1453.24 482.7 1454.33 483.66 1455.17 484.92L1453.64 486.135C1452.92 485.055 1452.02 484.245 1450.94 483.705C1449.86 483.135 1448.62 482.85 1447.21 482.85C1446.28 482.85 1445.42 482.97 1444.64 483.21C1443.89 483.45 1443.25 483.765 1442.71 484.155C1442.2 484.545 1441.79 485.01 1441.49 485.55C1441.22 486.09 1441.09 486.66 1441.09 487.26C1441.09 487.92 1441.27 488.49 1441.63 488.97C1441.99 489.45 1442.47 489.855 1443.07 490.185C1443.67 490.485 1444.34 490.755 1445.09 490.995C1445.87 491.205 1446.67 491.385 1447.48 491.535C1448.44 491.745 1449.38 492 1450.31 492.3C1451.27 492.57 1452.13 492.945 1452.88 493.425C1453.63 493.875 1454.24 494.475 1454.72 495.225C1455.2 495.945 1455.44 496.86 1455.44 497.97C1455.44 498.96 1455.23 499.86 1454.81 500.67C1454.42 501.48 1453.87 502.17 1453.15 502.74C1452.46 503.31 1451.59 503.745 1450.54 504.045C1449.52 504.345 1448.39 504.495 1447.16 504.495ZM1462.49 479.61V475.245H1464.38V481.5H1472.16V483.39H1464.38V497.385C1464.38 499.065 1464.75 500.325 1465.5 501.165C1466.25 502.005 1467.3 502.425 1468.65 502.425C1469.43 502.425 1470.14 502.29 1470.77 502.02C1471.43 501.75 1472.06 501.3 1472.66 500.67L1473.6 502.02C1472.91 502.83 1472.12 503.415 1471.22 503.775C1470.32 504.135 1469.37 504.315 1468.38 504.315C1466.52 504.315 1465.05 503.745 1463.97 502.605C1462.92 501.465 1462.4 499.815 1462.4 497.655V483.39H1458.44V481.5H1460.51C1461.26 481.5 1461.77 481.365 1462.04 481.095C1462.34 480.825 1462.49 480.33 1462.49 479.61ZM1477.94 504V481.5H1479.92V504H1477.94ZM1477.94 476.955V473.535H1479.92V476.955H1477.94ZM1488.94 479.61V475.245H1490.83V481.5H1498.62V483.39H1490.83V497.385C1490.83 499.065 1491.21 500.325 1491.96 501.165C1492.71 502.005 1493.76 502.425 1495.11 502.425C1495.89 502.425 1496.59 502.29 1497.22 502.02C1497.88 501.75 1498.51 501.3 1499.11 500.67L1500.06 502.02C1499.37 502.83 1498.57 503.415 1497.67 503.775C1496.77 504.135 1495.83 504.315 1494.84 504.315C1492.98 504.315 1491.51 503.745 1490.43 502.605C1489.38 501.465 1488.85 499.815 1488.85 497.655V483.39H1484.89V481.5H1486.96C1487.71 481.5 1488.22 481.365 1488.49 481.095C1488.79 480.825 1488.94 480.33 1488.94 479.61ZM1522.39 481.5V504H1520.73L1520.55 500.49H1520.41C1519.39 501.84 1518.22 502.845 1516.9 503.505C1515.58 504.165 1514.1 504.495 1512.45 504.495C1509.78 504.495 1507.71 503.655 1506.24 501.975C1504.77 500.265 1504.03 497.835 1504.03 494.685V481.5H1506.01V494.46C1506.01 497.16 1506.57 499.2 1507.68 500.58C1508.82 501.93 1510.5 502.605 1512.72 502.605C1514.34 502.605 1515.78 502.23 1517.04 501.48C1518.3 500.7 1519.44 499.515 1520.46 497.925V481.5H1522.39ZM1531.48 479.61V475.245H1533.37V481.5H1541.16V483.39H1533.37V497.385C1533.37 499.065 1533.75 500.325 1534.5 501.165C1535.25 502.005 1536.3 502.425 1537.65 502.425C1538.43 502.425 1539.13 502.29 1539.76 502.02C1540.42 501.75 1541.05 501.3 1541.65 500.67L1542.6 502.02C1541.91 502.83 1541.11 503.415 1540.21 503.775C1539.31 504.135 1538.37 504.315 1537.38 504.315C1535.52 504.315 1534.05 503.745 1532.97 502.605C1531.92 501.465 1531.39 499.815 1531.39 497.655V483.39H1527.43V481.5H1529.5C1530.25 481.5 1530.76 481.365 1531.03 481.095C1531.33 480.825 1531.48 480.33 1531.48 479.61ZM1546.93 504V481.5H1548.91V504H1546.93ZM1546.93 476.955V473.535H1548.91V476.955H1546.93ZM1566.8 504.495C1565.15 504.495 1563.64 504.21 1562.26 503.64C1560.88 503.04 1559.68 502.23 1558.66 501.21C1557.64 500.16 1556.84 498.915 1556.27 497.475C1555.7 496.035 1555.42 494.46 1555.42 492.75C1555.42 491.07 1555.7 489.51 1556.27 488.07C1556.84 486.6 1557.64 485.355 1558.66 484.335C1559.68 483.285 1560.88 482.475 1562.26 481.905C1563.64 481.305 1565.15 481.005 1566.8 481.005C1568.48 481.005 1570.01 481.305 1571.39 481.905C1572.77 482.475 1573.97 483.285 1574.99 484.335C1576.01 485.355 1576.79 486.585 1577.33 488.025C1577.9 489.465 1578.19 491.04 1578.19 492.75C1578.19 494.43 1577.9 496.005 1577.33 497.475C1576.79 498.915 1576.01 500.16 1574.99 501.21C1573.97 502.23 1572.77 503.04 1571.39 503.64C1570.01 504.21 1568.48 504.495 1566.8 504.495ZM1566.8 502.56C1568.18 502.56 1569.44 502.32 1570.58 501.84C1571.72 501.36 1572.7 500.685 1573.51 499.815C1574.35 498.945 1575.01 497.91 1575.49 496.71C1575.97 495.51 1576.21 494.19 1576.21 492.75C1576.21 491.31 1575.97 489.99 1575.49 488.79C1575.01 487.59 1574.35 486.555 1573.51 485.685C1572.7 484.815 1571.71 484.14 1570.54 483.66C1569.4 483.18 1568.15 482.94 1566.8 482.94C1565.48 482.94 1564.24 483.18 1563.07 483.66C1561.93 484.14 1560.94 484.815 1560.1 485.685C1559.29 486.555 1558.64 487.59 1558.16 488.79C1557.68 489.99 1557.44 491.31 1557.44 492.75C1557.44 494.19 1557.68 495.51 1558.16 496.71C1558.64 497.91 1559.29 498.945 1560.1 499.815C1560.94 500.685 1561.93 501.36 1563.07 501.84C1564.24 502.32 1565.48 502.56 1566.8 502.56ZM1584.81 504V481.5H1586.43L1586.66 485.01H1586.79C1587.81 483.66 1588.98 482.655 1590.3 481.995C1591.62 481.335 1593.11 481.005 1594.76 481.005C1597.43 481.005 1599.48 481.86 1600.92 483.57C1602.39 485.25 1603.13 487.665 1603.13 490.815V504H1601.19V491.04C1601.19 488.34 1600.62 486.315 1599.48 484.965C1598.34 483.585 1596.68 482.895 1594.49 482.895C1592.87 482.895 1591.41 483.285 1590.12 484.065C1588.86 484.815 1587.74 485.985 1586.75 487.575V504H1584.81Z" fill="#6593E9"/>
<path d="M1037.71 424H1035.59V392.5H1045.9C1047.49 392.5 1048.91 392.725 1050.17 393.175C1051.43 393.625 1052.5 394.255 1053.37 395.065C1054.27 395.845 1054.94 396.79 1055.39 397.9C1055.87 398.98 1056.11 400.195 1056.11 401.545C1056.11 402.715 1055.92 403.81 1055.53 404.83C1055.14 405.85 1054.58 406.75 1053.86 407.53C1053.14 408.28 1052.26 408.91 1051.21 409.42C1050.19 409.9 1049 410.215 1047.65 410.365L1052.42 419.77C1052.69 420.28 1052.95 420.7 1053.19 421.03C1053.46 421.33 1053.73 421.555 1054 421.705C1054.27 421.855 1054.57 421.96 1054.9 422.02C1055.23 422.05 1055.62 422.065 1056.07 422.065H1057.51V424L1056.07 424.045C1055.35 424.075 1054.72 424.045 1054.18 423.955C1053.64 423.865 1053.16 423.7 1052.74 423.46C1052.35 423.19 1051.97 422.845 1051.61 422.425C1051.28 421.975 1050.95 421.42 1050.62 420.76L1045.4 410.5H1037.71V424ZM1037.71 394.48V408.52H1045.85C1048.37 408.52 1050.35 407.875 1051.79 406.585C1053.26 405.295 1054 403.6 1054 401.5C1054 399.4 1053.26 397.705 1051.79 396.415C1050.35 395.125 1048.37 394.48 1045.85 394.48H1037.71ZM1061.25 412.795C1061.25 411.145 1061.52 409.615 1062.06 408.205C1062.6 406.765 1063.35 405.535 1064.31 404.515C1065.3 403.465 1066.47 402.64 1067.82 402.04C1069.17 401.44 1070.67 401.14 1072.32 401.14C1073.88 401.14 1075.3 401.41 1076.59 401.95C1077.91 402.49 1079.02 403.255 1079.92 404.245C1080.82 405.205 1081.53 406.36 1082.04 407.71C1082.55 409.06 1082.8 410.53 1082.8 412.12C1082.8 412.3 1082.79 412.495 1082.76 412.705C1082.76 412.915 1082.74 413.125 1082.71 413.335H1063.32C1063.38 414.625 1063.63 415.825 1064.08 416.935C1064.53 418.045 1065.15 419.02 1065.93 419.86C1066.74 420.67 1067.7 421.315 1068.81 421.795C1069.92 422.245 1071.16 422.47 1072.54 422.47C1074.01 422.47 1075.36 422.2 1076.59 421.66C1077.82 421.09 1078.9 420.28 1079.83 419.23L1081.14 420.625C1080.12 421.855 1078.86 422.785 1077.36 423.415C1075.89 424.045 1074.27 424.36 1072.5 424.36C1070.85 424.36 1069.32 424.075 1067.91 423.505C1066.53 422.905 1065.34 422.095 1064.35 421.075C1063.39 420.025 1062.63 418.795 1062.06 417.385C1061.52 415.975 1061.25 414.445 1061.25 412.795ZM1063.36 411.49H1080.73C1080.67 410.23 1080.43 409.09 1080.01 408.07C1079.59 407.02 1079.01 406.135 1078.26 405.415C1077.54 404.665 1076.67 404.08 1075.65 403.66C1074.66 403.24 1073.53 403.03 1072.27 403.03C1071.01 403.03 1069.86 403.255 1068.81 403.705C1067.76 404.155 1066.86 404.755 1066.11 405.505C1065.36 406.255 1064.74 407.14 1064.26 408.16C1063.78 409.18 1063.48 410.29 1063.36 411.49ZM1089.96 399.61V395.245H1091.85V401.5H1099.63V403.39H1091.85V417.385C1091.85 419.065 1092.22 420.325 1092.97 421.165C1093.72 422.005 1094.77 422.425 1096.12 422.425C1096.9 422.425 1097.61 422.29 1098.24 422.02C1098.9 421.75 1099.53 421.3 1100.13 420.67L1101.07 422.02C1100.38 422.83 1099.59 423.415 1098.69 423.775C1097.79 424.135 1096.84 424.315 1095.85 424.315C1093.99 424.315 1092.52 423.745 1091.44 422.605C1090.39 421.465 1089.87 419.815 1089.87 417.655V403.39H1085.91V401.5H1087.98C1088.73 401.5 1089.24 401.365 1089.51 401.095C1089.81 400.825 1089.96 400.33 1089.96 399.61ZM1123.41 401.5V424H1121.74L1121.56 420.49H1121.43C1120.41 421.84 1119.24 422.845 1117.92 423.505C1116.6 424.165 1115.11 424.495 1113.46 424.495C1110.79 424.495 1108.72 423.655 1107.25 421.975C1105.78 420.265 1105.05 417.835 1105.05 414.685V401.5H1107.03V414.46C1107.03 417.16 1107.58 419.2 1108.69 420.58C1109.83 421.93 1111.51 422.605 1113.73 422.605C1115.35 422.605 1116.79 422.23 1118.05 421.48C1119.31 420.7 1120.45 419.515 1121.47 417.925V401.5H1123.41ZM1131.69 424V401.5H1133.31L1133.53 405.01H1133.67C1134.48 403.69 1135.47 402.7 1136.64 402.04C1137.81 401.35 1139.16 401.005 1140.69 401.005C1140.96 401.005 1141.21 401.02 1141.45 401.05C1141.72 401.08 1141.98 401.125 1142.22 401.185L1142.35 403.21C1142.11 403.15 1141.84 403.105 1141.54 403.075C1141.24 403.045 1140.91 403.03 1140.55 403.03C1138.99 403.03 1137.66 403.39 1136.55 404.11C1135.44 404.8 1134.48 405.895 1133.67 407.395V424H1131.69ZM1147.68 424V401.5H1149.3L1149.53 405.01H1149.66C1150.68 403.66 1151.85 402.655 1153.17 401.995C1154.49 401.335 1155.98 401.005 1157.63 401.005C1160.3 401.005 1162.35 401.86 1163.79 403.57C1165.26 405.25 1166 407.665 1166 410.815V424H1164.06V411.04C1164.06 408.34 1163.49 406.315 1162.35 404.965C1161.21 403.585 1159.55 402.895 1157.36 402.895C1155.74 402.895 1154.28 403.285 1152.99 404.065C1151.73 404.815 1150.61 405.985 1149.62 407.575V424H1147.68ZM1173.96 424V401.5H1175.94V424H1173.96ZM1173.96 396.955V393.535H1175.94V396.955H1173.96ZM1184.16 424V401.5H1185.78L1186 405.01H1186.14C1187.16 403.66 1188.33 402.655 1189.65 401.995C1190.97 401.335 1192.45 401.005 1194.1 401.005C1196.77 401.005 1198.83 401.86 1200.27 403.57C1201.74 405.25 1202.47 407.665 1202.47 410.815V424H1200.54V411.04C1200.54 408.34 1199.97 406.315 1198.83 404.965C1197.69 403.585 1196.02 402.895 1193.83 402.895C1192.21 402.895 1190.76 403.285 1189.47 404.065C1188.21 404.815 1187.08 405.985 1186.09 407.575V424H1184.16ZM1219.26 424.045C1217.73 424.045 1216.32 423.775 1215.03 423.235C1213.74 422.665 1212.63 421.87 1211.7 420.85C1210.77 419.83 1210.05 418.63 1209.54 417.25C1209.03 415.84 1208.77 414.31 1208.77 412.66C1208.77 410.95 1209.04 409.39 1209.58 407.98C1210.12 406.54 1210.87 405.31 1211.83 404.29C1212.82 403.24 1213.98 402.43 1215.3 401.86C1216.65 401.29 1218.13 401.005 1219.75 401.005C1221.22 401.005 1222.62 401.26 1223.94 401.77C1225.29 402.25 1226.5 403.015 1227.58 404.065L1227.72 404.02L1227.9 401.5H1229.56V425.08C1229.56 426.79 1229.34 428.305 1228.89 429.625C1228.44 430.975 1227.78 432.1 1226.91 433C1226.04 433.9 1224.96 434.575 1223.67 435.025C1222.41 435.505 1220.97 435.745 1219.35 435.745C1217.4 435.745 1215.63 435.415 1214.04 434.755C1212.48 434.125 1211.13 433.165 1209.99 431.875L1211.38 430.48C1212.4 431.56 1213.57 432.385 1214.89 432.955C1216.21 433.525 1217.68 433.81 1219.3 433.81C1221.97 433.81 1224.01 433.06 1225.42 431.56C1226.86 430.06 1227.58 427.9 1227.58 425.08V419.995H1227.49C1226.47 421.315 1225.26 422.32 1223.85 423.01C1222.44 423.7 1220.91 424.045 1219.26 424.045ZM1219.48 422.11C1221.16 422.11 1222.69 421.72 1224.07 420.94C1225.48 420.13 1226.65 418.945 1227.58 417.385V406.27C1226.59 405.13 1225.44 404.29 1224.12 403.75C1222.83 403.21 1221.45 402.94 1219.98 402.94C1218.6 402.94 1217.34 403.18 1216.2 403.66C1215.09 404.14 1214.13 404.8 1213.32 405.64C1212.51 406.48 1211.88 407.5 1211.43 408.7C1211.01 409.87 1210.8 411.175 1210.8 412.615C1210.8 414.025 1211.01 415.315 1211.43 416.485C1211.85 417.655 1212.43 418.66 1213.18 419.5C1213.96 420.31 1214.88 420.955 1215.93 421.435C1217.01 421.885 1218.19 422.11 1219.48 422.11ZM1036.04 436.865C1036.04 434.675 1036.66 432.965 1037.89 431.735C1039.12 430.505 1040.75 429.89 1042.79 429.89C1043.9 429.89 1044.88 430.055 1045.72 430.385C1046.56 430.685 1047.29 431.09 1047.92 431.6L1046.84 433.13C1046.24 432.65 1045.58 432.305 1044.86 432.095C1044.17 431.885 1043.44 431.78 1042.66 431.78C1041.25 431.78 1040.12 432.2 1039.28 433.04C1038.47 433.88 1038.07 435.14 1038.07 436.82V441.5H1046.3V443.39H1038.07V464H1036.04V443.39H1031.72V441.5H1036.04V436.865ZM1052.28 464V441.5H1053.9L1054.12 445.01H1054.26C1055.07 443.69 1056.06 442.7 1057.23 442.04C1058.4 441.35 1059.75 441.005 1061.28 441.005C1061.55 441.005 1061.8 441.02 1062.04 441.05C1062.31 441.08 1062.57 441.125 1062.81 441.185L1062.94 443.21C1062.7 443.15 1062.43 443.105 1062.13 443.075C1061.83 443.045 1061.5 443.03 1061.14 443.03C1059.58 443.03 1058.25 443.39 1057.14 444.11C1056.03 444.8 1055.07 445.895 1054.26 447.395V464H1052.28ZM1077.11 464.495C1075.46 464.495 1073.95 464.21 1072.57 463.64C1071.19 463.04 1069.99 462.23 1068.97 461.21C1067.95 460.16 1067.15 458.915 1066.58 457.475C1066.01 456.035 1065.73 454.46 1065.73 452.75C1065.73 451.07 1066.01 449.51 1066.58 448.07C1067.15 446.6 1067.95 445.355 1068.97 444.335C1069.99 443.285 1071.19 442.475 1072.57 441.905C1073.95 441.305 1075.46 441.005 1077.11 441.005C1078.79 441.005 1080.32 441.305 1081.7 441.905C1083.08 442.475 1084.28 443.285 1085.3 444.335C1086.32 445.355 1087.1 446.585 1087.64 448.025C1088.21 449.465 1088.5 451.04 1088.5 452.75C1088.5 454.43 1088.21 456.005 1087.64 457.475C1087.1 458.915 1086.32 460.16 1085.3 461.21C1084.28 462.23 1083.08 463.04 1081.7 463.64C1080.32 464.21 1078.79 464.495 1077.11 464.495ZM1077.11 462.56C1078.49 462.56 1079.75 462.32 1080.89 461.84C1082.03 461.36 1083.01 460.685 1083.82 459.815C1084.66 458.945 1085.32 457.91 1085.8 456.71C1086.28 455.51 1086.52 454.19 1086.52 452.75C1086.52 451.31 1086.28 449.99 1085.8 448.79C1085.32 447.59 1084.66 446.555 1083.82 445.685C1083.01 444.815 1082.02 444.14 1080.85 443.66C1079.71 443.18 1078.46 442.94 1077.11 442.94C1075.79 442.94 1074.55 443.18 1073.38 443.66C1072.24 444.14 1071.25 444.815 1070.41 445.685C1069.6 446.555 1068.95 447.59 1068.47 448.79C1067.99 449.99 1067.75 451.31 1067.75 452.75C1067.75 454.19 1067.99 455.51 1068.47 456.71C1068.95 457.91 1069.6 458.945 1070.41 459.815C1071.25 460.685 1072.24 461.36 1073.38 461.84C1074.55 462.32 1075.79 462.56 1077.11 462.56ZM1095.13 464V441.5H1096.75L1096.97 444.965H1097.11C1098.1 443.615 1099.21 442.625 1100.44 441.995C1101.7 441.335 1103.11 441.005 1104.67 441.005C1106.44 441.005 1107.94 441.425 1109.17 442.265C1110.43 443.075 1111.36 444.305 1111.96 445.955H1112.09C1113.11 444.275 1114.3 443.03 1115.65 442.22C1117.03 441.41 1118.59 441.005 1120.33 441.005C1122.91 441.005 1124.9 441.86 1126.31 443.57C1127.72 445.25 1128.43 447.665 1128.43 450.815V464H1126.49V451.04C1126.49 448.34 1125.95 446.315 1124.87 444.965C1123.79 443.585 1122.2 442.895 1120.1 442.895C1118.45 442.895 1117 443.315 1115.74 444.155C1114.51 444.965 1113.43 446.24 1112.5 447.98C1112.59 448.4 1112.65 448.85 1112.68 449.33C1112.71 449.81 1112.72 450.305 1112.72 450.815V464H1110.79V451.04C1110.79 448.34 1110.25 446.315 1109.17 444.965C1108.09 443.585 1106.5 442.895 1104.4 442.895C1102.84 442.895 1101.44 443.27 1100.21 444.02C1099.01 444.77 1097.96 445.94 1097.06 447.53V464H1095.13ZM1035.59 504V472.5H1053.86V474.48H1037.71V486.9H1051.79V488.835H1037.71V502.02H1054.31V504H1035.59ZM1055.41 504L1063.91 492.57L1055.5 481.5H1058.02L1065.04 490.86H1065.22L1072.19 481.5H1074.71L1066.3 492.57L1074.8 504H1072.33L1065.22 494.235H1065.04L1057.84 504H1055.41ZM1079.79 504V481.5H1081.77V504H1079.79ZM1079.79 476.955V473.535H1081.77V476.955H1079.79ZM1089.98 504V470.25H1091.96V504H1089.98ZM1098.47 492.795C1098.47 491.145 1098.74 489.615 1099.28 488.205C1099.82 486.765 1100.57 485.535 1101.53 484.515C1102.52 483.465 1103.69 482.64 1105.04 482.04C1106.39 481.44 1107.89 481.14 1109.54 481.14C1111.1 481.14 1112.52 481.41 1113.81 481.95C1115.13 482.49 1116.24 483.255 1117.14 484.245C1118.04 485.205 1118.75 486.36 1119.26 487.71C1119.77 489.06 1120.02 490.53 1120.02 492.12C1120.02 492.3 1120.01 492.495 1119.98 492.705C1119.98 492.915 1119.96 493.125 1119.93 493.335H1100.54C1100.6 494.625 1100.85 495.825 1101.3 496.935C1101.75 498.045 1102.37 499.02 1103.15 499.86C1103.96 500.67 1104.92 501.315 1106.03 501.795C1107.14 502.245 1108.38 502.47 1109.76 502.47C1111.23 502.47 1112.58 502.2 1113.81 501.66C1115.04 501.09 1116.12 500.28 1117.05 499.23L1118.36 500.625C1117.34 501.855 1116.08 502.785 1114.58 503.415C1113.11 504.045 1111.49 504.36 1109.72 504.36C1108.07 504.36 1106.54 504.075 1105.13 503.505C1103.75 502.905 1102.56 502.095 1101.57 501.075C1100.61 500.025 1099.85 498.795 1099.28 497.385C1098.74 495.975 1098.47 494.445 1098.47 492.795ZM1100.58 491.49H1117.95C1117.89 490.23 1117.65 489.09 1117.23 488.07C1116.81 487.02 1116.23 486.135 1115.48 485.415C1114.76 484.665 1113.89 484.08 1112.87 483.66C1111.88 483.24 1110.75 483.03 1109.49 483.03C1108.23 483.03 1107.08 483.255 1106.03 483.705C1104.98 484.155 1104.08 484.755 1103.33 485.505C1102.58 486.255 1101.96 487.14 1101.48 488.16C1101 489.18 1100.7 490.29 1100.58 491.49Z" fill="#6593E9"/>
<path d="M409.06 424V394.48H398.305V392.5H421.885V394.48H411.13V424H409.06ZM426.189 424V390.25H428.124V404.875H428.259C429.279 403.585 430.434 402.625 431.724 401.995C433.044 401.335 434.514 401.005 436.134 401.005C438.834 401.005 440.904 401.86 442.344 403.57C443.784 405.25 444.504 407.665 444.504 410.815V424H442.569V411.04C442.569 408.34 441.999 406.315 440.859 404.965C439.719 403.585 438.039 402.895 435.819 402.895C434.199 402.895 432.759 403.27 431.499 404.02C430.239 404.77 429.114 405.94 428.124 407.53V424H426.189ZM450.758 412.795C450.758 411.145 451.028 409.615 451.568 408.205C452.108 406.765 452.858 405.535 453.818 404.515C454.808 403.465 455.978 402.64 457.328 402.04C458.678 401.44 460.178 401.14 461.828 401.14C463.388 401.14 464.813 401.41 466.103 401.95C467.423 402.49 468.533 403.255 469.433 404.245C470.333 405.205 471.038 406.36 471.548 407.71C472.058 409.06 472.313 410.53 472.313 412.12C472.313 412.3 472.298 412.495 472.268 412.705C472.268 412.915 472.253 413.125 472.223 413.335H452.828C452.888 414.625 453.143 415.825 453.593 416.935C454.043 418.045 454.658 419.02 455.438 419.86C456.248 420.67 457.208 421.315 458.318 421.795C459.428 422.245 460.673 422.47 462.053 422.47C463.523 422.47 464.873 422.2 466.103 421.66C467.333 421.09 468.413 420.28 469.343 419.23L470.648 420.625C469.628 421.855 468.368 422.785 466.868 423.415C465.398 424.045 463.778 424.36 462.008 424.36C460.358 424.36 458.828 424.075 457.418 423.505C456.038 422.905 454.853 422.095 453.863 421.075C452.903 420.025 452.138 418.795 451.568 417.385C451.028 415.975 450.758 414.445 450.758 412.795ZM452.873 411.49H470.243C470.183 410.23 469.943 409.09 469.523 408.07C469.103 407.02 468.518 406.135 467.768 405.415C467.048 404.665 466.178 404.08 465.158 403.66C464.168 403.24 463.043 403.03 461.783 403.03C460.523 403.03 459.368 403.255 458.318 403.705C457.268 404.155 456.368 404.755 455.618 405.505C454.868 406.255 454.253 407.14 453.773 408.16C453.293 409.18 452.993 410.29 452.873 411.49ZM401.14 464V430.25H403.075V444.875H403.21C404.23 443.585 405.385 442.625 406.675 441.995C407.995 441.335 409.465 441.005 411.085 441.005C413.785 441.005 415.855 441.86 417.295 443.57C418.735 445.25 419.455 447.665 419.455 450.815V464H417.52V451.04C417.52 448.34 416.95 446.315 415.81 444.965C414.67 443.585 412.99 442.895 410.77 442.895C409.15 442.895 407.71 443.27 406.45 444.02C405.19 444.77 404.065 445.94 403.075 447.53V464H401.14ZM428.997 475.25L433.317 464L424.047 441.5H426.252L434.217 461.255H434.352L441.687 441.5H443.847L431.067 475.25H428.997ZM457.556 464.495C455.996 464.495 454.571 464.21 453.281 463.64C451.991 463.07 450.866 462.275 449.906 461.255C448.946 460.205 448.196 458.975 447.656 457.565C447.146 456.125 446.891 454.55 446.891 452.84C446.891 451.13 447.161 449.555 447.701 448.115C448.271 446.645 449.036 445.385 449.996 444.335C450.986 443.285 452.156 442.475 453.506 441.905C454.886 441.305 456.386 441.005 458.006 441.005C459.476 441.005 460.886 441.26 462.236 441.77C463.616 442.25 464.846 443.015 465.926 444.065L466.016 444.02V430.25H467.996V464H466.331L466.151 460.175H466.016C465.026 461.585 463.796 462.665 462.326 463.415C460.856 464.135 459.266 464.495 457.556 464.495ZM457.781 462.56C459.491 462.56 461.051 462.155 462.461 461.345C463.901 460.535 465.086 459.335 466.016 457.745V446.36C464.996 445.19 463.826 444.335 462.506 443.795C461.186 443.225 459.776 442.94 458.276 442.94C456.866 442.94 455.576 443.195 454.406 443.705C453.266 444.185 452.291 444.86 451.481 445.73C450.671 446.6 450.041 447.635 449.591 448.835C449.141 450.035 448.916 451.37 448.916 452.84C448.916 454.28 449.126 455.6 449.546 456.8C449.996 458 450.611 459.02 451.391 459.86C452.171 460.7 453.101 461.36 454.181 461.84C455.261 462.32 456.461 462.56 457.781 462.56ZM476.243 464V441.5H477.863L478.088 445.01H478.223C479.033 443.69 480.023 442.7 481.193 442.04C482.363 441.35 483.713 441.005 485.243 441.005C485.513 441.005 485.768 441.02 486.008 441.05C486.278 441.08 486.533 441.125 486.773 441.185L486.908 443.21C486.668 443.15 486.398 443.105 486.098 443.075C485.798 443.045 485.468 443.03 485.108 443.03C483.548 443.03 482.213 443.39 481.103 444.11C479.993 444.8 479.033 445.895 478.223 447.395V464H476.243ZM501.079 464.495C499.429 464.495 497.914 464.21 496.534 463.64C495.154 463.04 493.954 462.23 492.934 461.21C491.914 460.16 491.119 458.915 490.549 457.475C489.979 456.035 489.694 454.46 489.694 452.75C489.694 451.07 489.979 449.51 490.549 448.07C491.119 446.6 491.914 445.355 492.934 444.335C493.954 443.285 495.154 442.475 496.534 441.905C497.914 441.305 499.429 441.005 501.079 441.005C502.759 441.005 504.289 441.305 505.669 441.905C507.049 442.475 508.249 443.285 509.269 444.335C510.289 445.355 511.069 446.585 511.609 448.025C512.179 449.465 512.464 451.04 512.464 452.75C512.464 454.43 512.179 456.005 511.609 457.475C511.069 458.915 510.289 460.16 509.269 461.21C508.249 462.23 507.049 463.04 505.669 463.64C504.289 464.21 502.759 464.495 501.079 464.495ZM501.079 462.56C502.459 462.56 503.719 462.32 504.859 461.84C505.999 461.36 506.974 460.685 507.784 459.815C508.624 458.945 509.284 457.91 509.764 456.71C510.244 455.51 510.484 454.19 510.484 452.75C510.484 451.31 510.244 449.99 509.764 448.79C509.284 447.59 508.624 446.555 507.784 445.685C506.974 444.815 505.984 444.14 504.814 443.66C503.674 443.18 502.429 442.94 501.079 442.94C499.759 442.94 498.514 443.18 497.344 443.66C496.204 444.14 495.214 444.815 494.374 445.685C493.564 446.555 492.919 447.59 492.439 448.79C491.959 449.99 491.719 451.31 491.719 452.75C491.719 454.19 491.959 455.51 492.439 456.71C492.919 457.91 493.564 458.945 494.374 459.815C495.214 460.685 496.204 461.36 497.344 461.84C498.514 462.32 499.759 462.56 501.079 462.56ZM527.909 464.045C526.379 464.045 524.969 463.775 523.679 463.235C522.389 462.665 521.279 461.87 520.349 460.85C519.419 459.83 518.699 458.63 518.189 457.25C517.679 455.84 517.424 454.31 517.424 452.66C517.424 450.95 517.694 449.39 518.234 447.98C518.774 446.54 519.524 445.31 520.484 444.29C521.474 443.24 522.629 442.43 523.949 441.86C525.299 441.29 526.784 441.005 528.404 441.005C529.874 441.005 531.269 441.26 532.589 441.77C533.939 442.25 535.154 443.015 536.234 444.065L536.369 444.02L536.549 441.5H538.214V465.08C538.214 466.79 537.989 468.305 537.539 469.625C537.089 470.975 536.429 472.1 535.559 473C534.689 473.9 533.609 474.575 532.319 475.025C531.059 475.505 529.619 475.745 527.999 475.745C526.049 475.745 524.279 475.415 522.689 474.755C521.129 474.125 519.779 473.165 518.639 471.875L520.034 470.48C521.054 471.56 522.224 472.385 523.544 472.955C524.864 473.525 526.334 473.81 527.954 473.81C530.624 473.81 532.664 473.06 534.074 471.56C535.514 470.06 536.234 467.9 536.234 465.08V459.995H536.144C535.124 461.315 533.909 462.32 532.499 463.01C531.089 463.7 529.559 464.045 527.909 464.045ZM528.134 462.11C529.814 462.11 531.344 461.72 532.724 460.94C534.134 460.13 535.304 458.945 536.234 457.385V446.27C535.244 445.13 534.089 444.29 532.769 443.75C531.479 443.21 530.099 442.94 528.629 442.94C527.249 442.94 525.989 443.18 524.849 443.66C523.739 444.14 522.779 444.8 521.969 445.64C521.159 446.48 520.529 447.5 520.079 448.7C519.659 449.87 519.449 451.175 519.449 452.615C519.449 454.025 519.659 455.315 520.079 456.485C520.499 457.655 521.084 458.66 521.834 459.5C522.614 460.31 523.529 460.955 524.579 461.435C525.659 461.885 526.844 462.11 528.134 462.11ZM544.757 452.795C544.757 451.145 545.027 449.615 545.567 448.205C546.107 446.765 546.857 445.535 547.817 444.515C548.807 443.465 549.977 442.64 551.327 442.04C552.677 441.44 554.177 441.14 555.827 441.14C557.387 441.14 558.812 441.41 560.102 441.95C561.422 442.49 562.532 443.255 563.432 444.245C564.332 445.205 565.037 446.36 565.547 447.71C566.057 449.06 566.312 450.53 566.312 452.12C566.312 452.3 566.297 452.495 566.267 452.705C566.267 452.915 566.252 453.125 566.222 453.335H546.827C546.887 454.625 547.142 455.825 547.592 456.935C548.042 458.045 548.657 459.02 549.437 459.86C550.247 460.67 551.207 461.315 552.317 461.795C553.427 462.245 554.672 462.47 556.052 462.47C557.522 462.47 558.872 462.2 560.102 461.66C561.332 461.09 562.412 460.28 563.342 459.23L564.647 460.625C563.627 461.855 562.367 462.785 560.867 463.415C559.397 464.045 557.777 464.36 556.007 464.36C554.357 464.36 552.827 464.075 551.417 463.505C550.037 462.905 548.852 462.095 547.862 461.075C546.902 460.025 546.137 458.795 545.567 457.385C545.027 455.975 544.757 454.445 544.757 452.795ZM546.872 451.49H564.242C564.182 450.23 563.942 449.09 563.522 448.07C563.102 447.02 562.517 446.135 561.767 445.415C561.047 444.665 560.177 444.08 559.157 443.66C558.167 443.24 557.042 443.03 555.782 443.03C554.522 443.03 553.367 443.255 552.317 443.705C551.267 444.155 550.367 444.755 549.617 445.505C548.867 446.255 548.252 447.14 547.772 448.16C547.292 449.18 546.992 450.29 546.872 451.49ZM572.659 464V441.5H574.279L574.504 445.01H574.639C575.659 443.66 576.829 442.655 578.149 441.995C579.469 441.335 580.954 441.005 582.604 441.005C585.274 441.005 587.329 441.86 588.769 443.57C590.239 445.25 590.974 447.665 590.974 450.815V464H589.039V451.04C589.039 448.34 588.469 446.315 587.329 444.965C586.189 443.585 584.524 442.895 582.334 442.895C580.714 442.895 579.259 443.285 577.969 444.065C576.709 444.815 575.584 445.985 574.594 447.575V464H572.659ZM411.04 504.495C409.54 504.495 408.1 504.255 406.72 503.775C405.37 503.265 404.17 502.485 403.12 501.435L402.985 501.48L402.76 504H401.14V470.25H403.075V485.325H403.21C404.2 483.915 405.415 482.85 406.855 482.13C408.295 481.38 409.885 481.005 411.625 481.005C413.155 481.005 414.565 481.29 415.855 481.86C417.145 482.43 418.255 483.24 419.185 484.29C420.145 485.31 420.88 486.54 421.39 487.98C421.93 489.39 422.2 490.935 422.2 492.615C422.2 494.355 421.93 495.96 421.39 497.43C420.85 498.87 420.085 500.115 419.095 501.165C418.105 502.215 416.92 503.04 415.54 503.64C414.19 504.21 412.69 504.495 411.04 504.495ZM410.815 502.56C412.255 502.56 413.545 502.32 414.685 501.84C415.825 501.33 416.8 500.64 417.61 499.77C418.45 498.9 419.08 497.865 419.5 496.665C419.95 495.465 420.175 494.13 420.175 492.66C420.175 491.22 419.965 489.9 419.545 488.7C419.125 487.5 418.525 486.48 417.745 485.64C416.965 484.8 416.02 484.14 414.91 483.66C413.83 483.18 412.63 482.94 411.31 482.94C409.6 482.94 408.04 483.345 406.63 484.155C405.22 484.965 404.035 486.165 403.075 487.755V499.14C404.095 500.31 405.265 501.18 406.585 501.75C407.935 502.29 409.345 502.56 410.815 502.56ZM438.457 504.495C436.807 504.495 435.292 504.21 433.912 503.64C432.532 503.04 431.332 502.23 430.312 501.21C429.292 500.16 428.497 498.915 427.927 497.475C427.357 496.035 427.072 494.46 427.072 492.75C427.072 491.07 427.357 489.51 427.927 488.07C428.497 486.6 429.292 485.355 430.312 484.335C431.332 483.285 432.532 482.475 433.912 481.905C435.292 481.305 436.807 481.005 438.457 481.005C440.137 481.005 441.667 481.305 443.047 481.905C444.427 482.475 445.627 483.285 446.647 484.335C447.667 485.355 448.447 486.585 448.987 488.025C449.557 489.465 449.842 491.04 449.842 492.75C449.842 494.43 449.557 496.005 448.987 497.475C448.447 498.915 447.667 500.16 446.647 501.21C445.627 502.23 444.427 503.04 443.047 503.64C441.667 504.21 440.137 504.495 438.457 504.495ZM438.457 502.56C439.837 502.56 441.097 502.32 442.237 501.84C443.377 501.36 444.352 500.685 445.162 499.815C446.002 498.945 446.662 497.91 447.142 496.71C447.622 495.51 447.862 494.19 447.862 492.75C447.862 491.31 447.622 489.99 447.142 488.79C446.662 487.59 446.002 486.555 445.162 485.685C444.352 484.815 443.362 484.14 442.192 483.66C441.052 483.18 439.807 482.94 438.457 482.94C437.137 482.94 435.892 483.18 434.722 483.66C433.582 484.14 432.592 484.815 431.752 485.685C430.942 486.555 430.297 487.59 429.817 488.79C429.337 489.99 429.097 491.31 429.097 492.75C429.097 494.19 429.337 495.51 429.817 496.71C430.297 497.91 430.942 498.945 431.752 499.815C432.592 500.685 433.582 501.36 434.722 501.84C435.892 502.32 437.137 502.56 438.457 502.56ZM456.467 504V481.5H458.087L458.312 484.965H458.447C459.437 483.615 460.547 482.625 461.777 481.995C463.037 481.335 464.447 481.005 466.007 481.005C467.777 481.005 469.277 481.425 470.507 482.265C471.767 483.075 472.697 484.305 473.297 485.955H473.432C474.452 484.275 475.637 483.03 476.987 482.22C478.367 481.41 479.927 481.005 481.667 481.005C484.247 481.005 486.242 481.86 487.652 483.57C489.062 485.25 489.767 487.665 489.767 490.815V504H487.832V491.04C487.832 488.34 487.292 486.315 486.212 484.965C485.132 483.585 483.542 482.895 481.442 482.895C479.792 482.895 478.337 483.315 477.077 484.155C475.847 484.965 474.767 486.24 473.837 487.98C473.927 488.4 473.987 488.85 474.017 489.33C474.047 489.81 474.062 490.305 474.062 490.815V504H472.127V491.04C472.127 488.34 471.587 486.315 470.507 484.965C469.427 483.585 467.837 482.895 465.737 482.895C464.177 482.895 462.782 483.27 461.552 484.02C460.352 484.77 459.302 485.94 458.402 487.53V504H456.467ZM507.148 504.495C505.648 504.495 504.208 504.255 502.828 503.775C501.478 503.265 500.278 502.485 499.228 501.435L499.093 501.48L498.868 504H497.248V470.25H499.183V485.325H499.318C500.308 483.915 501.523 482.85 502.963 482.13C504.403 481.38 505.993 481.005 507.733 481.005C509.263 481.005 510.673 481.29 511.963 481.86C513.253 482.43 514.363 483.24 515.293 484.29C516.253 485.31 516.988 486.54 517.498 487.98C518.038 489.39 518.308 490.935 518.308 492.615C518.308 494.355 518.038 495.96 517.498 497.43C516.958 498.87 516.193 500.115 515.203 501.165C514.213 502.215 513.028 503.04 511.648 503.64C510.298 504.21 508.798 504.495 507.148 504.495ZM506.923 502.56C508.363 502.56 509.653 502.32 510.793 501.84C511.933 501.33 512.908 500.64 513.718 499.77C514.558 498.9 515.188 497.865 515.608 496.665C516.058 495.465 516.283 494.13 516.283 492.66C516.283 491.22 516.073 489.9 515.653 488.7C515.233 487.5 514.633 486.48 513.853 485.64C513.073 484.8 512.128 484.14 511.018 483.66C509.938 483.18 508.738 482.94 507.418 482.94C505.708 482.94 504.148 483.345 502.738 484.155C501.328 484.965 500.143 486.165 499.183 487.755V499.14C500.203 500.31 501.373 501.18 502.693 501.75C504.043 502.29 505.453 502.56 506.923 502.56Z" fill="#6593E9"/>
</svg>
