<svg width="562" height="1010" viewBox="0 0 562 1010" fill="none" xmlns="http://www.w3.org/2000/svg">
<rect width="562" height="1010" fill="#101820"/>
<path d="M137.222 201.902C132.412 201.902 128.034 201.162 124.087 199.682C120.14 198.325 116.749 196.414 113.912 193.947C111.075 191.48 108.855 188.459 107.252 184.882C105.772 181.305 105.032 177.42 105.032 173.227C105.032 168.664 105.895 164.532 107.622 160.832C109.472 157.132 112 153.987 115.207 151.397C118.537 148.807 122.484 146.834 127.047 145.477C131.734 143.997 136.852 143.257 142.402 143.257C146.595 143.257 150.665 143.689 154.612 144.552C158.682 145.292 162.629 146.464 166.452 148.067L167.007 147.882V140.297C167.007 134.377 165.095 129.69 161.272 126.237C157.449 122.784 152.022 121.057 144.992 121.057C140.059 121.057 135.495 122.044 131.302 124.017C127.109 125.99 123.532 128.95 120.572 132.897L109.102 120.687C113.912 115.26 119.462 111.252 125.752 108.662C132.042 105.949 139.01 104.592 146.657 104.592C158.99 104.592 168.549 107.737 175.332 114.027C182.239 120.194 185.692 128.765 185.692 139.742V199.497H170.707L168.302 188.952H167.932C164.232 193.022 159.73 196.229 154.427 198.572C149.247 200.792 143.512 201.902 137.222 201.902ZM142.402 187.102C147.212 187.102 151.59 186.115 155.537 184.142C159.607 182.169 163.43 179.147 167.007 175.077V160.647C163.924 159.537 160.594 158.612 157.017 157.872C153.564 157.132 150.049 156.762 146.472 156.762C139.442 156.762 133.892 158.18 129.822 161.017C125.875 163.854 123.902 167.739 123.902 172.672C123.902 177.112 125.567 180.627 128.897 183.217C132.35 185.807 136.852 187.102 142.402 187.102Z" fill="#6593E9"/>
<path d="M184.905 355.215V447.715H169.735L168.07 436.8H167.33C163.63 440.993 159.313 444.262 154.38 446.605C149.447 448.948 143.773 450.12 137.36 450.12C126.013 450.12 117.195 446.543 110.905 439.39C104.615 432.113 101.47 421.938 101.47 408.865V355.215H120.34V406.83C120.34 415.463 122.067 421.938 125.52 426.255C129.097 430.572 134.4 432.73 141.43 432.73C146.61 432.73 151.235 431.558 155.305 429.215C159.375 426.748 162.952 422.925 166.035 417.745V355.215H184.905Z" fill="#6593E9"/>
<path d="M433.135 201.902C426.845 201.902 421.048 200.73 415.745 198.387C410.442 196.044 405.817 192.775 401.87 188.582C398.047 184.265 395.087 179.147 392.99 173.227C390.893 167.307 389.845 160.77 389.845 153.617C389.845 146.34 390.955 139.68 393.175 133.637C395.395 127.594 398.478 122.475 402.425 118.282C406.372 113.965 411.058 110.635 416.485 108.292C422.035 105.825 428.14 104.592 434.8 104.592C440.473 104.592 445.777 105.455 450.71 107.182C455.643 108.909 460.022 111.56 463.845 115.137L464.585 114.767L466.99 106.997H482.345V199.497H466.99L465.325 187.287H464.585C460.762 192.22 456.137 195.92 450.71 198.387C445.407 200.73 439.548 201.902 433.135 201.902ZM437.39 184.327C442.817 184.327 447.75 183.032 452.19 180.442C456.63 177.852 460.392 174.152 463.475 169.342V132.897C460.392 129.32 456.753 126.669 452.56 124.942C448.49 123.092 443.927 122.167 438.87 122.167C434.43 122.167 430.36 122.969 426.66 124.572C422.96 126.052 419.815 128.149 417.225 130.862C414.635 133.575 412.6 136.844 411.12 140.667C409.64 144.367 408.9 148.56 408.9 153.247C408.9 157.934 409.578 162.189 410.935 166.012C412.415 169.835 414.388 173.104 416.855 175.817C419.322 178.407 422.282 180.504 425.735 182.107C429.188 183.587 433.073 184.327 437.39 184.327Z" fill="#6593E9"/>
<path d="M436.465 432.73C444.112 432.73 450.032 430.51 454.225 426.07C458.418 421.507 460.515 414.353 460.515 404.61V355.215H479.2V409.42C479.2 415.587 478.213 421.198 476.24 426.255C474.267 431.188 471.368 435.443 467.545 439.02C463.845 442.473 459.343 445.187 454.04 447.16C448.86 449.133 443.002 450.12 436.465 450.12C429.928 450.12 424.008 449.133 418.705 447.16C413.525 445.187 409.085 442.473 405.385 439.02C401.685 435.443 398.848 431.188 396.875 426.255C394.902 421.198 393.915 415.587 393.915 409.42V355.215H412.415V404.61C412.415 414.353 414.512 421.507 418.705 426.07C422.898 430.51 428.818 432.73 436.465 432.73Z" fill="#6593E9"/>
<path d="M334.009 137.646C334.985 136.669 334.985 135.086 334.009 134.11L318.099 118.2C317.123 117.224 315.54 117.224 314.563 118.2C313.587 119.177 313.587 120.759 314.563 121.736L328.706 135.878L314.563 150.02C313.587 150.996 313.587 152.579 314.563 153.556C315.54 154.532 317.123 154.532 318.099 153.556L334.009 137.646ZM236.203 135.878V138.378H332.241V135.878V133.378H236.203V135.878Z" fill="#B8CCEA"/>
<path d="M102.765 695.937V603.437H121.45V640.437H140.69L157.155 612.502C158.388 610.158 159.745 608.37 161.225 607.137C162.828 605.78 164.493 604.793 166.22 604.177C167.947 603.437 169.797 603.005 171.77 602.882C173.743 602.758 175.902 602.82 178.245 603.067L186.385 603.437V619.717H181.02C178.183 619.717 175.963 619.963 174.36 620.457C172.757 620.95 171.277 622.368 169.92 624.712L155.675 648.392V649.132L169.92 674.662C171.277 677.005 172.757 678.423 174.36 678.917C175.963 679.41 178.183 679.657 181.02 679.657H186.385V695.937L178.245 696.307C175.902 696.553 173.743 696.615 171.77 696.492C169.797 696.368 167.947 695.998 166.22 695.382C164.493 694.642 162.828 693.655 161.225 692.422C159.745 691.065 158.388 689.215 157.155 686.872L140.875 657.087H121.45V695.937H102.765Z" fill="#6593E9"/>
<path d="M395.765 695.937V603.437H414.45V639.882H431.655L457 603.437H478.09L446.825 648.392V648.762L479.015 695.937H457.925L431.47 657.272H414.45V695.937H395.765Z" fill="#6593E9"/>
<path d="M334.009 631.947C334.985 630.971 334.985 629.388 334.009 628.412L318.099 612.502C317.123 611.526 315.54 611.526 314.563 612.502C313.587 613.478 313.587 615.061 314.563 616.038L328.706 630.18L314.563 644.322C313.587 645.298 313.587 646.881 314.563 647.857C315.54 648.834 317.123 648.834 318.099 647.857L334.009 631.947ZM236.203 630.18V632.68H332.241V630.18V627.68H236.203V630.18Z" fill="#B8CCEA"/>
<path d="M334.009 385.867C334.985 384.891 334.985 383.308 334.009 382.332L318.099 366.422C317.123 365.446 315.54 365.446 314.563 366.422C313.587 367.398 313.587 368.981 314.563 369.957L328.706 384.1L314.563 398.242C313.587 399.218 313.587 400.801 314.563 401.777C315.54 402.754 317.123 402.754 318.099 401.777L334.009 385.867ZM236.203 384.1V386.6H332.241V384.1V381.6H236.203V384.1Z" fill="#B8CCEA"/>
<path d="M75.5105 942.018L100.116 849.518H112.326L138.041 906.313H138.781L164.496 849.518H176.706L201.311 942.018H182.626L167.456 882.078H166.716L142.666 936.283H133.971L109.921 882.078H109.181L94.1955 942.018H75.5105Z" fill="#6593E9"/>
<path d="M395.765 942.018V849.518H412.415L446.64 909.458H447.01L481.235 849.518H497.885V942.018H480.865V880.598H480.495L451.08 932.028H442.57L413.155 880.598H412.785V942.018H395.765Z" fill="#6593E9"/>
<path d="M334.009 879.099C334.985 878.123 334.985 876.54 334.009 875.563L318.099 859.653C317.123 858.677 315.54 858.677 314.563 859.653C313.587 860.63 313.587 862.213 314.563 863.189L328.706 877.331L314.563 891.473C313.587 892.45 313.587 894.032 314.563 895.009C315.54 895.985 317.123 895.985 318.099 895.009L334.009 879.099ZM236.203 877.331V879.831H332.241V877.331V874.831H236.203V877.331Z" fill="#B8CCEA"/>
</svg>
