<svg width="562" height="1169" viewBox="0 0 562 1169" fill="none" xmlns="http://www.w3.org/2000/svg">
<rect width="562" height="1169" fill="#101820"/>
<path d="M137.222 223.324C132.412 223.324 128.034 222.584 124.087 221.104C120.14 219.747 116.749 217.836 113.912 215.369C111.075 212.902 108.855 209.881 107.252 206.304C105.772 202.727 105.032 198.842 105.032 194.649C105.032 190.086 105.895 185.954 107.622 182.254C109.472 178.554 112 175.409 115.207 172.819C118.537 170.229 122.484 168.256 127.047 166.899C131.734 165.419 136.852 164.679 142.402 164.679C146.595 164.679 150.665 165.111 154.612 165.974C158.682 166.714 162.629 167.886 166.452 169.489L167.007 169.304V161.719C167.007 155.799 165.095 151.112 161.272 147.659C157.449 144.206 152.022 142.479 144.992 142.479C140.059 142.479 135.495 143.466 131.302 145.439C127.109 147.412 123.532 150.372 120.572 154.319L109.102 142.109C113.912 136.682 119.462 132.674 125.752 130.084C132.042 127.371 139.01 126.014 146.657 126.014C158.99 126.014 168.549 129.159 175.332 135.449C182.239 141.616 185.692 150.187 185.692 161.164V220.919H170.707L168.302 210.374H167.932C164.232 214.444 159.73 217.651 154.427 219.994C149.247 222.214 143.512 223.324 137.222 223.324ZM142.402 208.524C147.212 208.524 151.59 207.537 155.537 205.564C159.607 203.591 163.43 200.569 167.007 196.499V182.069C163.924 180.959 160.594 180.034 157.017 179.294C153.564 178.554 150.049 178.184 146.472 178.184C139.442 178.184 133.892 179.602 129.822 182.439C125.875 185.276 123.902 189.161 123.902 194.094C123.902 198.534 125.567 202.049 128.897 204.639C132.35 207.229 136.852 208.524 142.402 208.524Z" fill="#6593E9"/>
<path d="M184.905 414.713V507.213H169.735L168.07 496.298H167.33C163.63 500.491 159.313 503.76 154.38 506.103C149.447 508.446 143.773 509.618 137.36 509.618C126.013 509.618 117.195 506.041 110.905 498.888C104.615 491.611 101.47 481.436 101.47 468.363V414.713H120.34V466.328C120.34 474.961 122.067 481.436 125.52 485.753C129.097 490.07 134.4 492.228 141.43 492.228C146.61 492.228 151.235 491.056 155.305 488.713C159.375 486.246 162.952 482.423 166.035 477.243V414.713H184.905Z" fill="#6593E9"/>
<path d="M433.135 223.324C426.845 223.324 421.048 222.152 415.745 219.809C410.442 217.466 405.817 214.197 401.87 210.004C398.047 205.687 395.087 200.569 392.99 194.649C390.893 188.729 389.845 182.192 389.845 175.039C389.845 167.762 390.955 161.102 393.175 155.059C395.395 149.016 398.478 143.897 402.425 139.704C406.372 135.387 411.058 132.057 416.485 129.714C422.035 127.247 428.14 126.014 434.8 126.014C440.473 126.014 445.777 126.877 450.71 128.604C455.643 130.331 460.022 132.982 463.845 136.559L464.585 136.189L466.99 128.419H482.345V220.919H466.99L465.325 208.709H464.585C460.762 213.642 456.137 217.342 450.71 219.809C445.407 222.152 439.548 223.324 433.135 223.324ZM437.39 205.749C442.817 205.749 447.75 204.454 452.19 201.864C456.63 199.274 460.392 195.574 463.475 190.764V154.319C460.392 150.742 456.753 148.091 452.56 146.364C448.49 144.514 443.927 143.589 438.87 143.589C434.43 143.589 430.36 144.391 426.66 145.994C422.96 147.474 419.815 149.571 417.225 152.284C414.635 154.997 412.6 158.266 411.12 162.089C409.64 165.789 408.9 169.982 408.9 174.669C408.9 179.356 409.578 183.611 410.935 187.434C412.415 191.257 414.388 194.526 416.855 197.239C419.322 199.829 422.282 201.926 425.735 203.529C429.188 205.009 433.073 205.749 437.39 205.749Z" fill="#6593E9"/>
<path d="M436.465 492.228C444.112 492.228 450.032 490.008 454.225 485.568C458.418 481.005 460.515 473.851 460.515 464.108V414.713H479.2V468.918C479.2 475.085 478.213 480.696 476.24 485.753C474.267 490.686 471.368 494.941 467.545 498.518C463.845 501.971 459.343 504.685 454.04 506.658C448.86 508.631 443.002 509.618 436.465 509.618C429.928 509.618 424.008 508.631 418.705 506.658C413.525 504.685 409.085 501.971 405.385 498.518C401.685 494.941 398.848 490.686 396.875 485.753C394.902 480.696 393.915 475.085 393.915 468.918V414.713H412.415V464.108C412.415 473.851 414.512 481.005 418.705 485.568C422.898 490.008 428.818 492.228 436.465 492.228Z" fill="#6593E9"/>
<path d="M334.009 159.036C334.985 158.06 334.985 156.477 334.009 155.501L318.099 139.591C317.123 138.615 315.54 138.615 314.563 139.591C313.587 140.567 313.587 142.15 314.563 143.126L328.706 157.269L314.563 171.411C313.587 172.387 313.587 173.97 314.563 174.946C315.54 175.923 317.123 175.923 318.099 174.946L334.009 159.036ZM236.203 157.269V159.769H332.241V157.269V154.769H236.203V157.269Z" fill="#6593E9"/>
<path d="M102.765 794.511V702.011H121.45V739.011H140.69L157.155 711.076C158.388 708.732 159.745 706.944 161.225 705.711C162.828 704.354 164.493 703.367 166.22 702.751C167.947 702.011 169.797 701.579 171.77 701.456C173.743 701.332 175.902 701.394 178.245 701.641L186.385 702.011V718.291H181.02C178.183 718.291 175.963 718.537 174.36 719.031C172.757 719.524 171.277 720.942 169.92 723.286L155.675 746.966V747.706L169.92 773.236C171.277 775.579 172.757 776.997 174.36 777.491C175.963 777.984 178.183 778.231 181.02 778.231H186.385V794.511L178.245 794.881C175.902 795.127 173.743 795.189 171.77 795.066C169.797 794.942 167.947 794.572 166.22 793.956C164.493 793.216 162.828 792.229 161.225 790.996C159.745 789.639 158.388 787.789 157.155 785.446L140.875 755.661H121.45V794.511H102.765Z" fill="#6593E9"/>
<path d="M395.765 794.511V702.011H414.45V738.456H431.655L457 702.011H478.09L446.825 746.966V747.336L479.015 794.511H457.925L431.47 755.846H414.45V794.511H395.765Z" fill="#6593E9"/>
<path d="M334.009 731.154C334.985 730.177 334.985 728.594 334.009 727.618L318.099 711.708C317.123 710.732 315.54 710.732 314.563 711.708C313.587 712.684 313.587 714.267 314.563 715.244L328.706 729.386L314.563 743.528C313.587 744.504 313.587 746.087 314.563 747.063C315.54 748.04 317.123 748.04 318.099 747.063L334.009 731.154ZM236.203 729.386V731.886H332.241V729.386V726.886H236.203V729.386Z" fill="#6593E9"/>
<path d="M334.009 446.334C334.985 445.358 334.985 443.775 334.009 442.799L318.099 426.889C317.123 425.912 315.54 425.912 314.563 426.889C313.587 427.865 313.587 429.448 314.563 430.424L328.706 444.566L314.563 458.709C313.587 459.685 313.587 461.268 314.563 462.244C315.54 463.22 317.123 463.22 318.099 462.244L334.009 446.334ZM236.203 444.566V447.066H332.241V444.566V442.066H236.203V444.566Z" fill="#6593E9"/>
<path d="M75.5105 1080.33L100.116 987.831H112.326L138.041 1044.63H138.781L164.496 987.831H176.706L201.311 1080.33H182.626L167.456 1020.39H166.716L142.666 1074.6H133.971L109.921 1020.39H109.181L94.1955 1080.33H75.5105Z" fill="#6593E9"/>
<path d="M395.765 1080.33V987.831H412.415L446.64 1047.77H447.01L481.235 987.831H497.885V1080.33H480.865V1018.91H480.495L451.08 1070.34H442.57L413.155 1018.91H412.785V1080.33H395.765Z" fill="#6593E9"/>
<path d="M334.009 1017.21C334.985 1016.24 334.985 1014.65 334.009 1013.68L318.099 997.768C317.123 996.791 315.54 996.791 314.563 997.768C313.587 998.744 313.587 1000.33 314.563 1001.3L328.706 1015.45L314.563 1029.59C313.587 1030.56 313.587 1032.15 314.563 1033.12C315.54 1034.1 317.123 1034.1 318.099 1033.12L334.009 1017.21ZM236.203 1015.45V1017.95H332.241V1015.45V1012.95H236.203V1015.45Z" fill="#6593E9"/>
</svg>
