<svg width="1920" height="1080" viewBox="0 0 1920 1080" fill="none" xmlns="http://www.w3.org/2000/svg">
<g clip-path="url(#clip0_47_306)">
<rect width="1920" height="1080" fill="#6E7BD4"/>
<path d="M256.334 477.564V521.429H370.586V477.564H256.334ZM477.579 477.564V521.429H591.831V477.564H477.579ZM920.069 477.564V521.429H1034.32V477.564H920.069ZM698.824 477.564V601.529H813.076V561.86H845.556V633.95H666.344V447.05H845.556V513.8H813.076V477.564H698.824ZM1108.83 447.05H1180.29L1245.25 603.436H1262.44V447.05H1294.92V633.95H1223.47L1158.51 477.564H1141.31V633.95H1108.83V447.05ZM1505.09 633.95H1336.96V447.05H1505.09V477.564H1369.44V521.429H1468.79V552.324H1369.44V601.529H1505.09V633.95ZM256.334 633.95H223.854V447.05H403.066V633.95H370.586V551.943H256.334V633.95ZM887.589 447.05H1066.8V633.95H1034.32V551.943H920.069V633.95H887.589V447.05ZM445.099 633.95V447.05H624.311V551.943H576.547L629.661 633.95H591.449L538.717 551.943H477.579V633.95H445.099ZM178 674H1742V540.5L1608.26 407H178V674Z" fill="white"/>
<line y1="407" x2="1920" y2="407" stroke="#C8C8C8" stroke-width="2"/>
<line y1="674" x2="1920" y2="674" stroke="#C8C8C8" stroke-width="2"/>
<line x1="1741" y1="1080" x2="1741" y2="-4.37115e-08" stroke="#C8C8C8" stroke-width="2"/>
<line x1="177" y1="1080" x2="177" y2="-4.37115e-08" stroke="#C8C8C8" stroke-width="2"/>
<line x1="2123.13" y1="922.545" x2="1063.13" y2="-137.455" stroke="#C8C8C8" stroke-width="2"/>
</g>
<defs>
<clipPath id="clip0_47_306">
<rect width="1920" height="1080" fill="white"/>
</clipPath>
</defs>
</svg>
