<svg width="1920" height="1080" viewBox="0 0 1920 1080" fill="none" xmlns="http://www.w3.org/2000/svg">
<rect width="1920" height="1080" fill="#BEBEBE"/>
<path d="M340.968 336H387.631V382.636H340.968V336ZM421.49 336H468.153V382.636H421.49V336ZM481.176 398.688V442.07H372.656V452.482H433.427V491.526H372.656V507.144H481.176V550.527H325.992V398.688H481.176Z" fill="#187C22"/>
<path d="M507.1 550.527V398.688H661.198V550.527H614.535V444.239H553.763V550.527H507.1Z" fill="#187C22"/>
<path d="M842.345 398.688V442.07H733.824V452.482H794.596V491.526H733.824V507.144H842.345V550.527H687.161V398.688H842.345Z" fill="#187C22"/>
<path d="M854.65 550.527V398.688H950.365C961.506 398.688 970.622 400.062 977.712 402.809C984.802 405.412 990.372 408.883 994.424 413.221C998.62 417.415 1001.44 422.114 1002.89 427.32C1004.48 432.382 1005.28 437.443 1005.28 442.504C1005.28 450.458 1003.39 458.411 999.633 466.365C995.871 474.318 989.866 481.621 981.618 488.273C973.371 494.78 962.664 500.347 949.496 504.975C936.329 509.602 920.268 512.639 901.313 514.085V550.527H854.65ZM902.399 471.353C907.318 471.353 912.961 470.558 919.328 468.967C925.839 467.377 931.989 465.425 937.776 463.111C943.564 460.652 948.411 457.977 952.318 455.085C956.369 452.193 958.395 449.373 958.395 446.625C958.395 444.746 957.889 443.372 956.876 442.504C955.863 441.492 954.561 440.841 952.969 440.552C951.377 440.118 949.641 439.901 947.76 439.901C945.879 439.901 943.998 439.901 942.117 439.901H902.399V471.353Z" fill="#187C22"/>
<path d="M1024.02 550.527V398.688H1070.68V448.578H1137.97V398.688H1184.63V550.527H1137.97V491.96H1070.68V550.527H1024.02Z" fill="#187C22"/>
<path d="M1210.31 398.688H1256.97V436.647C1275.64 439.684 1291.26 443.516 1303.85 448.144C1316.59 452.771 1326.79 458.122 1334.45 464.195C1342.27 470.124 1347.84 476.704 1351.17 483.934C1354.49 491.02 1356.16 498.612 1356.16 506.71C1356.16 511.627 1355.44 516.688 1353.99 521.894C1352.69 527.1 1350.08 531.872 1346.18 536.21C1342.27 540.404 1336.77 543.875 1329.68 546.622C1322.59 549.225 1313.26 550.527 1301.68 550.527H1210.31V398.688ZM1258.06 480.03V509.313H1293.43C1294.59 509.313 1295.75 509.313 1296.91 509.313C1298.21 509.313 1299.37 509.096 1300.38 508.662C1301.39 508.084 1302.26 507.216 1302.98 506.06C1303.71 504.758 1304.07 502.95 1304.07 500.637C1304.07 497.745 1302.26 495.214 1298.64 493.045C1295.17 490.731 1290.97 488.779 1286.05 487.188C1281.14 485.453 1276.07 484.007 1270.86 482.85C1265.65 481.693 1261.38 480.753 1258.06 480.03ZM1374.17 398.688H1420.84V550.527H1374.17V398.688Z" fill="#187C22"/>
<path d="M1438.39 550.527V398.688H1485.05V492.828L1552.34 442.938V398.688H1599V550.527H1552.34V500.637L1485.05 550.527H1438.39ZM1465.95 337.952H1569.05V376.996H1465.95V337.952Z" fill="#187C22"/>
<path d="M321 593.161H487.036V636.544H426.265V745H379.601V636.544H321V593.161Z" fill="#187C22"/>
<path d="M655.614 593.161V636.544H547.093V646.955H607.865V686H547.093V701.617H655.614V745H500.43V593.161H655.614Z" fill="#187C22"/>
<path d="M858.697 745H808.778L798.36 715.283H719.357L708.939 745H659.02L712.195 593.161H805.522L858.697 745ZM769.494 636.544H748.224L734.984 674.07H782.733L769.494 636.544Z" fill="#187C22"/>
<path d="M869.748 593.161H1035.78V636.544H975.012V745H928.349V636.544H869.748V593.161Z" fill="#187C22"/>
<path d="M1051.13 745V593.161H1146.85C1157.99 593.161 1167.1 594.535 1174.19 597.282C1181.28 599.885 1186.85 603.356 1190.9 607.694C1195.1 611.888 1197.92 616.588 1199.37 621.794C1200.96 626.855 1201.76 631.916 1201.76 636.978C1201.76 644.931 1199.88 652.884 1196.11 660.838C1192.35 668.791 1186.35 676.094 1178.1 682.746C1169.85 689.253 1159.14 694.821 1145.98 699.448C1132.81 704.076 1116.75 707.113 1097.79 708.559V745H1051.13ZM1098.88 665.827C1103.8 665.827 1109.44 665.032 1115.81 663.441C1122.32 661.85 1128.47 659.898 1134.26 657.584C1140.04 655.126 1144.89 652.451 1148.8 649.558C1152.85 646.666 1154.88 643.846 1154.88 641.099C1154.88 639.219 1154.37 637.845 1153.36 636.978C1152.34 635.965 1151.04 635.315 1149.45 635.025C1147.86 634.591 1146.12 634.375 1144.24 634.375C1142.36 634.375 1140.48 634.375 1138.6 634.375H1098.88V665.827Z" fill="#187C22"/>
</svg>
