<svg width="1920" height="1080" viewBox="0 0 1920 1080" fill="none" xmlns="http://www.w3.org/2000/svg">
<rect width="1920" height="1080" fill="black"/>
<path d="M76.5809 108.869L89.0167 84H126.324L138.76 108.869V335.458L126.324 360.328H89.0167L76.5809 335.458V108.869ZM120.797 346.511V97.8164H94.5436V346.511H120.797Z" fill="white"/>
<path d="M177.513 360.328V84H239.692V360.328H221.729V97.8164H195.476V360.328H177.513Z" fill="white"/>
<path d="M259.101 360.328V346.511H278.445V108.869L290.881 84H340.624V360.328H322.661V97.8164H296.408V335.458L283.972 360.328H259.101Z" fill="white"/>
<path d="M383.447 84H420.754L433.19 108.869V360.328H415.227V215.256H388.974V360.328H371.012V108.869L383.447 84ZM415.227 201.439V97.8164H388.974V201.439H415.227Z" fill="white"/>
<path d="M462.272 97.8164V84H524.45V97.8164H502.342V360.328H484.379V97.8164H462.272Z" fill="white"/>
<path d="M565.881 84H603.188L615.624 108.869V360.328H597.661V215.256H571.408V360.328H553.445V108.869L565.881 84ZM597.661 201.439V97.8164H571.408V201.439H597.661Z" fill="white"/>
<path d="M755.31 360.328V84H817.488V360.328H799.525V97.8164H773.272V360.328H755.31Z" fill="white"/>
<path d="M905.985 244.27H874.205V360.328H856.242V84H905.985L918.42 108.869V219.401L905.985 244.27ZM874.205 97.8164V230.454H900.458V97.8164H874.205Z" fill="white"/>
<path d="M957.174 108.869L969.61 84H1006.92L1019.35 108.869V335.458L1006.92 360.328H969.61L957.174 335.458V108.869ZM1001.39 346.511V97.8164H975.137V346.511H1001.39Z" fill="white"/>
<path d="M1058.11 335.458V108.869L1070.54 84H1120.28V97.8164H1076.07V201.439H1110.61V215.256H1076.07V346.511H1120.28V360.328H1070.54L1058.11 335.458Z" fill="white"/>
<path d="M1185.25 97.8164H1141.03V84H1190.78L1203.21 108.869V190.386L1192.99 206.966L1203.21 223.545V335.458L1190.78 360.328H1141.03V346.511H1185.25V215.256H1150.7V201.439H1185.25V97.8164Z" fill="white"/>
<path d="M1225.31 346.511H1241.34L1241.89 345.406V108.869L1254.32 84H1304.07V346.511H1319.27V385.197H1301.3V360.328H1243.27V385.197H1225.31V346.511ZM1259.85 332.695L1252.94 346.511H1286.11V97.8164H1259.85V332.695Z" fill="white"/>
<path d="M1355.26 84H1392.56L1405 108.869V360.328H1387.04V215.256H1360.78V360.328H1342.82V108.869L1355.26 84ZM1387.04 201.439V97.8164H1360.78V201.439H1387.04Z" fill="white"/>
<path d="M76.5809 537.237V401.836H94.5436V548.29H120.797V401.836H138.76V653.294L126.324 678.164H89.0167L76.5809 653.294V592.502H94.5436V664.347H120.797V562.106H89.0167L76.5809 537.237Z" fill="white"/>
<path d="M278.445 678.164V401.836H328.188L340.624 426.706V508.222L330.399 524.802L340.624 541.382V653.294L328.188 678.164H278.445ZM322.661 517.894V415.653H296.408V517.894H322.661ZM322.661 664.347V531.71H296.408V664.347H322.661Z" fill="white"/>
<path d="M379.378 426.706L391.813 401.836H429.12L441.556 426.706V653.294L429.12 678.164H391.813L379.378 653.294V426.706ZM423.593 664.347V415.653H397.34V664.347H423.593Z" fill="white"/>
<path d="M463.729 664.347H479.757L480.31 663.242V426.706L492.746 401.836H542.488V664.347H557.688V703.033H539.725V678.164H481.692V703.033H463.729V664.347ZM498.273 650.531L491.364 664.347H524.526V415.653H498.273V650.531Z" fill="white"/>
<path d="M581.242 678.164V401.836H599.205V524.802L625.458 484.734V401.836H643.421V678.164H625.458V509.604L599.205 549.671V678.164H581.242Z" fill="white"/>
<path d="M672.502 415.653V401.836H734.681V415.653H712.573V678.164H694.61V415.653H672.502Z" fill="white"/>
<path d="M763.676 653.294V426.706L776.111 401.836H825.854V415.653H781.638V519.275H816.182V533.092H781.638V664.347H825.854V678.164H776.111L763.676 653.294Z" fill="white"/>
<path d="M835.548 678.164V664.347H854.892V426.706L867.328 401.836H917.071V678.164H899.108V415.653H872.855V653.294L860.419 678.164H835.548Z" fill="white"/>
<path d="M947.459 537.237V426.706L959.894 401.836H1009.64V678.164H991.675V562.106H977.857L962.934 678.164H947.459L962.658 562.106H959.894L947.459 537.237ZM991.675 415.653H965.421V548.29H991.675V415.653Z" fill="white"/>
<path d="M83.4897 996H66.6324L94.2673 733.489H60V719.672H112.783L83.4897 996Z" fill="white"/>
<path d="M123.755 850.928V837.112H174.879V850.928H123.755Z" fill="white"/>
<path d="M199.643 855.073V744.542L212.078 719.672H249.386L261.821 744.542V971.131L249.386 996H212.078L199.643 971.131V910.338H217.605V982.184H243.859V879.942H212.078L199.643 855.073ZM217.605 866.126H243.859V733.489H217.605V866.126Z" fill="white"/>
<path d="M335.119 996H317.156V733.489H283.994V719.672H335.119V996Z" fill="white"/>
<path d="M409.636 733.489H365.42V719.672H415.163L427.598 744.542V826.058L417.373 842.638L427.598 859.218V971.131L415.163 996H365.42V982.184H409.636V850.928H375.092V837.112H409.636V733.489Z" fill="white"/>
<path d="M452.459 850.928V837.112H503.584V850.928H452.459Z" fill="white"/>
<path d="M528.347 855.073V744.542L540.783 719.672H578.09L590.526 744.542V971.131L578.09 996H540.783L528.347 971.131V910.338H546.31V982.184H572.563V879.942H540.783L528.347 855.073ZM546.31 866.126H572.563V733.489H546.31V866.126Z" fill="white"/>
<path d="M641.715 996L629.279 971.131V859.218L639.504 842.638L629.279 826.058V744.542L641.715 719.672H679.022L691.458 744.542V826.058L681.233 842.638L691.458 859.218V971.131L679.022 996H641.715ZM673.495 733.489H647.242V835.73H673.495V733.489ZM647.242 982.184H673.495V849.546H647.242V982.184Z" fill="white"/>
<path d="M716.394 850.928V837.112H767.519V850.928H716.394Z" fill="white"/>
<path d="M804.718 996L792.282 971.131V859.218L802.507 842.638L792.282 826.058V744.542L804.718 719.672H842.025L854.461 744.542V826.058L844.236 842.638L854.461 859.218V971.131L842.025 996H804.718ZM836.498 733.489H810.245V835.73H836.498V733.489ZM810.245 982.184H836.498V849.546H810.245V982.184Z" fill="white"/>
<path d="M893.214 910.338H911.177V982.184H937.43V850.652H905.65L893.214 825.782V719.672H955.117V733.489H911.177V836.835H942.957L955.393 861.705V971.131L942.957 996H905.65L893.214 971.131V910.338Z" fill="white"/>
</svg>
