<svg width="1920" height="1080" viewBox="0 0 1920 1080" fill="none" xmlns="http://www.w3.org/2000/svg">
<rect width="1920" height="1080" fill="#C8C8C8"/>
<path d="M955.719 588.297V455.186H1002.31V475.153L999.423 502.884H1009.18L1032.7 455.186H1080.4L1048.23 519.301L1085.28 588.297H1035.36L1009.18 538.381H999.423L1002.31 566.112V588.297H955.719Z" fill="#FF573F"/>
<path d="M1395.21 436.329H1471.75L1480.62 410.816H1404.08L1395.21 436.329Z" fill="#FF573F"/>
<path d="M1613.51 584.969V544.149H1610.41C1603.01 549.622 1594.43 552.357 1584.67 552.357C1566.92 552.357 1560.27 539.49 1560.27 521.742C1560.27 503.994 1566.92 491.57 1584.67 491.57C1594.58 491.57 1603.23 494.083 1610.63 499.113H1613.51V458.514C1604.49 453.633 1592.66 451.193 1578.01 451.193C1538.08 451.193 1513.23 478.481 1513.23 521.742C1513.23 565.003 1538.08 592.29 1578.01 592.29C1590.59 592.29 1602.42 589.85 1613.51 584.969Z" fill="#FF573F"/>
<path d="M1376.79 588.297H1418.94L1452 525.513H1454.44L1452.22 566.112V588.297H1498.81V455.186H1456.66L1423.6 517.97H1421.16L1423.38 477.371V455.186H1376.79V588.297Z" fill="#FF573F"/>
<path d="M1364.82 553.91C1355.06 553.91 1356.39 549.473 1356.39 540.821V504.215C1356.39 469.828 1341.97 451.858 1296.49 451.858C1277.7 451.858 1263.43 454.447 1253.67 459.623L1252.34 495.341H1253.45C1263.95 490.165 1276.08 487.576 1289.83 487.576C1303.59 487.576 1310.91 493.566 1310.91 503.55V507.543H1288.94C1258.99 507.543 1243.24 524.847 1243.24 549.473C1243.24 574.098 1258.99 591.625 1282.29 591.625C1297.37 591.625 1308.39 584.525 1315.34 570.327H1316.67C1320.52 583.638 1330.95 590.293 1347.96 590.293C1354.91 590.293 1361.78 589.628 1368.59 588.297V553.91H1364.82ZM1310.91 548.585C1308.69 552.876 1305.14 555.019 1300.26 555.019C1292.49 555.019 1288.72 549.695 1288.72 543.705C1288.72 537.715 1292.94 532.168 1303.14 532.168H1310.91V548.585Z" fill="#FF573F"/>
<path d="M1204.19 497.338L1195.76 496.228V492.679L1204.19 491.126C1216.61 485.58 1225.26 473.821 1225.26 457.626C1225.26 429.451 1205.07 410.816 1170.24 410.816H1099.7V588.297H1176.46C1212.17 588.297 1231.7 567.886 1231.7 537.715C1231.7 517.304 1220.83 503.106 1204.19 497.338ZM1147.39 449.64H1156.27C1170.24 449.64 1177.79 456.073 1177.79 465.391C1177.79 474.709 1170.24 482.03 1156.27 482.03H1147.39V449.64ZM1161.15 549.473H1147.39L1147.62 515.308H1161.37C1175.12 515.308 1182.22 522.851 1182.22 532.612C1182.22 542.374 1175.12 549.473 1161.15 549.473Z" fill="#FF573F"/>
<path d="M876.292 451.193C835.249 451.193 811.289 478.481 811.289 521.742C811.289 565.003 835.249 592.29 876.292 592.29C917.334 592.29 941.294 565.003 941.294 521.742C941.294 478.481 917.334 451.193 876.292 451.193ZM876.292 552.357C860.762 552.357 858.322 539.49 858.322 521.742C858.322 503.994 860.762 491.126 876.292 491.126C891.821 491.126 894.261 503.994 894.261 521.742C894.261 539.49 891.821 552.357 876.292 552.357Z" fill="#FF573F"/>
<path d="M783.57 543.927V410.816H659.998L658.667 459.179C657.336 505.103 651.568 534.831 642.028 543.927H629.383V632.002H678.19V588.075H754.729V632.002H803.536V543.927H783.57ZM734.319 543.705H693.498C699.932 531.059 703.481 511.98 703.925 495.341L705.034 455.186H734.319V543.705Z" fill="#FF573F"/>
<path d="M510.158 363H400.479C380.151 363 363.672 379.479 363.672 399.807V540.071C363.672 560.399 380.151 576.878 400.479 576.878H510.158C530.486 576.878 546.965 560.399 546.965 540.071V399.807C546.965 379.479 530.486 363 510.158 363Z" fill="#FFDCD7"/>
<path d="M400.389 576.879L510.068 576.879C530.396 576.879 546.875 560.4 546.875 540.072L546.875 399.808C546.875 379.48 530.396 363.001 510.068 363.001L400.389 363.001C380.061 363.001 363.581 379.48 363.581 399.808L363.581 540.072C363.581 560.4 380.061 576.879 400.389 576.879Z" fill="url(#paint0_linear_337_1372)"/>
<path d="M482.091 541.634L519.941 541.634C521.475 541.634 522.719 540.39 522.719 538.856L522.719 535.961C522.719 534.427 521.475 533.183 519.941 533.183L482.091 533.183C480.557 533.183 479.314 534.427 479.314 535.961L479.314 538.856C479.314 540.39 480.557 541.634 482.091 541.634Z" fill="white"/>
<path d="M481.654 483.007L519.504 483.007C521.038 483.007 522.281 481.763 522.281 480.229L522.281 477.334C522.281 475.8 521.038 474.557 519.504 474.557L481.654 474.557C480.12 474.557 478.876 475.8 478.876 477.334L478.876 480.229C478.876 481.763 480.12 483.007 481.654 483.007Z" fill="white"/>
<path d="M381.715 483.007L402.84 483.007C404.374 483.007 405.617 481.763 405.617 480.229L405.617 477.334C405.617 475.8 404.374 474.557 402.84 474.557L381.715 474.557C380.181 474.557 378.937 475.8 378.937 477.334L378.937 480.229C378.937 481.763 380.181 483.007 381.715 483.007Z" fill="white"/>
<path d="M381.911 541.634L432.957 541.634C434.491 541.634 435.734 540.39 435.734 538.856L435.734 535.961C435.734 534.427 434.491 533.183 432.957 533.183L381.911 533.183C380.377 533.183 379.133 534.427 379.133 535.961L379.133 538.856C379.133 540.39 380.377 541.634 381.911 541.634Z" fill="white"/>
<path d="M433.77 522.09L484.816 522.09C486.35 522.09 487.594 520.847 487.594 519.313L487.594 516.418C487.594 514.884 486.35 513.64 484.816 513.64L433.77 513.64C432.236 513.64 430.993 514.884 430.993 516.418L430.993 519.313C430.993 520.847 432.236 522.09 433.77 522.09Z" fill="white"/>
<path d="M498.816 522.09L519.941 522.09C521.475 522.09 522.719 520.847 522.719 519.313L522.719 516.418C522.719 514.884 521.475 513.64 519.941 513.64L498.816 513.64C497.282 513.64 496.039 514.884 496.039 516.418L496.039 519.313C496.039 520.847 497.282 522.09 498.816 522.09Z" fill="white"/>
<path d="M416.866 522.09L419.761 522.09C421.295 522.09 422.539 520.847 422.539 519.313L422.539 516.418C422.539 514.884 421.295 513.64 419.761 513.64L416.866 513.64C415.332 513.64 414.089 514.884 414.089 516.418L414.089 519.313C414.089 520.847 415.332 522.09 416.866 522.09Z" fill="white"/>
<path d="M381.911 522.09L402.863 522.09C404.397 522.09 405.641 520.847 405.641 519.313L405.641 516.418C405.641 514.884 404.397 513.64 402.863 513.64L381.911 513.64C380.377 513.64 379.134 514.884 379.134 516.418L379.134 519.313C379.134 520.847 380.377 522.09 381.911 522.09Z" fill="white"/>
<path d="M419.542 494.1L381.692 494.1C380.158 494.1 378.914 495.343 378.914 496.877L378.914 499.772C378.914 501.306 380.158 502.55 381.692 502.55L419.542 502.55C421.076 502.55 422.319 501.306 422.319 499.772L422.319 496.877C422.319 495.343 421.076 494.1 419.542 494.1Z" fill="white"/>
<path d="M454.676 494.1L433.551 494.1C432.017 494.1 430.773 495.343 430.773 496.877L430.773 499.772C430.773 501.306 432.017 502.55 433.551 502.55L454.676 502.55C456.21 502.55 457.453 501.306 457.453 499.772L457.453 496.877C457.453 495.343 456.21 494.1 454.676 494.1Z" fill="white"/>
<path d="M519.73 494.1L468.684 494.1C467.15 494.1 465.906 495.343 465.906 496.877L465.906 499.772C465.906 501.306 467.15 502.55 468.684 502.55L519.73 502.55C521.264 502.55 522.507 501.306 522.507 499.772L522.507 496.877C522.507 495.343 521.264 494.1 519.73 494.1Z" fill="white"/>
<path d="M416.763 483.007L467.808 483.007C469.342 483.007 470.586 481.763 470.586 480.229L470.586 477.334C470.586 475.8 469.342 474.557 467.808 474.557L416.763 474.557C415.229 474.557 413.985 475.8 413.985 477.334L413.985 480.229C413.985 481.763 415.229 483.007 416.763 483.007Z" fill="white"/>
<path d="M446.801 541.634L467.926 541.634C469.46 541.634 470.703 540.39 470.703 538.856L470.703 535.961C470.703 534.427 469.46 533.183 467.926 533.183L446.801 533.183C445.267 533.183 444.023 534.427 444.023 535.961L444.023 538.856C444.023 540.39 445.267 541.634 446.801 541.634Z" fill="white"/>
<path d="M516.499 463.464L519.394 463.464C520.928 463.464 522.172 462.22 522.172 460.686L522.172 457.791C522.172 456.257 520.928 455.014 519.394 455.014L516.499 455.014C514.965 455.014 513.722 456.257 513.722 457.791L513.722 460.686C513.722 462.22 514.965 463.464 516.499 463.464Z" fill="white"/>
<path d="M481.536 463.464L502.488 463.464C504.022 463.464 505.266 462.22 505.266 460.686L505.266 457.791C505.266 456.257 504.022 455.014 502.488 455.014L481.536 455.014C480.002 455.014 478.759 456.257 478.759 457.791L478.759 460.686C478.759 462.22 480.002 463.464 481.536 463.464Z" fill="white"/>
<path d="M465.085 463.464L467.98 463.464C469.514 463.464 470.758 462.22 470.758 460.686L470.758 457.791C470.758 456.257 469.514 455.014 467.98 455.014L465.085 455.014C463.551 455.014 462.307 456.257 462.307 457.791L462.307 460.686C462.307 462.22 463.551 463.464 465.085 463.464Z" fill="white"/>
<path d="M381.806 463.464L451.082 463.464C452.616 463.464 453.859 462.22 453.859 460.686L453.859 457.791C453.859 456.257 452.616 455.014 451.082 455.014L381.806 455.014C380.272 455.014 379.029 456.257 379.029 457.791L379.029 460.686C379.029 462.22 380.272 463.464 381.806 463.464Z" fill="white"/>
<path d="M452.486 422.013H342.807C322.479 422.013 306 438.492 306 458.82V599.083C306 619.412 322.479 635.891 342.807 635.891H452.486C472.814 635.891 489.294 619.412 489.294 599.083V458.82C489.294 438.492 472.814 422.013 452.486 422.013Z" fill="#FFDCD7"/>
<path d="M342.811 635.78L452.49 635.78C472.818 635.78 489.297 619.301 489.297 598.973L489.297 458.71C489.297 438.381 472.818 421.902 452.49 421.902L342.811 421.902C322.483 421.902 306.003 438.381 306.003 458.71L306.003 598.973C306.003 619.301 322.482 635.78 342.811 635.78Z" fill="url(#paint1_linear_337_1372)"/>
<path d="M428.966 600.535L466.816 600.535C468.35 600.535 469.594 599.291 469.594 597.757L469.594 594.862C469.594 593.328 468.35 592.084 466.816 592.084L428.966 592.084C427.432 592.084 426.189 593.328 426.189 594.862L426.189 597.757C426.189 599.291 427.432 600.535 428.966 600.535Z" fill="white"/>
<path d="M428.521 541.908L466.371 541.908C467.905 541.908 469.148 540.664 469.148 539.13L469.148 536.235C469.148 534.701 467.905 533.458 466.371 533.458L428.521 533.458C426.987 533.458 425.743 534.701 425.743 536.235L425.743 539.13C425.743 540.664 426.987 541.908 428.521 541.908Z" fill="white"/>
<path d="M328.59 541.908L349.715 541.908C351.249 541.908 352.492 540.664 352.492 539.13L352.492 536.235C352.492 534.701 351.249 533.458 349.715 533.458L328.59 533.458C327.056 533.458 325.812 534.701 325.812 536.235L325.812 539.13C325.812 540.664 327.056 541.908 328.59 541.908Z" fill="white"/>
<path d="M328.786 600.535L379.832 600.535C381.366 600.535 382.609 599.291 382.609 597.757L382.609 594.862C382.609 593.328 381.366 592.084 379.832 592.084L328.786 592.084C327.252 592.084 326.008 593.328 326.008 594.862L326.008 597.757C326.008 599.291 327.252 600.535 328.786 600.535Z" fill="white"/>
<path d="M380.645 580.994L431.691 580.994C433.225 580.994 434.469 579.751 434.469 578.217L434.469 575.322C434.469 573.788 433.225 572.544 431.691 572.544L380.645 572.544C379.111 572.544 377.868 573.788 377.868 575.322L377.868 578.217C377.868 579.751 379.111 580.994 380.645 580.994Z" fill="white"/>
<path d="M445.691 580.994L466.816 580.994C468.35 580.994 469.594 579.751 469.594 578.217L469.594 575.322C469.594 573.788 468.35 572.544 466.816 572.544L445.691 572.544C444.157 572.544 442.914 573.788 442.914 575.322L442.914 578.217C442.914 579.751 444.157 580.994 445.691 580.994Z" fill="white"/>
<path d="M363.734 580.994L366.629 580.994C368.163 580.994 369.406 579.751 369.406 578.217L369.406 575.322C369.406 573.788 368.163 572.544 366.629 572.544L363.734 572.544C362.199 572.544 360.956 573.788 360.956 575.322L360.956 578.217C360.956 579.751 362.199 580.994 363.734 580.994Z" fill="white"/>
<path d="M328.786 580.994L349.738 580.994C351.272 580.994 352.516 579.751 352.516 578.217L352.516 575.322C352.516 573.788 351.272 572.544 349.738 572.544L328.786 572.544C327.252 572.544 326.009 573.788 326.009 575.322L326.009 578.217C326.009 579.751 327.252 580.994 328.786 580.994Z" fill="white"/>
<path d="M366.417 553L328.567 553C327.033 553 325.789 554.244 325.789 555.778L325.789 558.673C325.789 560.207 327.033 561.451 328.567 561.451L366.417 561.451C367.951 561.451 369.194 560.207 369.194 558.673L369.194 555.778C369.194 554.244 367.951 553 366.417 553Z" fill="white"/>
<path d="M401.543 553L380.418 553C378.884 553 377.641 554.244 377.641 555.778L377.641 558.673C377.641 560.207 378.884 561.451 380.418 561.451L401.543 561.451C403.077 561.451 404.32 560.207 404.32 558.673L404.32 555.778C404.32 554.244 403.077 553 401.543 553Z" fill="white"/>
<path d="M466.597 553L415.551 553C414.017 553 412.773 554.244 412.773 555.778L412.773 558.673C412.773 560.207 414.017 561.451 415.551 561.451L466.597 561.451C468.131 561.451 469.374 560.207 469.374 558.673L469.374 555.778C469.374 554.244 468.131 553 466.597 553Z" fill="white"/>
<path d="M363.63 541.908L414.676 541.908C416.21 541.908 417.453 540.664 417.453 539.13L417.453 536.235C417.453 534.701 416.21 533.458 414.676 533.458L363.63 533.458C362.096 533.458 360.852 534.701 360.852 536.235L360.852 539.13C360.852 540.664 362.096 541.908 363.63 541.908Z" fill="white"/>
<path d="M393.66 600.535L414.785 600.535C416.319 600.535 417.563 599.291 417.563 597.757L417.563 594.862C417.563 593.328 416.319 592.084 414.785 592.084L393.66 592.084C392.126 592.084 390.883 593.328 390.883 594.862L390.883 597.757C390.883 599.291 392.126 600.535 393.66 600.535Z" fill="white"/>
<path d="M463.366 522.367L466.261 522.367C467.795 522.367 469.039 521.124 469.039 519.59L469.039 516.695C469.039 515.161 467.795 513.917 466.261 513.917L463.366 513.917C461.832 513.917 460.589 515.161 460.589 516.695L460.589 519.59C460.589 521.124 461.832 522.367 463.366 522.367Z" fill="white"/>
<path d="M428.411 522.367L449.363 522.367C450.897 522.367 452.141 521.124 452.141 519.59L452.141 516.695C452.141 515.161 450.897 513.917 449.363 513.917L428.411 513.917C426.877 513.917 425.634 515.161 425.634 516.695L425.634 519.59C425.634 521.124 426.877 522.367 428.411 522.367Z" fill="white"/>
<path d="M411.952 522.367L414.847 522.367C416.381 522.367 417.625 521.124 417.625 519.59L417.625 516.695C417.625 515.161 416.381 513.917 414.847 513.917L411.952 513.917C410.418 513.917 409.175 515.161 409.175 516.695L409.175 519.59C409.175 521.124 410.418 522.367 411.952 522.367Z" fill="white"/>
<path d="M328.674 522.367L397.949 522.367C399.483 522.367 400.727 521.124 400.727 519.59L400.727 516.695C400.727 515.161 399.483 513.917 397.949 513.917L328.674 513.917C327.14 513.917 325.896 515.161 325.896 516.695L325.896 519.59C325.896 521.124 327.14 522.367 328.674 522.367Z" fill="white"/>
<path d="M327.672 707.326C324.781 707.326 322.175 706.837 319.855 705.861C317.553 704.885 315.596 703.525 313.986 701.782C312.376 700.039 311.138 698 310.273 695.664C309.424 693.311 309 690.783 309 688.081C309 684.298 309.77 680.969 311.311 678.093C312.869 675.199 314.999 672.942 317.7 671.321C320.401 669.7 323.482 668.889 326.945 668.889C328.191 668.889 329.395 668.985 330.555 669.177C331.715 669.368 332.805 669.621 333.827 669.935C334.848 670.249 335.783 670.589 336.631 670.955C337.497 671.303 338.233 671.652 338.839 672.001L338.527 674.668C337.177 673.883 335.852 673.256 334.554 672.785C333.273 672.297 332 671.94 330.736 671.713C329.49 671.486 328.261 671.373 327.049 671.373C324.054 671.373 321.396 672.062 319.076 673.439C316.774 674.816 314.964 676.759 313.649 679.269C312.35 681.78 311.701 684.734 311.701 688.133C311.701 690.452 312.038 692.622 312.714 694.644C313.389 696.666 314.402 698.444 315.752 699.978C317.102 701.495 318.782 702.689 320.79 703.56C322.798 704.432 325.118 704.868 327.75 704.868C328.668 704.868 329.576 704.815 330.477 704.711C331.394 704.589 332.295 704.414 333.178 704.188C334.078 703.944 334.952 703.63 335.8 703.247C336.649 702.846 337.462 702.366 338.242 701.808L338.579 704.475C337.852 704.964 337.056 705.391 336.19 705.757C335.324 706.123 334.424 706.419 333.489 706.646C332.554 706.872 331.593 707.038 330.607 707.142C329.637 707.264 328.659 707.326 327.672 707.326Z" fill="#FF573F"/>
<path d="M357.721 707.326C354.778 707.326 352.345 706.742 350.424 705.574C348.502 704.388 347.065 702.776 346.113 700.736C345.161 698.679 344.684 696.335 344.684 693.703C344.684 691.123 345.161 688.831 346.113 686.826C347.065 684.821 348.407 683.253 350.138 682.12C351.887 680.986 353.93 680.42 356.267 680.42C358.327 680.42 360.11 680.847 361.616 681.701C363.14 682.555 364.309 683.802 365.122 685.44C365.953 687.061 366.369 689.022 366.369 691.323C366.369 691.933 366.352 692.491 366.317 692.997C366.3 693.502 366.248 694.008 366.161 694.513L364.032 692.945C364.066 692.666 364.084 692.395 364.084 692.134C364.084 691.872 364.084 691.62 364.084 691.376C364.084 688.412 363.365 686.216 361.928 684.787C360.508 683.357 358.639 682.642 356.319 682.642C354.362 682.642 352.7 683.113 351.333 684.054C349.965 684.978 348.917 686.268 348.19 687.924C347.48 689.563 347.126 691.437 347.126 693.546V693.807C347.126 696.091 347.515 698.078 348.294 699.769C349.073 701.442 350.251 702.732 351.826 703.639C353.401 704.545 355.41 704.998 357.851 704.998C358.734 704.998 359.625 704.937 360.526 704.815C361.426 704.676 362.309 704.467 363.175 704.188C364.04 703.891 364.88 703.508 365.694 703.037L365.849 705.469C365.192 705.853 364.43 706.184 363.564 706.463C362.716 706.742 361.79 706.951 360.785 707.09C359.799 707.247 358.777 707.326 357.721 707.326ZM345.801 694.513V692.526L364.551 692.474L366.161 692.892V694.513H345.801Z" fill="#FF573F"/>
<path d="M373.761 717C373.761 715.03 373.761 713.121 373.761 711.274C373.761 709.443 373.761 707.465 373.761 705.338V692.683C373.761 690.8 373.761 688.866 373.761 686.878C373.761 684.891 373.761 682.921 373.761 680.969L376.046 680.76L376.072 684.054H376.436C376.938 683.444 377.604 682.86 378.435 682.303C379.266 681.745 380.219 681.292 381.292 680.943C382.383 680.594 383.569 680.42 384.85 680.42C387.239 680.42 389.291 681.004 391.005 682.172C392.719 683.322 394.026 684.909 394.926 686.931C395.826 688.935 396.276 691.227 396.276 693.807C396.276 696.23 395.852 698.47 395.004 700.527C394.173 702.567 392.918 704.214 391.238 705.469C389.559 706.707 387.464 707.326 384.954 707.326C383.742 707.326 382.625 707.169 381.604 706.855C380.582 706.559 379.647 706.114 378.799 705.521C377.951 704.911 377.18 704.179 376.488 703.325H376.176V705.417C376.176 707.491 376.176 709.426 376.176 711.221C376.176 713.034 376.176 714.917 376.176 716.869L373.761 717ZM384.564 704.972C386.728 704.972 388.494 704.449 389.862 703.403C391.23 702.34 392.225 700.963 392.848 699.272C393.489 697.564 393.809 695.742 393.809 693.807C393.809 691.785 393.472 689.946 392.796 688.29C392.121 686.617 391.091 685.283 389.706 684.29C388.338 683.279 386.59 682.773 384.46 682.773C383.37 682.773 382.313 682.93 381.292 683.244C380.288 683.558 379.344 684.037 378.461 684.682C377.578 685.309 376.817 686.103 376.176 687.061V700.03C376.817 701.076 377.544 701.965 378.357 702.697C379.171 703.43 380.089 703.996 381.11 704.397C382.149 704.781 383.3 704.972 384.564 704.972Z" fill="#FF573F"/>
<path d="M403.991 706.829C403.991 704.876 403.991 702.994 403.991 701.181C403.991 699.368 403.991 697.407 403.991 695.298V692.683C403.991 691.236 403.991 689.868 403.991 688.578C403.991 687.271 403.991 685.998 403.991 684.76C403.991 683.523 403.991 682.259 403.991 680.969C405.393 680.969 407.107 680.969 409.133 680.969C411.158 680.969 413.08 680.969 414.898 680.969C416.785 680.969 418.309 681.222 419.469 681.727C420.629 682.233 421.468 682.948 421.988 683.871C422.524 684.778 422.793 685.859 422.793 687.114C422.793 688.77 422.369 690.112 421.52 691.14C420.672 692.151 419.616 692.857 418.352 693.258V693.546C419.166 693.668 419.979 693.947 420.793 694.383C421.607 694.801 422.282 695.446 422.819 696.318C423.355 697.189 423.624 698.357 423.624 699.821C423.624 701.111 423.338 702.288 422.767 703.351C422.213 704.397 421.2 705.242 419.728 705.887C418.257 706.515 416.162 706.829 413.444 706.829C411.591 706.829 409.834 706.829 408.172 706.829C406.527 706.829 405.134 706.829 403.991 706.829ZM406.354 704.711H413.392C415.417 704.711 416.993 704.51 418.118 704.109C419.244 703.708 420.031 703.133 420.481 702.384C420.932 701.617 421.157 700.71 421.157 699.664C421.157 697.782 420.542 696.474 419.313 695.742C418.084 695.01 416.309 694.644 413.989 694.644H405.757V692.605H413.548C415.296 692.605 416.655 692.378 417.625 691.925C418.612 691.454 419.304 690.827 419.702 690.042C420.118 689.258 420.326 688.404 420.326 687.48C420.326 685.824 419.815 684.682 418.793 684.054C417.789 683.409 416.37 683.087 414.534 683.087H406.354C406.354 684.691 406.354 686.242 406.354 687.741C406.354 689.223 406.354 690.844 406.354 692.605V695.219C406.354 696.945 406.354 698.557 406.354 700.057C406.354 701.556 406.354 703.107 406.354 704.711Z" fill="#FF573F"/>
<path d="M431.076 706.829C431.076 704.876 431.076 703.002 431.076 701.207C431.076 699.394 431.076 697.424 431.076 695.298V692.683C431.076 691.236 431.076 689.868 431.076 688.578C431.076 687.288 431.076 686.024 431.076 684.787C431.076 683.531 431.076 682.259 431.076 680.969L433.439 680.864C433.439 682.154 433.439 683.418 433.439 684.656C433.439 685.893 433.439 687.157 433.439 688.447C433.439 689.72 433.439 691.088 433.439 692.552V702.828H433.725L440.347 693.258C441.767 691.219 443.187 689.162 444.606 687.088C446.043 685.013 447.463 682.974 448.865 680.969H451.28C451.28 682.259 451.28 683.531 451.28 684.787C451.28 686.024 451.28 687.288 451.28 688.578C451.28 689.868 451.28 691.236 451.28 692.683V695.298C451.28 697.424 451.28 699.394 451.28 701.207C451.28 703.002 451.28 704.876 451.28 706.829H448.917C448.917 704.876 448.917 703.002 448.917 701.207C448.917 699.412 448.917 697.459 448.917 695.35V684.943H448.631L442.035 694.435C440.616 696.509 439.187 698.584 437.75 700.658C436.331 702.715 434.911 704.772 433.491 706.829H431.076Z" fill="#FF573F"/>
<path d="M471.685 707.326C468.967 707.326 466.656 706.733 464.751 705.547C462.864 704.345 461.427 702.732 460.44 700.71C459.453 698.671 458.96 696.387 458.96 693.86C458.96 691.315 459.445 689.031 460.414 687.009C461.384 684.97 462.777 683.366 464.595 682.198C466.431 681.013 468.638 680.42 471.218 680.42C472.204 680.42 473.174 680.507 474.126 680.681C475.096 680.856 476.005 681.1 476.853 681.414C477.701 681.71 478.454 682.05 479.112 682.433L478.827 684.891C477.857 684.333 476.931 683.898 476.048 683.584C475.182 683.27 474.36 683.052 473.581 682.93C472.819 682.808 472.092 682.747 471.399 682.747C468.387 682.747 465.963 683.749 464.128 685.754C462.31 687.741 461.401 690.434 461.401 693.834C461.401 695.925 461.791 697.817 462.57 699.507C463.349 701.181 464.509 702.514 466.05 703.508C467.608 704.502 469.564 704.998 471.919 704.998C472.715 704.998 473.503 704.929 474.282 704.789C475.078 704.632 475.857 704.414 476.619 704.136C477.398 703.839 478.151 703.464 478.879 703.011L479.242 705.469C478.705 705.783 478.056 706.088 477.294 706.384C476.533 706.663 475.676 706.89 474.723 707.064C473.789 707.238 472.776 707.326 471.685 707.326Z" fill="#FF573F"/>
<path d="M513.88 706.437C513.88 705.164 513.88 703.953 513.88 702.802C513.88 701.634 513.88 700.449 513.88 699.246C513.88 698.026 513.88 696.71 513.88 695.298V692.683C513.88 691.254 513.88 689.92 513.88 688.682C513.88 687.445 513.88 686.233 513.88 685.048C513.88 683.863 513.88 682.634 513.88 681.361L515.127 683.113H500.74L501.831 681.361C501.761 682.477 501.692 683.575 501.623 684.656C501.554 685.719 501.476 686.843 501.389 688.029C501.32 689.214 501.242 690.556 501.155 692.055C501.052 693.799 500.844 695.481 500.532 697.102C500.238 698.723 499.831 700.222 499.312 701.599C498.81 702.959 498.169 704.153 497.39 705.181L494.923 704.842C495.442 704.301 495.97 703.508 496.507 702.462C497.061 701.416 497.554 700.013 497.987 698.252C498.437 696.474 498.758 694.226 498.948 691.506C499.087 689.223 499.208 687.288 499.312 685.702C499.415 684.098 499.519 682.52 499.623 680.969H516.27C516.27 682.259 516.27 683.531 516.27 684.787C516.27 686.024 516.27 687.288 516.27 688.578C516.27 689.868 516.27 691.236 516.27 692.683V695.298C516.27 697.424 516.27 699.342 516.27 701.05C516.27 702.741 516.27 704.536 516.27 706.437H513.88ZM492.352 714.15C492.352 713.383 492.352 712.607 492.352 711.823C492.352 711.056 492.352 710.289 492.352 709.522C492.352 708.72 492.352 707.909 492.352 707.09C492.352 706.288 492.352 705.486 492.352 704.685C493.927 704.685 495.529 704.685 497.156 704.685C498.784 704.685 500.359 704.685 501.883 704.685H510.712C512.253 704.685 513.837 704.685 515.465 704.685C517.092 704.685 518.693 704.685 520.269 704.685C520.269 705.486 520.269 706.288 520.269 707.09C520.269 707.909 520.269 708.72 520.269 709.522C520.269 710.289 520.269 711.056 520.269 711.823C520.269 712.607 520.269 713.383 520.269 714.15H518.087L517.958 706.437L518.763 706.829H493.832L494.663 706.437L494.533 714.15H492.352Z" fill="#FF573F"/>
<path d="M525.196 707.221C525.006 707.221 524.789 707.212 524.547 707.195C524.322 707.177 524.08 707.151 523.82 707.116C523.577 707.081 523.335 707.038 523.093 706.986L523.326 704.711C523.621 704.781 523.924 704.833 524.235 704.868C524.547 704.903 524.781 704.92 524.936 704.92C525.975 704.92 526.806 704.519 527.43 703.717C528.053 702.898 528.538 701.826 528.884 700.501C529.23 699.159 529.481 697.695 529.637 696.108C529.81 694.522 529.949 692.962 530.052 691.428C530.174 689.685 530.295 687.933 530.416 686.172C530.537 684.412 530.65 682.677 530.754 680.969H547.244C547.244 682.259 547.244 683.531 547.244 684.787C547.244 686.024 547.244 687.288 547.244 688.578C547.244 689.868 547.244 691.236 547.244 692.683V695.298C547.244 697.424 547.244 699.394 547.244 701.207C547.244 703.002 547.244 704.876 547.244 706.829H544.829C544.829 704.876 544.829 703.002 544.829 701.207C544.829 699.394 544.829 697.424 544.829 695.298V692.683C544.829 691.254 544.829 689.92 544.829 688.682C544.829 687.445 544.829 686.233 544.829 685.048C544.829 683.863 544.829 682.634 544.829 681.361L546.257 683.113H531.585L532.987 681.361C532.9 682.529 532.814 683.715 532.727 684.917C532.658 686.12 532.58 687.332 532.494 688.552C532.424 689.755 532.338 690.983 532.234 692.239C532.113 694.104 531.94 695.925 531.715 697.703C531.507 699.481 531.169 701.094 530.702 702.541C530.234 703.97 529.559 705.112 528.676 705.966C527.81 706.803 526.65 707.221 525.196 707.221Z" fill="#FF573F"/>
<path d="M554.275 706.829C555.261 705.591 556.24 704.353 557.209 703.116C558.196 701.878 559.166 700.658 560.118 699.455L564.143 694.383L563.935 695.821C561.702 695.821 559.936 695.516 558.638 694.906C557.339 694.278 556.413 693.424 555.859 692.343C555.305 691.262 555.028 690.033 555.028 688.656C555.028 686.931 555.374 685.501 556.067 684.368C556.776 683.235 557.832 682.39 559.235 681.832C560.637 681.257 562.386 680.969 564.481 680.969C565.571 680.969 566.705 680.969 567.883 680.969C569.06 680.969 570.168 680.969 571.207 680.969C572.263 680.969 573.137 680.969 573.83 680.969C573.83 682.259 573.83 683.531 573.83 684.787C573.83 686.024 573.83 687.288 573.83 688.578C573.83 689.868 573.83 691.236 573.83 692.683V695.298C573.83 697.424 573.83 699.394 573.83 701.207C573.83 703.002 573.83 704.876 573.83 706.829H571.466C571.466 705.609 571.466 704.432 571.466 703.299C571.466 702.166 571.466 701.007 571.466 699.821C571.466 698.636 571.466 697.39 571.466 696.082V692.683C571.466 690.94 571.466 689.301 571.466 687.767C571.466 686.216 571.466 684.656 571.466 683.087H564.636C563.58 683.087 562.498 683.218 561.39 683.479C560.282 683.723 559.356 684.255 558.612 685.074C557.867 685.876 557.495 687.105 557.495 688.761C557.495 690.086 557.746 691.114 558.248 691.846C558.767 692.578 559.417 693.101 560.196 693.415C560.975 693.729 561.797 693.921 562.663 693.99C563.528 694.06 564.316 694.095 565.026 694.095H571.96V696.056H564.948L566.532 694.932L562.871 699.586C561.953 700.789 561.018 702 560.066 703.22C559.114 704.441 558.17 705.643 557.235 706.829H554.275Z" fill="#FF573F"/>
<path d="M593.182 717C593.182 715.03 593.182 713.121 593.182 711.274C593.182 709.443 593.182 707.465 593.182 705.338V692.683C593.182 690.8 593.182 688.866 593.182 686.878C593.182 684.891 593.182 682.921 593.182 680.969L595.467 680.76L595.493 684.054H595.857C596.359 683.444 597.026 682.86 597.857 682.303C598.688 681.745 599.64 681.292 600.713 680.943C601.804 680.594 602.99 680.42 604.271 680.42C606.66 680.42 608.712 681.004 610.426 682.172C612.14 683.322 613.447 684.909 614.347 686.931C615.247 688.935 615.698 691.227 615.698 693.807C615.698 696.23 615.273 698.47 614.425 700.527C613.594 702.567 612.339 704.214 610.66 705.469C608.98 706.707 606.885 707.326 604.375 707.326C603.163 707.326 602.046 707.169 601.025 706.855C600.003 706.559 599.069 706.114 598.22 705.521C597.372 704.911 596.601 704.179 595.909 703.325H595.597V705.417C595.597 707.491 595.597 709.426 595.597 711.221C595.597 713.034 595.597 714.917 595.597 716.869L593.182 717ZM603.985 704.972C606.149 704.972 607.915 704.449 609.283 703.403C610.651 702.34 611.646 700.963 612.27 699.272C612.91 697.564 613.231 695.742 613.231 693.807C613.231 691.785 612.893 689.946 612.218 688.29C611.542 686.617 610.512 685.283 609.127 684.29C607.76 683.279 606.011 682.773 603.882 682.773C602.791 682.773 601.735 682.93 600.713 683.244C599.709 683.558 598.766 684.037 597.883 684.682C597 685.309 596.238 686.103 595.597 687.061V700.03C596.238 701.076 596.965 701.965 597.779 702.697C598.592 703.43 599.51 703.996 600.531 704.397C601.57 704.781 602.722 704.972 603.985 704.972Z" fill="#FF573F"/>
<path d="M629.775 707.326C628.147 707.326 626.745 707.029 625.568 706.437C624.408 705.826 623.516 704.981 622.893 703.9C622.269 702.819 621.958 701.547 621.958 700.083C621.958 698.706 622.209 697.555 622.711 696.631C623.23 695.69 623.897 694.932 624.711 694.356C625.524 693.764 626.416 693.302 627.385 692.971C628.355 692.639 629.299 692.378 630.216 692.186L638.916 690.434C639.002 688.238 638.751 686.591 638.163 685.493C637.574 684.377 636.76 683.636 635.722 683.27C634.7 682.904 633.575 682.721 632.346 682.721C631.757 682.721 631.125 682.764 630.45 682.852C629.792 682.921 629.091 683.043 628.346 683.218C627.602 683.375 626.805 683.592 625.957 683.871C625.109 684.133 624.2 684.464 623.23 684.865L623.049 682.459C623.672 682.181 624.364 681.919 625.126 681.675C625.905 681.431 626.71 681.213 627.541 681.021C628.39 680.83 629.247 680.681 630.112 680.577C630.978 680.472 631.818 680.42 632.631 680.42C634.38 680.42 635.903 680.716 637.202 681.309C638.5 681.902 639.496 682.843 640.188 684.133C640.898 685.423 641.253 687.088 641.253 689.127C641.253 689.929 641.253 690.949 641.253 692.186C641.253 693.424 641.253 694.627 641.253 695.795V699.507C641.253 700.606 641.253 701.747 641.253 702.933C641.253 704.118 641.253 705.417 641.253 706.829H638.994L638.942 702.802H638.578C638.007 703.586 637.271 704.327 636.371 705.025C635.488 705.704 634.484 706.262 633.358 706.698C632.233 707.116 631.038 707.326 629.775 707.326ZM630.164 705.051C631.22 705.051 632.294 704.85 633.384 704.449C634.475 704.048 635.497 703.421 636.449 702.567C637.401 701.695 638.206 700.571 638.864 699.194L638.89 692.108C638.578 692.265 638.163 692.439 637.643 692.631C637.124 692.805 636.345 693.014 635.306 693.258C634.267 693.502 632.822 693.799 630.969 694.147C629.775 694.374 628.684 694.705 627.697 695.141C626.71 695.577 625.914 696.187 625.308 696.971C624.719 697.756 624.425 698.758 624.425 699.978C624.425 701.826 624.962 703.133 626.035 703.9C627.126 704.667 628.502 705.051 630.164 705.051Z" fill="#FF573F"/>
<path d="M661.333 707.326C658.615 707.326 656.303 706.733 654.399 705.547C652.512 704.345 651.075 702.732 650.088 700.71C649.101 698.671 648.608 696.387 648.608 693.86C648.608 691.315 649.093 689.031 650.062 687.009C651.032 684.97 652.425 683.366 654.243 682.198C656.078 681.013 658.286 680.42 660.865 680.42C661.852 680.42 662.822 680.507 663.774 680.681C664.743 680.856 665.652 681.1 666.501 681.414C667.349 681.71 668.102 682.05 668.76 682.433L668.474 684.891C667.505 684.333 666.579 683.898 665.696 683.584C664.83 683.27 664.008 683.052 663.228 682.93C662.467 682.808 661.74 682.747 661.047 682.747C658.035 682.747 655.611 683.749 653.776 685.754C651.958 687.741 651.049 690.434 651.049 693.834C651.049 695.925 651.438 697.817 652.217 699.507C652.997 701.181 654.157 702.514 655.697 703.508C657.256 704.502 659.212 704.998 661.566 704.998C662.363 704.998 663.151 704.929 663.93 704.789C664.726 704.632 665.505 704.414 666.267 704.136C667.046 703.839 667.799 703.464 668.526 703.011L668.89 705.469C668.353 705.783 667.704 706.088 666.942 706.384C666.18 706.663 665.323 706.89 664.371 707.064C663.436 707.238 662.423 707.326 661.333 707.326Z" fill="#FF573F"/>
<path d="M676.162 706.829C676.162 704.876 676.162 703.002 676.162 701.207C676.162 699.394 676.162 697.424 676.162 695.298V692.683C676.162 691.236 676.162 689.868 676.162 688.578C676.162 687.288 676.162 686.024 676.162 684.787C676.162 683.531 676.162 682.259 676.162 680.969H696.081C696.081 682.259 696.081 683.531 696.081 684.787C696.081 686.024 696.081 687.288 696.081 688.578C696.081 689.868 696.081 691.236 696.081 692.683V695.298C696.081 697.424 696.081 699.394 696.081 701.207C696.081 703.002 696.081 704.876 696.081 706.829H693.692C693.692 704.876 693.692 703.002 693.692 701.207C693.692 699.394 693.692 697.424 693.692 695.298V692.683C693.692 691.254 693.692 689.92 693.692 688.682C693.692 687.445 693.692 686.233 693.692 685.048C693.692 683.863 693.692 682.634 693.692 681.361L694.912 683.113H677.331L678.552 681.361C678.552 682.634 678.552 683.863 678.552 685.048C678.552 686.233 678.552 687.445 678.552 688.682C678.552 689.92 678.552 691.254 678.552 692.683V695.298C678.552 697.424 678.552 699.394 678.552 701.207C678.552 703.002 678.552 704.876 678.552 706.829H676.162Z" fill="#FF573F"/>
<path d="M716.336 707.326C714.345 707.326 712.57 706.959 711.012 706.227C709.471 705.495 708.164 704.502 707.091 703.247C706.017 701.974 705.195 700.518 704.624 698.88C704.07 697.224 703.793 695.498 703.793 693.703C703.793 691.123 704.312 688.839 705.351 686.852C706.407 684.848 707.87 683.279 709.74 682.146C711.627 680.995 713.817 680.42 716.31 680.42C718.249 680.42 719.98 680.751 721.504 681.414C723.027 682.076 724.326 683.017 725.399 684.237C726.49 685.44 727.321 686.852 727.892 688.473C728.464 690.077 728.749 691.82 728.749 693.703C728.749 696.248 728.239 698.549 727.217 700.606C726.196 702.663 724.75 704.301 722.88 705.521C721.028 706.724 718.846 707.326 716.336 707.326ZM716.336 705.025C718.569 705.025 720.413 704.484 721.867 703.403C723.339 702.323 724.438 700.919 725.166 699.194C725.91 697.468 726.282 695.638 726.282 693.703C726.282 691.524 725.875 689.615 725.062 687.977C724.265 686.321 723.123 685.031 721.634 684.107C720.145 683.183 718.379 682.721 716.336 682.721C714.137 682.721 712.285 683.209 710.779 684.185C709.29 685.161 708.156 686.486 707.377 688.16C706.615 689.816 706.234 691.663 706.234 693.703C706.234 695.638 706.606 697.468 707.351 699.194C708.095 700.919 709.212 702.323 710.701 703.403C712.207 704.484 714.085 705.025 716.336 705.025Z" fill="#FF573F"/>
<path d="M744.003 707.326C742.912 707.326 741.873 707.256 740.886 707.116C739.9 706.977 738.991 706.803 738.16 706.593C737.329 706.367 736.593 706.123 735.952 705.861C735.312 705.582 734.784 705.321 734.368 705.077L734.732 702.671C735.493 703.142 736.368 703.552 737.355 703.9C738.341 704.249 739.389 704.519 740.497 704.711C741.622 704.903 742.756 704.998 743.899 704.998C745.838 704.998 747.353 704.763 748.443 704.292C749.552 703.804 750.331 703.168 750.781 702.384C751.248 701.599 751.482 700.745 751.482 699.821C751.482 698.723 751.153 697.799 750.495 697.05C749.837 696.3 748.946 695.734 747.82 695.35C746.695 694.949 745.422 694.749 744.003 694.749C742.964 694.749 742.055 694.749 741.276 694.749C740.514 694.749 739.744 694.749 738.965 694.749V692.709C739.623 692.709 740.298 692.709 740.99 692.709C741.7 692.709 742.54 692.709 743.509 692.709C746.002 692.709 747.803 692.204 748.911 691.193C750.036 690.182 750.599 688.927 750.599 687.427C750.599 686.312 750.296 685.414 749.69 684.734C749.084 684.054 748.253 683.558 747.197 683.244C746.141 682.913 744.929 682.747 743.561 682.747C742.661 682.747 741.761 682.826 740.86 682.982C739.96 683.122 739.043 683.357 738.108 683.688C737.19 684.02 736.221 684.464 735.199 685.022L734.913 682.616C735.606 682.25 736.411 681.902 737.329 681.57C738.246 681.222 739.259 680.943 740.367 680.734C741.475 680.525 742.626 680.42 743.821 680.42C745.829 680.42 747.517 680.708 748.885 681.283C750.253 681.841 751.291 682.625 752.001 683.636C752.711 684.63 753.066 685.78 753.066 687.088C753.066 688.848 752.599 690.243 751.664 691.271C750.729 692.3 749.681 692.988 748.521 693.337V693.65C749.266 693.825 750.054 694.156 750.885 694.644C751.716 695.132 752.425 695.812 753.014 696.684C753.62 697.538 753.923 698.627 753.923 699.952C753.923 701.172 753.62 702.349 753.014 703.482C752.425 704.615 751.404 705.539 749.95 706.253C748.513 706.968 746.53 707.326 744.003 707.326Z" fill="#FF573F"/>
<path d="M761.425 706.829C761.425 704.876 761.425 703.002 761.425 701.207C761.425 699.394 761.425 697.424 761.425 695.298V692.683C761.425 691.236 761.425 689.868 761.425 688.578C761.425 687.288 761.425 686.024 761.425 684.787C761.425 683.531 761.425 682.259 761.425 680.969L763.815 680.838C763.815 682.146 763.815 683.427 763.815 684.682C763.815 685.937 763.815 687.218 763.815 688.526C763.815 689.833 763.815 691.219 763.815 692.683V695.298C763.815 697.424 763.815 699.394 763.815 701.207C763.815 703.002 763.815 704.876 763.815 706.829H761.425ZM762.802 694.801V692.657H780.253V694.801H762.802ZM779.033 706.829C779.033 704.876 779.033 703.002 779.033 701.207C779.033 699.394 779.033 697.424 779.033 695.298V692.683C779.033 691.236 779.033 689.868 779.033 688.578C779.033 687.288 779.033 686.024 779.033 684.787C779.033 683.531 779.033 682.259 779.033 680.969H781.396C781.396 682.259 781.396 683.531 781.396 684.787C781.396 686.024 781.396 687.288 781.396 688.578C781.396 689.868 781.396 691.236 781.396 692.683V695.298C781.396 697.424 781.396 699.394 781.396 701.207C781.396 703.002 781.396 704.876 781.396 706.829H779.033Z" fill="#FF573F"/>
<path d="M797.105 707.326C795.477 707.326 794.075 707.029 792.898 706.437C791.738 705.826 790.846 704.981 790.223 703.9C789.6 702.819 789.288 701.547 789.288 700.083C789.288 698.706 789.539 697.555 790.041 696.631C790.561 695.69 791.227 694.932 792.041 694.356C792.855 693.764 793.746 693.302 794.716 692.971C795.685 692.639 796.629 692.378 797.546 692.186L806.246 690.434C806.333 688.238 806.082 686.591 805.493 685.493C804.904 684.377 804.091 683.636 803.052 683.27C802.03 682.904 800.905 682.721 799.676 682.721C799.087 682.721 798.455 682.764 797.78 682.852C797.122 682.921 796.421 683.043 795.677 683.218C794.932 683.375 794.136 683.592 793.287 683.871C792.439 684.133 791.53 684.464 790.561 684.865L790.379 682.459C791.002 682.181 791.695 681.919 792.456 681.675C793.235 681.431 794.041 681.213 794.872 681.021C795.72 680.83 796.577 680.681 797.443 680.577C798.308 680.472 799.148 680.42 799.962 680.42C801.71 680.42 803.234 680.716 804.532 681.309C805.831 681.902 806.826 682.843 807.519 684.133C808.228 685.423 808.583 687.088 808.583 689.127C808.583 689.929 808.583 690.949 808.583 692.186C808.583 693.424 808.583 694.627 808.583 695.795V699.507C808.583 700.606 808.583 701.747 808.583 702.933C808.583 704.118 808.583 705.417 808.583 706.829H806.324L806.272 702.802H805.909C805.337 703.586 804.601 704.327 803.701 705.025C802.818 705.704 801.814 706.262 800.689 706.698C799.563 707.116 798.369 707.326 797.105 707.326ZM797.494 705.051C798.551 705.051 799.624 704.85 800.715 704.449C801.805 704.048 802.827 703.421 803.779 702.567C804.731 701.695 805.536 700.571 806.194 699.194L806.22 692.108C805.909 692.265 805.493 692.439 804.974 692.631C804.454 692.805 803.675 693.014 802.636 693.258C801.598 693.502 800.152 693.799 798.3 694.147C797.105 694.374 796.014 694.705 795.027 695.141C794.041 695.577 793.244 696.187 792.638 696.971C792.05 697.756 791.755 698.758 791.755 699.978C791.755 701.826 792.292 703.133 793.365 703.9C794.456 704.667 795.832 705.051 797.494 705.051Z" fill="#FF573F"/>
<path d="M817.574 706.829C817.574 704.876 817.574 702.994 817.574 701.181C817.574 699.368 817.574 697.407 817.574 695.298V692.683C817.574 691.236 817.574 689.868 817.574 688.578C817.574 687.271 817.574 685.998 817.574 684.76C817.574 683.523 817.574 682.259 817.574 680.969C818.976 680.969 820.69 680.969 822.716 680.969C824.742 680.969 826.663 680.969 828.481 680.969C830.368 680.969 831.892 681.222 833.052 681.727C834.212 682.233 835.052 682.948 835.571 683.871C836.108 684.778 836.376 685.859 836.376 687.114C836.376 688.77 835.952 690.112 835.103 691.14C834.255 692.151 833.199 692.857 831.935 693.258V693.546C832.749 693.668 833.563 693.947 834.376 694.383C835.19 694.801 835.865 695.446 836.402 696.318C836.939 697.189 837.207 698.357 837.207 699.821C837.207 701.111 836.921 702.288 836.35 703.351C835.796 704.397 834.783 705.242 833.312 705.887C831.84 706.515 829.745 706.829 827.027 706.829C825.174 706.829 823.417 706.829 821.755 706.829C820.11 706.829 818.717 706.829 817.574 706.829ZM819.937 704.711H826.975C829.001 704.711 830.576 704.51 831.701 704.109C832.827 703.708 833.615 703.133 834.065 702.384C834.515 701.617 834.74 700.71 834.74 699.664C834.74 697.782 834.125 696.474 832.896 695.742C831.667 695.01 829.892 694.644 827.572 694.644H819.34V692.605H827.131C828.879 692.605 830.239 692.378 831.208 691.925C832.195 691.454 832.887 690.827 833.286 690.042C833.701 689.258 833.909 688.404 833.909 687.48C833.909 685.824 833.398 684.682 832.377 684.054C831.372 683.409 829.953 683.087 828.118 683.087H819.937C819.937 684.691 819.937 686.242 819.937 687.741C819.937 689.223 819.937 690.844 819.937 692.605V695.219C819.937 696.945 819.937 698.557 819.937 700.057C819.937 701.556 819.937 703.107 819.937 704.711Z" fill="#FF573F"/>
<path d="M851.022 707.326C849.394 707.326 847.992 707.029 846.815 706.437C845.655 705.826 844.763 704.981 844.14 703.9C843.517 702.819 843.205 701.547 843.205 700.083C843.205 698.706 843.456 697.555 843.958 696.631C844.478 695.69 845.144 694.932 845.958 694.356C846.772 693.764 847.663 693.302 848.633 692.971C849.602 692.639 850.546 692.378 851.463 692.186L860.163 690.434C860.25 688.238 859.999 686.591 859.41 685.493C858.821 684.377 858.008 683.636 856.969 683.27C855.947 682.904 854.822 682.721 853.593 682.721C853.004 682.721 852.372 682.764 851.697 682.852C851.039 682.921 850.338 683.043 849.594 683.218C848.849 683.375 848.053 683.592 847.204 683.871C846.356 684.133 845.447 684.464 844.478 684.865L844.296 682.459C844.919 682.181 845.612 681.919 846.373 681.675C847.152 681.431 847.957 681.213 848.789 681.021C849.637 680.83 850.494 680.681 851.359 680.577C852.225 680.472 853.065 680.42 853.879 680.42C855.627 680.42 857.151 680.716 858.449 681.309C859.748 681.902 860.743 682.843 861.436 684.133C862.145 685.423 862.5 687.088 862.5 689.127C862.5 689.929 862.5 690.949 862.5 692.186C862.5 693.424 862.5 694.627 862.5 695.795V699.507C862.5 700.606 862.5 701.747 862.5 702.933C862.5 704.118 862.5 705.417 862.5 706.829H860.241L860.189 702.802H859.826C859.254 703.586 858.518 704.327 857.618 705.025C856.735 705.704 855.731 706.262 854.606 706.698C853.48 707.116 852.286 707.326 851.022 707.326ZM851.411 705.051C852.468 705.051 853.541 704.85 854.632 704.449C855.722 704.048 856.744 703.421 857.696 702.567C858.648 701.695 859.453 700.571 860.111 699.194L860.137 692.108C859.826 692.265 859.41 692.439 858.891 692.631C858.371 692.805 857.592 693.014 856.553 693.258C855.515 693.502 854.069 693.799 852.216 694.147C851.022 694.374 849.931 694.705 848.944 695.141C847.958 695.577 847.161 696.187 846.555 696.971C845.967 697.756 845.672 698.758 845.672 699.978C845.672 701.826 846.209 703.133 847.282 703.9C848.373 704.667 849.749 705.051 851.411 705.051Z" fill="#FF573F"/>
<path d="M871.491 706.829C871.491 704.876 871.491 703.002 871.491 701.207C871.491 699.394 871.491 697.424 871.491 695.298V692.683C871.491 691.236 871.491 689.868 871.491 688.578C871.491 687.288 871.491 686.024 871.491 684.787C871.491 683.531 871.491 682.259 871.491 680.969L873.88 680.838C873.88 682.146 873.88 683.427 873.88 684.682C873.88 685.937 873.88 687.218 873.88 688.526C873.88 689.833 873.88 691.219 873.88 692.683V695.298C873.88 697.424 873.88 699.394 873.88 701.207C873.88 703.002 873.88 704.876 873.88 706.829H871.491ZM872.867 694.801V692.657H890.319V694.801H872.867ZM889.098 706.829C889.098 704.876 889.098 703.002 889.098 701.207C889.098 699.394 889.098 697.424 889.098 695.298V692.683C889.098 691.236 889.098 689.868 889.098 688.578C889.098 687.288 889.098 686.024 889.098 684.787C889.098 683.531 889.098 682.259 889.098 680.969H891.462C891.462 682.259 891.462 683.531 891.462 684.787C891.462 686.024 891.462 687.288 891.462 688.578C891.462 689.868 891.462 691.236 891.462 692.683V695.298C891.462 697.424 891.462 699.394 891.462 701.207C891.462 703.002 891.462 704.876 891.462 706.829H889.098Z" fill="#FF573F"/>
<path d="M900.808 706.829C900.808 704.876 900.808 703.002 900.808 701.207C900.808 699.394 900.808 697.424 900.808 695.298V692.683C900.808 691.236 900.808 689.868 900.808 688.578C900.808 687.288 900.808 686.024 900.808 684.787C900.808 683.531 900.808 682.259 900.808 680.969L903.171 680.864C903.171 682.154 903.171 683.418 903.171 684.656C903.171 685.893 903.171 687.157 903.171 688.447C903.171 689.72 903.171 691.088 903.171 692.552V702.828H903.457L910.079 693.258C911.499 691.219 912.919 689.162 914.338 687.088C915.775 685.013 917.195 682.974 918.597 680.969H921.012C921.012 682.259 921.012 683.531 921.012 684.787C921.012 686.024 921.012 687.288 921.012 688.578C921.012 689.868 921.012 691.236 921.012 692.683V695.298C921.012 697.424 921.012 699.394 921.012 701.207C921.012 703.002 921.012 704.876 921.012 706.829H918.649C918.649 704.876 918.649 703.002 918.649 701.207C918.649 699.412 918.649 697.459 918.649 695.35V684.943H918.363L911.767 694.435C910.348 696.509 908.919 698.584 907.482 700.658C906.063 702.715 904.643 704.772 903.223 706.829H900.808Z" fill="#FF573F"/>
<path d="M927.991 706.829C928.978 705.591 929.956 704.353 930.925 703.116C931.912 701.878 932.882 700.658 933.834 699.455L937.859 694.383L937.651 695.821C935.418 695.821 933.652 695.516 932.354 694.906C931.055 694.278 930.129 693.424 929.575 692.343C929.021 691.262 928.744 690.033 928.744 688.656C928.744 686.931 929.09 685.501 929.783 684.368C930.493 683.235 931.549 682.39 932.951 681.832C934.353 681.257 936.102 680.969 938.197 680.969C939.287 680.969 940.421 680.969 941.599 680.969C942.776 680.969 943.884 680.969 944.923 680.969C945.979 680.969 946.853 680.969 947.546 680.969C947.546 682.259 947.546 683.531 947.546 684.787C947.546 686.024 947.546 687.288 947.546 688.578C947.546 689.868 947.546 691.236 947.546 692.683V695.298C947.546 697.424 947.546 699.394 947.546 701.207C947.546 703.002 947.546 704.876 947.546 706.829H945.182C945.182 705.609 945.182 704.432 945.182 703.299C945.182 702.166 945.182 701.007 945.182 699.821C945.182 698.636 945.182 697.39 945.182 696.082V692.683C945.182 690.94 945.182 689.301 945.182 687.767C945.182 686.216 945.182 684.656 945.182 683.087H938.353C937.296 683.087 936.214 683.218 935.106 683.479C933.998 683.723 933.072 684.255 932.328 685.074C931.583 685.876 931.211 687.105 931.211 688.761C931.211 690.086 931.462 691.114 931.964 691.846C932.484 692.578 933.133 693.101 933.912 693.415C934.691 693.729 935.513 693.921 936.379 693.99C937.245 694.06 938.032 694.095 938.742 694.095H945.676V696.056H938.664L940.248 694.932L936.587 699.586C935.669 700.789 934.734 702 933.782 703.22C932.83 704.441 931.886 705.643 930.951 706.829H927.991Z" fill="#FF573F"/>
<path d="M978.559 707.326C976.083 707.326 973.875 706.689 971.936 705.417C970.015 704.127 968.491 702.148 967.366 699.481C966.24 696.797 965.678 693.337 965.678 689.101C965.678 685.161 966.067 681.753 966.846 678.877C967.625 675.984 969.002 673.7 970.975 672.027C972.949 670.353 975.736 669.334 979.338 668.967C979.736 668.933 980.333 668.88 981.129 668.811C981.943 668.723 982.835 668.636 983.804 668.549C984.774 668.445 985.735 668.349 986.687 668.261C987.639 668.157 988.462 668.07 989.154 668L989.388 670.432C988.678 670.501 987.838 670.58 986.869 670.667C985.899 670.754 984.921 670.85 983.934 670.955C982.947 671.042 982.064 671.12 981.285 671.19C980.506 671.26 979.944 671.312 979.597 671.347C976.429 671.643 974.014 672.497 972.352 673.909C970.707 675.321 969.573 677.256 968.95 679.714C968.344 682.154 968.041 685.083 968.041 688.499L968.197 688.709C968.197 691.62 968.439 694.112 968.924 696.187C969.426 698.244 970.136 699.926 971.053 701.233C971.988 702.541 973.088 703.499 974.351 704.109C975.615 704.719 977.018 705.025 978.559 705.025C980.809 705.025 982.653 704.493 984.09 703.43C985.544 702.349 986.609 700.946 987.284 699.22C987.959 697.494 988.297 695.664 988.297 693.729C988.297 691.742 988.003 689.929 987.414 688.29C986.825 686.652 985.865 685.344 984.531 684.368C983.198 683.375 981.406 682.878 979.156 682.878C978.117 682.878 976.94 683.096 975.624 683.531C974.325 683.95 973.001 684.682 971.651 685.728C970.318 686.774 969.08 688.238 967.937 690.121C967.747 689.72 967.608 689.319 967.522 688.918C967.435 688.499 967.392 688.09 967.392 687.689C967.409 687.271 967.426 686.861 967.444 686.46H968.379C969.469 685.083 970.664 683.967 971.962 683.113C973.261 682.242 974.568 681.614 975.884 681.231C977.199 680.83 978.42 680.629 979.545 680.629C982.038 680.629 984.116 681.196 985.778 682.329C987.44 683.462 988.687 685.013 989.518 686.983C990.366 688.935 990.79 691.175 990.79 693.703C990.79 696.143 990.314 698.401 989.362 700.475C988.41 702.549 987.024 704.214 985.207 705.469C983.406 706.707 981.19 707.326 978.559 707.326Z" fill="#FF573F"/>
<path d="M1000.54 717C1001.22 715.327 1001.89 713.644 1002.57 711.954C1003.26 710.263 1003.94 708.589 1004.62 706.933V707.796C1003.96 706.018 1003.3 704.223 1002.62 702.41C1001.95 700.58 1001.28 698.801 1000.62 697.076L998.855 692.369C998.18 690.504 997.478 688.604 996.751 686.669C996.024 684.717 995.306 682.817 994.596 680.969L997.167 680.838C998.032 683.261 998.889 685.641 999.738 687.977C1000.59 690.295 1001.44 692.666 1002.31 695.089L1005.55 704.136H1005.92L1009.48 695.036C1010.39 692.666 1011.3 690.321 1012.2 688.003C1013.12 685.667 1014.04 683.322 1014.96 680.969H1017.42C1016.87 682.364 1016.33 683.715 1015.81 685.022C1015.31 686.312 1014.75 687.741 1014.12 689.31C1013.5 690.861 1012.76 692.718 1011.89 694.879L1009.01 702.148C1007.69 705.46 1006.58 708.267 1005.66 710.568C1004.74 712.886 1003.91 714.987 1003.17 716.869L1000.54 717Z" fill="#FF573F"/>
<path d="M1020.8 706.829C1021.61 705.661 1022.33 704.658 1022.95 703.822C1023.58 702.968 1024.16 702.166 1024.69 701.416C1025.25 700.649 1025.84 699.83 1026.46 698.958L1030.61 693.232L1030.67 694.173L1026.64 688.656C1026 687.785 1025.39 686.974 1024.82 686.225C1024.27 685.458 1023.69 684.665 1023.08 683.845C1022.49 683.009 1021.8 682.05 1021.01 680.969L1023.78 680.838C1024.74 682.146 1025.58 683.314 1026.3 684.342C1027.05 685.353 1027.84 686.443 1028.67 687.61L1031.89 692.055H1032.15L1035.37 687.558C1036.18 686.425 1036.95 685.353 1037.68 684.342C1038.42 683.331 1039.24 682.207 1040.12 680.969H1042.98C1042.16 682.085 1041.46 683.043 1040.87 683.845C1040.3 684.63 1039.76 685.379 1039.24 686.094C1038.72 686.809 1038.14 687.593 1037.5 688.447L1033.47 693.99L1033.37 693.128L1037.89 698.985C1038.84 700.222 1039.76 701.425 1040.66 702.593C1041.56 703.743 1042.66 705.155 1043.94 706.829H1040.92C1040.01 705.609 1039.18 704.51 1038.43 703.534C1037.69 702.558 1036.85 701.46 1035.91 700.24L1032.2 695.298H1031.89L1028.51 700.03C1027.61 701.268 1026.79 702.401 1026.04 703.43C1025.32 704.441 1024.5 705.574 1023.6 706.829H1020.8Z" fill="#FF573F"/>
<path d="M1050.34 706.829C1050.34 704.876 1050.34 703.002 1050.34 701.207C1050.34 699.394 1050.34 697.424 1050.34 695.298V692.683C1050.34 691.236 1050.34 689.868 1050.34 688.578C1050.34 687.288 1050.34 686.024 1050.34 684.787C1050.34 683.531 1050.34 682.259 1050.34 680.969H1066.83V683.113C1065.04 683.113 1063.23 683.113 1061.4 683.113C1059.56 683.113 1057.78 683.113 1056.05 683.113H1051.27L1052.72 681.361C1052.72 682.634 1052.72 683.863 1052.72 685.048C1052.72 686.233 1052.72 687.445 1052.72 688.682C1052.72 689.92 1052.72 691.254 1052.72 692.683V695.298C1052.72 697.424 1052.72 699.394 1052.72 701.207C1052.72 703.002 1052.72 704.876 1052.72 706.829H1050.34Z" fill="#FF573F"/>
<path d="M1079.37 707.326C1077.74 707.326 1076.34 707.029 1075.16 706.437C1074 705.826 1073.11 704.981 1072.49 703.9C1071.86 702.819 1071.55 701.547 1071.55 700.083C1071.55 698.706 1071.8 697.555 1072.31 696.631C1072.83 695.69 1073.49 694.932 1074.31 694.356C1075.12 693.764 1076.01 693.302 1076.98 692.971C1077.95 692.639 1078.89 692.378 1079.81 692.186L1088.51 690.434C1088.6 688.238 1088.35 686.591 1087.76 685.493C1087.17 684.377 1086.36 683.636 1085.32 683.27C1084.3 682.904 1083.17 682.721 1081.94 682.721C1081.35 682.721 1080.72 682.764 1080.05 682.852C1079.39 682.921 1078.69 683.043 1077.94 683.218C1077.2 683.375 1076.4 683.592 1075.55 683.871C1074.7 684.133 1073.8 684.464 1072.83 684.865L1072.64 682.459C1073.27 682.181 1073.96 681.919 1074.72 681.675C1075.5 681.431 1076.31 681.213 1077.14 681.021C1077.99 680.83 1078.84 680.681 1079.71 680.577C1080.57 680.472 1081.41 680.42 1082.23 680.42C1083.98 680.42 1085.5 680.716 1086.8 681.309C1088.1 681.902 1089.09 682.843 1089.78 684.133C1090.49 685.423 1090.85 687.088 1090.85 689.127C1090.85 689.929 1090.85 690.949 1090.85 692.186C1090.85 693.424 1090.85 694.627 1090.85 695.795V699.507C1090.85 700.606 1090.85 701.747 1090.85 702.933C1090.85 704.118 1090.85 705.417 1090.85 706.829H1088.59L1088.54 702.802H1088.17C1087.6 703.586 1086.87 704.327 1085.97 705.025C1085.08 705.704 1084.08 706.262 1082.95 706.698C1081.83 707.116 1080.63 707.326 1079.37 707.326ZM1079.76 705.051C1080.82 705.051 1081.89 704.85 1082.98 704.449C1084.07 704.048 1085.09 703.421 1086.04 702.567C1087 701.695 1087.8 700.571 1088.46 699.194L1088.49 692.108C1088.17 692.265 1087.76 692.439 1087.24 692.631C1086.72 692.805 1085.94 693.014 1084.9 693.258C1083.86 693.502 1082.42 693.799 1080.56 694.147C1079.37 694.374 1078.28 694.705 1077.29 695.141C1076.31 695.577 1075.51 696.187 1074.9 696.971C1074.31 697.756 1074.02 698.758 1074.02 699.978C1074.02 701.826 1074.56 703.133 1075.63 703.9C1076.72 704.667 1078.1 705.051 1079.76 705.051Z" fill="#FF573F"/>
<path d="M1097.94 707.221C1097.75 707.221 1097.54 707.212 1097.29 707.195C1097.07 707.177 1096.83 707.151 1096.57 707.116C1096.32 707.081 1096.08 707.038 1095.84 706.986L1096.07 704.711C1096.37 704.781 1096.67 704.833 1096.98 704.868C1097.29 704.903 1097.53 704.92 1097.68 704.92C1098.72 704.92 1099.55 704.519 1100.18 703.717C1100.8 702.898 1101.28 701.826 1101.63 700.501C1101.98 699.159 1102.23 697.695 1102.38 696.108C1102.56 694.522 1102.7 692.962 1102.8 691.428C1102.92 689.685 1103.04 687.933 1103.16 686.172C1103.28 684.412 1103.4 682.677 1103.5 680.969H1119.99C1119.99 682.259 1119.99 683.531 1119.99 684.787C1119.99 686.024 1119.99 687.288 1119.99 688.578C1119.99 689.868 1119.99 691.236 1119.99 692.683V695.298C1119.99 697.424 1119.99 699.394 1119.99 701.207C1119.99 703.002 1119.99 704.876 1119.99 706.829H1117.58C1117.58 704.876 1117.58 703.002 1117.58 701.207C1117.58 699.394 1117.58 697.424 1117.58 695.298V692.683C1117.58 691.254 1117.58 689.92 1117.58 688.682C1117.58 687.445 1117.58 686.233 1117.58 685.048C1117.58 683.863 1117.58 682.634 1117.58 681.361L1119 683.113H1104.33L1105.73 681.361C1105.65 682.529 1105.56 683.715 1105.47 684.917C1105.41 686.12 1105.33 687.332 1105.24 688.552C1105.17 689.755 1105.09 690.983 1104.98 692.239C1104.86 694.104 1104.69 695.925 1104.46 697.703C1104.25 699.481 1103.92 701.094 1103.45 702.541C1102.98 703.97 1102.31 705.112 1101.42 705.966C1100.56 706.803 1099.4 707.221 1097.94 707.221Z" fill="#FF573F"/>
<path d="M1135.54 706.829C1135.54 704.876 1135.54 703.002 1135.54 701.207C1135.54 699.394 1135.54 697.424 1135.54 695.298V692.683C1135.54 691.254 1135.54 689.92 1135.54 688.682C1135.54 687.445 1135.54 686.233 1135.54 685.048C1135.54 683.863 1135.54 682.634 1135.54 681.361L1136.45 683.113H1135.51C1133.99 683.113 1132.41 683.113 1130.79 683.113C1129.16 683.113 1127.56 683.113 1125.98 683.113V680.969H1147.51V683.113C1145.94 683.113 1144.33 683.113 1142.71 683.113C1141.08 683.113 1139.5 683.113 1137.98 683.113H1137.05L1137.96 681.361C1137.96 682.634 1137.96 683.863 1137.96 685.048C1137.96 686.233 1137.96 687.445 1137.96 688.682C1137.96 689.92 1137.96 691.254 1137.96 692.683V695.298C1137.96 697.424 1137.96 699.394 1137.96 701.207C1137.96 703.002 1137.96 704.876 1137.96 706.829H1135.54Z" fill="#FF573F"/>
<path d="M1164.45 707.326C1161.5 707.326 1159.07 706.742 1157.15 705.574C1155.23 704.388 1153.79 702.776 1152.84 700.736C1151.89 698.679 1151.41 696.335 1151.41 693.703C1151.41 691.123 1151.89 688.831 1152.84 686.826C1153.79 684.821 1155.13 683.253 1156.86 682.12C1158.61 680.986 1160.66 680.42 1162.99 680.42C1165.05 680.42 1166.84 680.847 1168.34 681.701C1169.87 682.555 1171.03 683.802 1171.85 685.44C1172.68 687.061 1173.09 689.022 1173.09 691.323C1173.09 691.933 1173.08 692.491 1173.04 692.997C1173.03 693.502 1172.97 694.008 1172.89 694.513L1170.76 692.945C1170.79 692.666 1170.81 692.395 1170.81 692.134C1170.81 691.872 1170.81 691.62 1170.81 691.376C1170.81 688.412 1170.09 686.216 1168.65 684.787C1167.23 683.357 1165.36 682.642 1163.04 682.642C1161.09 682.642 1159.43 683.113 1158.06 684.054C1156.69 684.978 1155.64 686.268 1154.92 687.924C1154.21 689.563 1153.85 691.437 1153.85 693.546V693.807C1153.85 696.091 1154.24 698.078 1155.02 699.769C1155.8 701.442 1156.98 702.732 1158.55 703.639C1160.13 704.545 1162.14 704.998 1164.58 704.998C1165.46 704.998 1166.35 704.937 1167.25 704.815C1168.15 704.676 1169.03 704.467 1169.9 704.188C1170.77 703.891 1171.61 703.508 1172.42 703.037L1172.58 705.469C1171.92 705.853 1171.16 706.184 1170.29 706.463C1169.44 706.742 1168.52 706.951 1167.51 707.09C1166.52 707.247 1165.5 707.326 1164.45 707.326ZM1152.53 694.513V692.526L1171.28 692.474L1172.89 692.892V694.513H1152.53Z" fill="#FF573F"/>
<path d="M1180.49 717C1180.49 715.03 1180.49 713.121 1180.49 711.274C1180.49 709.443 1180.49 707.465 1180.49 705.338V692.683C1180.49 690.8 1180.49 688.866 1180.49 686.878C1180.49 684.891 1180.49 682.921 1180.49 680.969L1182.77 680.76L1182.8 684.054H1183.16C1183.66 683.444 1184.33 682.86 1185.16 682.303C1185.99 681.745 1186.94 681.292 1188.02 680.943C1189.11 680.594 1190.29 680.42 1191.58 680.42C1193.96 680.42 1196.02 681.004 1197.73 682.172C1199.44 683.322 1200.75 684.909 1201.65 686.931C1202.55 688.935 1203 691.227 1203 693.807C1203 696.23 1202.58 698.47 1201.73 700.527C1200.9 702.567 1199.64 704.214 1197.96 705.469C1196.28 706.707 1194.19 707.326 1191.68 707.326C1190.47 707.326 1189.35 707.169 1188.33 706.855C1187.31 706.559 1186.37 706.114 1185.52 705.521C1184.68 704.911 1183.91 704.179 1183.21 703.325H1182.9V705.417C1182.9 707.491 1182.9 709.426 1182.9 711.221C1182.9 713.034 1182.9 714.917 1182.9 716.869L1180.49 717ZM1191.29 704.972C1193.45 704.972 1195.22 704.449 1196.59 703.403C1197.96 702.34 1198.95 700.963 1199.57 699.272C1200.21 697.564 1200.53 695.742 1200.53 693.807C1200.53 691.785 1200.2 689.946 1199.52 688.29C1198.85 686.617 1197.82 685.283 1196.43 684.29C1195.06 683.279 1193.32 682.773 1191.19 682.773C1190.1 682.773 1189.04 682.93 1188.02 683.244C1187.01 683.558 1186.07 684.037 1185.19 684.682C1184.3 685.309 1183.54 686.103 1182.9 687.061V700.03C1183.54 701.076 1184.27 701.965 1185.08 702.697C1185.9 703.43 1186.81 703.996 1187.84 704.397C1188.87 704.781 1190.03 704.972 1191.29 704.972Z" fill="#FF573F"/>
<path d="M1221.81 707.326C1219.09 707.326 1216.78 706.733 1214.87 705.547C1212.98 704.345 1211.55 702.732 1210.56 700.71C1209.57 698.671 1209.08 696.387 1209.08 693.86C1209.08 691.315 1209.57 689.031 1210.53 687.009C1211.5 684.97 1212.9 683.366 1214.72 682.198C1216.55 681.013 1218.76 680.42 1221.34 680.42C1222.32 680.42 1223.29 680.507 1224.25 680.681C1225.22 680.856 1226.13 681.1 1226.97 681.414C1227.82 681.71 1228.57 682.05 1229.23 682.433L1228.95 684.891C1227.98 684.333 1227.05 683.898 1226.17 683.584C1225.3 683.27 1224.48 683.052 1223.7 682.93C1222.94 682.808 1222.21 682.747 1221.52 682.747C1218.51 682.747 1216.08 683.749 1214.25 685.754C1212.43 687.741 1211.52 690.434 1211.52 693.834C1211.52 695.925 1211.91 697.817 1212.69 699.507C1213.47 701.181 1214.63 702.514 1216.17 703.508C1217.73 704.502 1219.68 704.998 1222.04 704.998C1222.84 704.998 1223.62 704.929 1224.4 704.789C1225.2 704.632 1225.98 704.414 1226.74 704.136C1227.52 703.839 1228.27 703.464 1229 703.011L1229.36 705.469C1228.83 705.783 1228.18 706.088 1227.41 706.384C1226.65 706.663 1225.8 706.89 1224.84 707.064C1223.91 707.238 1222.9 707.326 1221.81 707.326Z" fill="#FF573F"/>
<path d="M1236.64 706.829C1236.64 704.876 1236.64 703.002 1236.64 701.207C1236.64 699.394 1236.64 697.424 1236.64 695.298V692.657C1236.64 691.193 1236.64 689.824 1236.64 688.552C1236.64 687.262 1236.64 685.998 1236.64 684.76C1236.64 683.523 1236.64 682.259 1236.64 680.969L1239.05 680.838C1239.05 682.773 1239.05 684.682 1239.05 686.565C1239.05 688.43 1239.05 690.417 1239.05 692.526V695.507C1239.05 697.564 1239.05 699.481 1239.05 701.259C1239.05 703.037 1239.05 704.894 1239.05 706.829H1236.64ZM1254.01 706.829C1252.62 705.591 1251.23 704.353 1249.83 703.116C1248.43 701.861 1247.03 700.606 1245.65 699.351L1240.37 694.644H1238.63V692.683H1240.71L1245.08 688.578C1246.43 687.305 1247.78 686.033 1249.13 684.76C1250.49 683.47 1251.84 682.207 1253.18 680.969H1256.45C1254.82 682.451 1253.2 683.941 1251.59 685.44C1250 686.939 1248.41 688.43 1246.82 689.911L1242.06 694.33L1242.01 693.023L1247.41 697.886C1249.09 699.368 1250.77 700.858 1252.45 702.358C1254.13 703.857 1255.8 705.347 1257.46 706.829H1254.01Z" fill="#FF573F"/>
<path d="M1263.42 706.829C1263.42 704.876 1263.42 703.002 1263.42 701.207C1263.42 699.394 1263.42 697.424 1263.42 695.298V692.683C1263.42 691.236 1263.42 689.868 1263.42 688.578C1263.42 687.288 1263.42 686.024 1263.42 684.787C1263.42 683.531 1263.42 682.259 1263.42 680.969L1265.78 680.864C1265.78 682.154 1265.78 683.418 1265.78 684.656C1265.78 685.893 1265.78 687.157 1265.78 688.447C1265.78 689.72 1265.78 691.088 1265.78 692.552V702.828H1266.07L1272.69 693.258C1274.11 691.219 1275.53 689.162 1276.95 687.088C1278.38 685.013 1279.8 682.974 1281.21 680.969H1283.62C1283.62 682.259 1283.62 683.531 1283.62 684.787C1283.62 686.024 1283.62 687.288 1283.62 688.578C1283.62 689.868 1283.62 691.236 1283.62 692.683V695.298C1283.62 697.424 1283.62 699.394 1283.62 701.207C1283.62 703.002 1283.62 704.876 1283.62 706.829H1281.26C1281.26 704.876 1281.26 703.002 1281.26 701.207C1281.26 699.412 1281.26 697.459 1281.26 695.35V684.943H1280.97L1274.38 694.435C1272.96 696.509 1271.53 698.584 1270.09 700.658C1268.67 702.715 1267.25 704.772 1265.83 706.829H1263.42Z" fill="#FF573F"/>
<path d="M1290.03 706.829C1290.84 705.661 1291.56 704.658 1292.18 703.822C1292.81 702.968 1293.39 702.166 1293.92 701.416C1294.48 700.649 1295.07 699.83 1295.69 698.958L1299.84 693.232L1299.9 694.173L1295.87 688.656C1295.23 687.785 1294.62 686.974 1294.05 686.225C1293.5 685.458 1292.92 684.665 1292.31 683.845C1291.72 683.009 1291.03 682.05 1290.24 680.969L1293.01 680.838C1293.97 682.146 1294.81 683.314 1295.53 684.342C1296.28 685.353 1297.07 686.443 1297.9 687.61L1301.12 692.055H1301.38L1304.6 687.558C1305.41 686.425 1306.18 685.353 1306.91 684.342C1307.65 683.331 1308.47 682.207 1309.35 680.969H1312.21C1311.39 682.085 1310.69 683.043 1310.1 683.845C1309.53 684.63 1308.99 685.379 1308.47 686.094C1307.95 686.809 1307.37 687.593 1306.73 688.447L1302.7 693.99L1302.6 693.128L1307.12 698.985C1308.07 700.222 1308.99 701.425 1309.89 702.593C1310.79 703.743 1311.89 705.155 1313.17 706.829H1310.15C1309.24 705.609 1308.41 704.51 1307.66 703.534C1306.92 702.558 1306.08 701.46 1305.14 700.24L1301.43 695.298H1301.12L1297.74 700.03C1296.84 701.268 1296.02 702.401 1295.27 703.43C1294.55 704.441 1293.73 705.574 1292.83 706.829H1290.03Z" fill="#FF573F"/>
<path d="M1346.93 706.437C1346.93 705.164 1346.93 703.953 1346.93 702.802C1346.93 701.634 1346.93 700.449 1346.93 699.246C1346.93 698.026 1346.93 696.71 1346.93 695.298V692.683C1346.93 691.254 1346.93 689.92 1346.93 688.682C1346.93 687.445 1346.93 686.233 1346.93 685.048C1346.93 683.863 1346.93 682.634 1346.93 681.361L1348.18 683.113H1333.79L1334.88 681.361C1334.81 682.477 1334.74 683.575 1334.67 684.656C1334.6 685.719 1334.53 686.843 1334.44 688.029C1334.37 689.214 1334.29 690.556 1334.21 692.055C1334.1 693.799 1333.89 695.481 1333.58 697.102C1333.29 698.723 1332.88 700.222 1332.36 701.599C1331.86 702.959 1331.22 704.153 1330.44 705.181L1327.97 704.842C1328.49 704.301 1329.02 703.508 1329.56 702.462C1330.11 701.416 1330.6 700.013 1331.04 698.252C1331.49 696.474 1331.81 694.226 1332 691.506C1332.14 689.223 1332.26 687.288 1332.36 685.702C1332.47 684.098 1332.57 682.52 1332.67 680.969H1349.32C1349.32 682.259 1349.32 683.531 1349.32 684.787C1349.32 686.024 1349.32 687.288 1349.32 688.578C1349.32 689.868 1349.32 691.236 1349.32 692.683V695.298C1349.32 697.424 1349.32 699.342 1349.32 701.05C1349.32 702.741 1349.32 704.536 1349.32 706.437H1346.93ZM1325.4 714.15C1325.4 713.383 1325.4 712.607 1325.4 711.823C1325.4 711.056 1325.4 710.289 1325.4 709.522C1325.4 708.72 1325.4 707.909 1325.4 707.09C1325.4 706.288 1325.4 705.486 1325.4 704.685C1326.98 704.685 1328.58 704.685 1330.21 704.685C1331.83 704.685 1333.41 704.685 1334.93 704.685H1343.76C1345.3 704.685 1346.89 704.685 1348.51 704.685C1350.14 704.685 1351.74 704.685 1353.32 704.685C1353.32 705.486 1353.32 706.288 1353.32 707.09C1353.32 707.909 1353.32 708.72 1353.32 709.522C1353.32 710.289 1353.32 711.056 1353.32 711.823C1353.32 712.607 1353.32 713.383 1353.32 714.15H1351.14L1351.01 706.437L1351.81 706.829H1326.88L1327.71 706.437L1327.58 714.15H1325.4Z" fill="#FF573F"/>
<path d="M1370.03 707.326C1368.04 707.326 1366.27 706.959 1364.71 706.227C1363.17 705.495 1361.86 704.502 1360.79 703.247C1359.72 701.974 1358.89 700.518 1358.32 698.88C1357.77 697.224 1357.49 695.498 1357.49 693.703C1357.49 691.123 1358.01 688.839 1359.05 686.852C1360.11 684.848 1361.57 683.279 1363.44 682.146C1365.33 680.995 1367.52 680.42 1370.01 680.42C1371.95 680.42 1373.68 680.751 1375.2 681.414C1376.73 682.076 1378.02 683.017 1379.1 684.237C1380.19 685.44 1381.02 686.852 1381.59 688.473C1382.16 690.077 1382.45 691.82 1382.45 693.703C1382.45 696.248 1381.94 698.549 1380.92 700.606C1379.89 702.663 1378.45 704.301 1376.58 705.521C1374.73 706.724 1372.55 707.326 1370.03 707.326ZM1370.03 705.025C1372.27 705.025 1374.11 704.484 1375.57 703.403C1377.04 702.323 1378.14 700.919 1378.86 699.194C1379.61 697.468 1379.98 695.638 1379.98 693.703C1379.98 691.524 1379.57 689.615 1378.76 687.977C1377.96 686.321 1376.82 685.031 1375.33 684.107C1373.84 683.183 1372.08 682.721 1370.03 682.721C1367.84 682.721 1365.98 683.209 1364.48 684.185C1362.99 685.161 1361.85 686.486 1361.08 688.16C1360.31 689.816 1359.93 691.663 1359.93 693.703C1359.93 695.638 1360.31 697.468 1361.05 699.194C1361.79 700.919 1362.91 702.323 1364.4 703.403C1365.91 704.484 1367.78 705.025 1370.03 705.025Z" fill="#FF573F"/>
<path d="M1390.12 706.829C1390.12 704.876 1390.12 703.002 1390.12 701.207C1390.12 699.394 1390.12 697.424 1390.12 695.298V692.657C1390.12 691.193 1390.12 689.824 1390.12 688.552C1390.12 687.262 1390.12 685.998 1390.12 684.76C1390.12 683.523 1390.12 682.259 1390.12 680.969L1392.53 680.838C1392.53 682.773 1392.53 684.682 1392.53 686.565C1392.53 688.43 1392.53 690.417 1392.53 692.526V695.507C1392.53 697.564 1392.53 699.481 1392.53 701.259C1392.53 703.037 1392.53 704.894 1392.53 706.829H1390.12ZM1407.49 706.829C1406.11 705.591 1404.71 704.353 1403.31 703.116C1401.91 701.861 1400.51 700.606 1399.13 699.351L1393.86 694.644H1392.12V692.683H1394.2L1398.56 688.578C1399.91 687.305 1401.26 686.033 1402.61 684.76C1403.98 683.47 1405.33 682.207 1406.66 680.969H1409.93C1408.31 682.451 1406.69 683.941 1405.08 685.44C1403.48 686.939 1401.89 688.43 1400.3 689.911L1395.55 694.33L1395.49 693.023L1400.9 697.886C1402.58 699.368 1404.25 700.858 1405.93 702.358C1407.61 703.857 1409.28 705.347 1410.95 706.829H1407.49Z" fill="#FF573F"/>
<path d="M1419.76 717C1420.43 715.327 1421.11 713.644 1421.78 711.954C1422.47 710.263 1423.16 708.589 1423.83 706.933V707.796C1423.18 706.018 1422.51 704.223 1421.83 702.41C1421.16 700.58 1420.49 698.801 1419.83 697.076L1418.07 692.369C1417.39 690.504 1416.69 688.604 1415.96 686.669C1415.24 684.717 1414.52 682.817 1413.81 680.969L1416.38 680.838C1417.25 683.261 1418.1 685.641 1418.95 687.977C1419.8 690.295 1420.66 692.666 1421.52 695.089L1424.77 704.136H1425.13L1428.69 695.036C1429.61 692.666 1430.52 690.321 1431.42 688.003C1432.33 685.667 1433.25 683.322 1434.17 680.969H1436.64C1436.08 682.364 1435.55 683.715 1435.03 685.022C1434.52 686.312 1433.96 687.741 1433.34 689.31C1432.71 690.861 1431.97 692.718 1431.1 694.879L1428.22 702.148C1426.91 705.46 1425.79 708.267 1424.87 710.568C1423.95 712.886 1423.12 714.987 1422.38 716.869L1419.76 717Z" fill="#FF573F"/>
<path d="M1440.9 706.829C1441.1 704.929 1441.31 703.072 1441.52 701.259C1441.73 699.446 1441.94 697.651 1442.14 695.873L1442.56 692.291C1442.78 690.408 1443 688.526 1443.21 686.643C1443.42 684.743 1443.63 682.852 1443.86 680.969H1446.4C1447.22 682.834 1448.04 684.717 1448.87 686.617C1449.72 688.499 1450.54 690.365 1451.34 692.212L1456.11 703.116H1456.43L1461.2 692.212C1462.02 690.312 1462.83 688.43 1463.65 686.565C1464.48 684.699 1465.3 682.834 1466.11 680.969H1468.68C1468.89 682.817 1469.1 684.708 1469.31 686.643C1469.53 688.578 1469.75 690.478 1469.96 692.343L1470.35 695.899C1470.54 697.642 1470.74 699.438 1470.94 701.285C1471.15 703.116 1471.36 704.964 1471.57 706.829H1469.2C1468.98 704.65 1468.74 702.445 1468.48 700.213C1468.23 697.982 1468 695.777 1467.77 693.598L1466.84 685.179H1466.55L1462.66 694.173C1461.76 696.265 1460.85 698.374 1459.93 700.501C1459.01 702.61 1458.1 704.719 1457.18 706.829H1455.36C1454.44 704.719 1453.53 702.619 1452.61 700.527C1451.71 698.418 1450.8 696.318 1449.88 694.226L1445.93 685.179H1445.65L1444.71 693.546C1444.45 695.76 1444.2 697.973 1443.96 700.187C1443.72 702.401 1443.48 704.615 1443.23 706.829H1440.9Z" fill="#FF573F"/>
<path d="M1490.33 707.326C1487.39 707.326 1484.96 706.742 1483.04 705.574C1481.11 704.388 1479.68 702.776 1478.72 700.736C1477.77 698.679 1477.3 696.335 1477.3 693.703C1477.3 691.123 1477.77 688.831 1478.72 686.826C1479.68 684.821 1481.02 683.253 1482.75 682.12C1484.5 680.986 1486.54 680.42 1488.88 680.42C1490.94 680.42 1492.72 680.847 1494.23 681.701C1495.75 682.555 1496.92 683.802 1497.73 685.44C1498.56 687.061 1498.98 689.022 1498.98 691.323C1498.98 691.933 1498.96 692.491 1498.93 692.997C1498.91 693.502 1498.86 694.008 1498.77 694.513L1496.64 692.945C1496.68 692.666 1496.7 692.395 1496.7 692.134C1496.7 691.872 1496.7 691.62 1496.7 691.376C1496.7 688.412 1495.98 686.216 1494.54 684.787C1493.12 683.357 1491.25 682.642 1488.93 682.642C1486.97 682.642 1485.31 683.113 1483.94 684.054C1482.58 684.978 1481.53 686.268 1480.8 687.924C1480.09 689.563 1479.74 691.437 1479.74 693.546V693.807C1479.74 696.091 1480.13 698.078 1480.91 699.769C1481.68 701.442 1482.86 702.732 1484.44 703.639C1486.01 704.545 1488.02 704.998 1490.46 704.998C1491.35 704.998 1492.24 704.937 1493.14 704.815C1494.04 704.676 1494.92 704.467 1495.79 704.188C1496.65 703.891 1497.49 703.508 1498.31 703.037L1498.46 705.469C1497.8 705.853 1497.04 706.184 1496.18 706.463C1495.33 706.742 1494.4 706.951 1493.4 707.09C1492.41 707.247 1491.39 707.326 1490.33 707.326ZM1478.41 694.513V692.526L1497.16 692.474L1498.77 692.892V694.513H1478.41Z" fill="#FF573F"/>
<path d="M1506.37 706.829C1506.37 704.876 1506.37 703.002 1506.37 701.207C1506.37 699.394 1506.37 697.424 1506.37 695.298V692.683C1506.37 691.236 1506.37 689.868 1506.37 688.578C1506.37 687.288 1506.37 686.024 1506.37 684.787C1506.37 683.531 1506.37 682.259 1506.37 680.969L1508.76 680.838C1508.76 682.146 1508.76 683.427 1508.76 684.682C1508.76 685.937 1508.76 687.218 1508.76 688.526C1508.76 689.833 1508.76 691.219 1508.76 692.683V695.298C1508.76 697.424 1508.76 699.394 1508.76 701.207C1508.76 703.002 1508.76 704.876 1508.76 706.829H1506.37ZM1507.75 694.801V692.657H1525.2V694.801H1507.75ZM1523.98 706.829C1523.98 704.876 1523.98 703.002 1523.98 701.207C1523.98 699.394 1523.98 697.424 1523.98 695.298V692.683C1523.98 691.236 1523.98 689.868 1523.98 688.578C1523.98 687.288 1523.98 686.024 1523.98 684.787C1523.98 683.531 1523.98 682.259 1523.98 680.969H1526.34C1526.34 682.259 1526.34 683.531 1526.34 684.787C1526.34 686.024 1526.34 687.288 1526.34 688.578C1526.34 689.868 1526.34 691.236 1526.34 692.683V695.298C1526.34 697.424 1526.34 699.394 1526.34 701.207C1526.34 703.002 1526.34 704.876 1526.34 706.829H1523.98Z" fill="#FF573F"/>
<path d="M1541.87 706.829C1541.87 704.876 1541.87 703.002 1541.87 701.207C1541.87 699.394 1541.87 697.424 1541.87 695.298V692.683C1541.87 691.254 1541.87 689.92 1541.87 688.682C1541.87 687.445 1541.87 686.233 1541.87 685.048C1541.87 683.863 1541.87 682.634 1541.87 681.361L1542.78 683.113H1541.84C1540.32 683.113 1538.75 683.113 1537.12 683.113C1535.49 683.113 1533.89 683.113 1532.31 683.113V680.969H1553.84V683.113C1552.27 683.113 1550.67 683.113 1549.04 683.113C1547.41 683.113 1545.83 683.113 1544.31 683.113H1543.38L1544.29 681.361C1544.29 682.634 1544.29 683.863 1544.29 685.048C1544.29 686.233 1544.29 687.445 1544.29 688.682C1544.29 689.92 1544.29 691.254 1544.29 692.683V695.298C1544.29 697.424 1544.29 699.394 1544.29 701.207C1544.29 703.002 1544.29 704.876 1544.29 706.829H1541.87Z" fill="#FF573F"/>
<path d="M1570.28 707.326C1568.29 707.326 1566.52 706.959 1564.96 706.227C1563.42 705.495 1562.11 704.502 1561.04 703.247C1559.96 701.974 1559.14 700.518 1558.57 698.88C1558.02 697.224 1557.74 695.498 1557.74 693.703C1557.74 691.123 1558.26 688.839 1559.3 686.852C1560.35 684.848 1561.82 683.279 1563.69 682.146C1565.57 680.995 1567.76 680.42 1570.26 680.42C1572.2 680.42 1573.93 680.751 1575.45 681.414C1576.97 682.076 1578.27 683.017 1579.35 684.237C1580.44 685.44 1581.27 686.852 1581.84 688.473C1582.41 690.077 1582.7 691.82 1582.7 693.703C1582.7 696.248 1582.19 698.549 1581.16 700.606C1580.14 702.663 1578.7 704.301 1576.83 705.521C1574.98 706.724 1572.79 707.326 1570.28 707.326ZM1570.28 705.025C1572.52 705.025 1574.36 704.484 1575.81 703.403C1577.29 702.323 1578.39 700.919 1579.11 699.194C1579.86 697.468 1580.23 695.638 1580.23 693.703C1580.23 691.524 1579.82 689.615 1579.01 687.977C1578.21 686.321 1577.07 685.031 1575.58 684.107C1574.09 683.183 1572.33 682.721 1570.28 682.721C1568.08 682.721 1566.23 683.209 1564.73 684.185C1563.24 685.161 1562.1 686.486 1561.32 688.16C1560.56 689.816 1560.18 691.663 1560.18 693.703C1560.18 695.638 1560.55 697.468 1561.3 699.194C1562.04 700.919 1563.16 702.323 1564.65 703.403C1566.15 704.484 1568.03 705.025 1570.28 705.025Z" fill="#FF573F"/>
<path d="M1590.37 706.829C1590.37 704.876 1590.37 702.994 1590.37 701.181C1590.37 699.368 1590.37 697.407 1590.37 695.298V692.683C1590.37 691.236 1590.37 689.868 1590.37 688.578C1590.37 687.271 1590.37 685.998 1590.37 684.76C1590.37 683.523 1590.37 682.259 1590.37 680.969C1591.77 680.969 1593.48 680.969 1595.51 680.969C1597.53 680.969 1599.46 680.969 1601.27 680.969C1603.16 680.969 1604.68 681.222 1605.84 681.727C1607 682.233 1607.84 682.948 1608.36 683.871C1608.9 684.778 1609.17 685.859 1609.17 687.114C1609.17 688.77 1608.74 690.112 1607.9 691.14C1607.05 692.151 1605.99 692.857 1604.73 693.258V693.546C1605.54 693.668 1606.36 693.947 1607.17 694.383C1607.98 694.801 1608.66 695.446 1609.19 696.318C1609.73 697.189 1610 698.357 1610 699.821C1610 701.111 1609.71 702.288 1609.14 703.351C1608.59 704.397 1607.58 705.242 1606.1 705.887C1604.63 706.515 1602.54 706.829 1599.82 706.829C1597.97 706.829 1596.21 706.829 1594.55 706.829C1592.9 706.829 1591.51 706.829 1590.37 706.829ZM1592.73 704.711H1599.77C1601.79 704.711 1603.37 704.51 1604.49 704.109C1605.62 703.708 1606.41 703.133 1606.86 702.384C1607.31 701.617 1607.53 700.71 1607.53 699.664C1607.53 697.782 1606.92 696.474 1605.69 695.742C1604.46 695.01 1602.69 694.644 1600.37 694.644H1592.13V692.605H1599.92C1601.67 692.605 1603.03 692.378 1604 691.925C1604.99 691.454 1605.68 690.827 1606.08 690.042C1606.49 689.258 1606.7 688.404 1606.7 687.48C1606.7 685.824 1606.19 684.682 1605.17 684.054C1604.17 683.409 1602.75 683.087 1600.91 683.087H1592.73C1592.73 684.691 1592.73 686.242 1592.73 687.741C1592.73 689.223 1592.73 690.844 1592.73 692.605V695.219C1592.73 696.945 1592.73 698.557 1592.73 700.057C1592.73 701.556 1592.73 703.107 1592.73 704.711Z" fill="#FF573F"/>
<defs>
<linearGradient id="paint0_linear_337_1372" x1="455.228" y1="363.001" x2="455.228" y2="576.879" gradientUnits="userSpaceOnUse">
<stop stop-color="white" stop-opacity="0"/>
<stop offset="0.9999" stop-color="#F8604A"/>
</linearGradient>
<linearGradient id="paint1_linear_337_1372" x1="397.65" y1="421.902" x2="397.65" y2="635.78" gradientUnits="userSpaceOnUse">
<stop stop-color="white" stop-opacity="0"/>
<stop offset="0.9999" stop-color="#F8604A"/>
</linearGradient>
</defs>
</svg>
