<svg width="1920" height="1080" viewBox="0 0 1920 1080" fill="none" xmlns="http://www.w3.org/2000/svg">
<rect width="1920" height="1080" fill="black"/>
<path d="M233.421 300H288.154V354.732H233.421V300ZM327.867 300H382.6V354.732H327.867V300ZM397.874 373.57V424.483H270.588V436.703H341.869V482.525H270.588V500.854H397.874V551.767H215.855V373.57H397.874Z" fill="white"/>
<path d="M428.281 551.767V373.57H609.028V551.767H554.295V427.029H483.014V551.767H428.281Z" fill="white"/>
<path d="M821.499 373.57V424.483H694.213V436.703H765.493V482.525H694.213V500.854H821.499V551.767H639.48V373.57H821.499Z" fill="white"/>
<path d="M835.932 551.767V373.57H948.198C961.266 373.57 971.958 375.182 980.275 378.407C988.591 381.462 995.125 385.535 999.877 390.626C1004.8 395.548 1008.11 401.063 1009.8 407.173C1011.67 413.113 1012.61 419.053 1012.61 424.993C1012.61 434.327 1010.4 443.661 1005.99 452.995C1001.57 462.329 994.531 470.9 984.857 478.706C975.183 486.343 962.624 492.877 947.18 498.308C931.736 503.739 912.898 507.303 890.665 509V551.767H835.932ZM891.938 458.85C897.708 458.85 904.327 457.917 911.794 456.05C919.432 454.183 926.645 451.892 933.433 449.176C940.222 446.291 945.907 443.152 950.49 439.757C955.242 436.363 957.618 433.054 957.618 429.829C957.618 427.623 957.024 426.011 955.836 424.993C954.648 423.805 953.12 423.041 951.253 422.701C949.386 422.192 947.35 421.938 945.143 421.938C942.937 421.938 940.731 421.938 938.525 421.938H891.938V458.85Z" fill="white"/>
<path d="M1034.59 551.767V373.57H1089.32V432.12H1168.24V373.57H1222.98V551.767H1168.24V483.034H1089.32V551.767H1034.59Z" fill="white"/>
<path d="M1253.09 373.57H1307.83V418.119C1329.72 421.683 1348.05 426.181 1362.81 431.611C1377.75 437.042 1389.71 443.321 1398.71 450.449C1407.87 457.408 1414.41 465.129 1418.31 473.615C1422.21 481.931 1424.17 490.841 1424.17 500.345C1424.17 506.115 1423.32 512.055 1421.62 518.164C1420.09 524.274 1417.04 529.874 1412.45 534.966C1407.87 539.887 1401.42 543.96 1393.11 547.185C1384.79 550.24 1373.84 551.767 1360.27 551.767H1253.09V373.57ZM1309.1 469.033V503.399H1350.59C1351.95 503.399 1353.31 503.399 1354.67 503.399C1356.19 503.399 1357.55 503.145 1358.74 502.636C1359.93 501.957 1360.95 500.939 1361.8 499.581C1362.64 498.053 1363.07 495.932 1363.07 493.217C1363.07 489.822 1360.95 486.852 1356.7 484.307C1352.63 481.591 1347.71 479.3 1341.94 477.433C1336.17 475.397 1330.23 473.7 1324.12 472.342C1318.01 470.984 1313 469.881 1309.1 469.033ZM1445.29 373.57H1500.03V551.767H1445.29V373.57Z" fill="white"/>
<path d="M1520.62 551.767V373.57H1575.35V484.052L1654.27 425.502V373.57H1709V551.767H1654.27V493.217L1575.35 551.767H1520.62ZM1552.95 302.291H1673.87V348.113H1552.95V302.291Z" fill="white"/>
<path d="M210 601.803H404.748V652.716H333.468V780H278.735V652.716H210V601.803Z" fill="white"/>
<path d="M602.477 601.803V652.716H475.191V664.936H546.471V710.758H475.191V729.087H602.477V780H420.458V601.803H602.477Z" fill="white"/>
<path d="M840.679 780H782.128L769.908 745.124H677.244L665.024 780H606.473L668.843 601.803H778.309L840.679 780ZM736.05 652.716H711.102L695.573 696.756H751.579L736.05 652.716Z" fill="white"/>
<path d="M853.641 601.803H1048.39V652.716H977.108V780H922.375V652.716H853.641V601.803Z" fill="white"/>
<path d="M1066.39 780V601.803H1178.66C1191.72 601.803 1202.42 603.415 1210.73 606.64C1219.05 609.694 1225.58 613.767 1230.33 618.859C1235.26 623.78 1238.57 629.296 1240.26 635.406C1242.13 641.346 1243.06 647.286 1243.06 653.225C1243.06 662.56 1240.86 671.894 1236.44 681.228C1232.03 690.562 1224.99 699.132 1215.31 706.939C1205.64 714.576 1193.08 721.11 1177.64 726.541C1162.19 731.972 1143.36 735.536 1121.12 737.233V780H1066.39ZM1122.4 687.083C1128.17 687.083 1134.78 686.149 1142.25 684.283C1149.89 682.416 1157.1 680.125 1163.89 677.409C1170.68 674.524 1176.36 671.385 1180.95 667.99C1185.7 664.596 1188.08 661.287 1188.08 658.062C1188.08 655.856 1187.48 654.244 1186.29 653.225C1185.11 652.037 1183.58 651.274 1181.71 650.934C1179.84 650.425 1177.81 650.171 1175.6 650.171C1173.39 650.171 1171.19 650.171 1168.98 650.171H1122.4V687.083Z" fill="white"/>
</svg>
