<svg width="1920" height="1080" viewBox="0 0 1920 1080" fill="none" xmlns="http://www.w3.org/2000/svg">
<g clip-path="url(#clip0_198_6398)">
<rect width="1920" height="1080" fill="#D7FF81"/>
<path d="M297.175 208.073C287.114 159.893 344.394 126.822 381.088 159.625L573.199 331.362C585.274 342.156 601.759 346.573 617.614 343.263L869.855 290.59C918.034 280.529 951.105 337.808 918.302 374.503L746.566 566.614C735.771 578.689 731.354 595.174 734.665 611.028L787.337 863.269C797.398 911.449 740.119 944.519 703.424 911.717L511.314 739.98C499.238 729.186 482.754 724.769 466.899 728.079L214.658 780.752C166.478 790.813 133.408 733.534 166.211 696.839L337.947 504.728C348.742 492.653 353.159 476.168 349.848 460.314L297.175 208.073Z" fill="#0E0E0E"/>
<path d="M206.008 21.9436C198.808 -12.5381 239.803 -36.2064 266.064 -12.7298L582.1 269.789C597.609 283.653 618.78 289.326 639.142 285.074L1054.1 198.423C1088.58 191.223 1112.25 232.217 1088.77 258.479L806.251 574.515C792.388 590.023 786.715 611.195 790.967 631.557L877.618 1046.51C884.818 1080.99 843.823 1104.66 817.562 1081.18L501.526 798.666C486.017 784.802 464.846 779.129 444.484 783.381L29.529 870.032C-4.95268 877.233 -28.6209 836.238 -5.14431 809.976L277.375 493.94C291.238 478.432 296.911 457.26 292.659 436.898L206.008 21.9436Z" stroke="#0E0E0E" stroke-width="29"/>
<path d="M93.4713 -172.206C86.2709 -206.687 127.265 -230.356 153.527 -206.879L602.859 194.799C618.368 208.662 639.539 214.335 659.902 210.083L1249.87 86.8859C1284.36 79.6855 1308.02 120.68 1284.55 146.942L882.869 596.274C869.005 611.782 863.332 632.954 867.584 653.316L990.782 1243.29C997.982 1277.77 956.988 1301.44 930.726 1277.96L481.394 876.283C465.885 862.42 444.714 856.747 424.351 860.999L-165.62 984.196C-200.102 991.397 -223.77 950.402 -200.294 924.14L201.384 474.808C215.248 459.3 220.921 438.128 216.669 417.766L93.4713 -172.206Z" stroke="#0E0E0E" stroke-width="29"/>
<path d="M-18.5861 -370.879C-25.7863 -405.36 15.2072 -429.028 41.4691 -405.552L625.788 116.797C641.296 130.661 662.467 136.333 682.83 132.081L1450.04 -28.1256C1484.52 -35.326 1508.19 5.66762 1484.71 31.9295L962.363 616.248C948.5 631.756 942.827 652.928 947.079 673.29L1107.29 1440.5C1114.49 1474.98 1073.49 1498.65 1047.23 1475.17L462.912 952.824C447.404 938.96 426.233 933.287 405.87 937.539L-361.339 1097.75C-395.82 1104.95 -419.488 1063.95 -396.011 1037.69L126.337 453.373C140.2 437.865 145.873 416.693 141.621 396.331L-18.5861 -370.879Z" stroke="#0E0E0E" stroke-width="29"/>
<path d="M-132.55 -564.425C-139.75 -598.907 -98.7567 -622.574 -72.4948 -599.098L647.558 44.5878C663.066 58.4514 684.238 64.1242 704.6 59.8722L1650.03 -137.55C1684.51 -144.751 1708.18 -103.757 1684.7 -77.4953L1041.01 642.558C1027.15 658.066 1021.48 679.237 1025.73 699.6L1223.15 1645.03C1230.35 1679.51 1189.36 1703.18 1163.1 1679.7L443.044 1036.01C427.536 1022.15 406.364 1016.48 386.002 1020.73L-559.425 1218.15C-593.907 1225.35 -617.575 1184.36 -594.098 1158.1L49.5883 438.044C63.4519 422.535 69.1247 401.364 64.8727 381.001L-132.55 -564.425Z" stroke="#0E0E0E" stroke-width="29"/>
<path d="M459.596 410.414C470.089 410.414 478.596 418.921 478.596 429.414L478.596 550.627C478.596 591.417 505.838 617.822 541.7 617.822C577.741 617.822 605.404 591.232 605.404 550.627L605.404 429.414C605.404 418.921 613.911 410.414 624.404 410.414L628 410.414C638.493 410.414 647 418.921 647 429.414L647 550.627C647 612.913 602.21 659.414 541.7 659.414C481.019 659.414 437 612.735 437 550.627L437 429.414C437 418.921 445.507 410.414 456 410.414L459.596 410.414Z" fill="#D7FF81" stroke="#D7FF81" stroke-width="38" stroke-linejoin="round"/>
</g>
<defs>
<clipPath id="clip0_198_6398">
<rect width="1920" height="1080" fill="white"/>
</clipPath>
</defs>
</svg>
