<svg width="2362" height="1150" viewBox="0 0 2362 1150" fill="none" xmlns="http://www.w3.org/2000/svg">
<rect width="2362" height="1150" fill="#CC80FF"/>
<g clip-path="url(#clip0_190_1441)">
<mask id="mask0_190_1441" style="mask-type:luminance" maskUnits="userSpaceOnUse" x="349" y="438" width="1664" height="273">
<path d="M2013 438H349V711H2013V438Z" fill="white"/>
</mask>
<g mask="url(#mask0_190_1441)">
<path d="M2013 438H349V711H2013V438Z" fill="#101820"/>
<path d="M1424.23 555.849V467.266H1480.02C1512.34 467.266 1525.67 474.732 1525.67 489.032C1525.67 505.23 1508.62 509.406 1495.54 510.292V512.823C1508.62 513.709 1525.67 517.885 1525.67 534.083C1525.67 548.383 1512.34 555.849 1480.02 555.849H1424.23ZM1474.76 495.866H1462.06V507.128H1490.54C1490.54 498.903 1481.69 495.866 1474.76 495.866ZM1462.06 527.249H1474.76C1481.69 527.249 1490.54 524.212 1490.54 515.987H1462.06V527.249Z" fill="#CC80FF"/>
<path d="M1577.83 558.38C1550.12 558.38 1531.53 538.892 1531.53 513.709C1531.53 489.032 1549.48 466 1578.21 466C1586.42 466 1595.26 467.898 1604.89 471.948L1614.37 506.875H1616.94V467.265H1655.41V555.849H1619.5V521.301H1616.94C1613.09 541.802 1603.34 558.38 1577.83 558.38ZM1584.62 523.326C1594.63 523.326 1600.78 518.644 1600.78 511.557C1600.78 504.471 1594.63 499.788 1584.62 499.788C1574.49 499.788 1567.57 504.471 1567.57 511.557C1567.57 518.644 1574.49 523.326 1584.62 523.326Z" fill="#CC80FF"/>
<path d="M1662.55 555.849V467.266H1701.02V521.681H1725.78C1734.11 521.681 1738.99 519.277 1738.99 515.101C1738.99 512.443 1737.06 510.925 1725.52 507.508C1722.7 506.622 1713.59 503.838 1713.59 491.436C1713.59 474.226 1731.16 467.266 1762.84 467.266H1773.48V500.168H1765.66C1757.45 500.168 1751.68 503.079 1751.68 508.773C1751.68 514.468 1757.45 521.681 1773.35 521.681H1788.23V467.266H1826.7V555.849H1662.55Z" fill="#CC80FF"/>
<path d="M1878.89 558.38C1851.19 558.38 1832.59 538.892 1832.59 513.709C1832.59 489.032 1850.55 466 1879.27 466C1887.48 466 1896.33 467.898 1905.95 471.948L1915.44 506.875H1918V467.265H1956.48V555.849H1920.57V521.301H1918C1914.15 541.802 1904.41 558.38 1878.89 558.38ZM1885.69 523.326C1895.69 523.326 1901.85 518.644 1901.85 511.557C1901.85 504.471 1895.69 499.788 1885.69 499.788C1875.56 499.788 1868.63 504.471 1868.63 511.557C1868.63 518.644 1875.56 523.326 1885.69 523.326Z" fill="#CC80FF"/>
<path d="M1260.86 672.876C1233.16 672.876 1214.56 653.388 1214.56 628.205C1214.56 603.528 1232.52 580.496 1261.24 580.496C1269.45 580.496 1278.3 582.394 1287.92 586.444L1297.41 621.371H1299.97V581.762H1338.44V670.345H1302.54V635.798H1299.97C1296.12 656.298 1286.38 672.876 1260.86 672.876ZM1267.66 637.823C1277.66 637.823 1283.81 633.14 1283.81 626.053C1283.81 618.967 1277.66 614.285 1267.66 614.285C1257.52 614.285 1250.6 618.967 1250.6 626.053C1250.6 633.14 1257.52 637.823 1267.66 637.823Z" fill="#CC80FF"/>
<path d="M1393.55 614.284C1385.21 614.284 1380.34 619.473 1380.34 626.053C1380.34 632.634 1385.21 637.822 1393.55 637.822C1401.76 637.822 1407.14 632.634 1407.14 626.053C1407.14 619.473 1401.76 614.284 1393.55 614.284ZM1489.98 637.822C1498.19 637.822 1503.07 632.634 1503.07 626.053C1503.07 619.473 1498.19 614.284 1489.98 614.284C1481.65 614.284 1476.26 619.473 1476.26 626.053C1476.26 632.634 1481.65 637.822 1489.98 637.822ZM1423.3 683V630.735H1420.74L1411.25 665.663C1401.63 669.712 1396.63 671.611 1388.42 671.611C1359.69 671.611 1344.3 648.579 1344.3 623.902C1344.3 598.719 1360.33 579.231 1386.63 579.231C1410.99 579.231 1419.45 595.808 1423.3 616.309H1425.87V569.106H1460.11V621.371H1462.67L1472.16 586.444C1481.78 582.394 1486.78 580.496 1494.99 580.496C1523.71 580.496 1539.1 603.528 1539.1 628.205C1539.1 653.388 1523.07 672.876 1496.78 672.876C1472.42 672.876 1463.95 656.298 1460.11 635.798H1457.54V683H1423.3Z" fill="#CC80FF"/>
<path d="M1544.96 630.862V581.761H1583.3V612.006C1583.3 624.914 1585.23 637.948 1600.11 637.948C1614.98 637.948 1616.91 624.914 1616.91 612.006V581.761H1655.38V670.345H1619.47V637.063H1616.91L1608.57 667.814C1599.98 672.243 1591.26 674.141 1583.18 674.141C1564.32 674.141 1544.96 663.764 1544.96 630.862Z" fill="#CC80FF"/>
<path d="M1662.55 670.345V581.761H1701.02V636.177H1725.78C1734.11 636.177 1738.99 633.773 1738.99 629.596C1738.99 626.939 1737.06 625.42 1725.52 622.004C1722.7 621.118 1713.59 618.334 1713.59 605.932C1713.59 588.721 1731.16 581.761 1762.84 581.761H1773.48V614.664H1765.66C1757.45 614.664 1751.68 617.574 1751.68 623.269C1751.68 628.964 1757.45 636.177 1773.35 636.177H1788.23V581.761H1826.7V670.345H1662.55Z" fill="#CC80FF"/>
<path d="M1878.89 672.876C1851.19 672.876 1832.59 653.388 1832.59 628.205C1832.59 603.528 1850.55 580.496 1879.27 580.496C1887.48 580.496 1896.33 582.394 1905.95 586.444L1915.44 621.371H1918V581.762H1956.48V670.345H1920.57V635.798H1918C1914.15 656.298 1904.41 672.876 1878.89 672.876ZM1885.69 637.823C1895.69 637.823 1901.85 633.14 1901.85 626.053C1901.85 618.967 1895.69 614.285 1885.69 614.285C1875.56 614.285 1868.63 618.967 1868.63 626.053C1868.63 633.14 1875.56 637.823 1885.69 637.823Z" fill="#CC80FF"/>
<path d="M557.444 459H476.188V693.5H557.444V459Z" fill="#CC80FF"/>
<path d="M967.257 459H886V693.5H967.257V459Z" fill="#CC80FF"/>
<path d="M578.638 459H568.039V693.5H578.638V459Z" fill="#CC80FF"/>
<path d="M659.896 459H649.297V693.5H659.896V459Z" fill="#CC80FF"/>
<path d="M854.208 459H843.609V693.5H854.208V459Z" fill="#CC80FF"/>
<path d="M875.403 459H864.805V693.5H875.403V459Z" fill="#CC80FF"/>
<path d="M638.701 459H610.438V693.5H638.701V459Z" fill="#CC80FF"/>
<path d="M716.42 459H670.492V693.5H716.42V459Z" fill="#CC80FF"/>
<path d="M748.216 459H737.617V693.5H748.216V459Z" fill="#CC80FF"/>
<path d="M780.013 459H769.414V693.5H780.013V459Z" fill="#CC80FF"/>
<path d="M815.348 459H790.617V693.5H815.348V459Z" fill="#CC80FF"/>
<path d="M843.61 459H825.945V693.5H843.61V459Z" fill="#CC80FF"/>
</g>
</g>
<defs>
<clipPath id="clip0_190_1441">
<rect width="1664" height="273" fill="white" transform="translate(349 438)"/>
</clipPath>
</defs>
</svg>
