<svg width="1164" height="547" viewBox="0 0 1164 547" fill="none" xmlns="http://www.w3.org/2000/svg">
<g clip-path="url(#clip0_189_1193)">
<path d="M1164 0H0V547H1164V0Z" fill="white"/>
<path d="M439.641 123.712V105.883H450.717C457.133 105.883 459.781 107.386 459.781 110.264C459.781 113.524 456.395 114.364 453.798 114.543V115.052C456.395 115.23 459.781 116.071 459.781 119.331C459.781 122.209 457.133 123.712 450.717 123.712H439.641ZM449.673 111.639H447.152V113.906H452.805C452.805 112.25 451.048 111.639 449.673 111.639ZM447.152 117.956H449.673C451.048 117.956 452.805 117.344 452.805 115.689H447.152V117.956ZM460.486 123.712L463.873 114.848L460.486 105.883H469.118L470.773 114.161H471.155L472.81 105.883H481.442L478.081 114.848L481.442 123.712H472.81L471.155 115.562H470.773L469.118 123.712H460.486ZM492.601 124.221C485.904 124.221 481.907 120.732 481.907 114.797C481.907 108.863 485.904 105.373 492.601 105.373C499.272 105.373 503.066 108.863 503.066 114.797C503.066 120.732 499.272 124.221 492.601 124.221ZM492.601 117.166C494.663 117.166 495.911 116.224 495.911 114.797C495.911 113.371 494.663 112.429 492.601 112.429C490.513 112.429 489.062 113.371 489.062 114.797C489.062 116.224 490.513 117.166 492.601 117.166ZM511.244 110.569V110.187L504.93 108.761C506.152 104.075 512.135 102.572 516.388 102.572C523.695 102.572 528.61 106.723 528.61 114.237C528.61 122.107 521.735 124.476 515.013 124.476C510.251 124.476 504.344 123.304 504.344 117.37C504.344 113.32 507.654 111.257 511.244 110.569ZM512.263 110.162L512.492 110.493C515.038 110.391 517.253 110.518 519.672 111.41L520.691 116.3L521.2 116.275C522.091 112.531 520.894 108.557 516.286 108.557C514.682 108.557 513.358 108.965 512.263 110.162ZM514.529 118.592C516.617 118.592 517.737 118.007 517.737 117.141C517.737 116.3 516.668 115.714 514.58 115.714C512.594 115.714 511.397 116.249 511.397 117.166C511.397 118.083 512.594 118.592 514.529 118.592Z" fill="#101820"/>
<mask id="mask0_189_1193" style="mask-type:luminance" maskUnits="userSpaceOnUse" x="208" y="14" width="177" height="30">
<path d="M384.966 14.5542H208.547V43.6628H384.966V14.5542Z" fill="white"/>
</mask>
<g mask="url(#mask0_189_1193)">
<mask id="mask1_189_1193" style="mask-type:luminance" maskUnits="userSpaceOnUse" x="208" y="14" width="177" height="30">
<path d="M384.966 14.5542H208.547V43.6628H384.966V14.5542Z" fill="white"/>
</mask>
<g mask="url(#mask1_189_1193)">
<path d="M384.966 14.5542H208.547V43.6628H384.966V14.5542Z" fill="#101820"/>
<path d="M322.547 27.1201V17.6748H328.461C331.887 17.6748 333.302 18.4709 333.302 19.9956C333.302 21.7228 331.493 22.168 330.106 22.2625V22.5324C331.493 22.6268 333.302 23.0721 333.302 24.7992C333.302 26.324 331.887 27.1201 328.461 27.1201H322.547ZM327.904 20.7243H326.557V21.9252H329.576C329.576 21.0481 328.638 20.7243 327.904 20.7243ZM326.557 24.0706H327.904C328.638 24.0706 329.576 23.7467 329.576 22.8697H326.557V24.0706Z" fill="white"/>
<path d="M338.83 27.3896C335.893 27.3896 333.922 25.3116 333.922 22.6265C333.922 19.9953 335.825 17.5396 338.871 17.5396C339.741 17.5396 340.679 17.7419 341.699 18.1737L342.705 21.8978H342.977V17.6745H347.056V27.1197H343.248V23.4361H342.977C342.569 25.6219 341.536 27.3896 338.83 27.3896ZM339.55 23.6519C340.611 23.6519 341.264 23.1527 341.264 22.3971C341.264 21.6414 340.611 21.1422 339.55 21.1422C338.477 21.1422 337.742 21.6414 337.742 22.3971C337.742 23.1527 338.477 23.6519 339.55 23.6519Z" fill="white"/>
<path d="M347.812 27.1201V17.6748H351.891V23.4769H354.515C355.398 23.4769 355.916 23.2205 355.916 22.7752C355.916 22.4919 355.711 22.3299 354.488 21.9657C354.189 21.8712 353.223 21.5743 353.223 20.252C353.223 18.417 355.086 17.6748 358.444 17.6748H359.573V21.1831H358.743C357.873 21.1831 357.262 21.4934 357.262 22.1006C357.262 22.7078 357.873 23.4769 359.559 23.4769H361.136V17.6748H365.215V27.1201H347.812Z" fill="white"/>
<path d="M370.744 27.3896C367.807 27.3896 365.836 25.3116 365.836 22.6265C365.836 19.9953 367.74 17.5396 370.785 17.5396C371.655 17.5396 372.594 17.7419 373.613 18.1737L374.619 21.8978H374.891V17.6745H378.97V27.1197H375.163V23.4361H374.891C374.483 25.6219 373.45 27.3896 370.744 27.3896ZM371.465 23.6519C372.525 23.6519 373.178 23.1527 373.178 22.3971C373.178 21.6414 372.525 21.1422 371.465 21.1422C370.391 21.1422 369.657 21.6414 369.657 22.3971C369.657 23.1527 370.391 23.6519 371.465 23.6519Z" fill="white"/>
<path d="M305.221 39.5981C302.284 39.5981 300.312 37.5201 300.312 34.835C300.312 32.2038 302.216 29.748 305.262 29.748C306.132 29.748 307.07 29.9505 308.089 30.3823L309.096 34.1063H309.368V29.883H313.447V39.3282H309.64V35.6446H309.368C308.96 37.8305 307.926 39.5981 305.221 39.5981ZM305.942 35.8605C307.002 35.8605 307.655 35.3612 307.655 34.6056C307.655 33.85 307.002 33.3508 305.942 33.3508C304.867 33.3508 304.133 33.85 304.133 34.6056C304.133 35.3612 304.867 35.8605 305.942 35.8605Z" fill="white"/>
<path d="M319.291 33.3507C318.407 33.3507 317.891 33.904 317.891 34.6056C317.891 35.3073 318.407 35.8605 319.291 35.8605C320.161 35.8605 320.732 35.3073 320.732 34.6056C320.732 33.904 320.161 33.3507 319.291 33.3507ZM329.515 35.8605C330.385 35.8605 330.902 35.3073 330.902 34.6056C330.902 33.904 330.385 33.3507 329.515 33.3507C328.632 33.3507 328.061 33.904 328.061 34.6056C328.061 35.3073 328.632 35.8605 329.515 35.8605ZM322.446 40.6776V35.1048H322.173L321.168 38.829C320.148 39.2608 319.617 39.4632 318.748 39.4632C315.702 39.4632 314.07 37.0074 314.07 34.3763C314.07 31.6911 315.77 29.6131 318.557 29.6131C321.14 29.6131 322.038 31.3808 322.446 33.5666H322.717V28.5337H326.347V34.1064H326.62L327.625 30.3823C328.645 29.9505 329.176 29.7481 330.046 29.7481C333.091 29.7481 334.723 32.2038 334.723 34.835C334.723 37.5201 333.023 39.5981 330.236 39.5981C327.653 39.5981 326.755 37.8305 326.347 35.6446H326.076V40.6776H322.446Z" fill="white"/>
<path d="M335.344 35.1182V29.8828H339.409V33.1076C339.409 34.484 339.613 35.8737 341.19 35.8737C342.767 35.8737 342.972 34.484 342.972 33.1076V29.8828H347.05V39.328H343.244V35.7793H342.972L342.088 39.0582C341.176 39.5304 340.253 39.7328 339.396 39.7328C337.397 39.7328 335.344 38.6264 335.344 35.1182Z" fill="white"/>
<path d="M347.812 39.328V29.8828H351.891V35.6848H354.515C355.398 35.6848 355.916 35.4285 355.916 34.9832C355.916 34.6999 355.711 34.538 354.488 34.1736C354.189 34.0792 353.223 33.7823 353.223 32.46C353.223 30.6249 355.086 29.8828 358.444 29.8828H359.573V33.391H358.743C357.873 33.391 357.262 33.7014 357.262 34.3085C357.262 34.9158 357.873 35.6848 359.559 35.6848H361.136V29.8828H365.215V39.328H347.812Z" fill="white"/>
<path d="M370.744 39.5981C367.807 39.5981 365.836 37.5201 365.836 34.835C365.836 32.2038 367.74 29.748 370.785 29.748C371.655 29.748 372.594 29.9505 373.613 30.3823L374.619 34.1063H374.891V29.883H378.97V39.3282H375.163V35.6446H374.891C374.483 37.8305 373.45 39.5981 370.744 39.5981ZM371.465 35.8605C372.525 35.8605 373.178 35.3612 373.178 34.6056C373.178 33.85 372.525 33.3508 371.465 33.3508C370.391 33.3508 369.657 33.85 369.657 34.6056C369.657 35.3612 370.391 35.8605 371.465 35.8605Z" fill="white"/>
<path d="M230.646 16.7935H222.031V41.797H230.646V16.7935Z" fill="white"/>
<path d="M274.091 16.7935H265.477V41.797H274.091V16.7935Z" fill="white"/>
<path d="M232.897 16.7935H231.773V41.797H232.897V16.7935Z" fill="white"/>
<path d="M241.506 16.7935H240.383V41.797H241.506V16.7935Z" fill="white"/>
<path d="M262.108 16.7935H260.984V41.797H262.108V16.7935Z" fill="white"/>
<path d="M264.358 16.7935H263.234V41.797H264.358V16.7935Z" fill="white"/>
<path d="M239.262 16.7935H236.266V41.797H239.262V16.7935Z" fill="white"/>
<path d="M247.502 16.7935H242.633V41.797H247.502V16.7935Z" fill="white"/>
<path d="M250.873 16.7935H249.75V41.797H250.873V16.7935Z" fill="white"/>
<path d="M254.241 16.7935H253.117V41.797H254.241V16.7935Z" fill="white"/>
<path d="M257.989 16.7935H255.367V41.797H257.989V16.7935Z" fill="white"/>
<path d="M260.982 16.7935H259.109V41.797H260.982V16.7935Z" fill="white"/>
</g>
</g>
<path d="M705.672 145.543H458.322C447.608 145.543 438.922 154.232 438.922 164.949V389.935C438.922 400.652 447.608 409.341 458.322 409.341H705.672C716.386 409.341 725.072 400.652 725.072 389.935V164.949C725.072 154.232 716.386 145.543 705.672 145.543Z" fill="#F1F1F1"/>
<path d="M468.414 199.758H471.35C471.677 199.758 471.972 199.802 472.233 199.889C472.503 199.977 472.732 200.104 472.921 200.271C473.11 200.439 473.256 200.642 473.357 200.883C473.459 201.123 473.51 201.396 473.51 201.701C473.51 202.138 473.397 202.505 473.172 202.804C472.946 203.095 472.608 203.309 472.157 203.448V203.317C472.71 203.426 473.128 203.659 473.412 204.015C473.696 204.365 473.838 204.794 473.838 205.303C473.838 205.631 473.779 205.926 473.663 206.188C473.554 206.442 473.397 206.661 473.194 206.843C472.99 207.017 472.746 207.155 472.463 207.257C472.179 207.352 471.866 207.399 471.524 207.399H468.414V199.758ZM469.32 203.033H471.273C471.673 203.033 471.993 202.92 472.233 202.695C472.474 202.462 472.594 202.16 472.594 201.789C472.594 201.439 472.474 201.155 472.233 200.937C471.993 200.719 471.673 200.61 471.273 200.61H469.32V203.033ZM469.32 203.884V206.548H471.48C471.917 206.548 472.266 206.424 472.528 206.177C472.79 205.929 472.921 205.602 472.921 205.194C472.921 204.809 472.79 204.496 472.528 204.256C472.266 204.008 471.917 203.884 471.48 203.884H469.32ZM475.199 207.399V201.941H477.665C478.145 201.941 478.531 202.072 478.822 202.334C479.113 202.596 479.258 202.942 479.258 203.371C479.258 203.684 479.174 203.943 479.007 204.146C478.847 204.35 478.629 204.492 478.352 204.572L478.32 204.474C478.676 204.532 478.956 204.688 479.16 204.943C479.371 205.191 479.476 205.504 479.476 205.882C479.476 206.34 479.32 206.708 479.007 206.984C478.694 207.261 478.276 207.399 477.752 207.399H475.199ZM476.028 204.19H477.643C477.883 204.19 478.072 204.121 478.21 203.983C478.349 203.844 478.418 203.666 478.418 203.448C478.418 203.237 478.349 203.062 478.21 202.924C478.072 202.778 477.883 202.705 477.643 202.705H476.028V204.19ZM476.028 206.635H477.73C477.985 206.635 478.196 206.562 478.363 206.417C478.538 206.271 478.625 206.06 478.625 205.784C478.625 205.514 478.538 205.307 478.363 205.162C478.196 205.009 477.985 204.932 477.73 204.932H476.028V206.635ZM483.207 207.552C482.785 207.552 482.399 207.483 482.05 207.345C481.708 207.199 481.413 206.999 481.166 206.744C480.919 206.49 480.726 206.188 480.588 205.838C480.449 205.489 480.38 205.107 480.38 204.692C480.38 204.27 480.449 203.884 480.588 203.535C480.726 203.178 480.919 202.873 481.166 202.618C481.421 202.356 481.719 202.152 482.061 202.007C482.403 201.861 482.774 201.789 483.174 201.789C483.559 201.789 483.909 201.854 484.221 201.985C484.542 202.109 484.814 202.287 485.04 202.52C485.265 202.753 485.44 203.033 485.564 203.36C485.695 203.681 485.76 204.037 485.76 204.43C485.76 204.51 485.756 204.594 485.749 204.681C485.749 204.761 485.742 204.841 485.727 204.921H481.079V204.135H484.942L484.854 204.212C484.854 203.979 484.811 203.764 484.723 203.568C484.643 203.371 484.527 203.204 484.374 203.066C484.221 202.92 484.04 202.807 483.829 202.727C483.625 202.647 483.399 202.607 483.152 202.607C482.868 202.607 482.61 202.658 482.377 202.76C482.152 202.862 481.955 203.007 481.788 203.197C481.628 203.379 481.501 203.597 481.406 203.852C481.319 204.099 481.275 204.376 481.275 204.681C481.275 204.987 481.322 205.267 481.417 205.522C481.511 205.769 481.642 205.984 481.81 206.166C481.977 206.34 482.181 206.479 482.421 206.581C482.661 206.675 482.926 206.722 483.217 206.722C483.567 206.722 483.872 206.65 484.134 206.504C484.403 206.359 484.636 206.133 484.833 205.827L485.531 206.351C485.254 206.744 484.923 207.043 484.538 207.246C484.152 207.45 483.709 207.552 483.207 207.552ZM486.418 208.818V206.581H487.051C487.131 206.457 487.197 206.304 487.248 206.122C487.306 205.94 487.353 205.707 487.39 205.423C487.426 205.132 487.452 204.783 487.466 204.376C487.488 203.968 487.499 203.48 487.499 202.913V201.941H491.46V206.581H492.311V208.818H491.438V207.399H487.291V208.818H486.418ZM487.979 206.581H490.576V202.76H488.372V203.382C488.372 203.782 488.365 204.146 488.35 204.474C488.335 204.794 488.31 205.085 488.274 205.347C488.244 205.609 488.204 205.842 488.154 206.046C488.103 206.242 488.044 206.42 487.979 206.581ZM494.327 201.941V206.111L497.197 201.941H498.092V207.399H497.208V203.229L494.338 207.399H493.443V201.941H494.327ZM503.768 201.941V202.749H501.891V207.399H501.018V202.749H499.141V201.941H503.768ZM507.152 207.552C506.73 207.552 506.345 207.483 505.995 207.345C505.654 207.199 505.359 206.999 505.112 206.744C504.864 206.49 504.671 206.188 504.533 205.838C504.395 205.489 504.326 205.107 504.326 204.692C504.326 204.27 504.395 203.884 504.533 203.535C504.671 203.178 504.864 202.873 505.112 202.618C505.366 202.356 505.664 202.152 506.006 202.007C506.348 201.861 506.719 201.789 507.119 201.789C507.505 201.789 507.854 201.854 508.167 201.985C508.487 202.109 508.76 202.287 508.986 202.52C509.211 202.753 509.386 203.033 509.509 203.36C509.64 203.681 509.706 204.037 509.706 204.43C509.706 204.51 509.702 204.594 509.695 204.681C509.695 204.761 509.688 204.841 509.673 204.921H505.024V204.135H508.887L508.8 204.212C508.8 203.979 508.756 203.764 508.669 203.568C508.589 203.371 508.473 203.204 508.32 203.066C508.167 202.92 507.985 202.807 507.774 202.727C507.571 202.647 507.345 202.607 507.098 202.607C506.814 202.607 506.556 202.658 506.323 202.76C506.097 202.862 505.901 203.007 505.734 203.197C505.574 203.379 505.446 203.597 505.352 203.852C505.264 204.099 505.221 204.376 505.221 204.681C505.221 204.987 505.268 205.267 505.363 205.522C505.457 205.769 505.588 205.984 505.755 206.166C505.923 206.34 506.126 206.479 506.367 206.581C506.607 206.675 506.872 206.722 507.163 206.722C507.512 206.722 507.818 206.65 508.08 206.504C508.349 206.359 508.582 206.133 508.778 205.827L509.477 206.351C509.2 206.744 508.869 207.043 508.484 207.246C508.098 207.45 507.654 207.552 507.152 207.552ZM516.371 207.552C515.949 207.552 515.563 207.483 515.214 207.345C514.872 207.199 514.578 206.999 514.33 206.744C514.083 206.49 513.89 206.188 513.752 205.838C513.614 205.489 513.545 205.107 513.545 204.692C513.545 204.27 513.614 203.884 513.752 203.535C513.89 203.178 514.083 202.873 514.33 202.618C514.585 202.356 514.883 202.152 515.225 202.007C515.567 201.861 515.938 201.789 516.338 201.789C516.724 201.789 517.073 201.854 517.386 201.985C517.706 202.109 517.979 202.287 518.204 202.52C518.43 202.753 518.604 203.033 518.728 203.36C518.859 203.681 518.924 204.037 518.924 204.43C518.924 204.51 518.921 204.594 518.913 204.681C518.913 204.761 518.906 204.841 518.892 204.921H514.243V204.135H518.106L518.019 204.212C518.019 203.979 517.975 203.764 517.888 203.568C517.808 203.371 517.691 203.204 517.539 203.066C517.386 202.92 517.204 202.807 516.993 202.727C516.789 202.647 516.564 202.607 516.316 202.607C516.033 202.607 515.774 202.658 515.542 202.76C515.316 202.862 515.12 203.007 514.952 203.197C514.792 203.379 514.665 203.597 514.57 203.852C514.483 204.099 514.439 204.376 514.439 204.681C514.439 204.987 514.487 205.267 514.581 205.522C514.676 205.769 514.807 205.984 514.974 206.166C515.141 206.34 515.345 206.479 515.585 206.581C515.825 206.675 516.091 206.722 516.382 206.722C516.731 206.722 517.037 206.65 517.298 206.504C517.568 206.359 517.8 206.133 517.997 205.827L518.695 206.351C518.419 206.744 518.088 207.043 517.702 207.246C517.317 207.45 516.873 207.552 516.371 207.552ZM523.661 207.399V204.157C523.661 203.662 523.559 203.284 523.355 203.022C523.159 202.753 522.868 202.618 522.482 202.618C522.068 202.618 521.729 202.76 521.468 203.044C521.213 203.328 521.086 203.699 521.086 204.157V207.399H520.202V201.941H521.086V202.782L521.042 202.771C521.209 202.451 521.431 202.207 521.708 202.04C521.991 201.872 522.315 201.789 522.679 201.789C523.115 201.789 523.483 201.901 523.781 202.127C524.087 202.353 524.301 202.676 524.425 203.098H524.185C524.374 202.676 524.632 202.353 524.96 202.127C525.287 201.901 525.669 201.789 526.105 201.789C526.404 201.789 526.669 201.839 526.902 201.941C527.135 202.043 527.331 202.189 527.491 202.378C527.659 202.567 527.786 202.8 527.873 203.077C527.961 203.353 528.004 203.662 528.004 204.004V207.399H527.12V204.157C527.12 203.662 527.018 203.284 526.815 203.022C526.618 202.753 526.327 202.618 525.942 202.618C525.527 202.618 525.189 202.76 524.927 203.044C524.672 203.328 524.545 203.699 524.545 204.157V207.399H523.661ZM529.23 205.926C529.23 205.402 529.434 204.983 529.841 204.67C530.256 204.35 530.863 204.172 531.664 204.135L533.322 204.059V204.801L531.729 204.878C531.198 204.907 530.798 205.005 530.529 205.172C530.259 205.333 530.125 205.565 530.125 205.871C530.125 206.148 530.227 206.366 530.43 206.526C530.641 206.679 530.918 206.755 531.26 206.755C531.514 206.755 531.747 206.712 531.958 206.624C532.176 206.537 532.362 206.417 532.515 206.264C532.675 206.111 532.798 205.933 532.886 205.729C532.98 205.525 533.028 205.307 533.028 205.074V203.994C533.028 203.55 532.9 203.204 532.646 202.957C532.398 202.709 532.053 202.585 531.609 202.585C531.267 202.585 530.969 202.662 530.714 202.815C530.467 202.967 530.27 203.197 530.125 203.502L529.383 203.131C529.572 202.702 529.863 202.371 530.256 202.138C530.649 201.905 531.107 201.789 531.631 201.789C531.973 201.789 532.282 201.839 532.558 201.941C532.842 202.043 533.082 202.185 533.279 202.367C533.475 202.549 533.628 202.771 533.737 203.033C533.846 203.288 533.901 203.575 533.901 203.895V207.399H533.028V206.111H533.224C533.049 206.577 532.78 206.934 532.416 207.181C532.06 207.428 531.627 207.552 531.118 207.552C530.55 207.552 530.092 207.407 529.743 207.115C529.401 206.817 529.23 206.42 529.23 205.926ZM535.558 201.941H536.442V207.399H535.558V201.941ZM536.005 200.773C536.18 200.773 536.326 200.715 536.442 200.599C536.566 200.475 536.628 200.326 536.628 200.151C536.628 199.977 536.566 199.831 536.442 199.715C536.326 199.591 536.18 199.529 536.005 199.529H535.995C535.82 199.529 535.671 199.591 535.547 199.715C535.431 199.831 535.373 199.977 535.373 200.151C535.373 200.326 535.431 200.475 535.547 200.599C535.671 200.715 535.82 200.773 535.995 200.773H536.005ZM538.989 207.399H538.106V199.518H538.989V207.399Z" fill="#5C5C5C"/>
<path d="M467.727 182.59V181.64H467.814C468.076 181.64 468.294 181.586 468.469 181.477C468.65 181.36 468.792 181.153 468.894 180.854C468.996 180.556 469.069 180.149 469.112 179.632C469.156 179.115 469.178 178.457 469.178 177.656V174.894H474.143V182.535H473.194V175.779H470.116V177.984C470.116 178.85 470.076 179.577 469.996 180.167C469.924 180.756 469.8 181.233 469.625 181.597C469.458 181.953 469.232 182.208 468.949 182.361C468.672 182.514 468.33 182.59 467.923 182.59H467.727ZM478.454 182.688C478.039 182.688 477.661 182.616 477.319 182.47C476.977 182.324 476.678 182.124 476.424 181.87C476.176 181.608 475.984 181.302 475.845 180.953C475.707 180.596 475.638 180.214 475.638 179.807C475.638 179.399 475.707 179.021 475.845 178.671C475.984 178.315 476.176 178.009 476.424 177.754C476.678 177.492 476.977 177.289 477.319 177.143C477.661 176.998 478.039 176.925 478.454 176.925C478.868 176.925 479.247 176.998 479.588 177.143C479.93 177.289 480.225 177.492 480.472 177.754C480.727 178.009 480.923 178.315 481.062 178.671C481.2 179.021 481.269 179.399 481.269 179.807C481.269 180.214 481.2 180.596 481.062 180.953C480.923 181.302 480.727 181.608 480.472 181.87C480.225 182.124 479.93 182.324 479.588 182.47C479.247 182.616 478.868 182.688 478.454 182.688ZM478.454 181.859C478.737 181.859 478.996 181.808 479.228 181.706C479.468 181.604 479.672 181.462 479.839 181.28C480.007 181.091 480.138 180.873 480.232 180.625C480.327 180.371 480.374 180.098 480.374 179.807C480.374 179.508 480.327 179.235 480.232 178.988C480.138 178.74 480.007 178.526 479.839 178.344C479.672 178.155 479.468 178.009 479.228 177.907C478.996 177.805 478.737 177.754 478.454 177.754C478.17 177.754 477.908 177.805 477.668 177.907C477.435 178.009 477.235 178.155 477.068 178.344C476.9 178.526 476.769 178.74 476.675 178.988C476.58 179.235 476.533 179.508 476.533 179.807C476.533 180.098 476.58 180.371 476.675 180.625C476.769 180.873 476.9 181.091 477.068 181.28C477.235 181.462 477.435 181.604 477.668 181.706C477.908 181.808 478.17 181.859 478.454 181.859ZM482.615 177.078H485.955V177.896H483.499V182.535H482.615V177.078ZM487.89 177.078V181.247L490.76 177.078H491.655V182.535H490.771V178.366L487.901 182.535H487.007V177.078H487.89ZM497.898 177.078V182.535H497.014V180.047H494.199V182.535H493.315V177.078H494.199V179.228H497.014V177.078H497.898ZM502.22 179.381C502.22 178.908 502.256 178.446 502.329 177.995C502.402 177.543 502.511 177.107 502.656 176.685C502.809 176.255 502.995 175.844 503.213 175.451C503.438 175.051 503.697 174.672 503.988 174.316L504.631 174.829C504.144 175.498 503.762 176.201 503.486 176.936C503.209 177.671 503.071 178.486 503.071 179.381C503.071 180.276 503.209 181.091 503.486 181.826C503.762 182.561 504.144 183.263 504.631 183.933L503.988 184.446C503.697 184.089 503.438 183.711 503.213 183.31C502.995 182.918 502.809 182.506 502.656 182.077C502.511 181.648 502.402 181.207 502.329 180.756C502.256 180.305 502.22 179.847 502.22 179.381ZM508.091 182.688C507.669 182.688 507.283 182.619 506.934 182.481C506.592 182.335 506.297 182.135 506.05 181.881C505.803 181.626 505.61 181.324 505.472 180.975C505.333 180.625 505.264 180.243 505.264 179.828C505.264 179.406 505.333 179.021 505.472 178.671C505.61 178.315 505.803 178.009 506.05 177.754C506.305 177.492 506.603 177.289 506.945 177.143C507.287 176.998 507.658 176.925 508.058 176.925C508.444 176.925 508.793 176.99 509.106 177.121C509.426 177.245 509.698 177.423 509.924 177.656C510.149 177.889 510.324 178.169 510.448 178.497C510.579 178.817 510.644 179.173 510.644 179.566C510.644 179.646 510.641 179.73 510.633 179.817C510.633 179.897 510.626 179.978 510.611 180.058H505.963V179.272H509.826L509.738 179.348C509.738 179.115 509.695 178.901 509.608 178.704C509.527 178.508 509.411 178.34 509.258 178.202C509.106 178.056 508.924 177.944 508.713 177.864C508.509 177.783 508.283 177.743 508.036 177.743C507.752 177.743 507.494 177.794 507.261 177.896C507.036 177.998 506.839 178.144 506.672 178.333C506.512 178.515 506.385 178.733 506.29 178.988C506.203 179.235 506.159 179.512 506.159 179.817C506.159 180.123 506.206 180.403 506.301 180.658C506.396 180.905 506.527 181.12 506.694 181.302C506.861 181.477 507.065 181.615 507.305 181.717C507.545 181.811 507.811 181.859 508.102 181.859C508.451 181.859 508.756 181.786 509.018 181.64C509.287 181.495 509.52 181.269 509.717 180.964L510.415 181.488C510.139 181.881 509.808 182.179 509.422 182.383C509.036 182.586 508.593 182.688 508.091 182.688ZM515.381 182.535V179.293C515.381 178.799 515.279 178.42 515.075 178.158C514.879 177.889 514.588 177.754 514.202 177.754C513.788 177.754 513.449 177.896 513.187 178.18C512.933 178.464 512.805 178.835 512.805 179.293V182.535H511.922V177.078H512.805V177.918L512.762 177.907C512.929 177.587 513.151 177.343 513.428 177.176C513.711 177.008 514.035 176.925 514.399 176.925C514.835 176.925 515.203 177.038 515.501 177.263C515.806 177.489 516.021 177.813 516.145 178.235H515.905C516.094 177.813 516.352 177.489 516.679 177.263C517.007 177.038 517.389 176.925 517.825 176.925C518.123 176.925 518.389 176.976 518.622 177.078C518.855 177.179 519.051 177.325 519.211 177.514C519.378 177.703 519.506 177.936 519.593 178.213C519.68 178.489 519.724 178.799 519.724 179.141V182.535H518.84V179.293C518.84 178.799 518.738 178.42 518.535 178.158C518.338 177.889 518.047 177.754 517.662 177.754C517.247 177.754 516.909 177.896 516.647 178.18C516.392 178.464 516.265 178.835 516.265 179.293V182.535H515.381ZM520.95 181.062C520.95 180.538 521.154 180.119 521.561 179.807C521.976 179.486 522.583 179.308 523.383 179.272L525.042 179.195V179.938L523.449 180.014C522.918 180.043 522.518 180.141 522.248 180.309C521.979 180.469 521.845 180.702 521.845 181.007C521.845 181.284 521.947 181.502 522.15 181.662C522.361 181.815 522.638 181.891 522.98 181.891C523.234 181.891 523.467 181.848 523.678 181.76C523.896 181.673 524.082 181.553 524.235 181.4C524.395 181.247 524.518 181.069 524.606 180.865C524.7 180.662 524.747 180.443 524.747 180.21V179.13C524.747 178.686 524.62 178.34 524.365 178.093C524.118 177.845 523.773 177.722 523.329 177.722C522.987 177.722 522.689 177.798 522.434 177.951C522.187 178.104 521.99 178.333 521.845 178.639L521.103 178.267C521.292 177.838 521.583 177.507 521.976 177.274C522.368 177.041 522.827 176.925 523.351 176.925C523.693 176.925 524.002 176.976 524.278 177.078C524.562 177.179 524.802 177.321 524.998 177.503C525.195 177.685 525.348 177.907 525.457 178.169C525.566 178.424 525.62 178.711 525.62 179.032V182.535H524.747V181.247H524.944C524.769 181.713 524.5 182.07 524.136 182.317C523.78 182.565 523.347 182.688 522.838 182.688C522.27 182.688 521.812 182.543 521.463 182.252C521.121 181.953 520.95 181.557 520.95 181.062ZM527.278 177.078H528.162V182.535H527.278V177.078ZM527.725 175.91C527.9 175.91 528.045 175.851 528.162 175.735C528.285 175.611 528.347 175.462 528.347 175.287C528.347 175.113 528.285 174.967 528.162 174.851C528.045 174.727 527.9 174.665 527.725 174.665H527.714C527.54 174.665 527.391 174.727 527.267 174.851C527.151 174.967 527.092 175.113 527.092 175.287C527.092 175.462 527.151 175.611 527.267 175.735C527.391 175.851 527.54 175.91 527.714 175.91H527.725ZM530.709 182.535H529.825V174.654H530.709V182.535ZM534.085 179.381C534.085 179.847 534.049 180.305 533.976 180.756C533.904 181.207 533.791 181.648 533.638 182.077C533.493 182.506 533.311 182.918 533.092 183.31C532.874 183.711 532.616 184.089 532.318 184.446L531.674 183.933C532.161 183.263 532.543 182.561 532.82 181.826C533.096 181.091 533.234 180.276 533.234 179.381C533.234 178.486 533.096 177.671 532.82 176.936C532.543 176.201 532.161 175.498 531.674 174.829L532.318 174.316C532.616 174.672 532.874 175.051 533.092 175.451C533.311 175.844 533.493 176.255 533.638 176.685C533.791 177.107 533.904 177.543 533.976 177.995C534.049 178.446 534.085 178.908 534.085 179.381Z" fill="#101820"/>
<path d="M694.766 189.509H468.028C460.16 189.509 453.781 195.89 453.781 203.76C453.781 211.631 460.16 218.011 468.028 218.011H694.766C702.634 218.011 709.012 211.631 709.012 203.76C709.012 195.89 702.634 189.509 694.766 189.509Z" stroke="black"/>
<path d="M469.031 265.617V257.976H474.837V265.617H473.887V258.86H469.981V265.617H469.031ZM476.286 264.143C476.286 263.619 476.49 263.201 476.897 262.888C477.312 262.567 477.919 262.389 478.72 262.353L480.378 262.276V263.019L478.785 263.095C478.254 263.124 477.854 263.222 477.585 263.39C477.316 263.55 477.181 263.783 477.181 264.088C477.181 264.365 477.283 264.583 477.487 264.743C477.698 264.896 477.974 264.973 478.316 264.973C478.571 264.973 478.803 264.929 479.014 264.842C479.233 264.754 479.418 264.634 479.571 264.481C479.731 264.329 479.855 264.15 479.942 263.947C480.037 263.743 480.084 263.524 480.084 263.292V262.211C480.084 261.767 479.956 261.421 479.702 261.174C479.455 260.926 479.109 260.803 478.665 260.803C478.323 260.803 478.025 260.879 477.77 261.032C477.523 261.185 477.327 261.414 477.181 261.72L476.439 261.349C476.628 260.919 476.919 260.588 477.312 260.355C477.705 260.122 478.163 260.006 478.687 260.006C479.029 260.006 479.338 260.057 479.615 260.159C479.898 260.261 480.138 260.403 480.335 260.584C480.531 260.766 480.684 260.988 480.793 261.25C480.902 261.505 480.957 261.792 480.957 262.113V265.617H480.084V264.329H480.28C480.106 264.794 479.836 265.151 479.473 265.398C479.116 265.646 478.683 265.769 478.174 265.769C477.607 265.769 477.148 265.624 476.799 265.333C476.457 265.034 476.286 264.638 476.286 264.143ZM482.625 267.8V260.159H483.509V267.8H482.625ZM485.528 265.769C485.157 265.769 484.819 265.7 484.513 265.562C484.207 265.424 483.942 265.231 483.716 264.983C483.498 264.729 483.327 264.423 483.204 264.067C483.087 263.71 483.029 263.317 483.029 262.888C483.029 262.458 483.087 262.065 483.204 261.709C483.327 261.352 483.498 261.05 483.716 260.803C483.942 260.548 484.207 260.352 484.513 260.213C484.819 260.075 485.157 260.006 485.528 260.006C485.906 260.006 486.259 260.079 486.586 260.224C486.914 260.37 487.198 260.57 487.438 260.825C487.678 261.079 487.863 261.385 487.994 261.742C488.132 262.091 488.201 262.473 488.201 262.888C488.201 263.302 488.132 263.688 487.994 264.045C487.863 264.394 487.678 264.696 487.438 264.951C487.198 265.205 486.914 265.406 486.586 265.551C486.259 265.697 485.906 265.769 485.528 265.769ZM485.408 264.94C485.692 264.94 485.95 264.889 486.183 264.787C486.415 264.685 486.616 264.543 486.783 264.361C486.95 264.172 487.078 263.954 487.165 263.706C487.259 263.452 487.307 263.179 487.307 262.888C487.307 262.589 487.259 262.316 487.165 262.069C487.078 261.822 486.95 261.607 486.783 261.425C486.616 261.236 486.415 261.09 486.183 260.988C485.95 260.886 485.692 260.836 485.408 260.836C485.124 260.836 484.866 260.886 484.633 260.988C484.4 261.09 484.2 261.236 484.033 261.425C483.866 261.607 483.735 261.822 483.64 262.069C483.553 262.316 483.509 262.589 483.509 262.888C483.509 263.179 483.553 263.452 483.64 263.706C483.735 263.954 483.866 264.172 484.033 264.361C484.2 264.543 484.4 264.685 484.633 264.787C484.866 264.889 485.124 264.94 485.408 264.94ZM492.061 265.769C491.646 265.769 491.268 265.697 490.926 265.551C490.584 265.406 490.286 265.205 490.031 264.951C489.784 264.689 489.591 264.383 489.453 264.034C489.315 263.677 489.245 263.295 489.245 262.888C489.245 262.48 489.315 262.102 489.453 261.752C489.591 261.396 489.784 261.09 490.031 260.836C490.286 260.574 490.584 260.37 490.926 260.224C491.268 260.079 491.646 260.006 492.061 260.006C492.476 260.006 492.854 260.079 493.196 260.224C493.538 260.37 493.832 260.574 494.08 260.836C494.334 261.09 494.531 261.396 494.669 261.752C494.807 262.102 494.876 262.48 494.876 262.888C494.876 263.295 494.807 263.677 494.669 264.034C494.531 264.383 494.334 264.689 494.08 264.951C493.832 265.205 493.538 265.406 493.196 265.551C492.854 265.697 492.476 265.769 492.061 265.769ZM492.061 264.94C492.345 264.94 492.603 264.889 492.836 264.787C493.076 264.685 493.279 264.543 493.447 264.361C493.614 264.172 493.745 263.954 493.84 263.706C493.934 263.452 493.981 263.179 493.981 262.888C493.981 262.589 493.934 262.316 493.84 262.069C493.745 261.822 493.614 261.607 493.447 261.425C493.279 261.236 493.076 261.09 492.836 260.988C492.603 260.886 492.345 260.836 492.061 260.836C491.777 260.836 491.515 260.886 491.275 260.988C491.042 261.09 490.842 261.236 490.675 261.425C490.508 261.607 490.377 261.822 490.282 262.069C490.188 262.316 490.14 262.589 490.14 262.888C490.14 263.179 490.188 263.452 490.282 263.706C490.377 263.954 490.508 264.172 490.675 264.361C490.842 264.543 491.042 264.685 491.275 264.787C491.515 264.889 491.777 264.94 492.061 264.94ZM495.528 265.638V264.787H495.659C495.848 264.787 496.005 264.747 496.128 264.667C496.252 264.587 496.346 264.449 496.412 264.252C496.485 264.048 496.536 263.779 496.565 263.444C496.594 263.102 496.608 262.677 496.608 262.167V260.159H500.57V265.617H499.686V260.977H497.481V262.386C497.481 262.982 497.449 263.488 497.383 263.903C497.325 264.318 497.227 264.656 497.088 264.918C496.958 265.173 496.779 265.358 496.554 265.475C496.336 265.584 496.066 265.638 495.746 265.638H495.528ZM503.063 264.842H504.482C504.831 264.842 505.104 264.743 505.3 264.547C505.497 264.35 505.595 264.099 505.595 263.794C505.595 263.488 505.497 263.241 505.3 263.051C505.104 262.862 504.831 262.768 504.482 262.768H503.063V264.842ZM504.558 265.617H502.223V260.159H503.063V261.993H504.547C504.831 261.993 505.089 262.036 505.322 262.124C505.555 262.211 505.755 262.335 505.922 262.495C506.09 262.655 506.217 262.848 506.304 263.073C506.399 263.292 506.446 263.535 506.446 263.805C506.446 264.067 506.399 264.31 506.304 264.536C506.217 264.754 506.09 264.943 505.922 265.104C505.762 265.264 505.566 265.391 505.333 265.486C505.1 265.573 504.842 265.617 504.558 265.617Z" fill="#5C5C5C"/>
<path d="M469.031 240.753V233.112H474.837V240.753H473.887V233.996H469.981V240.753H469.031ZM476.286 239.279C476.286 238.755 476.49 238.337 476.897 238.024C477.312 237.704 477.919 237.525 478.72 237.489L480.378 237.413V238.155L478.785 238.231C478.254 238.26 477.854 238.359 477.585 238.526C477.316 238.686 477.181 238.919 477.181 239.225C477.181 239.501 477.283 239.719 477.487 239.88C477.698 240.032 477.974 240.109 478.316 240.109C478.571 240.109 478.803 240.065 479.014 239.978C479.233 239.89 479.418 239.77 479.571 239.618C479.731 239.465 479.855 239.286 479.942 239.083C480.037 238.879 480.084 238.661 480.084 238.428V237.347C480.084 236.903 479.956 236.558 479.702 236.31C479.455 236.063 479.109 235.939 478.665 235.939C478.323 235.939 478.025 236.015 477.77 236.168C477.523 236.321 477.327 236.55 477.181 236.856L476.439 236.485C476.628 236.055 476.919 235.724 477.312 235.491C477.705 235.259 478.163 235.142 478.687 235.142C479.029 235.142 479.338 235.193 479.615 235.295C479.898 235.397 480.138 235.539 480.335 235.721C480.531 235.903 480.684 236.125 480.793 236.387C480.902 236.641 480.957 236.929 480.957 237.249V240.753H480.084V239.465H480.28C480.106 239.931 479.836 240.287 479.473 240.535C479.116 240.782 478.683 240.906 478.174 240.906C477.607 240.906 477.148 240.76 476.799 240.469C476.457 240.171 476.286 239.774 476.286 239.279ZM482.625 242.936V235.295H483.509V242.936H482.625ZM485.528 240.906C485.157 240.906 484.819 240.837 484.513 240.698C484.207 240.56 483.942 240.367 483.716 240.12C483.498 239.865 483.327 239.559 483.204 239.203C483.087 238.846 483.029 238.453 483.029 238.024C483.029 237.595 483.087 237.202 483.204 236.845C483.327 236.488 483.498 236.186 483.716 235.939C483.942 235.684 484.207 235.488 484.513 235.35C484.819 235.211 485.157 235.142 485.528 235.142C485.906 235.142 486.259 235.215 486.586 235.36C486.914 235.506 487.198 235.706 487.438 235.961C487.678 236.216 487.863 236.521 487.994 236.878C488.132 237.227 488.201 237.609 488.201 238.024C488.201 238.439 488.132 238.824 487.994 239.181C487.863 239.53 487.678 239.832 487.438 240.087C487.198 240.342 486.914 240.542 486.586 240.687C486.259 240.833 485.906 240.906 485.528 240.906ZM485.408 240.076C485.692 240.076 485.95 240.025 486.183 239.923C486.415 239.821 486.616 239.679 486.783 239.498C486.95 239.308 487.078 239.09 487.165 238.843C487.259 238.588 487.307 238.315 487.307 238.024C487.307 237.726 487.259 237.453 487.165 237.205C487.078 236.958 486.95 236.743 486.783 236.561C486.616 236.372 486.415 236.226 486.183 236.125C485.95 236.023 485.692 235.972 485.408 235.972C485.124 235.972 484.866 236.023 484.633 236.125C484.4 236.226 484.2 236.372 484.033 236.561C483.866 236.743 483.735 236.958 483.64 237.205C483.553 237.453 483.509 237.726 483.509 238.024C483.509 238.315 483.553 238.588 483.64 238.843C483.735 239.09 483.866 239.308 484.033 239.498C484.2 239.679 484.4 239.821 484.633 239.923C484.866 240.025 485.124 240.076 485.408 240.076ZM492.061 240.906C491.646 240.906 491.268 240.833 490.926 240.687C490.584 240.542 490.286 240.342 490.031 240.087C489.784 239.825 489.591 239.519 489.453 239.17C489.315 238.813 489.245 238.431 489.245 238.024C489.245 237.616 489.315 237.238 489.453 236.889C489.591 236.532 489.784 236.226 490.031 235.972C490.286 235.71 490.584 235.506 490.926 235.36C491.268 235.215 491.646 235.142 492.061 235.142C492.476 235.142 492.854 235.215 493.196 235.36C493.538 235.506 493.832 235.71 494.08 235.972C494.334 236.226 494.531 236.532 494.669 236.889C494.807 237.238 494.876 237.616 494.876 238.024C494.876 238.431 494.807 238.813 494.669 239.17C494.531 239.519 494.334 239.825 494.08 240.087C493.832 240.342 493.538 240.542 493.196 240.687C492.854 240.833 492.476 240.906 492.061 240.906ZM492.061 240.076C492.345 240.076 492.603 240.025 492.836 239.923C493.076 239.821 493.279 239.679 493.447 239.498C493.614 239.308 493.745 239.09 493.84 238.843C493.934 238.588 493.981 238.315 493.981 238.024C493.981 237.726 493.934 237.453 493.84 237.205C493.745 236.958 493.614 236.743 493.447 236.561C493.279 236.372 493.076 236.226 492.836 236.125C492.603 236.023 492.345 235.972 492.061 235.972C491.777 235.972 491.515 236.023 491.275 236.125C491.042 236.226 490.842 236.372 490.675 236.561C490.508 236.743 490.377 236.958 490.282 237.205C490.188 237.453 490.14 237.726 490.14 238.024C490.14 238.315 490.188 238.588 490.282 238.843C490.377 239.09 490.508 239.308 490.675 239.498C490.842 239.679 491.042 239.821 491.275 239.923C491.515 240.025 491.777 240.076 492.061 240.076ZM495.528 240.775V239.923H495.659C495.848 239.923 496.005 239.883 496.128 239.803C496.252 239.723 496.346 239.585 496.412 239.388C496.485 239.185 496.536 238.915 496.565 238.581C496.594 238.239 496.608 237.813 496.608 237.303V235.295H500.57V240.753H499.686V236.114H497.481V237.522C497.481 238.119 497.449 238.624 497.383 239.039C497.325 239.454 497.227 239.792 497.088 240.054C496.958 240.309 496.779 240.494 496.554 240.611C496.336 240.72 496.066 240.775 495.746 240.775H495.528ZM503.063 239.978H504.482C504.831 239.978 505.104 239.88 505.3 239.683C505.497 239.487 505.595 239.236 505.595 238.93C505.595 238.624 505.497 238.377 505.3 238.188C505.104 237.998 504.831 237.904 504.482 237.904H503.063V239.978ZM504.558 240.753H502.223V235.295H503.063V237.129H504.547C504.831 237.129 505.089 237.172 505.322 237.26C505.555 237.347 505.755 237.471 505.922 237.631C506.09 237.791 506.217 237.984 506.304 238.209C506.399 238.428 506.446 238.672 506.446 238.941C506.446 239.203 506.399 239.447 506.304 239.672C506.217 239.89 506.09 240.08 505.922 240.24C505.762 240.4 505.566 240.527 505.333 240.622C505.1 240.709 504.842 240.753 504.558 240.753Z" fill="#101820"/>
<path d="M695.367 247.727H468.63C460.761 247.727 454.383 254.107 454.383 261.978C454.383 269.848 460.761 276.229 468.63 276.229H695.367C703.236 276.229 709.614 269.848 709.614 261.978C709.614 254.107 703.236 247.727 695.367 247.727Z" stroke="black"/>
<path d="M695.367 337.479H468.63C460.761 337.479 454.383 343.859 454.383 351.73C454.383 359.6 460.761 365.981 468.63 365.981H695.367C703.236 365.981 709.614 359.6 709.614 351.73C709.614 343.859 703.236 337.479 695.367 337.479Z" fill="#A77BCA" stroke="#A77BCA"/>
<path d="M567.805 347.727H570.926C571.268 347.727 571.577 347.774 571.853 347.869C572.137 347.956 572.377 348.087 572.573 348.262C572.777 348.436 572.934 348.644 573.043 348.884C573.152 349.124 573.206 349.397 573.206 349.703C573.206 350.132 573.094 350.496 572.868 350.794C572.643 351.093 572.319 351.304 571.897 351.427L571.908 351.307C572.439 351.424 572.839 351.649 573.108 351.984C573.377 352.319 573.512 352.737 573.512 353.239C573.512 353.56 573.454 353.851 573.337 354.113C573.228 354.375 573.068 354.6 572.857 354.789C572.653 354.971 572.399 355.113 572.093 355.215C571.795 355.317 571.46 355.368 571.089 355.368H567.805V347.727ZM569.103 350.871H570.817C571.129 350.871 571.384 350.78 571.58 350.598C571.777 350.416 571.875 350.176 571.875 349.877C571.875 349.586 571.777 349.35 571.58 349.168C571.384 348.986 571.129 348.895 570.817 348.895H569.103V350.871ZM569.103 352.017V354.2H571.002C571.351 354.2 571.635 354.102 571.853 353.905C572.071 353.701 572.181 353.432 572.181 353.097C572.181 352.77 572.071 352.508 571.853 352.312C571.635 352.115 571.351 352.017 571.002 352.017H569.103ZM577.26 355.521C576.838 355.521 576.449 355.448 576.093 355.302C575.744 355.157 575.442 354.957 575.187 354.702C574.932 354.447 574.732 354.145 574.587 353.796C574.449 353.439 574.379 353.054 574.379 352.639C574.379 352.224 574.449 351.842 574.587 351.493C574.732 351.136 574.932 350.831 575.187 350.576C575.442 350.321 575.744 350.121 576.093 349.976C576.449 349.83 576.838 349.757 577.26 349.757C577.682 349.757 578.068 349.83 578.417 349.976C578.766 350.121 579.068 350.325 579.323 350.587C579.577 350.842 579.774 351.144 579.912 351.493C580.058 351.842 580.13 352.224 580.13 352.639C580.13 353.054 580.058 353.436 579.912 353.785C579.774 354.134 579.577 354.44 579.323 354.702C579.068 354.957 578.766 355.157 578.417 355.302C578.068 355.448 577.682 355.521 577.26 355.521ZM577.26 354.375C577.493 354.375 577.708 354.331 577.904 354.244C578.101 354.156 578.272 354.036 578.417 353.883C578.563 353.723 578.675 353.538 578.755 353.327C578.835 353.116 578.875 352.886 578.875 352.639C578.875 352.384 578.835 352.155 578.755 351.951C578.675 351.74 578.563 351.558 578.417 351.406C578.272 351.245 578.101 351.122 577.904 351.034C577.708 350.947 577.493 350.903 577.26 350.903C577.02 350.903 576.802 350.947 576.606 351.034C576.409 351.122 576.238 351.245 576.093 351.406C575.955 351.558 575.845 351.74 575.765 351.951C575.685 352.155 575.645 352.384 575.645 352.639C575.645 352.886 575.685 353.116 575.765 353.327C575.845 353.538 575.955 353.723 576.093 353.883C576.238 354.036 576.409 354.156 576.606 354.244C576.802 354.331 577.02 354.375 577.26 354.375ZM582.515 349.91V353.567L584.937 349.91H586.17V355.368H584.926V351.711L582.515 355.368H581.271V349.91H582.515ZM583.715 348.906C584.268 348.906 584.719 348.757 585.068 348.458C585.417 348.16 585.618 347.745 585.668 347.214H584.61C584.574 347.469 584.475 347.661 584.315 347.792C584.155 347.923 583.955 347.989 583.715 347.989C583.475 347.989 583.275 347.923 583.115 347.792C582.955 347.661 582.86 347.469 582.831 347.214H581.773C581.824 347.745 582.02 348.16 582.362 348.458C582.704 348.757 583.155 348.906 583.715 348.906ZM591.78 349.91V351.034H590.056V355.368H588.823V351.034H587.099V349.91H591.78ZM593.939 349.91V353.567L596.361 349.91H597.595V355.368H596.351V351.711L593.939 355.368H592.695V349.91H593.939Z" fill="white"/>
</g>
<defs>
<clipPath id="clip0_189_1193">
<rect width="1164" height="547" fill="white"/>
</clipPath>
</defs>
</svg>
